<?xml version="1.0" encoding="utf-8"?>
<!-- Generator: Adobe Illustrator 21.0.0, SVG Export Plug-In . SVG Version: 6.00 Build 0)  -->
<svg version="1.1" xmlns="http://www.w3.org/2000/svg" xmlns:xlink="http://www.w3.org/1999/xlink" x="0px" y="0px"
	 viewBox="0 0 606 424" style="enable-background:new 0 0 606 424;" xml:space="preserve">
<style type="text/css">
	.st0{opacity:0.7;fill:#DEE4FF;}
	.st1{clip-path:url(#SVGID_2_);}
	.st2{fill:none;stroke:#A1B3FF;stroke-miterlimit:10;stroke-dasharray:2;}
	.st3{fill:#FFC1AC;}
	.st4{fill:#FFB84D;}
	.st5{fill:#FFC773;}
	.st6{fill:#6785FF;}
	.st7{fill:none;stroke:#AD6800;stroke-miterlimit:10;stroke-dasharray:1;}
	.st8{fill:#476CFF;}
	.st9{fill:#FFB9A1;}
	.st10{fill:#FFB296;}
	.st11{fill:#1F2F6D;}
	.st12{fill:none;stroke:#BF826D;stroke-linecap:round;stroke-linejoin:round;stroke-miterlimit:10;}
	.st13{fill:none;stroke:#1F2F6D;stroke-width:1.5;stroke-linecap:round;stroke-linejoin:round;stroke-miterlimit:10;}
	.st14{fill:none;stroke:#BF826D;stroke-width:0.5;stroke-linecap:round;stroke-linejoin:round;stroke-miterlimit:10;}
	.st15{fill:#867575;}
	.st16{fill:#756666;}
	.st17{fill:none;stroke:#FFFFFF;stroke-linecap:round;stroke-linejoin:round;stroke-miterlimit:10;}
	.st18{fill:#AB7461;}
	.st19{fill:#A1B3FF;}
	.st20{fill:none;stroke:#FFFFFF;stroke-width:0.25;stroke-linecap:round;stroke-linejoin:round;stroke-miterlimit:10;}
	.st21{fill:#FFFFFF;}
	.st22{clip-path:url(#SVGID_4_);}
	.st23{fill:#EE704F;}
	.st24{fill:#4DC7B8;}
	.st25{fill:none;stroke:#DE7357;stroke-width:0.75;stroke-linecap:round;stroke-linejoin:round;stroke-miterlimit:10;}
	.st26{fill:#855A4C;}
	.st27{fill:#EE8063;}
	.st28{fill:#35B0A1;}
	.st29{fill:none;stroke:#FFFFFF;stroke-width:0.75;stroke-linecap:round;stroke-linejoin:round;stroke-miterlimit:10;}
	.st30{opacity:0.8;fill:none;stroke:#DEE4FF;stroke-miterlimit:10;}
	.st31{fill:#F2A446;}
	.st32{fill:none;stroke:#41A89B;stroke-width:0.5;stroke-linecap:round;stroke-linejoin:round;stroke-miterlimit:10;}
	.st33{fill:#263A87;}
	.st34{fill:none;stroke:#1F2F6D;stroke-miterlimit:10;}
	.st35{fill:#5A6CB8;}
</style>
<g id="Layer_6">
	<path class="st0" d="M37.2,163c-0.2-2.5-0.4-4.9-0.5-7.3c-5.4-67.9,34.6-107.3,89-119.6c15.4-3.5,28-4.2,42.9,2
		c18.9,7.9,38.7,9.4,57.9,2c21.1-8.2,39.2-21.1,62.4-20.2c32.9,1.3,64,18.3,93.2,34.8c25.7,14.5,50.5,19.1,77,4.8
		c37.2-20.1,93,15.3,72.5,66.5c-8.3,20.7-21.5,46.5-10.8,69.5c9.2,19.8,33.6,29.4,46.6,46c14.3,18.4,25.3,43,22.2,68.5
		c-6.8,55.8-73.3,78.9-113.4,85.3c-23.8,3.8-50.9,2.7-72.4-10.9c-18.2-11.5-31.9-32.1-52.6-38.2c-30.5-9-56.6,29.1-82.3,41.9
		c-28.6,14.1-63.7,20.1-87.2-8.9c-18.9-23.4-18.9-75.9-49.5-84.8c-17.4-5-35.3,0.4-52.1-9C42.7,264.4,40.3,206.1,37.2,163z"/>
</g>
<g id="Layer_5">
	<g>
		<g>
			<defs>
				<path id="SVGID_1_" d="M37.2,163c-0.2-2.5-0.4-4.9-0.5-7.3c-5.4-67.9,34.6-107.3,89-119.6c15.4-3.5,28-4.2,42.9,2
					c18.9,7.9,38.7,9.4,57.9,2c21.1-8.2,39.2-21.1,62.4-20.2c32.9,1.3,64,18.3,93.2,34.8c25.7,14.5,50.5,19.1,77,4.8
					c37.2-20.1,93,15.3,72.5,66.5c-8.3,20.7-21.5,46.5-10.8,69.5c9.2,19.8,33.6,29.4,46.6,46c14.3,18.4,25.3,43,22.2,68.5
					c-6.8,55.8-73.3,78.9-113.4,85.3c-23.8,3.8-50.9,2.7-72.4-10.9c-18.2-11.5-31.9-32.1-52.6-38.2c-30.5-9-56.6,29.1-82.3,41.9
					c-28.6,14.1-63.7,20.1-87.2-8.9c-18.9-23.4-18.9-75.9-49.5-84.8c-17.4-5-35.3,0.4-52.1-9C42.7,264.4,40.3,206.1,37.2,163z"/>
			</defs>
			<clipPath id="SVGID_2_">
				<use xlink:href="#SVGID_1_"  style="overflow:visible;"/>
			</clipPath>
			<g class="st1">
				<g>
					<path class="st2" d="M150.8,206.3c14.2-7.9,23.9,20.2,24.6,29.8c1,13.8-22.5,31.9-30.3,41.4c-5.7,6.9-16.4,20.2-15,29.8
						c1.6,11.3,15.6,11.3,24.1,8.7c6.2-1.9,27.1-22,9.5-21.3c-14.1,0.5-16.1,21.6-12.3,31.1c8.1,20,29.5,7.2,42.9,0.9
						c37.4-17.5,33.2,22.7,59.1,34.2c12.1,5.3,48.6,9.7,51.8-10.6"/>
					<path class="st2" d="M153,71.1c-0.2,25.4-2,53,10.6,76.1c7.4,13.5,22.4,25.7,38.6,23.1c16.7-2.6,24.6-21.1,19.2-36.6
						c-5.6-16-21.5-12.7-25.6,3.3c-6.6,25.8,55,30,47,1.5c-3-10.8-14.3-22-10.7-33.3c4.7-14.6,27.8-19.3,41.3-18.1
						c7.4,0.6,15.2,3.8,19.4,10.3c4.7,7.2,1.7,12.2,1.4,19.8c-0.6,16.7,20.1,24.3,34.1,25.4c7.7,0.6,18.1-0.2,24.6-4.8
						c6.4-4.5,5.6-11.4,9.5-17.4c9.1-13.9,28.8-9.5,42.2-6.5c15.4,3.5,36,14.4,35.6,32.7c-0.3,16.4-11.5,32.4-12,49.2
						c-0.5,19.5,16.3,23.5,29.3,33.9c11.7,9.4,21.4,24.3,11.3,38.3c-19.6,27-65.3,12.9-85.9-5.4c-8.5-7.6-24.6-15.3-31.9-2
						c-7.1,12.9-0.6,25.9,12.1,31.7c13,6,19.3,8.3,27.5,21c10.2,15.8-5.1,21.4-18.8,22c-6.6,0.3-13.7,2.2-19.8-0.8
						c-7.3-3.5-8.1-9.2,0.1-11.7c8.4-2.6,34.4,5.8,32.2,17.3c-1.7,8.9-22.1,14.5-29,17.7c-10.2,4.6-21.5,0.6-31.3,4.3
						c-14.7,5.6-2.2,18.9,6.5,22.6c11.2,4.8,23.8,9.1,35.7,10.9"/>
				</g>
				<g>
					<circle class="st3" cx="258.4" cy="119.7" r="10.1"/>
					<circle class="st3" cx="317.1" cy="119.7" r="10.1"/>
					<path class="st4" d="M284.6,340.1c0.4-2.1,1-4.2,1.9-6.2l-38.8-1.8c0,0-16.7,34.8-12.9,63.5h49.4
						C284.7,377.6,280.9,358.6,284.6,340.1z"/>
					<path class="st5" d="M335.3,336.1l-48.8-2.2c-0.9,2-1.5,4-1.9,6.2c-3.7,18.5,0.1,37.5-0.4,55.5h65.4
						C349.6,395.6,348.7,363.6,335.3,336.1z"/>
					<path class="st6" d="M245.8,209l33.5-29.2h24.1l23.5,32.9c0,0,16,41.7,20,151.1c0,0-77.8,20.6-112.8,0
						c8.5-77.2,10.7-147.5,10.7-147.5L245.8,209z"/>
					<path class="st7" d="M287.8,363.1L287.8,363.1c3.2,0,5.6,2.1,5.6,4.8v17.4c0,2.6-2.3,4.8-5.6,4.8l0,0c-1.4,0-2.7-0.4-3.6-1.1"
						/>
					<path class="st3" d="M268.6,188.3c-1.5,3.2-8,6.8-10.7,9.3c-3.5,3.2-7,6.5-10.3,9.9c-6.8,7-13.2,14.5-19,22.5
						c-9.2,12.6-17,26.1-22.3,40.9c-5.1,14.1-10.5,34.1,4.3,44.1c9.6,6.5,23.9,8.5,35.2,9.4c1.3,0.1,19.5,0.3,19.5,0.3
						c0,0-4.2-9.9-4.2-9.9c-6.6-3.8-13.3-7.2-20.1-10.5c-5.3-2.6-12.9-5.9-11.5-13.5c1.2-7,10.6-28,13.8-34.2c3.3-6.5,3.1,0.9,5.4-6
						C248.6,250.4,268.5,188.3,268.6,188.3z"/>
					<path class="st8" d="M340.3,278.2c-3.8-4.6-7-9.6-11.1-13.9c2.8,22,3.3,47.3,4.6,82.4c0,0-34.6,17.4-99,11.9
						c-0.6,5.3,0,0-0.6,5.3c34.9,20.6,112.8,0,112.8,0C345.7,328.5,343.1,300.3,340.3,278.2z"/>
					<path class="st3" d="M309.2,188c1.6,3.1,8.2,6.5,10.9,8.8c3.6,3,7.2,6.2,10.6,9.4c7,6.7,13.7,13.9,19.7,21.6
						c9.6,12.2,17.8,25.3,23.7,39.8c5.6,13.8,11.7,33.6-2.6,44.3c-9.3,6.9-23.4,9.6-34.6,11c-1.3,0.2-17,1-17,1.1c0,0,1.4-10,1.4-10
						c6.4-4.1,12.9-7.8,19.6-11.5c5.2-2.9,12.6-6.5,11-14c-1.5-6.9-11.4-26.4-14.8-32.5c-3.5-6.3-3.3,0-5.7-6.8
						C331.3,249.1,309.2,188.1,309.2,188z"/>
					<path class="st6" d="M343.2,269.3L322.4,243c0,0-13.2-54.9-13.2-55c25.7,6.9,42,23.7,52.4,41.4
						C356,252.8,343.2,269.3,343.2,269.3z"/>
					<path class="st9" d="M278.2,141.8l-9.4,47.4c0,0,21,41.9,41.1-1.2l-11.3-46.1H278.2z"/>
					<path class="st10" d="M298.6,141.8h-20.4l-9.3,46.9c10.8-8.4,24.5-14.9,36.2-20.3L298.6,141.8z"/>
					<path class="st3" d="M317.9,133.9c0,16.6-13.5,30.1-30.1,30.1l0,0c-16.6,0-30.1-13.5-30.1-30.1v-31.7
						c0-16.6,13.5-30.1,30.1-30.1l0,0c16.6,0,30.1,13.5,30.1,30.1V133.9z"/>
					<g>
						<path class="st11" d="M303,70.5c5.8,4.3,11.1,9.2,12.3,10.7c4.9,5.9-1.2,9.6-6.1,11.4c-3.2,1.2-6.6,2-10,2.6
							c-3.6,0.6-7.1,2.4-9.3-1.2c-1.5-2.4,0.4-5.2-4.1-4.4c-5.5,1-13.2,10.9-17.5,3.8c-1.3-2.2-1.2-5.5-3.5-7
							c-2.6-1.6-6.5,0.4-9.2,0.8c-5.2,0.8-10.8-2-5.3-7.1c4.4-4.1,10.6-3.8,15.5-6.3c-6.4-2.2,3.1-5.9,5.6-6
							c4.5-0.3,9.1,0.4,13.6,0.6C285.1,59.5,294.6,64.3,303,70.5z"/>
					</g>
					<path class="st11" d="M311.8,90.3c0.8,4.2,4.3,25,4.3,25c2.7-9.2,7.4-20.1,4.2-29.6c-0.6-1.8-2.2-3.8-4.5-4.4
						c-2.7-0.7-4.3,1.1-4.4,3.2C311.2,86.4,311.4,88.4,311.8,90.3z"/>
					<path class="st11" d="M264.7,90.4c-1,4.5-5.2,27.6-4.9,26.4c-3.1-9.8-8.5-21.2-4.8-31.3c0.7-1.9,2.5-4,5.2-4.6
						c3.1-0.8,4.9,1.2,5.1,3.4C265.4,86.3,265.1,88.4,264.7,90.4z"/>
					<path class="st12" d="M286.5,114.4c0,0,1.1,5.7-3,20.5c0,0,4.4,2.7,9.7,0"/>
					<circle cx="298.9" cy="116.7" r="1.9"/>
					<path class="st8" d="M327,231c0,0-3.8-13.3,2.2,33.2c4,4.3,7.3,9.3,11.1,13.9C334.3,231.9,327,231,327,231z"/>
					<circle cx="276.7" cy="116.7" r="1.9"/>
					<path class="st13" d="M269.5,113c0,0,2.6-4,8.2-4.6"/>
					<path class="st13" d="M304.7,113c0,0-2.6-4-8.2-4.6"/>
					<path class="st12" d="M283.5,146.5c0,0,13.5,5.2,21.2-9"/>
					<line class="st12" x1="304.4" y1="136.2" x2="306.2" y2="137.3"/>
					<path class="st3" d="M271.6,312.6c-4.9,5.6-10,8.9-11.5,7.3c-1.5-1.6,1.3-7.4,6.2-13c4.9-5.6,10-8.9,11.5-7.3
						C279.2,301.2,276.5,307,271.6,312.6z"/>
					<path class="st14" d="M298.9,150c1-0.5,2.9-1.9,3.8-2.9"/>
					<path class="st3" d="M312.4,312.6c4.9,5.6,10,8.9,11.5,7.3c1.5-1.6-1.3-7.4-6.2-13c-4.9-5.6-10-8.9-11.5-7.3
						C304.8,301.2,307.5,307,312.4,312.6z"/>
					<g>
						<path class="st15" d="M309,331.3c0,1.2-1.9,2.4-3.8,2.4h-19.4c-1.9,0-3.9-1.5-3.9-2.7l-8.7-39c0-1.2,1.5-2.7,3.4-2.7h34.5
							c1.9,0,3.4,1.4,3.4,2.7L309,331.3z"/>
						<path class="st16" d="M311.4,290.1L283,332.8c0.8,0.6,1.8,0.9,2.8,0.9h19.4c1.9,0,3.8-1.2,3.8-2.4l5.5-38.9
							C314.5,291.2,313.1,290.2,311.4,290.1z"/>
					</g>
					<path class="st3" d="M289.4,318.2c0,9.9-6.6,9.9-14.7,9.9c-8.1,0-14.7-4.4-14.7-9.9c0-5.5,6.6-9.9,14.7-9.9
						C282.8,308.3,289.4,312.7,289.4,318.2z"/>
					<path class="st3" d="M294.6,318.2c0,9.9,6.6,9.9,14.7,9.9c8.1,0,14.7-4.4,14.7-9.9c0-5.5-6.6-9.9-14.7-9.9
						C301.2,308.3,294.6,312.7,294.6,318.2z"/>
					<path class="st6" d="M237.9,270.9l19.7-27.2c0,0,11.3-55.6,11.3-55.7c-25.4,7.9-41.4,25.6-51,43.7
						C223.4,249.5,237.9,270.9,237.9,270.9z"/>
					<path d="M248.1,336.1"/>
					<path class="st17" d="M250.9,234.4c0,0-5,10.6-9,27.6"/>
					<path class="st17" d="M329.5,234.4c0,0,6.3,11.2,10.9,28.9"/>
					<path class="st18" d="M256.3,118.2c-0.7-0.2-1.4,0.2-2,0.9c0-0.4,0-0.8,0-1.3c0-1.5,0.9-2.8,2.1-2.8c0.4,0,0.8-0.4,0.8-0.8
						s-0.4-0.8-0.8-0.8c-2,0-3.6,2-3.6,4.4c0,2.8,0.4,4.2,1.5,4.5c0.1,0,0.3,0.1,0.4,0.1c0.6,0,1.2-0.5,1.7-1.1c0,0,0,0.1,0,0.1
						c0,1.6-1,2.8-2.1,2.8c-0.4,0-0.8,0.4-0.8,0.8c0,0.4,0.4,0.8,0.8,0.8c2,0,3.6-1.9,3.6-4.4C257.9,119.1,257,118.4,256.3,118.2z"
						/>
					<path class="st18" d="M319.2,118.2c0.7-0.2,1.4,0.2,2,0.9c0-0.4,0-0.8,0-1.3c0-1.5-0.9-2.8-2.1-2.8c-0.4,0-0.8-0.4-0.8-0.8
						s0.4-0.8,0.8-0.8c2,0,3.6,2,3.6,4.4c0,2.8-0.4,4.2-1.5,4.5c-0.1,0-0.3,0.1-0.4,0.1c-0.6,0-1.2-0.5-1.7-1.1c0,0,0,0.1,0,0.1
						c0,1.6,1,2.8,2.1,2.8c0.4,0,0.8,0.4,0.8,0.8c0,0.4-0.4,0.8-0.8,0.8c-2,0-3.6-1.9-3.6-4.4C317.7,119.1,318.5,118.4,319.2,118.2z
						"/>
					<path class="st19" d="M224.6,218.7c0,0-5.6,5.8-7.4,11.1c0,0,5.9,30.3,21.5,42.2c0,0,6.3-5.8,7.3-10.5
						C246,261.5,230.4,238.4,224.6,218.7z"/>
					<path class="st19" d="M356,218.7c0,0,5.6,5.8,7.4,11.1c0,0-5.9,30.3-21.5,42.2c0,0-6.3-5.8-7.3-10.5
						C334.6,261.5,350.2,238.4,356,218.7z"/>
					<g>
						<path class="st19" d="M290.6,207.9c-2.6,0.3-5.3,0-8.1-1.2c-4.8-2-8.5-5.3-11.9-9.1c-1.2-1.3-4.5-4.9-5.8-8.1
							c-0.9-2.1,3.4-5.5,4.3-4.7c1.3,1.1,5.8,7.5,7.7,9.4c6.9,7,15.7,7.9,23.4,2.2c3-2.2,6.5-6,8.7-9.1c1.9-2.5,7.3,3,1.7,8.6
							C305.4,201.2,298.3,207.1,290.6,207.9z"/>
					</g>
					<line class="st20" x1="312" y1="91.4" x2="315.3" y2="81.2"/>
				</g>
				<g>
					<path class="st21" d="M450,215.2c-3.1-35.7-34.6-62.1-70.3-59c-35.7,3.1-62.1,34.6-59,70.3c0.2,2.8,0.7,5.5,1.2,8.1l-9.9,29.7
						c-2,6.1,2.3,12.5,8.7,12.8l35.9,2c10.3,5,22,7.4,34.2,6.4C426.7,282.4,453.1,250.9,450,215.2z"/>
					<g>
						<defs>
							<path id="SVGID_3_" d="M450,215.2c-3.1-35.7-34.6-62.1-70.3-59c-35.7,3.1-62.1,34.6-59,70.3c0.2,2.8,0.7,5.5,1.2,8.1
								L308,276.4l48.7,2.7c10.3,5,22,7.4,34.2,6.4C426.7,282.4,453.1,250.9,450,215.2z"/>
						</defs>
						<clipPath id="SVGID_4_">
							<use xlink:href="#SVGID_3_"  style="overflow:visible;"/>
						</clipPath>
						<g class="st22">
							<g>
								<polygon class="st3" points="352.1,205 346.9,215.9 342.1,209.9 349.9,199.9 								"/>
								<g>
									<path class="st3" d="M356.1,197.4c-4.1,3.1-6.8,6.4-5.9,7.4c0.9,1,5-0.8,9.1-3.9c4.1-3.1,6.8-6.4,5.9-7.4
										C364.3,192.6,360.2,194.3,356.1,197.4z"/>
									<path class="st3" d="M354.7,182.3c-6.4-0.8-8.6,12.9-8.6,12.9c-0.7,5.3,2.1,10.5,3.9,10.8c2.2,0.4,8.8-5.3,9.2-10.6
										C359.4,193.6,358.3,182.7,354.7,182.3z"/>
								</g>
								<path class="st23" d="M363.4,219.4c1.1,0,3.4-11.9,3.7-12.9c3.6-14,6.6-35.8,22.6-40.5c4.9-1.4,11.2-0.6,15.2,2.8
									c6.1,5.2,9.3,12.8,12.6,20c3.1,6.9,8.8,25.8,10.3,26.3c-0.6-0.2-14,8.7-17.7,10.4c-11.6,5.6-20.5,5.6-35.5-1.3
									C371.4,222.7,366.9,219.3,363.4,219.4z"/>
								<path class="st24" d="M390.8,229h11.8c0,0,3.8,6.7,11.5,14.4c18.9,17-14.8,34.2,9.8,70.5c0,0-32.8,9.6-49.8-0.1
									c16.4-40.2-18.4-47.4,0-69L390.8,229z"/>
								<path class="st24" d="M431.6,253.2c-5.6-9.5-14.3-18.5-28.1-22.2c0,0,5,23.2,5,23.2c3,2.2,6.3,4.2,9.1,6.7
									c3.8,3.3,7.9,10.2,8.5,15.2c1.2,9.1-18,14.5-18,14.5c-0.3,1.8-3.3,2-1,5.3c0.1-0.4,7.7-0.7,8.3-0.8
									c5.3-0.6,10.5-1.5,15.7-2.7c12.9-3.1,9-18,5.8-27c-1-2.8-2.2-5.4-3.4-8.2C432.8,255.8,432.3,254.4,431.6,253.2z"/>
								<path class="st24" d="M397.2,235.9c-22.9-9.9-38.2,7.7-50.9-3.9c-5.4-4.9,3-19.8,3-19.8s-4.8-5.6-4.8-5.6c0,0-5.1,6-5.5,6.6
									c-3.8,4.7-8.1,11.1-9.1,17.3c-1.4,9.5,8.5,14.8,15.8,18c3.7,1.6,11.5,3.9,11.5,3.9l15.5,4.3
									C372.9,256.7,397.2,235.9,397.2,235.9z"/>
								<path class="st9" d="M389.8,206.8l-5.1,27c0,0,10.8,6.4,22-0.6l-6-26.4H389.8z"/>
								<path class="st10" d="M400.7,206.8h-10.9l-5.1,27c0,0,0.1,0.1,0.2,0.1c6.1-5.3,12.1-11,18.2-16.5L400.7,206.8z"/>
								<path class="st3" d="M409.9,203.3c0,8.7-7.2,15.7-15.9,15.7l0,0c-8.7,0-15.9-7.1-15.9-15.7v-18.9c0-8.7,7.2-15.7,15.9-15.7
									l0,0c8.7,0,15.9,7.1,15.9,15.7V203.3z"/>
								<path class="st14" d="M392,194.2c0,0,0.4,2.9-1.3,10.5c0,0,1.8,1.4,4.1,0"/>
								<ellipse cx="398.5" cy="194.3" rx="1" ry="1"/>
								<ellipse cx="386.3" cy="194.3" rx="1" ry="1"/>
								<path class="st25" d="M383.4,191.8c0,0,1.4-1.9,4.5-2.1"/>
								<path class="st25" d="M402.4,191.8c0,0-1.4-1.9-4.5-2.1"/>
								<path class="st26" d="M390.1,209c0,0,5.8,2.2,9.1-3.8c0,0,2.4,4.4-2.7,6.6C396.5,211.8,392.2,213.5,390.1,209z"/>
								<g>
									<ellipse class="st3" cx="378.8" cy="196" rx="5.5" ry="5.4"/>
								</g>
								<g>
									<ellipse class="st3" cx="409.2" cy="196" rx="5.5" ry="5.4"/>
								</g>
								<path d="M373.6,310.3"/>
								<path class="st23" d="M405.9,171.8c-0.7-1-0.7-1.6-1.8-2.2c-1.8-0.9-5.2-2-7.2-2c-5.1,0-9.3,0.4-13.7,3
									c-8.3,5-6.6,16.9-6.1,22.2c0,0,31-6.3,29.2-19.1L405.9,171.8z"/>
								<path class="st27" d="M406,172.7c0,0-0.2,1.6-0.1,4.5c0.1,3.4,0.6,8.7,2.4,15.3C408.3,192.5,414.4,179.9,406,172.7z"/>
								<path class="st28" d="M385.9,227.5c0,0,10,7.6,19.5-0.4c3.7-0.1,2.9,5,6.4,7.5c0,0-3.7,3.3-8.9,5c-4.9,1.6-14.4,0-21.8-7.1
									C381.1,232.5,382.6,228.5,385.9,227.5z"/>
								<path class="st29" d="M366.8,263.4c0,0,0-11,7.2-18.6"/>
								<path class="st29" d="M418.8,269.5c0,0,3-12.2-5.1-21.5"/>
							</g>
							<circle class="st21" cx="383.9" cy="232.4" r="1.1"/>
						</g>
					</g>
				</g>
				<g>
					<path class="st30" d="M396.7,48.9c4.2-1.6,8.3-3.7,12.4-4.7c9.4-2.4,19.5-2.3,29.1-0.8c8,1.3,18.9,4.8,25.4-1.8
						c14.4-14.5-24.5-13.5-28.7-18.7c-3.3-4-0.9-7.3-6.3-9.9c-9.8-4.7-20.1,2.7-28.5,7.1c-8.6,4.6-59.9-2.2-34.8,20.4
						C374.7,49,383.8,53.9,396.7,48.9z"/>
					<path class="st30" d="M171.7,26.9c-8.5-4.6,2.2-6.9,5.2-11.6c8.3-12.9,16.8-4.3,32.1-1.8c10,1.6,18.1-4.7,28-2.6
						c8.6,1.9,14.9,8.4,5.3,12.4c-10.2,4.3-23,3.2-34.5,4.3c-11.9,1.1-24.1,5.4-35.7-0.5C172,27.1,171.8,27,171.7,26.9z"/>
				</g>
				<g>
					<circle class="st24" cx="398.4" cy="110.5" r="20.6"/>
					<path class="st21" d="M406.3,97c-2-1.4-3.8,0.7-5.5,3.1c-1.6,2.5-2.5,4.5-0.5,5.9c4.6,7.9-5.1,7.4-5.1,7.4
						c-2-1.4-4.3,0.2-5.9,2.6c-1.6,2.5-2.2,5.1-0.1,6.5c0.1,0.1,0.3,0.3,0.4,0.3c0,0,0,0,0,0c6.5,3.2,14.7-9.2,14.7-9.2
						C412.8,100.9,406.3,97,406.3,97z"/>
				</g>
				<g>
					<circle class="st31" cx="157.3" cy="78.7" r="20.6"/>
					<g>
						<polygon class="st21" points="145,72.6 145,87.9 152.9,80.1 						"/>
						<polygon class="st21" points="168.2,70.4 145.6,70.4 156.8,81 						"/>
						<polygon class="st21" points="168.8,87.6 168.8,72.9 161.3,79.9 						"/>
						<polygon class="st21" points="156.8,83.9 154.1,81.3 145.9,89.4 168.1,89.4 159.8,81 						"/>
					</g>
				</g>
				<path d="M110.3,295.8"/>
				<g>
					<path class="st5" d="M189.4,251.3c0,1.3-1,3.1-2.3,3.1H80.7c-1.3,0-2.3-1.8-2.3-3.1V115.6c0-1.3,1-2.4,2.3-2.4h106.4
						c1.3,0,2.3,1.1,2.3,2.4V251.3z"/>
					<g>
						<path class="st11" d="M156.8,218.8c-8.9-8.8-13.2-16.7-13.2-16.7h-13.5l-19.3,18.3c-3.5,4.9-4.8,14.8-4.9,26.1
							c19.1,0,38,0,57.1,0C161.9,234.9,160,224.4,156.8,218.8z"/>
						<path class="st11" d="M182.9,245.5c-1.1-3.2-2.6-6.4-3.9-9.5c-0.7-1.6-1.3-3.2-2.2-4.7c-6.4-11-16.4-21.6-32.2-25.8
							c0,0,5.7,27.1,5.7,27.1c3.4,2.6,7.3,4.9,10.5,7.8c1.7,1.5,3.5,3.7,5.1,6.2c5.8,0,11.6,0,17.4,0
							C183.2,246.1,183,245.8,182.9,245.5z"/>
						<path class="st11" d="M108.4,240.9c3.2-2.8,7-5.1,10.5-7.7c0,0,5.7-26.6,5.7-26.7c-15.8,4.2-25.9,14.6-32.2,25.4
							c-0.9,1.5-1.5,3-2.2,4.6c-1.4,3.1-2.8,6.2-3.9,9.4c-0.1,0.2-0.1,0.3-0.2,0.5c5.9,0,11.8,0,17.6,0
							C105.2,244.3,106.8,242.3,108.4,240.9z"/>
						<path class="st9" d="M128.9,178.3l-5.8,30.3c0,0,12.5,7.7,25.3-0.3l-6.9-30H128.9z"/>
						<path class="st17" d="M111.1,228.6c0,0-3.1,12.6,1,20.8"/>
						<path class="st17" d="M160.1,228.6c0,0,3.1,12.6-1,20.8"/>
						<path class="st10" d="M141.4,178.3h-12.6l-5.8,30.3c0,0,0.1-0.3,0.3-0.2c7-6.1,13.9-12.2,20.9-18.4L141.4,178.3z"/>
						<path class="st3" d="M152.9,173c0,10-9,18.1-19,18.1l0,0c-10,0-19-8.1-19-18.1v-21.7c0-10,9-18.1,19-18.1l0,0
							c10,0,19,8.1,19,18.1V173z"/>
						<path class="st14" d="M132.8,162.5c0,0,0.5,3.4-1.4,12c0,0,2.1,1.6,4.6,0"/>
						<circle cx="140.1" cy="162.6" r="1.1"/>
						<ellipse cx="126.4" cy="162.6" rx="1.1" ry="1.1"/>
						<path class="st32" d="M123.1,159.7c0,0,1.6-2.2,5.1-2.5"/>
						<path class="st32" d="M144.5,159.7c0,0-1.6-2.2-5.1-2.5"/>
						<g>
							<ellipse class="st3" cx="116.3" cy="164.6" rx="6.3" ry="6.2"/>
						</g>
						<g>
							<ellipse class="st3" cx="151.2" cy="164.6" rx="6.3" ry="6.2"/>
						</g>
						<path class="st24" d="M141.1,126.9c1.6-0.1,3,0.7,3.9,2c1.2,1.9,0.2,3.3,2.5,3.9c1.3,0.3,2.5-0.8,3.7-0.9
							c1.8-0.1,1.7,2.6,1.7,3.7c0.1,2,0.1,3.6,2,4.7c1.6,1,3.5,1.4,4.3,3.3c1.8,4.3-2.4,3.7-4.1,5.8c-1.9,2.3,0.7,6.1-1.2,8.5
							c-0.8,1.1-2.2,1.7-2.8,2.8c-0.4,0.6-0.9,3.6-2.1,1.9c-0.9-1.3,0.1-3.3-0.3-4.7c-0.5-1.7-0.7-4-2.1-5.2
							c-1.4-1.2-3.6-0.8-4.8-2.3c-1.2-1.4-1.4-3.5-3.6-3.3c-1.8,0.1-3.1,1.9-5,1.8c-2.3-0.2-3-3.7-5.3-3.5c-2.3,0.2-2.1,3.4-3.2,4.8
							c-1.8,2.4-5.6,1.8-6.2,5.3c-0.4,2.3,1,4.6,0.1,6.9c-0.5,1.2-1.5,0.8-2.1-0.2c-0.9-1.4-0.1-3.1-2-3.8c-1.2-0.4-3.1,0.1-3.8-1.2
							c-0.8-1.4,0.7-3.5,0.8-5c0.1-1.5-1.3-2.2-1.7-3.6c-0.6-2.1,2.9-3.7,2.3-5.9c-0.5-2-2.6-3.6-1.5-5.6c1.2-2.1,4.2-1.5,4.6-4
							c0.4-1.9-0.4-3.9,2.1-4.7c3.4-1,6.7,1.4,10.2-0.3c1.5-0.7,2.6-2.3,4.1-2.8c1.8-0.6,3.1,2.2,4.4,3
							C137.9,129.7,139.7,127,141.1,126.9z"/>
						<path class="st21" d="M131.5,180.5c0,0,5.8,2.2,9.1-3.8c0,0,2.4,4.4-2.7,6.6C137.9,183.3,133.7,184.9,131.5,180.5z"/>
						<g>
							<path class="st33" d="M134.4,214.6c-8.3,0-15.4-5.8-15.8-6.1c-1.5-0.9,2.9-4.5,5.3-3.9c0,0,9.8,7.9,23.6-0.4
								c1.5-0.9,6.4,3.3,5,4.3C146.6,212.5,139.3,214.6,134.4,214.6z"/>
						</g>
					</g>
					<path class="st21" d="M78.4,233.8v16.7c0,1.7,1,3.9,2.3,3.9h106.4c1.3,0,2.3-2.3,2.3-3.9v-16.7
						C152.7,233.8,115,233.8,78.4,233.8z"/>
					<g>
						<circle class="st27" cx="159.6" cy="243.5" r="6"/>
						<g>
							<line class="st29" x1="157.1" y1="240.9" x2="162.1" y2="246.3"/>
							<line class="st29" x1="162.1" y1="240.9" x2="157.1" y2="246.3"/>
						</g>
					</g>
					<g>
						<circle class="st19" cx="135.8" cy="243.5" r="6"/>
						<g>
							<path class="st21" d="M137.1,244.2c0,0.4-0.3,0.7-0.7,0.7H133c-0.4,0-0.7-0.3-0.7-0.7v-1.8c0-0.4,0.3-0.7,0.7-0.7h3.4
								c0.4,0,0.7,0.3,0.7,0.7V244.2z"/>
							<polygon class="st21" points="137.1,242.8 138.7,242 138.7,244.4 137.1,243.7 							"/>
						</g>
					</g>
					<g>
						<circle class="st4" cx="112" cy="243.5" r="6"/>
						<path class="st21" d="M113.3,242.8c0,0.5-0.2,0.9-0.8,0.9l0,0c-0.6,0-0.8-0.4-0.8-0.9V241c0-0.5,0.2-0.9,0.8-0.9l0,0
							c0.6,0,0.8,0.4,0.8,0.9V242.8z"/>
						<g>
							<path class="st21" d="M112.5,244.3c-0.8,0-1.4-0.6-1.4-1.5c0-0.1,0.1-0.2,0.2-0.2s0.2,0.1,0.2,0.2c0,0.7,0.4,1.1,1.1,1.1
								c0.3,0,0.6-0.1,0.8-0.3c0.2-0.2,0.3-0.4,0.3-0.8c0-0.1,0.1-0.2,0.2-0.2c0,0,0,0,0,0c0.1,0,0.2,0.1,0.2,0.2
								c0,0.4-0.1,0.8-0.4,1C113.2,244.2,112.9,244.3,112.5,244.3z"/>
						</g>
						<path class="st21" d="M113.3,245.7c0,0.1,0,0.2-0.1,0.2h-1.4c-0.1,0-0.1-0.1-0.1-0.2l0,0c0-0.1,0-0.2,0.1-0.2h1.4
							C113.2,245.5,113.3,245.6,113.3,245.7L113.3,245.7z"/>
						<path class="st21" d="M112.6,245.6c0,0.1-0.1,0.2-0.2,0.2l0,0c-0.1,0-0.2-0.1-0.2-0.2v-1.3c0-0.1,0.1-0.2,0.2-0.2l0,0
							c0.1,0,0.2,0.1,0.2,0.2V245.6z"/>
					</g>
				</g>
				<g>
					<path class="st19" d="M389.8,458c-6.6-4.9-11.8-11.9-15.3-21.4c-2.8-7.7-4.7-16-3.4-24.7c2.4-15.5,20.8,11.9,19.9-10.3
						c-0.4-10.2-4.3-28.6,3.7-37.6c2.1-2.4,5.5-2.8,8-1.4c4.9,2.8,5.8,14.8,12.4,4.9c5.4-8.1,0.4-21,7.1-28c5.6-5.8,5.8,7.7,9.7,5.1
						c3-2.1,5.1-11.3,6.4-14.5c2.6-6.1,6.4-13.9,12.4-17c8.2-4.2,10.8,5.1,8.6,12.1c-1.9,6.4-11.3,14-9.8,20.9
						c1.4,6.6,12.1-2.5,12.1,3.1c0,5-4.3,11.6-6.7,15.9c-6.8,12.4,8.6,1.4,11.6,6.7c7.7,13.7-22.8,25.2-26.7,36.2
						c-3.3,9.2,12,7.3,9.4,14.5c-2,5.6-22.3,6.7-15.9,13.4c4.8,5,22,5.2,15,20.9c-4.2,9.4-17.6,9.8-25.2,10
						C410.2,467.2,398.8,464.6,389.8,458z"/>
					<path class="st34" d="M446.6,336.2c0,0-44.8,96.1-51.7,145.9"/>
				</g>
			</g>
		</g>
		<g>
			<line class="st20" x1="406.6" y1="170.3" x2="405.9" y2="177.7"/>
			<polyline class="st20" points="419.4,216.3 409.9,201.4 411.5,213.2 			"/>
			<polyline class="st20" points="370.3,216.3 378.1,201.4 378.2,216.3 			"/>
		</g>
		<path class="st20" d="M312,91.4"/>
	</g>
	<g>
		<g>
			<path class="st19" d="M196.4,388.4c-3.8-0.1-7.6-1.4-11.5-4.1c-3.1-2.2-6-4.8-7.9-8.5c-3.2-6.5,11.1-1,4.8-9.2
				c-2.9-3.8-9.3-9.7-8.6-15.3c0.2-1.5,1.3-2.5,2.7-2.6c2.6-0.2,6.1,4.1,6-1.5c-0.1-4.5-5.4-8.1-4.7-12.5c0.6-3.7,4.3,1.4,5-0.7
				c0.6-1.6-1.1-5.7-1.4-7.2c-0.6-3-1.3-7,0.2-9.7c2-3.8,5.4-0.9,6.5,2.3c1,2.9-0.6,8.3,1.8,10.5c2.3,2.1,3.9-4.2,5.4-2
				c1.3,1.9,1.5,5.6,1.7,7.8c0.7,6.5,3.7-1.8,6.2-0.5c6.6,3.2-2,15.6-0.5,20.9c1.2,4.4,6.5-0.4,7.4,3c0.7,2.7-6.7,8.5-2.5,9.3
				c3.1,0.6,9.7-3.9,11.3,4c0.9,4.7-4.1,8.4-6.9,10.5C206.6,386.5,201.5,388.6,196.4,388.4z"/>
			<path class="st34" d="M185.5,327.1c0,0,8.6,48.4,19.2,69.1"/>
		</g>
		<g>
			<g>
				<path class="st35" d="M524.6,381.1c-5.7-5.9-9.7-13.7-11.5-23.7c-1.5-8-2-16.5,0.8-24.9c5-14.8,18.5,15.2,21.3-6.8
					c1.3-10.1,0.5-28.9,9.9-36.5c2.5-2,5.9-1.9,8.1,0c4.4,3.6,3.2,15.6,11.4,6.9c6.7-7.1,3.9-20.6,11.7-26.4
					c6.5-4.8,4.5,8.6,8.7,6.6c3.3-1.5,6.9-10.3,8.8-13.2c3.6-5.6,8.7-12.6,15-14.6c8.8-2.7,9.7,6.9,6.5,13.4
					c-3,6-13.4,11.9-13.1,18.9c0.3,6.8,12.3-0.4,11.4,5.1c-0.8,4.9-6.2,10.8-9.3,14.6c-8.8,11.1,8.3,2.8,10.3,8.6
					c5.3,14.8-26.7,21-32.4,31.2c-4.7,8.5,10.6,9.2,6.8,15.9c-2.9,5.2-23.1,2.9-17.9,10.5c3.9,5.7,20.9,8.8,11.3,23.2
					c-5.7,8.5-18.9,6.7-26.5,5.6C543.1,393.7,532.3,389.2,524.6,381.1z"/>
				<path class="st34" d="M601,270.6c0,0-60.3,87.2-75.4,135.2"/>
			</g>
			<g>
				<path class="st24" d="M515.6,394.7c-5.2-0.8-10.3-3.3-15.1-7.7c-3.9-3.5-7.4-7.7-9.3-13.1c-3.2-9.5,15.4,0.6,8.3-11.8
					c-3.3-5.7-11-15-9.1-22.5c0.5-2,2.3-3.2,4.1-3.2c3.6,0.1,7.7,6.8,8.5-0.9c0.7-6.2-6-12.1-4.2-18.1c1.5-5,5.6,2.7,7,0
					c1.1-2.1-0.5-8-0.6-10.2c-0.3-4.3-0.5-9.8,2-13.3c3.4-4.8,7.7-0.3,8.5,4.3c0.8,4.2-2.3,11.3,0.6,14.8c2.8,3.4,6.2-5,7.8-1.8
					c1.5,2.8,1,7.9,0.9,11.1c-0.2,9.1,5.3-1.8,8.6,0.4c8.5,5.5-5.5,21.1-4.5,28.6c0.9,6.2,9,0.6,9.7,5.5c0.5,3.8-10.7,10.5-5.1,12.4
					c4.2,1.4,14.1-3.6,14.8,7.5c0.4,6.6-7.1,10.8-11.4,13.2C530,393.9,522.7,395.8,515.6,394.7z"/>
				<path class="st34" d="M512.2,318.2c-0.6,29.8,3.3,60.2,13.4,88.7"/>
			</g>
		</g>
		<g>
			<g>
				<path class="st35" d="M110.8,362.3c-6.3-0.2-12.8-2.3-19.3-6.8c-5.2-3.6-10.1-8-13.1-14.2c-5.4-10.9,18.5-1.7,8-15.4
					c-4.8-6.3-15.5-16.2-14.4-25.5c0.3-2.4,2.2-4.2,4.4-4.4c4.4-0.4,10.3,6.9,10.1-2.4c-0.2-7.5-9.1-13.5-7.9-21
					c0.9-6.2,7.1,2.3,8.4-1.1c1-2.7-1.8-9.5-2.4-12c-1-5-2.1-11.7,0.3-16.3c3.3-6.3,9.1-1.5,10.9,3.8c1.6,4.9-0.9,13.9,3.1,17.6
					c3.9,3.6,6.6-6.9,9.1-3.4c2.2,3.2,2.4,9.3,2.8,13.1c1.2,10.9,6.1-2.9,10.4-0.9c11,5.3-3.3,26.2-0.8,34.9c2,7.3,10.9-0.7,12.4,5
					c1.2,4.5-11.1,14.2-4.1,15.6c5.2,1,16.3-6.5,18.9,6.6c1.5,7.8-6.8,14-11.6,17.6C127.9,359.1,119.4,362.5,110.8,362.3z"/>
				<path class="st34" d="M92.6,259.6c0,0,14.3,81,32.2,115.7"/>
			</g>
			<g>
				<path class="st24" d="M121.1,367.1c-3.5-2.5-6.3-6.2-8.2-11.2c-1.5-4-2.6-8.4-1.9-12.9c1.2-8.1,11,6.1,10.4-5.5
					c-0.3-5.4-2.5-15,1.7-19.8c1.1-1.3,2.9-1.5,4.2-0.8c2.6,1.4,3.1,7.8,6.6,2.5c2.8-4.3,0.1-11,3.6-14.8c2.9-3.1,3.1,4,5.1,2.6
					c1.6-1.1,2.6-6,3.3-7.6c1.4-3.2,3.3-7.4,6.4-9c4.3-2.2,5.7,2.6,4.6,6.3c-1,3.4-5.8,7.4-5,11c0.8,3.5,6.3-1.4,6.4,1.6
					c0,2.6-2.2,6.1-3.4,8.4c-3.5,6.6,4.5,0.7,6.1,3.5c4.1,7.2-11.8,13.4-13.8,19.2c-1.7,4.9,6.4,3.8,5,7.6c-1,3-11.7,3.7-8.3,7.1
					c2.5,2.6,11.6,2.6,8,10.9c-2.1,4.9-9.2,5.2-13.2,5.4C131.9,371.8,125.8,370.5,121.1,367.1z"/>
				<path class="st34" d="M150.2,302.7c0,0-23,50.8-26.3,77"/>
			</g>
		</g>
	</g>
</g>
<g id="Layer_4">
	<g id="Layer_2">
	</g>
</g>
<g id="Layer_3">
	<g>
		<circle class="st27" cx="147.8" cy="311" r="21.6"/>
		<path class="st21" d="M160.3,306.8c0-2.4-2.3-6.1-5.8-6.1c-2.8,0-5.6,1.8-6.5,4.3c-0.9-2.5-3.5-4.3-6.2-4.3
			c-3.5,0-6.5,2.8-6.5,6.3c0,1.5,0,9,12,16.1C147.3,323.1,160.2,317.8,160.3,306.8z"/>
	</g>
</g>
</svg>
