<?xml version="1.0" encoding="utf-8"?>
<!-- Generator: Adobe Illustrator 21.0.0, SVG Export Plug-In . SVG Version: 6.00 Build 0)  -->
<svg version="1.1" id="Layer_1" xmlns="http://www.w3.org/2000/svg" xmlns:xlink="http://www.w3.org/1999/xlink" x="0px" y="0px"
	 viewBox="0 0 100 100" style="enable-background:new 0 0 100 100;" xml:space="preserve">
<style type="text/css">
	.st0{fill:#E7F0F0;}
	.st1{fill:#B6D0FB;stroke:#405B91;stroke-width:0.25;stroke-miterlimit:10;}
	.st2{fill:#405B91;}
	.st3{fill:none;}
	.st4{fill:#107AEC;stroke:#0D69BC;stroke-width:0.25;stroke-miterlimit:10;}
	.st5{fill:#7DC3EA;stroke:#405B91;stroke-width:0.25;stroke-miterlimit:10;}
	.st6{fill:#6D6E71;}
	.st7{fill:#414042;}
	.st8{fill:#F1F2F2;}
	.st9{fill:#D1D3D4;}
	.st10{fill:#FFFFFF;}
	.st11{fill:none;stroke:#000000;stroke-miterlimit:10;}
</style>
<g id="Layer_2">
</g>
<g id="Layer_3">
	<path class="st0" d="M88.3,61c0,0,21.8-29.9-23.7-38.6s-43.1,7-43.1,7s3,9.7-10.2,14s4.3,38.8,17,36.7c12.7-2.2,47.5,0,47.5,0
		S91.3,82.3,88.3,61z"/>
	<rect x="10.3" y="59.1" class="st1" width="84" height="20.9"/>
	<g>
		<path class="st2" d="M94.1,63.2H8c-0.1,0-0.2-0.1-0.2-0.2s0.1-0.2,0.2-0.2h86.1c0.1,0,0.2,0.1,0.2,0.2
			C94.3,63.1,94.2,63.2,94.1,63.2z"/>
	</g>
</g>
<g id="Layer_4">
	<path id="XMLID_11_" class="st3" d="M29.7,73.9c-1.6,0-2.9,1.3-2.9,2.9l0,0C26.8,75.2,28.1,73.9,29.7,73.9c1.5,0,2.7,1.1,2.9,2.6
		C32.4,75,31.1,73.9,29.7,73.9z"/>
	<g>
		<g>
			<g>
				<g>
					<g>
						<g>
							<g>
								<g>
									<rect x="82" y="72" class="st1" width="4.3" height="7.7"/>
								</g>
							</g>
						</g>
					</g>
				</g>
				<g>
					<g>
						<g>
							<g>
								<g>
									<path class="st1" d="M86.4,79.9h-4.6v-8h4.6V79.9z M82.1,79.6h4.1v-7.5h-4.1V79.6z"/>
								</g>
							</g>
						</g>
					</g>
				</g>
			</g>
			<g>
				<g>
					<g>
						<g>
							<g>
								<g>
									<path class="st1" d="M92.3,79.8c0.2,0,0.3-0.1,0.3-0.3v-7.1c0-0.2-0.1-0.3-0.3-0.3h-6v7.7C86.3,79.8,92.3,79.8,92.3,79.8z"
										/>
								</g>
							</g>
						</g>
					</g>
				</g>
				<g>
					<g>
						<g>
							<g>
								<g>
									<path class="st1" d="M92.3,79.9h-6.1v-8h6.1c0.2,0,0.4,0.2,0.4,0.4v7.1C92.7,79.7,92.5,79.9,92.3,79.9z M86.4,79.6h5.9
										c0.1,0,0.2-0.1,0.2-0.2v-7.1c0-0.1-0.1-0.2-0.2-0.2h-5.9V79.6z"/>
								</g>
							</g>
						</g>
					</g>
				</g>
			</g>
			<g>
				<g>
					<g>
						<g>
							<g>
								<g>
									<path class="st1" d="M69.3,72c-0.2,0-0.3,0.1-0.3,0.3v7.1c0,0.2,0.1,0.3,0.3,0.3h3.9V72C73.2,72,69.3,72,69.3,72z"/>
								</g>
							</g>
						</g>
					</g>
				</g>
				<g>
					<g>
						<g>
							<g>
								<g>
									<path class="st1" d="M73.4,79.9h-4.1c-0.2,0-0.4-0.2-0.4-0.4v-7.1c0-0.1,0-0.2,0.1-0.3c0.1-0.1,0.2-0.1,0.3-0.1h4.1V79.9z
										 M69.3,72.2C69.2,72.2,69.2,72.2,69.3,72.2l-0.2,0.2v7.1c0,0.1,0.1,0.2,0.2,0.2h3.8v-7.5C73.1,72.2,69.3,72.2,69.3,72.2z"
										/>
								</g>
							</g>
						</g>
					</g>
				</g>
			</g>
			<g>
				<g>
					<g>
						<g>
							<g>
								<g>
									<rect x="77.6" y="72" class="st1" width="4.3" height="7.7"/>
								</g>
							</g>
						</g>
					</g>
				</g>
				<g>
					<g>
						<g>
							<g>
								<g>
									<path class="st1" d="M82.1,79.9h-4.6v-8h4.6V79.9z M77.7,79.6h4.1v-7.5h-4.1V79.6z"/>
								</g>
							</g>
						</g>
					</g>
				</g>
			</g>
			<g>
				<g>
					<g>
						<g>
							<g>
								<g>
									<rect x="73.3" y="72" class="st1" width="4.3" height="7.7"/>
								</g>
							</g>
						</g>
					</g>
				</g>
				<g>
					<g>
						<g>
							<g>
								<g>
									<path class="st1" d="M77.7,79.9h-4.6v-8h4.6V79.9z M73.4,79.6h4.1v-7.5h-4.1V79.6z"/>
								</g>
							</g>
						</g>
					</g>
				</g>
			</g>
		</g>
		<g>
			<g>
				<g>
					<g>
						<g>
							<g>
								<path class="st1" d="M90.2,77.4c-0.8,0-1.5-0.7-1.5-1.5s0.7-1.5,1.5-1.5s1.5,0.7,1.5,1.5C91.7,76.7,91.1,77.4,90.2,77.4z
									 M90.2,74.6c-0.7,0-1.3,0.6-1.3,1.3c0,0.7,0.6,1.3,1.3,1.3c0.7,0,1.3-0.6,1.3-1.3S90.9,74.6,90.2,74.6z"/>
							</g>
						</g>
					</g>
				</g>
			</g>
		</g>
		<g>
			<g>
				<g>
					<g>
						<g>
							<g>
								<path class="st1" d="M90.2,77.4c-0.5,0-1-0.3-1.3-0.8c-0.2-0.3-0.3-0.8-0.2-1.1c0.1-0.4,0.4-0.7,0.7-0.9
									c0.2-0.1,0.5-0.2,0.8-0.2c0.5,0,1,0.3,1.3,0.8c0.2,0.3,0.3,0.8,0.2,1.1c-0.1,0.4-0.4,0.7-0.7,0.9
									C90.8,77.3,90.5,77.4,90.2,77.4z M90.2,74.6c-0.2,0-0.4,0.1-0.6,0.2c-0.3,0.2-0.5,0.4-0.6,0.8c-0.1,0.3,0,0.7,0.1,1
									c0.2,0.4,0.6,0.6,1.1,0.6c0.2,0,0.4-0.1,0.6-0.2c0.3-0.2,0.5-0.4,0.6-0.8c0.1-0.3,0-0.7-0.1-1
									C91.1,74.9,90.7,74.6,90.2,74.6z"/>
							</g>
						</g>
					</g>
				</g>
			</g>
		</g>
		<g>
			<g>
				<g>
					<g>
						<g>
							<g>
								<path class="st1" d="M90.2,77.4c-0.3,0-0.5-0.1-0.8-0.2c-0.3-0.2-0.6-0.5-0.7-0.9s-0.1-0.8,0.2-1.1c0.3-0.5,0.8-0.8,1.3-0.8
									c0.3,0,0.5,0.1,0.8,0.2c0.3,0.2,0.6,0.5,0.7,0.9s0.1,0.8-0.2,1.1C91.3,77.1,90.8,77.4,90.2,77.4z M90.2,74.6
									c-0.4,0-0.9,0.2-1.1,0.6c-0.2,0.3-0.2,0.6-0.1,1c0.1,0.3,0.3,0.6,0.6,0.8c0.2,0.1,0.4,0.2,0.6,0.2c0.4,0,0.9-0.2,1.1-0.6
									c0.2-0.3,0.2-0.6,0.1-1c-0.1-0.3-0.3-0.6-0.6-0.8C90.7,74.7,90.4,74.6,90.2,74.6z"/>
							</g>
						</g>
					</g>
				</g>
			</g>
		</g>
		<g>
			<g>
				<g>
					<g>
						<g>
							<g>
								<g>
									
										<rect x="81.1" y="70.7" transform="matrix(0.5 -0.866 0.866 0.5 -20.6116 109.9828)" class="st1" width="7.7" height="4.3"/>
								</g>
							</g>
						</g>
					</g>
				</g>
				<g>
					<g>
						<g>
							<g>
								<g>
									<path class="st1" d="M84.9,77.4l-4-2.3l4-6.9l4,2.3L84.9,77.4z M81.3,75.1l3.5,2l3.7-6.5l-3.5-2L81.3,75.1z"/>
								</g>
							</g>
						</g>
					</g>
				</g>
			</g>
			<g>
				<g>
					<g>
						<g>
							<g>
								<g>
									<path class="st1" d="M90.1,80.3c0.1,0.1,0.3,0,0.4-0.1l3.5-6.1c0.1-0.1,0-0.3-0.1-0.4l-5.2-3l-3.9,6.7L90.1,80.3z"/>
								</g>
							</g>
						</g>
					</g>
				</g>
				<g>
					<g>
						<g>
							<g>
								<g>
									<path class="st1" d="M90.3,80.4L90.3,80.4c-0.1,0-0.2,0-0.2-0.1l-5.3-3.1l4-6.9l5.3,3.1c0.1,0.1,0.2,0.2,0.2,0.3
										c0,0.1,0,0.2,0,0.3l-3.5,6.1C90.6,80.4,90.4,80.4,90.3,80.4z M85.1,77.2l5.1,2.9c0.1,0.1,0.2,0,0.3-0.1l3.5-6v-0.1
										c0,0,0-0.1-0.1-0.1l-5.1-2.9L85.1,77.2z"/>
								</g>
							</g>
						</g>
					</g>
				</g>
			</g>
			<g>
				<g>
					<g>
						<g>
							<g>
								<g>
									<path class="st1" d="M74,62.1c-0.1-0.1-0.3,0-0.4,0.1l-3.5,6.1c-0.1,0.1,0,0.3,0.1,0.4l3.4,2l3.9-6.7L74,62.1z"/>
								</g>
							</g>
						</g>
					</g>
				</g>
				<g>
					<g>
						<g>
							<g>
								<g>
									<path class="st1" d="M73.6,70.9l-3.5-2c-0.1-0.1-0.2-0.2-0.2-0.3c0-0.1,0-0.2,0-0.3l3.5-6.1c0.1-0.2,0.4-0.3,0.6-0.2l3.5,2
										L73.6,70.9z M73.9,62.2c-0.1,0-0.1,0-0.2,0.1l-3.5,6.1v0.1c0,0,0,0.1,0.1,0.1l3.3,1.9l3.7-6.5L73.9,62.2
										C74,62.2,73.9,62.2,73.9,62.2z"/>
								</g>
							</g>
						</g>
					</g>
				</g>
			</g>
			<g>
				<g>
					<g>
						<g>
							<g>
								<g>
									
										<rect x="77.3" y="68.5" transform="matrix(0.5 -0.866 0.866 0.5 -20.6501 105.6139)" class="st1" width="7.7" height="4.3"/>
								</g>
							</g>
						</g>
					</g>
				</g>
				<g>
					<g>
						<g>
							<g>
								<g>
									<path class="st1" d="M81.2,75.3l-4-2.3l4-6.9l4,2.3L81.2,75.3z M77.5,72.9l3.5,2l3.7-6.5l-3.5-2L77.5,72.9z"/>
								</g>
							</g>
						</g>
					</g>
				</g>
			</g>
			<g>
				<g>
					<g>
						<g>
							<g>
								<g>
									
										<rect x="73.5" y="66.3" transform="matrix(0.5 -0.866 0.866 0.5 -20.583 101.2384)" class="st1" width="7.7" height="4.3"/>
								</g>
							</g>
						</g>
					</g>
				</g>
				<g>
					<g>
						<g>
							<g>
								<g>
									<path class="st1" d="M77.4,73.1l-4-2.3l4-6.9l4,2.3L77.4,73.1z M73.8,70.7l3.5,2l3.7-6.5l-3.5-2L73.8,70.7z"/>
								</g>
							</g>
						</g>
					</g>
				</g>
			</g>
		</g>
		<g>
			<g>
				<g>
					<g>
						<g>
							<g>
								<g>
									
										<rect x="83.3" y="68.4" transform="matrix(0.866 -0.5 0.5 0.866 -23.6135 53.0153)" class="st1" width="7.7" height="4.3"/>
								</g>
							</g>
						</g>
					</g>
				</g>
				<g>
					<g>
						<g>
							<g>
								<g>
									<path class="st1" d="M84.9,74.6l-2.3-4l6.9-4l2.3,4L84.9,74.6z M82.9,70.7l2,3.5l6.5-3.7l-2-3.5L82.9,70.7z"/>
								</g>
							</g>
						</g>
					</g>
				</g>
			</g>
			<g>
				<g>
					<g>
						<g>
							<g>
								<g>
									<path class="st1" d="M87.9,79.6c0.1,0.2,0.3,0.2,0.4,0.1l6.1-3.5c0.1-0.1,0.2-0.3,0.1-0.4l-3-5.2l-6.7,3.9L87.9,79.6z"/>
								</g>
							</g>
						</g>
					</g>
				</g>
				<g>
					<g>
						<g>
							<g>
								<g>
									<path class="st1" d="M88.2,79.9L88.2,79.9c-0.2,0-0.3-0.1-0.4-0.2l-3.1-5.3l6.9-4l3.1,5.3c0.1,0.2,0,0.5-0.2,0.6l-6.1,3.5
										C88.4,79.9,88.3,79.9,88.2,79.9z M85.1,74.5l2.9,5.1c0,0.1,0.1,0.1,0.2,0.1l0,0h0.1l6.1-3.5c0.1-0.1,0.1-0.2,0.1-0.3
										l-2.9-5.1L85.1,74.5z"/>
								</g>
							</g>
						</g>
					</g>
				</g>
			</g>
			<g>
				<g>
					<g>
						<g>
							<g>
								<g>
									<path class="st1" d="M83.1,55.9c-0.1-0.1-0.3-0.2-0.4-0.1l-6.1,3.5c-0.1,0.1-0.2,0.3-0.1,0.4l2,3.4l6.7-3.9L83.1,55.9z"/>
								</g>
							</g>
						</g>
					</g>
				</g>
				<g>
					<g>
						<g>
							<g>
								<g>
									<path class="st1" d="M78.4,63.3l-2-3.5c-0.1-0.2,0-0.5,0.2-0.6l6.1-3.5c0.2-0.1,0.5,0,0.6,0.2l2,3.5L78.4,63.3z M82.8,55.8
										L82.8,55.8l-6.2,3.6c-0.1,0.1-0.1,0.2-0.1,0.3l1.9,3.3l6.5-3.7L83,55.9C83,55.9,82.9,55.8,82.8,55.8z"/>
								</g>
							</g>
						</g>
					</g>
				</g>
			</g>
			<g>
				<g>
					<g>
						<g>
							<g>
								<g>
									<rect x="81.1" y="64.7" transform="matrix(0.866 -0.5 0.5 0.866 -22.0533 51.438)" class="st1" width="7.7" height="4.3"/>
								</g>
							</g>
						</g>
					</g>
				</g>
				<g>
					<g>
						<g>
							<g>
								<g>
									<path class="st1" d="M82.7,70.8l-2.3-4l6.9-4l2.3,4L82.7,70.8z M80.7,66.9l2,3.5l6.5-3.7l-2-3.5L80.7,66.9z"/>
								</g>
							</g>
						</g>
					</g>
				</g>
			</g>
			<g>
				<g>
					<g>
						<g>
							<g>
								<g>
									<rect x="79" y="60.9" transform="matrix(0.866 -0.5 0.5 0.866 -20.4229 49.8612)" class="st1" width="7.7" height="4.3"/>
								</g>
							</g>
						</g>
					</g>
				</g>
				<g>
					<g>
						<g>
							<g>
								<g>
									<path class="st1" d="M80.5,67.1l-2.3-4l6.9-4l2.3,4L80.5,67.1z M78.6,63.2l2,3.5l6.5-3.7l-2-3.5L78.6,63.2z"/>
								</g>
							</g>
						</g>
					</g>
				</g>
			</g>
		</g>
		<g>
			<g>
				<g>
					<g>
						<g>
							<g>
								<g>
									<rect x="86.4" y="67.6" class="st1" width="7.7" height="4.3"/>
								</g>
							</g>
						</g>
					</g>
				</g>
				<g>
					<g>
						<g>
							<g>
								<g>
									<path class="st1" d="M94.2,72.1h-8v-4.6h8V72.1z M86.5,71.8H94v-4.1h-7.5V71.8z"/>
								</g>
							</g>
						</g>
					</g>
				</g>
			</g>
			<g>
				<g>
					<g>
						<g>
							<g>
								<g>
									<path class="st1" d="M86.4,78c0,0.2,0.1,0.3,0.3,0.3h7.1c0.2,0,0.3-0.1,0.3-0.3v-6h-7.7C86.4,72,86.4,78,86.4,78z"/>
								</g>
							</g>
						</g>
					</g>
				</g>
				<g>
					<g>
						<g>
							<g>
								<g>
									<path class="st1" d="M93.8,78.4h-7.1c-0.2,0-0.4-0.2-0.4-0.4v-6.1h8V78C94.2,78.2,94,78.4,93.8,78.4z M86.5,72.1V78
										c0,0.1,0.1,0.2,0.2,0.2h7.1c0.1,0,0.2-0.1,0.2-0.2v-5.9H86.5z"/>
								</g>
							</g>
						</g>
					</g>
				</g>
			</g>
			<g>
				<g>
					<g>
						<g>
							<g>
								<g>
									<path class="st1" d="M94.1,55c0-0.2-0.1-0.3-0.3-0.3h-7.1c-0.2,0-0.3,0.1-0.3,0.3v3.9h7.7C94.1,58.9,94.1,55,94.1,55z"/>
								</g>
							</g>
						</g>
					</g>
				</g>
				<g>
					<g>
						<g>
							<g>
								<g>
									<path class="st1" d="M94.2,59.1h-8V55c0-0.2,0.2-0.4,0.4-0.4h7.1c0.2,0,0.4,0.2,0.4,0.4L94.2,59.1L94.2,59.1z M86.5,58.8
										H94V55c0-0.1-0.1-0.2-0.2-0.2h-7.1c-0.1,0-0.2,0.1-0.2,0.2C86.5,55,86.5,58.8,86.5,58.8z"/>
								</g>
							</g>
						</g>
					</g>
				</g>
			</g>
			<g>
				<g>
					<g>
						<g>
							<g>
								<g>
									<rect x="86.4" y="63.3" class="st1" width="7.7" height="4.3"/>
								</g>
							</g>
						</g>
					</g>
				</g>
				<g>
					<g>
						<g>
							<g>
								<g>
									<path class="st1" d="M94.2,67.7h-8v-4.6h8V67.7z M86.5,67.5H94v-4.1h-7.5V67.5z"/>
								</g>
							</g>
						</g>
					</g>
				</g>
			</g>
			<g>
				<g>
					<g>
						<g>
							<g>
								<g>
									<rect x="86.4" y="58.9" class="st1" width="7.7" height="4.3"/>
								</g>
							</g>
						</g>
					</g>
				</g>
				<g>
					<g>
						<g>
							<g>
								<g>
									<path class="st1" d="M94.2,63.4h-8v-4.6h8V63.4z M86.5,63.2H94v-4.1h-7.5V63.2z"/>
								</g>
							</g>
						</g>
					</g>
				</g>
			</g>
		</g>
		<g>
			<g>
				<g>
					<g>
						<g>
							<g>
								<circle class="st1" cx="90.2" cy="75.9" r="1.4"/>
							</g>
						</g>
					</g>
				</g>
			</g>
			<g>
				<g>
					<g>
						<g>
							<g>
								<path class="st1" d="M90.2,77.4c-0.8,0-1.5-0.7-1.5-1.5s0.7-1.5,1.5-1.5s1.5,0.7,1.5,1.5C91.7,76.7,91.1,77.4,90.2,77.4z
									 M90.2,74.6c-0.7,0-1.3,0.6-1.3,1.3c0,0.7,0.6,1.3,1.3,1.3c0.7,0,1.3-0.6,1.3-1.3S90.9,74.6,90.2,74.6z"/>
							</g>
						</g>
					</g>
				</g>
			</g>
		</g>
	</g>
</g>
<g id="Layer_5">
	<g id="XMLID_147_">
		<path id="XMLID_26_" class="st4" d="M19.6,52.6c-0.1,0.1-0.1,0.1-0.2,0.1h-1c-0.2,0-0.3-0.1-0.3-0.3s0.1-0.3,0.3-0.3h1
			c0.2,0,0.3,0.1,0.3,0.3C19.6,52.5,19.6,52.6,19.6,52.6"/>
		<polygon id="XMLID_76_" class="st4" points="15.8,67.5 15.8,50.1 18.4,50.1 18.4,67.5 		"/>
		<g id="XMLID_152_">
			<path id="XMLID_75_" class="st4" d="M17.3,72.9C17.2,73,17.2,73,17.1,73c-0.2,0-0.3-0.1-0.3-0.3V72c0-0.2,0.1-0.3,0.3-0.3
				s0.3,0.1,0.3,0.3v0.6C17.4,72.7,17.4,72.8,17.3,72.9"/>
			<polygon id="XMLID_74_" class="st4" points="18,48.9 18,50.1 16.1,50.1 16.1,48.9 			"/>
			<polygon id="XMLID_73_" class="st4" points="20.3,59.8 19.3,59.8 19.3,50.8 20.3,50.8 			"/>
			<polygon id="XMLID_72_" class="st4" points="18.4,69.4 15.8,69.4 15.8,67.5 18.4,67.5 			"/>
		</g>
		<g id="XMLID_149_">
			<path id="XMLID_71_" class="st4" d="M16.1,69.4L16.1,69.4H18l0,0c0.2,0.8,0,1.6-0.6,2.2L17.1,72l-0.3-0.3
				C16.1,71.1,15.9,70.2,16.1,69.4"/>
			<polygon id="XMLID_70_" class="st4" points="18,48.9 16.1,48.9 16.1,47.6 18,47.6 			"/>
		</g>
		<polygon id="XMLID_69_" class="st4" points="17.1,64.9 15.8,64.9 15.8,52.7 17.1,52.7 		"/>
	</g>
	<g id="XMLID_107_">
		<path id="XMLID_25_" class="st5" d="M14.2,49.8c0,0.3-0.3,0.6-0.6,0.6l0,0c0,0.5,0.4,0.8,0.8,0.8H16c0.5,0,0.8-0.4,0.8-0.8l0,0
			c-0.3,0-0.6-0.3-0.6-0.6s0.3-0.6,0.6-0.6l-1.7-2.1l-1.7,2.1C13.9,49.1,14.2,49.4,14.2,49.8z"/>
		<rect id="XMLID_24_" x="14.2" y="52.2" class="st5" width="2.1" height="10"/>
		<rect id="XMLID_23_" x="14.4" y="62.2" class="st5" width="1.7" height="1.1"/>
		<path id="XMLID_22_" class="st5" d="M14,58.2l0.1-0.1h2.1c0.1,0,0.2,0.1,0.2,0.2c0,0.1-0.1,0.2-0.2,0.2h-2.1
			c-0.1,0-0.2-0.1-0.2-0.2C13.9,58.3,14,58.3,14,58.2z"/>
		<polygon id="XMLID_21_" class="st5" points="16,51.2 14.4,51.2 14.4,52.2 16,52.2 		"/>
		<path id="XMLID_108_" class="st5" d="M15.2,47.1L15.2,47.1L15,47.3v1.2h-0.1l-0.3,0.3l-0.1,0.1v0.3c0,0.1,0,0.1,0.1,0.1l0.3,0.3
			l0.1,0.1h0.3c0.1,0,0.1,0,0.1-0.1l0.3-0.3l0.1-0.1V49c0-0.1,0-0.1-0.1-0.1l-0.3-0.3h-0.1v-1.2L15.2,47.1z M15.4,49.1L15.4,49.1
			l-0.2,0.3h-0.1L15,49.2v-0.1l0.2-0.2h0.1L15.4,49.1z"/>
	</g>
	<g id="XMLID_98_">
		<path id="XMLID_17_" class="st1" d="M24.8,51.9c0,0-0.1,0.1-0.2,0.1h-0.7c-0.1,0-0.2-0.1-0.2-0.2c0-0.1,0.1-0.2,0.2-0.2h0.7
			c0.1,0,0.2,0.1,0.2,0.2V51.9"/>
		<path id="XMLID_53_" class="st1" d="M22.6,66.1L22.6,66.1L22.6,66.1c-0.9-0.7-1.4-1.8-1.4-2.9v-13h2.7v13
			C23.9,64.3,23.4,65.3,22.6,66.1"/>
		<path id="XMLID_16_" class="st1" d="M23.7,50.2h-2.3v-0.8c0-0.4,0.3-0.8,0.8-0.8h0.7c0.4,0,0.8,0.3,0.8,0.8V50.2z"/>
		<polygon id="XMLID_15_" class="st1" points="25.3,57 24.6,57 24.6,50.6 25.3,50.6 		"/>
		<g id="XMLID_100_">
			<polygon id="XMLID_14_" class="st1" points="22.6,61.5 21.2,61.5 21.2,52.2 22.6,52.2 			"/>
			<path id="XMLID_13_" class="st1" d="M22.6,66.1c0.9-0.7,1.4-1.8,1.4-2.9v-0.1c-0.4,0.2-0.9,0.2-1.4,0.2s-0.9-0.1-1.4-0.2v0.1
				C21.2,64.3,21.7,65.3,22.6,66.1"/>
		</g>
		<path id="XMLID_12_" class="st1" d="M22.7,66.7c0,0-0.1,0.1-0.2,0.1s-0.2-0.1-0.2-0.2v-0.5c0-0.1,0.1-0.2,0.2-0.2s0.2,0.1,0.2,0.2
			V66.7C22.8,66.6,22.8,66.6,22.7,66.7"/>
	</g>
	<g id="XMLID_97_">
		<rect id="XMLID_112_" x="10.3" y="60.7" class="st5" width="2.1" height="2.6"/>
		<rect id="XMLID_113_" x="10.3" y="63.3" class="st5" width="2.1" height="1.7"/>
		<path id="XMLID_114_" class="st5" d="M22.6,79.7c0.1,0,0.1,0,0.2,0h-0.4C22.5,79.7,22.5,79.7,22.6,79.7z"/>
		<path id="XMLID_115_" class="st5" d="M12.4,77.8V64.9h-2.1v12.9c0,1,0.9,1.9,1.9,1.9c0.1,0,0.2,0,0.2,0h1.5
			C13,79.6,12.4,78.8,12.4,77.8z"/>
		<ellipse id="XMLID_10_" class="st5" cx="23.6" cy="76.2" rx="0" ry="0"/>
		<path id="XMLID_121_" class="st5" d="M23.6,76.2L23.6,76.2c0.3-0.2,0.6-0.3,0.9-0.3l0,0C24.2,76,23.8,76.1,23.6,76.2z"/>
		<path id="XMLID_124_" class="st5" d="M22.7,77.8L22.7,77.8c0-0.7,0.3-1.3,0.9-1.6l0,0C23.1,76.5,22.7,77.2,22.7,77.8z"/>
		<rect id="XMLID_128_" x="12.4" y="60.7" class="st5" width="12.1" height="2.6"/>
		<rect id="XMLID_132_" x="12.4" y="63.3" class="st5" width="12.1" height="1.7"/>
		<path id="XMLID_134_" class="st5" d="M22.6,76c-1,0-1.9,0.8-1.9,1.9l0,0C20.7,76.8,21.6,76,22.6,76c0.3,0,0.7,0.1,1,0.3l0,0
			C23.3,76.1,23,76,22.6,76z"/>
		<path id="XMLID_138_" class="st5" d="M14.1,79.7c0.1,0,0.1,0,0.2,0h-0.4C14,79.7,14.1,79.7,14.1,79.7z"/>
		<path id="XMLID_142_" class="st5" d="M23.6,76.2L23.6,76.2c0.5,0.3,0.9,0.8,0.9,1.4C24.4,77,24.1,76.5,23.6,76.2z"/>
		<path id="XMLID_144_" class="st5" d="M24.5,78c0-0.1,0-0.1,0-0.2s0-0.1,0-0.2c-0.1-0.6-0.4-1.1-0.9-1.4c-0.6,0.3-0.9,0.9-0.9,1.6
			l0,0c0-0.7,0.3-1.3,0.9-1.6c-0.3-0.2-0.6-0.3-1-0.3c-1,0-1.9,0.8-1.9,1.9l0,0c0-1,0.8-1.9,1.9-1.9c0.3,0,0.7,0.1,0.9,0.3
			c0.3-0.2,0.6-0.3,0.9-0.3v-11h-12v12.9c0,1,0.6,1.8,1.6,1.9h0.4h8.1h0.4C23.7,79.6,24.4,78.9,24.5,78z"/>
		<path id="XMLID_8_" class="st5" d="M24.5,77.6V76c-0.3,0-0.6,0.1-0.9,0.3C24,76.5,24.5,77,24.5,77.6z"/>
	</g>
</g>
<g id="Layer_6">
	<g>
		<g>
			<g>
				<g>
					<g>
						<g>
							<rect x="38.3" y="63.4" class="st1" width="3.9" height="16.1"/>
						</g>
					</g>
				</g>
			</g>
		</g>
		<g>
			<g>
				<g>
					<g>
						<g>
							<path class="st1" d="M42.3,79.6h-4V63.3h4V79.6z M38.4,79.4h3.7V63.5h-3.7V79.4z"/>
						</g>
					</g>
				</g>
			</g>
		</g>
	</g>
	<g>
		<g>
			<g>
				<g>
					<g>
						<g>
							<path class="st5" d="M60.1,63.4H42.2v16.1h17.9c0.7,0,1.3-0.6,1.3-1.3V64.7C61.4,64,60.8,63.4,60.1,63.4z"/>
						</g>
					</g>
				</g>
			</g>
		</g>
		<g>
			<g>
				<g>
					<g>
						<g>
							<path class="st5" d="M60.1,79.6h-18V63.3h18c0.8,0,1.4,0.6,1.4,1.4v13.5C61.5,79,60.9,79.6,60.1,79.6z M42.3,79.4h17.8
								c0.7,0,1.2-0.5,1.2-1.2V64.7c0-0.7-0.5-1.2-1.2-1.2H42.3V79.4z"/>
						</g>
					</g>
				</g>
			</g>
		</g>
	</g>
	<g>
		<g>
			<g>
				<g>
					<g>
						<g>
							<rect x="43.9" y="65.2" class="st1" width="15.9" height="12.5"/>
						</g>
					</g>
				</g>
			</g>
		</g>
		<g>
			<g>
				<g>
					<g>
						<g>
							<path class="st1" d="M59.8,77.8h-16V65.1h16V77.8z M44,77.6h15.7V65.3H44V77.6z"/>
						</g>
					</g>
				</g>
			</g>
		</g>
	</g>
	<g>
		<g>
			<g>
				<g>
					<g>
						<g>
							<circle class="st1" cx="40.3" cy="71.5" r="1.2"/>
						</g>
					</g>
				</g>
			</g>
		</g>
	</g>
	<g>
		<g>
			<g>
				<g>
					<g>
						<g>
							<circle class="st6" cx="40.3" cy="71.5" r="0.6"/>
						</g>
					</g>
				</g>
			</g>
		</g>
		<g>
			<g>
				<g>
					<g>
						<g>
							<path d="M40.3,72.1c-0.4,0-0.7-0.3-0.7-0.7c0-0.4,0.3-0.7,0.7-0.7S41,71,41,71.4C40.9,71.8,40.6,72.1,40.3,72.1z M40.3,70.9
								c-0.3,0-0.5,0.2-0.5,0.5S40,72,40.3,72s0.5-0.2,0.5-0.5S40.5,70.9,40.3,70.9z"/>
						</g>
					</g>
				</g>
			</g>
		</g>
	</g>
	<g>
		<g>
			<g>
				<g>
					<g>
						<g>
							<path class="st6" d="M74.4,65.4v-1c0-0.5-0.4-0.9-0.9-0.9s-0.9,0.4-0.9,0.9v1H74.4z"/>
						</g>
					</g>
				</g>
			</g>
		</g>
		<g>
			<g>
				<g>
					<g>
						<g>
							<path d="M74.6,65.5h-2.1v-1.1c0-0.6,0.5-1,1-1c0.6,0,1,0.5,1,1L74.6,65.5L74.6,65.5z M72.7,65.3h1.6v-0.9
								c0-0.4-0.4-0.8-0.8-0.8s-0.8,0.4-0.8,0.8C72.7,64.4,72.7,65.3,72.7,65.3z"/>
						</g>
					</g>
				</g>
			</g>
		</g>
	</g>
	<g>
		<g>
			<g>
				<g>
					<g>
						<g>
							<polygon class="st7" points="64.7,77.3 63.4,77.3 64.7,78.8 66,77.3 							"/>
						</g>
					</g>
				</g>
			</g>
		</g>
		<g>
			<g>
				<g>
					<g>
						<g>
							<path d="M64.7,78.9l-1.5-1.7h3L64.7,78.9z M63.6,77.4l1.2,1.3l1.2-1.3H63.6z"/>
						</g>
					</g>
				</g>
			</g>
		</g>
	</g>
	<g>
		<g>
			<g>
				<g>
					<g>
						<g>
							<path d="M64.7,79.5C64.7,79.5,64.6,79.5,64.7,79.5l-0.1-0.8c0,0,0-0.1,0.1-0.1c0,0,0.1,0,0.1,0.1L64.7,79.5
								C64.8,79.5,64.8,79.5,64.7,79.5z"/>
						</g>
					</g>
				</g>
			</g>
		</g>
	</g>
	<g>
		<g>
			<g>
				<g>
					<g>
						<g>
							<polygon class="st6" points="65.8,76.1 65.8,74.6 65.8,70.9 65.7,66.4 63.7,66.4 63.6,76.1 63.4,77.3 66,77.3 							"/>
						</g>
					</g>
				</g>
			</g>
		</g>
		<g>
			<g>
				<g>
					<g>
						<g>
							<path d="M66.1,77.4h-2.9l0.2-1.3l0.1-9.7h2.1l0.1,4.6v5.2L66.1,77.4z M63.5,77.2H66l-0.2-1.1v-5.2l-0.1-4.4h-1.8l-0.1,9.6
								L63.5,77.2z"/>
						</g>
					</g>
				</g>
			</g>
		</g>
	</g>
	<g>
		<g>
			<g>
				<g>
					<g>
						<g>
							<polygon class="st7" points="65.6,64.7 63.9,64.7 63.7,66.4 65.7,66.4 							"/>
						</g>
					</g>
				</g>
			</g>
		</g>
		<g>
			<g>
				<g>
					<g>
						<g>
							<path d="M65.8,66.5h-2.2l0.1-1.9h1.9L65.8,66.5z M63.8,66.3h1.8l-0.1-1.5h-1.6L63.8,66.3z"/>
						</g>
					</g>
				</g>
			</g>
		</g>
	</g>
	<g>
		<g>
			<g>
				<g>
					<g>
						<g>
							<path class="st5" d="M73.5,52.3V29.5c0-1.2-1-2.3-2.3-2.3H29.8c-1.2,0-2.3,1-2.3,2.3v22.8H73.5z"/>
						</g>
					</g>
				</g>
			</g>
		</g>
	</g>
	<g>
		<g>
			<g>
				<g>
					<g>
						<g>
							<rect x="27.6" y="52.3" class="st8" width="45.9" height="5.3"/>
						</g>
					</g>
				</g>
			</g>
		</g>
		<g>
			<g>
				<g>
					<g>
						<g>
							<path d="M73.5,57.7H27.6c-0.1,0-0.1-0.1-0.1-0.1v-5.3c0-0.1,0.1-0.1,0.1-0.1h45.9c0.1,0,0.1,0.1,0.1,0.1L73.5,57.7
								C73.6,57.7,73.6,57.7,73.5,57.7z M27.7,57.5h45.7v-5H27.7V57.5z"/>
						</g>
					</g>
				</g>
			</g>
		</g>
	</g>
	<g>
		<g>
			<g>
				<g>
					<g>
						<g>
							<rect x="49.3" y="53.7" class="st9" width="2.6" height="2.6"/>
						</g>
					</g>
				</g>
			</g>
		</g>
		<g>
			<g>
				<g>
					<g>
						<g>
							<path d="M51.8,56.4h-2.6c-0.1,0-0.1-0.1-0.1-0.1v-2.6c0-0.1,0.1-0.1,0.1-0.1h2.6c0.1,0,0.1,0.1,0.1,0.1L51.8,56.4
								C52,56.3,51.9,56.4,51.8,56.4z M49.4,56.1h2.3v-2.3h-2.3V56.1z"/>
						</g>
					</g>
				</g>
			</g>
		</g>
	</g>
	<g>
		<g>
			<g>
				<g>
					<g>
						<g>
							<rect x="44.7" y="57.6" class="st10" width="11.7" height="5.8"/>
						</g>
					</g>
				</g>
			</g>
		</g>
		<g>
			<g>
				<g>
					<g>
						<g>
							<path d="M56.5,63.6H44.6v-6.1h11.9V63.6z M44.8,63.3h11.4v-5.6H44.8V63.3z"/>
						</g>
					</g>
				</g>
			</g>
		</g>
	</g>
	<g>
		<g>
			<g>
				<g>
					<g>
						<g>
							<path d="M55.6,55.1h-2.5L53,55c0-0.1,0.1-0.1,0.1-0.1h2.5C55.7,54.9,55.7,55,55.6,55.1C55.7,55,55.7,55.1,55.6,55.1z"/>
						</g>
					</g>
				</g>
			</g>
		</g>
	</g>
	<g>
		<g>
			<g>
				<g>
					<g>
						<g>
							<path d="M47.9,55.1h-2.5c-0.1,0-0.1-0.1-0.1-0.1c0-0.1,0.1-0.1,0.1-0.1h2.5C48,54.9,48,55,47.9,55.1
								C48.1,55,48,55.1,47.9,55.1z"/>
						</g>
					</g>
				</g>
			</g>
		</g>
	</g>
	<g>
		<g>
			<g>
				<g>
					<g>
						<g>
							<rect x="39.4" y="64.7" class="st5" width="1.7" height="4.7"/>
						</g>
					</g>
				</g>
			</g>
		</g>
	</g>
	<g>
		<g>
			<g>
				<g>
					<g>
						<g>
							<rect x="39.4" y="73.5" class="st5" width="1.7" height="4.7"/>
						</g>
					</g>
				</g>
			</g>
		</g>
	</g>
	<g>
		<g>
			<g>
				<g>
					<g>
						<g>
							<g>
								<rect x="29.8" y="29.6" class="st1" width="41.6" height="2.1"/>
							</g>
						</g>
					</g>
				</g>
			</g>
		</g>
		<g>
			<g>
				<g>
					<g>
						<g>
							<g>
								<rect x="29.8" y="31.7" class="st1" width="41.6" height="18.3"/>
							</g>
						</g>
					</g>
				</g>
			</g>
		</g>
	</g>
	<g>
		<g>
			<g>
				<g>
					<g>
						<g>
							<g>
								<rect x="32.2" y="34.5" class="st5" width="5.9" height="16.6"/>
							</g>
						</g>
					</g>
				</g>
			</g>
		</g>
		<g>
			<g>
				<g>
					<g>
						<g>
							<g>
								<rect x="32.2" y="33" class="st5" width="5.9" height="1.5"/>
							</g>
						</g>
					</g>
				</g>
			</g>
		</g>
	</g>
	<g>
		<g>
			<g>
				<g>
					<g>
						<g>
							<g>
								<rect x="40.2" y="34.5" class="st1" width="18.6" height="16.6"/>
							</g>
						</g>
					</g>
				</g>
			</g>
		</g>
		<g>
			<g>
				<g>
					<g>
						<g>
							<g>
								<rect x="40.2" y="33" class="st1" width="18.6" height="1.5"/>
							</g>
						</g>
					</g>
				</g>
			</g>
		</g>
	</g>
	<g>
		<g>
			<g>
				<g>
					<g>
						<g>
							<g>
								<rect x="60.4" y="34.2" class="st5" width="8.9" height="5.1"/>
							</g>
						</g>
					</g>
				</g>
			</g>
		</g>
		<g>
			<g>
				<g>
					<g>
						<g>
							<g>
								<rect x="60.4" y="33" class="st5" width="8.9" height="1.2"/>
							</g>
						</g>
					</g>
				</g>
			</g>
		</g>
	</g>
	<g>
		<g>
			<g>
				<g>
					<g>
						<g>
							<g>
								<rect x="60.4" y="42.6" class="st5" width="8.9" height="5.1"/>
							</g>
						</g>
					</g>
				</g>
			</g>
		</g>
		<g>
			<g>
				<g>
					<g>
						<g>
							<g>
								<rect x="60.4" y="41.4" class="st5" width="8.9" height="1.2"/>
							</g>
						</g>
					</g>
				</g>
			</g>
		</g>
	</g>
	<g>
		<g>
			<g>
				<g>
					<g>
						<g>
							<g>
								<path d="M51,47.3h-3v-0.1c-0.3-1.4-2.2-3-2.2-3l-0.1-0.1l0.1-0.1c2-1.9,3.6-6.3,3.7-6.4l0.1-0.3l0.1,0.3
									c0,0,1.6,4.5,3.7,6.4l0.1,0.1l-0.1,0.1c0,0-2,1.7-2.2,3L51,47.3z M48.2,47.1h2.6c0.3-1.3,1.8-2.6,2.2-3
									c-1.7-1.7-3.1-5-3.5-6.1c-0.4,1-1.8,4.4-3.5,6.1C46.4,44.5,47.8,45.8,48.2,47.1z"/>
							</g>
						</g>
					</g>
				</g>
			</g>
		</g>
		<g>
			<g>
				<g>
					<g>
						<g>
							<g>
								<path d="M49.5,44.2c-0.5,0-0.9-0.4-0.9-0.9s0.4-0.9,0.9-0.9s0.9,0.4,0.9,0.9S50,44.2,49.5,44.2z M49.5,42.6
									c-0.4,0-0.7,0.3-0.7,0.7s0.3,0.7,0.7,0.7s0.7-0.3,0.7-0.7C50.2,42.9,49.8,42.6,49.5,42.6z"/>
							</g>
						</g>
					</g>
				</g>
			</g>
		</g>
		<g>
			<g>
				<g>
					<g>
						<g>
							<g>
								<path d="M51.7,47.3h-4.5c-0.1,0-0.1-0.1-0.1-0.1c0-0.1,0.1-0.1,0.1-0.1h4.5C51.8,47.1,51.8,47.2,51.7,47.3
									C51.8,47.3,51.8,47.3,51.7,47.3z"/>
							</g>
						</g>
					</g>
				</g>
			</g>
		</g>
		<g>
			<g>
				<g>
					<g>
						<g>
							<g>
								<path d="M51.3,48.9h-3.6v-1.8h3.6V48.9z M47.9,48.6H51v-1.3h-3.1V48.6z"/>
							</g>
						</g>
					</g>
				</g>
			</g>
		</g>
		<g>
			<g>
				<g>
					<g>
						<g>
							<g>
								<path d="M49.5,41C49.4,41,49.4,40.9,49.5,41l-0.1-4.5c0-0.1,0.1-0.1,0.1-0.1c0.1,0,0.1,0.1,0.1,0.1L49.5,41
									C49.6,41,49.5,41,49.5,41z"/>
							</g>
						</g>
					</g>
				</g>
			</g>
		</g>
	</g>
	<g>
		<g>
			<g>
				<g>
					<g>
						<g>
							<rect x="53.6" y="39.5" transform="matrix(0.7071 -0.7071 0.7071 0.7071 -12.0393 50.1966)" width="2" height="0.3"/>
						</g>
					</g>
				</g>
			</g>
		</g>
	</g>
	<g>
		<g>
			<g>
				<g>
					<g>
						<g>
							<rect x="52.3" y="37.4" transform="matrix(0.707 -0.7072 0.7072 0.707 -10.9785 48.5062)" width="1.5" height="0.3"/>
						</g>
					</g>
				</g>
			</g>
		</g>
	</g>
	<g>
		<g>
			<g>
				<g>
					<g>
						<g>
							<rect x="44.3" y="38.6" transform="matrix(0.7071 -0.7071 0.7071 0.7071 -15.0116 43.0397)" width="0.3" height="2"/>
						</g>
					</g>
				</g>
			</g>
		</g>
	</g>
	<g>
		<g>
			<g>
				<g>
					<g>
						<g>
							<rect x="45.8" y="36.8" transform="matrix(0.7072 -0.707 0.707 0.7072 -13.0827 43.4897)" width="0.3" height="1.5"/>
						</g>
					</g>
				</g>
			</g>
		</g>
	</g>
	<g>
		<g>
			<g>
				<g>
					<g>
						<g>
							<path class="st11" d="M34.6,72"/>
						</g>
					</g>
				</g>
			</g>
		</g>
	</g>
</g>
</svg>
