<?xml version="1.0" encoding="utf-8"?>
<!-- Generator: Adobe Illustrator 21.0.0, SVG Export Plug-In . SVG Version: 6.00 Build 0)  -->
<svg version="1.1" id="Layer_1" xmlns="http://www.w3.org/2000/svg" xmlns:xlink="http://www.w3.org/1999/xlink" x="0px" y="0px"
	 viewBox="0 0 1280 750" style="enable-background:new 0 0 1280 750;" xml:space="preserve">
<style type="text/css">
	.st0{fill:#FFFFFF;}
	.st1{fill:#3C5785;}
	.st2{fill:none;}
	.st3{fill:#9CD4F8;}
	.st4{fill:#107AEC;}
	.st5{fill:#FFDB79;}
	.st6{fill:none;stroke:#F7F7F7;stroke-width:5;stroke-miterlimit:10;}
</style>
<path class="st0" d="M56.3,12c0.3-0.1,0.6-0.2,0.8-0.5c0,0,0,0,0,0c0.2-0.3,0.3-0.6,0.2-0.9c-0.1-0.3-0.2-0.6-0.5-0.8
	c-0.2-0.1-0.4-0.2-0.7-0.2c-0.4,0-0.7,0.2-1,0.5c-0.4,0.5-0.2,1.3,0.3,1.6C55.7,12,56,12.1,56.3,12z"/>
<path class="st1" d="M-20.7-12.9h4.7v4.7c0,0.5,0.4,0.9,0.9,0.9c0.5,0,0.9-0.4,0.9-0.9v-4.7h4.7c0.5,0,0.9-0.4,0.9-0.9
	c0-0.5-0.4-0.9-0.9-0.9h-4.7v-4.7c0-0.5-0.4-0.9-0.9-0.9c-0.5,0-0.9,0.4-0.9,0.9v4.7h-4.7c-0.5,0-0.9,0.4-0.9,0.9
	C-21.6-13.3-21.2-12.9-20.7-12.9z"/>
<circle class="st0" cx="82.4" cy="658.4" r="3.4"/>
<circle class="st0" cx="118.6" cy="674.4" r="2"/>
<circle class="st0" cx="96.3" cy="727.5" r="3.4"/>
<g>
	<path class="st2" d="M383.7,447.4c0.1,0.1,0.1,0.3,0.1,0.5C383.8,447.7,383.7,447.6,383.7,447.4z"/>
	<path class="st2" d="M341.3,453.1c-0.1-0.1-0.1-0.3-0.2-0.5C341.2,452.8,341.2,453,341.3,453.1z"/>
	<path class="st2" d="M341.5,453.5c-0.1-0.1-0.1-0.2-0.2-0.3C341.4,453.3,341.4,453.4,341.5,453.5z"/>
	<path class="st2" d="M379.1,443c0.1,0,0.2,0.1,0.3,0.1C379.3,443.1,379.2,443,379.1,443z"/>
	<path class="st2" d="M378.5,442.9c0.1,0,0.2,0,0.3,0.1C378.7,442.9,378.6,442.9,378.5,442.9z"/>
	<path class="st2" d="M342.1,454.4c-0.1-0.1-0.2-0.2-0.3-0.4C341.9,454.2,342,454.3,342.1,454.4z"/>
	<path class="st2" d="M377.8,442.8c0.1,0,0.2,0,0.2,0C378,442.8,377.9,442.8,377.8,442.8z"/>
	<path class="st2" d="M341.7,454c-0.1-0.1-0.1-0.2-0.2-0.3C341.6,453.8,341.7,453.9,341.7,454z"/>
	<path class="st2" d="M343.8,455.9c-0.3-0.2-0.6-0.4-0.9-0.6C343.2,455.5,343.5,455.7,343.8,455.9z"/>
	<path class="st2" d="M345.5,456.4c-0.2,0-0.3,0-0.4-0.1C345.2,456.3,345.4,456.4,345.5,456.4z"/>
	<path class="st2" d="M346.2,456.4c-0.2,0-0.4,0-0.6,0C345.9,456.4,346,456.4,346.2,456.4z"/>
	<path class="st2" d="M344.4,456.1c-0.1-0.1-0.3-0.1-0.4-0.2C344.1,456,344.2,456.1,344.4,456.1z"/>
	<path class="st2" d="M345,456.3c-0.2,0-0.4-0.1-0.5-0.2C344.6,456.2,344.8,456.3,345,456.3z"/>
	<path class="st2" d="M381.2,444.1c0.1,0.1,0.3,0.2,0.4,0.3C381.5,444.3,381.3,444.2,381.2,444.1z"/>
	<path class="st2" d="M383.1,446.1c0.1,0.1,0.2,0.3,0.2,0.4C383.2,446.4,383.1,446.3,383.1,446.1z"/>
	<path class="st2" d="M383.9,448.1c0,0.2,0.1,0.3,0.1,0.5C383.9,448.5,383.9,448.3,383.9,448.1z"/>
	<path class="st2" d="M383.4,446.8c0.1,0.1,0.1,0.3,0.2,0.4C383.5,447.1,383.5,446.9,383.4,446.8z"/>
	<path class="st2" d="M342.1,454.4c0.2,0.3,0.5,0.6,0.8,0.8C342.6,455,342.3,454.7,342.1,454.4z"/>
	<path class="st2" d="M379.7,443.2c0.1,0,0.2,0.1,0.3,0.1C379.9,443.3,379.8,443.3,379.7,443.2z"/>
	<path class="st2" d="M380.7,443.8c0.1,0.1,0.2,0.2,0.4,0.2C381,443.9,380.9,443.8,380.7,443.8z"/>
	<path class="st2" d="M382.7,445.5c0.1,0.1,0.2,0.3,0.3,0.4C382.9,445.8,382.8,445.6,382.7,445.5z"/>
	<path class="st2" d="M380.2,443.5c0.1,0.1,0.2,0.1,0.4,0.2C380.5,443.6,380.3,443.5,380.2,443.5z"/>
	<path class="st2" d="M381.6,444.4c0.2,0.2,0.3,0.3,0.5,0.5C381.9,444.7,381.8,444.5,381.6,444.4z"/>
	<path class="st2" d="M382.2,444.9c0.1,0.1,0.3,0.3,0.4,0.5C382.4,445.2,382.3,445.1,382.2,444.9z"/>
	<path class="st2" d="M384,448.8c0,0.2,0,0.5,0,0.7C384,449.3,384,449.1,384,448.8z"/>
	<path class="st3" d="M342.1,454.4L342.1,454.4c0.2,0.3,0.5,0.6,0.8,0.8c0,0,0,0,0,0c0.3,0.2,0.6,0.4,0.9,0.6c0,0,0.1,0,0.1,0
		c0.1,0.1,0.3,0.1,0.4,0.2c0,0,0.1,0,0.1,0c0.2,0.1,0.3,0.1,0.5,0.2c0,0,0.1,0,0.1,0c0.1,0,0.3,0.1,0.4,0.1c0,0,0.1,0,0.1,0
		c0.2,0,0.4,0,0.6,0h19.2v-1.8C357.7,455.2,349.9,454.4,342.1,454.4z"/>
	<path class="st0" d="M381.6,444.4L381.6,444.4c-0.1-0.1-0.3-0.2-0.4-0.3c0,0-0.1-0.1-0.1-0.1c-0.1-0.1-0.2-0.2-0.4-0.2
		c-0.1,0-0.1-0.1-0.2-0.1c-0.1-0.1-0.2-0.1-0.4-0.2c-0.1,0-0.1-0.1-0.2-0.1c-0.1-0.1-0.2-0.1-0.3-0.1c-0.1,0-0.2-0.1-0.3-0.1
		c-0.1,0-0.2-0.1-0.3-0.1c-0.1,0-0.2-0.1-0.3-0.1c-0.1,0-0.2,0-0.3-0.1c-0.1,0-0.3,0-0.4-0.1c-0.1,0-0.2,0-0.2,0c-0.2,0-0.4,0-0.7,0
		c-0.6,0-1.1,0.1-1.7,0.2l-0.8,0.2l0.2-0.8c0.2-0.7,0.3-1.5,0.3-2.2c0-4.4-3.6-8.1-8.1-8.1c-2.1,0-4,0.8-5.5,2.2
		c0.5,4.3-0.7,8.8-3.6,12.5c-4.2,5.2-10.8,7.3-16.9,5.9c0,0.2,0.1,0.3,0.2,0.5c0,0,0,0.1,0,0.1c0,0.1,0.1,0.2,0.2,0.3
		c0,0,0,0.1,0.1,0.1c0.1,0.1,0.1,0.2,0.2,0.3c0,0,0,0,0,0.1c0.1,0.1,0.2,0.3,0.3,0.4v0c7.8,0,15.6,0.7,23.3,0.2v-10.3l-5,5.1
		c-0.1,0.1-0.2,0.1-0.3,0.1c-0.1,0-0.2,0-0.3-0.1c-0.2-0.2-0.2-0.5,0-0.7l5.8-5.9c0.1-0.1,0.2-0.1,0.3-0.1h0c0.1,0,0.2,0.1,0.3,0.1
		l5.8,5.9c0.2,0.2,0.2,0.5,0,0.7c-0.2,0.2-0.5,0.2-0.7,0l-5-5.1v10.3c4.6-0.4,9.2-1.3,13.7-3.1C382.2,450.5,382.6,447.3,381.6,444.4
		z"/>
	<path class="st3" d="M384,448.8c0-0.1,0-0.1,0-0.2c0-0.2,0-0.3-0.1-0.5c0-0.1,0-0.2-0.1-0.2c0-0.2-0.1-0.3-0.1-0.5
		c0-0.1-0.1-0.2-0.1-0.2c-0.1-0.2-0.1-0.3-0.2-0.4c0-0.1-0.1-0.1-0.1-0.2c-0.1-0.2-0.2-0.3-0.2-0.4c0-0.1-0.1-0.1-0.1-0.2
		c-0.1-0.2-0.2-0.3-0.3-0.4c0,0-0.1-0.1-0.1-0.1c-0.1-0.2-0.3-0.3-0.4-0.5c0,0,0,0-0.1-0.1c-0.2-0.2-0.3-0.3-0.5-0.5l0,0
		c1,2.9,0.6,6.2-1.5,7c-4.5,1.9-9.1,2.7-13.7,3.1v1.9h11.1l0.2,0c3.6-0.2,6.4-3.2,6.4-6.8C384,449.3,384,449.1,384,448.8z"/>
	<path class="st0" d="M333.9,427.4c4.9-6.1,13.7-7,19.8-2.2c1.6,1.3,2.9,2.9,3.8,4.7c0.9,0.5,1.8,1.1,2.7,1.8
		c-0.9-3-2.7-5.8-5.3-7.9c-6.9-5.5-16.9-4.4-22.4,2.5c-3.1,3.9-4.1,8.8-3.1,13.3c0.5-0.9,1-1.7,1.5-2.5
		C330.7,433.7,331.6,430.2,333.9,427.4z"/>
	<path class="st4" d="M357.3,446.2c3.4-4.2,4.3-9.7,2.8-14.5c-0.9-0.6-1.8-1.2-2.7-1.8c2.4,4.8,1.9,10.7-1.6,15.1
		c-4.9,6.1-13.7,7-19.8,2.2c-3.2-2.6-5-6.3-5.2-10.1c-0.6,0.8-1.1,1.7-1.5,2.5c0.7,3.5,2.6,6.7,5.6,9.1
		C341.8,454.1,351.8,453,357.3,446.2z"/>
	<path class="st3" d="M358,436.3c-4-4.7-10.5-6.7-16.5-4.4c-4,1.8-7.1,4.8-9.2,8.4c-1.3-4.1-0.6-8.6,2.3-12.2
		c4.5-5.7,12.8-6.6,18.5-2C356.4,428.6,358.1,432.4,358,436.3z M351.8,427.7c-4.7-3.8-11.6-3-15.4,1.7c-0.2,0.2-0.1,0.5,0.1,0.7
		c0.2,0.2,0.5,0.1,0.7-0.1c3.5-4.3,9.8-5,14.1-1.6c0.2,0.2,0.5,0.1,0.7-0.1C352,428.1,352,427.8,351.8,427.7z"/>
	<path class="st0" d="M341.6,431.8c-4,1.8-7.1,4.8-9.2,8.4c0.8,2.4,2.2,4.6,4.3,6.3c1,0.8,2.1,1.4,3.2,1.9c0.3-3.1,3-5.5,6.1-5.5
		c0.6,0,1.2,0.1,1.7,0.2c0.4-3.7,3.6-6.6,7.4-6.6c1,0,2,0.2,2.9,0.6c0-0.3,0-0.5,0-0.8C354,431.6,347.5,429.5,341.6,431.8z"/>
	<path class="st0" d="M348.6,443.7l0,0.7l-0.6-0.3c-0.6-0.3-1.3-0.4-2-0.4c-2.8,0-5.1,2.2-5.2,4.9c5.1,1.7,10.9,0.2,14.4-4.2
		c1.5-1.9,2.4-4.1,2.8-6.4c-0.9-0.4-1.8-0.7-2.8-0.7C351.6,437.4,348.7,440.2,348.6,443.7z"/>
	<path class="st4" d="M331.5,452.9c-0.7-0.5-1.6-0.4-2.1,0.2l-12.2,15.2c-0.5,0.7-0.4,1.6,0.2,2.1c0.7,0.5,1.6,0.4,2.1-0.2
		l12.2-15.2C332.3,454.4,332.2,453.4,331.5,452.9z"/>
</g>
<circle class="st0" cx="117.9" cy="605.5" r="2"/>
<g>
	<polygon class="st2" points="1200.7,62.5 1205.2,65.6 1203.2,64.2 	"/>
	<polygon class="st2" points="1226.7,46.5 1219,41.1 1221.1,42.5 	"/>
	<path class="st2" d="M1219.1,47.9c0.1,0,0.2,0.1,0.2,0.1C1219.3,47.9,1219.2,47.9,1219.1,47.9z"/>
	<path class="st2" d="M1218.6,47.7c0.1,0,0.2,0.1,0.3,0.1C1218.8,47.8,1218.7,47.8,1218.6,47.7z"/>
	<path class="st2" d="M1217.3,54c-0.1,0-0.1,0-0.2,0C1217.1,54,1217.2,54,1217.3,54z"/>
	<path class="st2" d="M1217.9,54.1c-0.1,0-0.1,0-0.2,0C1217.7,54.1,1217.8,54.1,1217.9,54.1z"/>
	<path class="st2" d="M1218.6,54c-0.1,0-0.2,0-0.3,0.1C1218.5,54,1218.5,54,1218.6,54z"/>
	<path class="st2" d="M1219.4,53.7c0.3-0.1,0.5-0.3,0.8-0.5c-0.1,0.1-0.3,0.3-0.5,0.4C1219.6,53.6,1219.5,53.7,1219.4,53.7z"/>
	<path class="st2" d="M1216.7,53.9c-0.1,0-0.1,0-0.2-0.1C1216.6,53.8,1216.6,53.8,1216.7,53.9z"/>
	<path class="st2" d="M1218.6,47.7c-0.2,0-0.4-0.1-0.7-0.1c0.1,0,0.2,0,0.3,0C1218.3,47.7,1218.4,47.7,1218.6,47.7z"/>
	<path class="st2" d="M1219.2,53.8c-0.1,0-0.2,0.1-0.3,0.1C1219,53.9,1219.1,53.9,1219.2,53.8z"/>
	<path class="st4" d="M1225.8,39.5c-1.9,0-3.8,0.4-5.5,1l6.5,4.5C1226.7,43.2,1226.4,41.4,1225.8,39.5z"/>
	<path class="st3" d="M1221.1,42.5l-2-1.4c-3,1.3-5.7,3.4-7.6,6.2l-4.5,6.5l-5.5,7.9l-0.6,0.8l2.5,1.7
		C1208,55.9,1212.4,45.7,1221.1,42.5z"/>
	<path class="st0" d="M1212.8,71l-4.5-3.2l6-8.5c0.3-0.4,0.4-0.8,0.3-1.3c-0.1-0.4-0.3-0.8-0.7-1.1l-0.3-0.2
		c-0.4-0.3-0.8-0.4-1.3-0.3c-0.4,0.1-0.8,0.3-1.1,0.7l-6,8.5l-2-1.4c4.8-8.3,9.2-18.5,17.9-21.7l5.7,4c-0.2,3.3-1.3,6.5-3.3,9.3
		l-4.1,5.8v0l-6,8.6L1212.8,71z M1215.4,54.4c0.7,0.5,1.6,0.8,2.5,0.8c0.3,0,0.5,0,0.8-0.1c1.2-0.2,2.2-0.8,2.8-1.8
		c1.4-2,0.9-4.7-1.1-6.1c-2-1.4-4.7-0.9-6.1,1.1C1212.9,50.3,1213.4,53.1,1215.4,54.4z"/>
	<path class="st4" d="M1196.2,59.2l-1.9,2.7l3.6,2.5l7.7-11C1201.9,53.9,1198.5,56,1196.2,59.2z"/>
	<path class="st4" d="M1211.9,74.2l3.6,2.5l1.9-2.7c2.2-3.2,3-7.1,2.2-10.8L1211.9,74.2z"/>
	<path class="st4" d="M1213.4,58.2c0-0.1-0.1-0.3-0.2-0.4l-0.3-0.2l0,0c-0.1-0.1-0.3-0.1-0.4-0.1c-0.1,0-0.3,0.1-0.4,0.2l-7.8,11.1
		l1.2,0.9l7.8-11.1C1213.4,58.5,1213.4,58.4,1213.4,58.2z"/>
	<path class="st3" d="M1216,53.5c0.2,0.1,0.3,0.2,0.5,0.3c0.1,0,0.1,0,0.2,0.1c0.1,0,0.2,0.1,0.4,0.1c0.1,0,0.1,0,0.2,0
		c0.1,0,0.3,0,0.4,0c0.1,0,0.1,0,0.2,0c0.2,0,0.3,0,0.5,0c0.1,0,0.2,0,0.3-0.1c0.1,0,0.2,0,0.2-0.1c0.1,0,0.2-0.1,0.3-0.1
		c0.1,0,0.1-0.1,0.2-0.1c0.1-0.1,0.2-0.1,0.3-0.2c-1.5-1.6-2-3.9-1.5-5.9c-0.1,0-0.2,0-0.3,0c-1,0-2,0.5-2.6,1.4
		C1214.2,50.5,1214.6,52.5,1216,53.5z"/>
	<path class="st0" d="M1219.7,53.6c0.2-0.1,0.3-0.2,0.5-0.4c0.1-0.1,0.3-0.3,0.4-0.5c1-1.5,0.7-3.5-0.8-4.5
		c-0.1-0.1-0.3-0.2-0.4-0.2c-0.1,0-0.2-0.1-0.2-0.1c-0.1,0-0.1,0-0.2-0.1c-0.1,0-0.2-0.1-0.3-0.1c0,0,0,0-0.1,0
		c-0.1,0-0.3,0-0.4-0.1C1217.7,49.7,1218.2,52,1219.7,53.6z"/>
</g>
<path class="st1" d="M384.3,449c0,3.9-3,7.2-6.8,7.7v0l-0.5,0h-31.4c-3,0-5.6-2.1-6.2-5c-1.9-0.6-3.7-1.5-5.4-2.7l-2.3,2.8
	c0.7,0.9,0.8,2.2,0,3.1l-12.2,15.2c-0.8,1.1-2.4,1.2-3.5,0.4c-1.1-0.8-1.2-2.4-0.4-3.5l12.2-15.2c0.7-0.9,2-1.2,3.1-0.6l2.3-2.8
	c-6.9-5.9-8-16.3-2.2-23.4c5.8-7.3,16.5-8.4,23.7-2.6c3.3,2.6,5.3,6.3,6,10.2c1.6-1.3,3.5-2,5.7-2c5,0,9,4,9,9
	c0,0.6-0.1,1.1-0.2,1.7c0.4-0.1,0.8-0.1,1.2-0.1C380.8,441.2,384.3,444.7,384.3,449z M330.9,452.3c-0.7-0.5-1.6-0.4-2.1,0.2
	l-12.2,15.2c-0.5,0.7-0.4,1.6,0.2,2.1c0.7,0.5,1.6,0.4,2.1-0.2l12.2-15.2C331.7,453.8,331.6,452.8,330.9,452.3z M356.7,445.6
	c3.4-4.2,4.3-9.7,2.8-14.5c-0.9-3-2.7-5.8-5.3-7.9c-6.9-5.5-16.9-4.4-22.4,2.5c-3.1,3.9-4.1,8.8-3.1,13.3c0.7,3.5,2.6,6.7,5.6,9.1
	C341.2,453.5,351.2,452.4,356.7,445.6z M383.4,449c0-0.3,0-0.5,0-0.7c0-0.1,0-0.1,0-0.2c0-0.2,0-0.3-0.1-0.5c0-0.1,0-0.2-0.1-0.2
	c0-0.2-0.1-0.3-0.1-0.5c0-0.1-0.1-0.2-0.1-0.2c-0.1-0.2-0.1-0.3-0.2-0.4c0-0.1-0.1-0.1-0.1-0.2c-0.1-0.2-0.2-0.3-0.2-0.4
	c0-0.1-0.1-0.1-0.1-0.2c-0.1-0.2-0.2-0.3-0.3-0.4c0,0-0.1-0.1-0.1-0.1c-0.1-0.2-0.3-0.3-0.4-0.5c0,0,0,0-0.1-0.1
	c-0.2-0.2-0.3-0.3-0.5-0.5l0,0v0c-0.1-0.1-0.3-0.2-0.4-0.3c0,0-0.1-0.1-0.1-0.1c-0.1-0.1-0.2-0.2-0.4-0.2c-0.1,0-0.1-0.1-0.2-0.1
	c-0.1-0.1-0.2-0.1-0.4-0.2c-0.1,0-0.1-0.1-0.2-0.1c-0.1-0.1-0.2-0.1-0.3-0.1c-0.1,0-0.2-0.1-0.3-0.1c-0.1,0-0.2-0.1-0.3-0.1
	c-0.1,0-0.2-0.1-0.3-0.1c-0.1,0-0.2,0-0.3-0.1c-0.1,0-0.3,0-0.4-0.1c-0.1,0-0.2,0-0.2,0c-0.2,0-0.4,0-0.7,0c-0.6,0-1.1,0.1-1.7,0.2
	l-0.8,0.2l0.2-0.8c0.2-0.7,0.3-1.5,0.3-2.2c0-4.4-3.6-8.1-8.1-8.1c-2.1,0-4,0.8-5.5,2.2c0.5,4.3-0.7,8.8-3.6,12.5
	c-4.2,5.2-10.8,7.3-16.9,5.9c0,0.2,0.1,0.3,0.2,0.5c0,0,0,0.1,0,0.1c0,0.1,0.1,0.2,0.2,0.3c0,0,0,0.1,0.1,0.1
	c0.1,0.1,0.1,0.2,0.2,0.3c0,0,0,0,0,0.1c0.1,0.1,0.2,0.3,0.3,0.4v0h0c0.2,0.3,0.5,0.6,0.8,0.8c0,0,0,0,0,0c0.3,0.2,0.6,0.4,0.9,0.6
	c0,0,0.1,0,0.1,0c0.1,0.1,0.3,0.1,0.4,0.2c0,0,0.1,0,0.1,0c0.2,0.1,0.3,0.1,0.5,0.2c0,0,0.1,0,0.1,0c0.1,0,0.3,0.1,0.4,0.1
	c0,0,0.1,0,0.1,0c0.2,0,0.4,0,0.6,0h19.2V454v-10.3l-5,5.1c-0.1,0.1-0.2,0.1-0.3,0.1c-0.1,0-0.2,0-0.3-0.1c-0.2-0.2-0.2-0.5,0-0.7
	l5.8-5.9c0.1-0.1,0.2-0.1,0.3-0.1h0c0.1,0,0.2,0.1,0.3,0.1l5.8,5.9c0.2,0.2,0.2,0.5,0,0.7c-0.2,0.2-0.5,0.2-0.7,0l-5-5.1v10.3v1.9
	h11.1l0.2,0C380.6,455.6,383.4,452.6,383.4,449z"/>
<path class="st1" d="M356.9,429.3c2.4,4.8,1.9,10.7-1.6,15.1c-4.9,6.1-13.7,7-19.8,2.2c-3.2-2.6-5-6.3-5.2-10.1
	c-0.2-3.4,0.8-6.8,3.1-9.7c4.9-6.1,13.7-7,19.8-2.2C354.7,425.9,356,427.5,356.9,429.3z M357.3,437.4c-0.9-0.4-1.8-0.7-2.8-0.7
	c-3.5,0-6.4,2.9-6.5,6.4l0,0.7l-0.6-0.3c-0.6-0.3-1.3-0.4-2-0.4c-2.8,0-5.1,2.2-5.2,4.9c5.1,1.7,10.9,0.2,14.4-4.2
	C356.1,441.9,357,439.7,357.3,437.4z M352.5,425.3c-5.7-4.5-14-3.6-18.5,2c-2.9,3.6-3.5,8.2-2.3,12.2c0.8,2.4,2.2,4.6,4.3,6.3
	c1,0.8,2.1,1.4,3.2,1.9c0.3-3.1,3-5.5,6.1-5.5c0.6,0,1.2,0.1,1.7,0.2c0.4-3.7,3.6-6.6,7.4-6.6c1,0,2,0.2,2.9,0.6c0-0.3,0-0.5,0-0.8
	C357.4,431.8,355.8,427.9,352.5,425.3z"/>
<path class="st1" d="M335.7,428.7c-0.2,0.2-0.1,0.5,0.1,0.7c0.2,0.2,0.5,0.1,0.7-0.1c3.5-4.3,9.8-5,14.1-1.6
	c0.2,0.2,0.5,0.1,0.7-0.1c0.2-0.2,0.1-0.5-0.1-0.7C346.4,423.3,339.5,424,335.7,428.7z"/>
<path class="st1" d="M373.4,459.2c0.3,0,0.5-0.2,0.5-0.5c0-0.3-0.2-0.5-0.5-0.5h-28c-0.3,0-0.5,0.2-0.5,0.5c0,0.3,0.2,0.5,0.5,0.5
	H373.4z"/>
<path class="st1" d="M250.6,653.2h-4c-0.5,0-0.9,0.4-0.9,0.9c0,0.5,0.4,0.9,0.9,0.9h4c0.5,0,0.9-0.4,0.9-0.9
	C251.5,653.6,251.1,653.2,250.6,653.2z"/>
<path class="st1" d="M1219.7,61.2c1.2,4.4,0.5,9-2.2,12.7l-2.2,3.1c-0.1,0.2-0.3,0.2-0.5,0.2c-0.1,0-0.2,0-0.3-0.1L1210,74
	c-0.1-0.1-0.2-0.2-0.2-0.4c0-0.1,0-0.3,0.1-0.4l1.5-2.1l-4.5-3.2l-1.5,2.1c-0.1,0.1-0.2,0.2-0.4,0.2c0,0-0.1,0-0.1,0
	c-0.1,0-0.2,0-0.3-0.1l-2.1-1.5c-0.3-0.2-0.3-0.5-0.1-0.8l1.5-2.1l-4.5-3.2l-1.5,2.1c-0.1,0.2-0.3,0.2-0.5,0.2c-0.1,0-0.2,0-0.3-0.1
	l-4.5-3.2c-0.1-0.1-0.2-0.2-0.2-0.4c0-0.2,0-0.3,0.1-0.4l2.2-3.1c2.6-3.7,6.7-6,11.2-6.3l3.9-5.5c2.1-3,5-5.3,8.3-6.7
	c0,0,0.1,0,0.1,0c2.2-0.9,4.6-1.4,7.1-1.5l1.7-2.4c-0.5-0.6-0.5-1.5,0-2.2c0.6-0.9,1.8-1.1,2.6-0.5c0.4,0.3,0.7,0.7,0.8,1.2
	c0.1,0.5,0,1-0.3,1.4c-0.3,0.4-0.7,0.7-1.2,0.8c-0.1,0-0.2,0-0.3,0c-0.2,0-0.4,0-0.6-0.1l-1.7,2.4c0.8,2.3,1.1,4.7,1,7.1
	c0,0,0,0.1,0,0.1c-0.2,3.6-1.4,7.1-3.5,10.1L1219.7,61.2z M1228,34.7c0.2,0.1,0.4,0.2,0.6,0.1c0.2,0,0.4-0.1,0.5-0.3v0
	c0.1-0.2,0.2-0.4,0.1-0.6c0-0.2-0.1-0.4-0.3-0.5c-0.1-0.1-0.3-0.1-0.4-0.1c-0.2,0-0.5,0.1-0.6,0.3C1227.5,34,1227.6,34.4,1228,34.7z
	 M1219.5,39.8l6.5,4.5c0-1.9-0.3-3.7-0.9-5.6C1223.2,38.8,1221.3,39.2,1219.5,39.8z M1204.9,52.6c-3.8,0.5-7.2,2.6-9.4,5.8l-1.9,2.7
	l3.6,2.5L1204.9,52.6z M1212.6,57.9c0.1-0.1,0.1-0.3,0.1-0.4c0-0.1-0.1-0.3-0.2-0.4l-0.3-0.2l0,0c-0.1-0.1-0.3-0.1-0.4-0.1
	c-0.1,0-0.3,0.1-0.4,0.2l-7.8,11.1l1.2,0.9L1212.6,57.9z M1212,70.2l0.6-0.8l6-8.6l0,0l4.1-5.8c2-2.8,3.1-6,3.3-9.3l-7.7-5.4
	c-3,1.3-5.7,3.4-7.6,6.2l-4.5,6.5l-5.5,7.9l-0.6,0.8l4.5,3.2l6-8.5c0.3-0.4,0.7-0.6,1.1-0.7c0.4-0.1,0.9,0,1.3,0.3l0.3,0.2
	c0.4,0.3,0.6,0.7,0.7,1.1c0.1,0.4,0,0.9-0.3,1.3l-6,8.5L1212,70.2z M1218.9,62.4l-7.7,11l3.6,2.5l1.9-2.7
	C1218.9,70.1,1219.7,66.2,1218.9,62.4z"/>
<path class="st1" d="M1213.5,47.6c1.4-2,4.1-2.5,6.1-1.1c2,1.4,2.5,4.1,1.1,6.1c-0.7,1-1.7,1.6-2.8,1.8c-0.3,0-0.5,0.1-0.8,0.1
	c-0.9,0-1.8-0.3-2.5-0.8C1212.6,52.3,1212.1,49.6,1213.5,47.6z M1215.3,52.7c0.2,0.1,0.3,0.2,0.5,0.3c0.1,0,0.1,0,0.2,0.1
	c0.1,0,0.2,0.1,0.4,0.1c0.1,0,0.1,0,0.2,0c0.1,0,0.3,0,0.4,0c0.1,0,0.1,0,0.2,0c0.2,0,0.3,0,0.5,0c0.1,0,0.2,0,0.3-0.1
	c0.1,0,0.2,0,0.2-0.1c0.1,0,0.2-0.1,0.3-0.1c0.1,0,0.1-0.1,0.2-0.1c0.3-0.1,0.5-0.3,0.8-0.5c0.1-0.1,0.3-0.3,0.4-0.5
	c1-1.5,0.7-3.5-0.8-4.5c-0.1-0.1-0.3-0.2-0.4-0.2c-0.1,0-0.2-0.1-0.2-0.1c-0.1,0-0.1,0-0.2-0.1c-0.1,0-0.2-0.1-0.3-0.1
	c0,0,0,0-0.1,0c-0.2,0-0.4-0.1-0.7-0.1c-1,0-2,0.5-2.6,1.4C1213.4,49.7,1213.8,51.7,1215.3,52.7z"/>
<path class="st1" d="M1206.6,75.8l-13.4,19.3c-0.2,0.3-0.1,0.6,0.1,0.8c0.1,0.1,0.2,0.1,0.3,0.1c0.2,0,0.4-0.1,0.5-0.2l13.4-19.3
	c0.2-0.3,0.1-0.6-0.1-0.8C1207.2,75.5,1206.8,75.6,1206.6,75.8z"/>
<path class="st1" d="M1199.9,76.8c-0.3-0.2-0.6-0.1-0.8,0.1l-15.9,22.9c-0.2,0.3-0.1,0.6,0.1,0.8c0.1,0.1,0.2,0.1,0.3,0.1
	c0.2,0,0.4-0.1,0.5-0.2l15.9-22.9C1200.3,77.3,1200.2,77,1199.9,76.8z"/>
<path class="st1" d="M1193.8,79.3l5.3-7.7c0.2-0.3,0.1-0.6-0.1-0.8c-0.3-0.2-0.6-0.1-0.8,0.1l-5.3,7.7c-0.2,0.3-0.1,0.6,0.1,0.8
	c0.1,0.1,0.2,0.1,0.3,0.1C1193.5,79.5,1193.7,79.4,1193.8,79.3z"/>
<path class="st1" d="M1184.1,91.5c0.2,0,0.4-0.1,0.5-0.2l4.8-6.9c0.2-0.3,0.1-0.6-0.1-0.8c-0.3-0.2-0.6-0.1-0.8,0.1l-4.8,6.9
	c-0.2,0.3-0.1,0.6,0.1,0.8C1183.9,91.5,1184,91.5,1184.1,91.5z"/>
<path class="st1" d="M1184.6,83.7c0.2,0,0.4-0.1,0.5-0.2l6.5-9.4c0.2-0.3,0.1-0.6-0.1-0.8c-0.3-0.2-0.6-0.1-0.8,0.1l-6.5,9.4
	c-0.2,0.3-0.1,0.6,0.1,0.8C1184.4,83.7,1184.5,83.7,1184.6,83.7z"/>
<g>
	<path class="st2" d="M118,215.7c1.5-0.9,2.9-1.9,4.3-2.9c0.1-1.7,0.2-3.4,0.2-5.2c0-1.6,0-3.2-0.1-4.7c-1.2-1-2.4-2-3.6-3
		c-1.8-1.4-3.5-2.6-5.3-3.8c-1.9,1-3.8,2.1-5.7,3.2c-1.5,0.9-2.9,1.9-4.3,2.9c-0.1,1.7-0.2,3.4-0.2,5.2c0,1.6,0,3.2,0.1,4.7
		c1.2,1,2.4,2,3.6,3c0.5,0.4,1,0.8,1.5,1.1l8.4,0.1C117.2,216.1,117.6,215.9,118,215.7z"/>
	<path class="st2" d="M106.2,216.1c-1-0.7-1.9-1.5-2.8-2.3c0,0.8,0.1,1.6,0.2,2.4l2.8,0C106.4,216.2,106.3,216.1,106.2,216.1z"/>
	<path class="st2" d="M97.7,206.7c1.3,1.4,2.8,2.9,4.4,4.3c0-1.2,0-2.4,0-3.6c0-1.4,0.1-2.9,0.2-4.2
		C100.6,204.3,99.1,205.5,97.7,206.7z"/>
	<path class="st2" d="M123.7,204.1c0,1.2,0,2.4,0,3.6c0,1.4-0.1,2.8-0.2,4.2c1.6-1.2,3.1-2.4,4.5-3.6
		C126.7,206.9,125.3,205.5,123.7,204.1z"/>
	<path class="st2" d="M129,207.5c4.4-3.9,7.5-7.7,8.8-10.8c-2.7-0.2-4.8-2.4-4.7-5.1c0-0.5,0.1-1,0.3-1.5c-0.1,0-0.2,0-0.3,0
		c-1.6,0-3.5,0.2-5.7,0.7c-1.5,0.4-3.2,0.8-4.8,1.4c0.6,3.1,1,6.5,1.1,10.2C125.6,204.1,127.4,205.8,129,207.5z"/>
	<path class="st2" d="M122.1,214.4c-1,0.7-2,1.3-3,2l2.8,0C122,215.8,122.1,215.1,122.1,214.4z"/>
	<path class="st2" d="M128.9,209.3c-1.7,1.4-3.5,2.8-5.4,4.2c-0.1,1-0.2,2-0.3,2.9l11.3,0.1C133.1,214.3,131.2,211.8,128.9,209.3z"
		/>
	<path class="st2" d="M101.7,216.2l0.6,0c-0.1-1.1-0.2-2.3-0.2-3.5c-1.9-1.7-3.7-3.4-5.4-5.2c-2.1,1.8-3.9,3.7-5.4,5.5
		c-1.2,1.4-2.1,2.7-2.7,4c1.8,0.8,3.1,2.6,3.1,4.7c0,1.2-0.4,2.2-1.1,3.1c1.5,0.3,3.5,0.3,5.9-0.1l0-3.5
		C96.7,218.4,99,216.1,101.7,216.2z"/>
	<path class="st2" d="M107.2,198.3c1.7-1.1,3.4-2,5.1-3c-2.5-1.6-4.9-2.9-7.2-4.1c-0.7,2.8-1.2,6-1.5,9.3
		C104.8,199.8,106,199.1,107.2,198.3z"/>
	<path class="st2" d="M102.3,201.6c0.3-3.9,0.9-7.6,1.6-10.8c-1.2-0.6-2.5-1.1-3.6-1.5c-5.3-1.9-9.2-1.8-10.7,0.1
		c-1.5,1.9-0.6,5.7,2.5,10.4c1.3,2,2.9,4,4.7,6C98.6,204.4,100.4,202.9,102.3,201.6z"/>
	<path class="st2" d="M121.1,191.4c-0.9-4.4-2.2-8-3.7-10.4c-0.9,0.9-2.2,1.4-3.6,1.4c-1.7,0-3.3-0.9-4.1-2.3
		c-1.7,2.1-3.1,5.5-4.2,9.9c2.6,1.3,5.4,2.8,8.2,4.6C116.1,193.4,118.7,192.3,121.1,191.4z"/>
	<path class="st2" d="M99,218.5c0.7-0.7,1.6-1.1,2.6-1.1C100.5,217.4,99.6,217.9,99,218.5z"/>
	<path class="st2" d="M119.6,199c1,0.7,1.9,1.5,2.8,2.3c-0.2-3.1-0.5-6-1-8.6c-2.1,0.8-4.3,1.8-6.6,2.9
		C116.4,196.6,118,197.8,119.6,199z"/>
	
		<ellipse transform="matrix(1.311253e-02 -0.9999 0.9999 1.311253e-02 -55.3029 327.255)" class="st0" cx="138.1" cy="191.6" rx="3.8" ry="3.8"/>
	
		<ellipse transform="matrix(1.311253e-02 -0.9999 0.9999 1.311253e-02 -65.0203 288.9097)" class="st0" cx="113.9" cy="177.4" rx="3.8" ry="3.8"/>
	
		<ellipse transform="matrix(1.311253e-02 -0.9999 0.9999 1.311253e-02 -136.0668 305.4239)" class="st0" cx="86.7" cy="221.6" rx="3.8" ry="3.8"/>
	<path class="st4" d="M143.7,247.7l-7.7-0.1c-3.3,6.1-8.3,6.8-8.5,6.8c0,0-0.1,0-0.1,0c-0.1,0-0.3-0.1-0.4-0.2
		c-0.1-0.1-0.2-0.3-0.2-0.5l0.1-6.3l-7.1-0.1l-0.1,6.4c0,1.7,1.3,3.1,3,3.1l20.7,0.3c0.2,0,0.4,0.1,0.5,0.3c1.7,3.5,4.2,4.8,5.4,5.2
		l0.1-4.9c0-0.3,0.3-0.6,0.6-0.6l7.4,0.1c1.7,0,3.1-1.3,3.1-3l0.2-17.1c0-1.7-1.3-3.1-3-3.1L149,234l-0.1,8.7
		C148.8,245.5,146.5,247.7,143.7,247.7z"/>
	<path class="st0" d="M101.7,217.4l42.4,0.6c2.1,0,3.8,1.8,3.8,3.9l-0.3,20.9c0,2.1-1.8,3.8-3.9,3.8l-8.1-0.1
		c-0.2,0-0.4,0.1-0.6,0.3c-2.3,4.5-5.6,5.9-7,6.3l0.1-6.2c0-0.3-0.3-0.6-0.6-0.6l-0.2,0c0-0.1,0-0.3,0-0.4c-9-1.8-19.7,1.4-24.5-3.6
		c-5.2-6-5-16.7-1.3-24.9C101.6,217.4,101.7,217.4,101.7,217.4z M130.2,232.1c0,1.7,1.3,3.1,3,3.1c1.7,0,3.1-1.3,3.1-3
		c0-1.7-1.3-3.1-3-3.1C131.6,229.1,130.2,230.4,130.2,232.1z M119.7,232c0,1.7,1.3,3.1,3,3.1c1.7,0,3.1-1.3,3.1-3
		c0-1.7-1.3-3.1-3-3.1C121.1,228.9,119.7,230.3,119.7,232z M109.1,231.9c0,1.7,1.3,3.1,3,3.1c1.7,0,3.1-1.3,3.1-3
		c0-1.7-1.3-3.1-3-3.1C110.5,228.8,109.1,230.2,109.1,231.9z"/>
	<path class="st3" d="M102.8,242.3c-5.2-6-5-16.7-1.3-24.9l0,0c-1,0-1.9,0.5-2.6,1.1c0,0,0,0-0.1,0.1c-0.1,0.1-0.3,0.3-0.4,0.5
		c0,0.1-0.1,0.1-0.1,0.2c-0.1,0.1-0.2,0.3-0.2,0.4c-0.1,0.1-0.1,0.3-0.1,0.4c0,0.1-0.1,0.2-0.1,0.3c-0.1,0.2-0.1,0.5-0.1,0.8
		L97.6,242c0,2.1,1.7,3.9,3.8,3.9l26,0.3c0-0.1,0-0.3,0-0.4C118.4,244.1,107.7,247.3,102.8,242.3z"/>
	
		<ellipse transform="matrix(1.311253e-02 -0.9999 0.9999 1.311253e-02 -121.1469 341.0425)" class="st4" cx="112.2" cy="231.9" rx="1.9" ry="1.9"/>
	
		<ellipse transform="matrix(1.311253e-02 -0.9999 0.9999 1.311253e-02 -110.8902 351.7108)" class="st4" cx="122.7" cy="232" rx="1.9" ry="1.9"/>
	
		<ellipse transform="matrix(1.311253e-02 -0.9999 0.9999 1.311253e-02 -100.6333 362.3794)" class="st4" cx="133.3" cy="232.2" rx="1.9" ry="1.9"/>
</g>
<path class="st0" d="M108.2,278.8c0.3-0.1,0.6-0.2,0.8-0.5c0,0,0,0,0,0c0.2-0.3,0.3-0.6,0.2-0.9c-0.1-0.3-0.2-0.6-0.5-0.8
	c-0.2-0.1-0.4-0.2-0.7-0.2c-0.4,0-0.7,0.2-1,0.5c-0.4,0.5-0.2,1.3,0.3,1.6C107.6,278.7,107.9,278.8,108.2,278.8z"/>
<path class="st1" d="M80.8,220.7c0-2.8,2.3-5,5.1-5c0.2,0,0.5,0,0.7,0.1c0.7-1.4,1.7-2.8,3-4.4c1.5-1.8,3.4-3.7,5.5-5.6
	c-1.9-2.1-3.5-4.2-4.8-6.2c-3.5-5.3-4.3-9.5-2.5-11.8c1.9-2.4,6.1-2.5,12.1-0.5c1.1,0.4,2.3,0.9,3.5,1.4c1.2-4.7,2.9-8.3,4.8-10.5
	c-0.2-0.5-0.3-1.1-0.3-1.7c0-2.8,2.3-5,5.1-5c2.8,0,5,2.3,5,5.1c0,1-0.3,1.8-0.8,2.6c1.7,2.5,3.1,6.3,4.1,10.9
	c1.7-0.6,3.3-1.1,4.8-1.4c2.7-0.6,4.9-0.8,6.8-0.7c0.9-1.4,2.5-2.3,4.3-2.3c2.8,0,5,2.3,5,5.1c0,2.4-1.8,4.5-4.1,4.9
	c-1.3,3.4-4.5,7.6-9.3,11.8c2.6,2.9,4.6,5.6,6,8.2l-1.4,0c-1.4-2.3-3.2-4.8-5.6-7.3c-1.7,1.4-3.5,2.8-5.4,4.2c-0.1,1-0.2,2-0.3,2.9
	l-1.2,0c0.1-0.7,0.1-1.3,0.2-2c-1,0.7-2,1.3-3,2l-2.3,0c0.4-0.2,0.7-0.4,1.1-0.7c1.5-0.9,2.9-1.9,4.3-2.9c0.1-1.7,0.2-3.4,0.2-5.2
	c0-1.6,0-3.2-0.1-4.7c-1.2-1-2.4-2-3.6-3c-1.8-1.4-3.5-2.6-5.3-3.8c-1.9,1-3.8,2.1-5.7,3.2c-1.5,0.9-2.9,1.9-4.3,2.9
	c-0.1,1.7-0.2,3.4-0.2,5.2c0,1.6,0,3.2,0.1,4.7c1.2,1,2.4,2,3.6,3c0.5,0.4,1,0.8,1.5,1.1l-2.1,0c-0.1,0-0.1-0.1-0.2-0.1
	c-1-0.7-1.9-1.5-2.8-2.3c0,0.8,0.1,1.6,0.2,2.4l-1.2,0c-0.1-1.1-0.2-2.3-0.2-3.5c-1.9-1.7-3.7-3.4-5.4-5.2c-2.1,1.8-3.9,3.7-5.4,5.5
	c-1.2,1.4-2.1,2.7-2.7,4c1.8,0.8,3.1,2.6,3.1,4.7c0,1.2-0.4,2.2-1.1,3.1c1.5,0.3,3.5,0.3,5.9-0.1l0,1.2c-1.4,0.2-2.6,0.3-3.8,0.3
	c-1.2,0-2.3-0.2-3.2-0.5c-0.8,0.6-1.9,0.9-3,0.9C83,225.9,80.8,223.5,80.8,220.7z M101.2,206.6c0-1.4,0.1-2.9,0.2-4.2
	c-1.6,1.2-3.1,2.4-4.5,3.6c1.3,1.4,2.8,2.9,4.4,4.3C101.2,209,101.2,207.8,101.2,206.6z M127.2,207.5c-1.3-1.4-2.8-2.8-4.3-4.3
	c0,1.2,0,2.4,0,3.6c0,1.4-0.1,2.8-0.2,4.2C124.4,209.9,125.9,208.7,127.2,207.5z M133.5,190.8c0,2.1,1.7,3.9,3.8,3.9
	c2.1,0,3.9-1.7,3.9-3.8c0-2.1-1.7-3.9-3.8-3.9C135.3,186.9,133.5,188.6,133.5,190.8z M121.7,191.4c0.6,3.1,1,6.5,1.1,10.2
	c2,1.7,3.7,3.4,5.3,5.2c4.4-3.9,7.5-7.7,8.8-10.8c-2.7-0.2-4.8-2.4-4.7-5.1c0-0.5,0.1-1,0.3-1.5c-0.1,0-0.2,0-0.3,0
	c-1.6,0-3.5,0.2-5.7,0.7C125,190.3,123.4,190.8,121.7,191.4z M120.5,191.8c-2.1,0.8-4.3,1.8-6.6,2.9c1.6,1.1,3.2,2.3,4.8,3.5
	c1,0.7,1.9,1.5,2.8,2.3C121.4,197.4,121,194.4,120.5,191.8z M109.2,176.5c0,2.1,1.7,3.9,3.8,3.9c2.1,0,3.9-1.7,3.9-3.8
	c0-2.1-1.7-3.9-3.8-3.9C111,172.7,109.2,174.4,109.2,176.5z M104.6,189.3c2.6,1.3,5.4,2.8,8.2,4.6c2.6-1.3,5.1-2.4,7.5-3.3
	c-0.9-4.4-2.2-8-3.7-10.4c-0.9,0.9-2.2,1.4-3.6,1.4c-1.7,0-3.3-0.9-4.1-2.3C107.2,181.5,105.7,184.9,104.6,189.3z M102.8,199.8
	c1.1-0.8,2.3-1.6,3.5-2.3c1.7-1.1,3.4-2,5.1-3c-2.5-1.6-4.9-2.9-7.2-4.1C103.6,193.3,103.1,196.5,102.8,199.8z M96.1,205
	c1.7-1.4,3.5-2.9,5.4-4.3c0.3-3.9,0.9-7.6,1.6-10.8c-1.2-0.6-2.5-1.1-3.6-1.5c-5.3-1.9-9.2-1.8-10.7,0.1c-1.5,1.9-0.6,5.7,2.5,10.4
	C92.6,200.9,94.2,202.9,96.1,205z M82,220.8c0,2.1,1.7,3.9,3.8,3.9c2.1,0,3.9-1.7,3.9-3.8c0-2.1-1.7-3.9-3.8-3.9
	C83.8,216.9,82.1,218.6,82,220.8z"/>
<path class="st1" d="M133.7,215.8l1.4,0l8.2,0.1c2.8,0,5,2.3,5,5.1l-0.1,10.9l8.7,0.1c2.3,0,4.2,2,4.2,4.3l-0.2,17.1
	c0,2.3-2,4.2-4.3,4.2l-6.8-0.1l-0.1,5.1c0,0.2-0.1,0.3-0.2,0.5c-0.1,0.1-0.3,0.1-0.4,0.1c0,0-0.1,0-0.1,0c-0.2,0-4.2-0.7-6.9-5.8
	l-20.3-0.3c-2.3,0-4.2-2-4.2-4.3l0.1-6.4l-17.2-0.2c-2.8,0-5-2.3-5-5.1l0.2-16.1l0-1.2l0-3.5c0-2.8,2.3-5,5.1-5l0.6,0l1.2,0l2.8,0
	l2.1,0l8.4,0.1l2.3,0l2.8,0l1.2,0L133.7,215.8z M148,241.9c0,2.8-2.3,5-5.1,5l-7.7-0.1c-3.3,6.1-8.3,6.8-8.5,6.8c0,0-0.1,0-0.1,0
	c-0.1,0-0.3-0.1-0.4-0.2c-0.1-0.1-0.2-0.3-0.2-0.5l0.1-6.3l-7.1-0.1l-0.1,6.4c0,1.7,1.3,3.1,3,3.1l20.7,0.3c0.2,0,0.4,0.1,0.5,0.3
	c1.7,3.5,4.2,4.8,5.4,5.2l0.1-4.9c0-0.3,0.3-0.6,0.6-0.6l7.4,0.1c1.7,0,3.1-1.3,3.1-3l0.2-17.1c0-1.7-1.3-3.1-3-3.1l-8.7-0.1
	L148,241.9z M100.9,216.6c-0.1,0-0.1,0-0.2,0l0,0c-1,0-1.9,0.5-2.6,1.1c0,0,0,0-0.1,0.1c-0.1,0.1-0.3,0.3-0.4,0.5
	c0,0.1-0.1,0.1-0.1,0.2c-0.1,0.1-0.2,0.3-0.2,0.4c-0.1,0.1-0.1,0.3-0.1,0.4c0,0.1-0.1,0.2-0.1,0.3c-0.1,0.2-0.1,0.5-0.1,0.8
	l-0.3,20.9c0,2.1,1.7,3.9,3.8,3.9l26,0.3l0.2,0c0.3,0,0.6,0.3,0.6,0.6l-0.1,6.2c1.4-0.4,4.7-1.8,7-6.3c0.1-0.2,0.3-0.3,0.6-0.3
	l8.1,0.1c2.1,0,3.9-1.7,3.9-3.8l0.3-20.9c0-2.1-1.7-3.9-3.8-3.9L100.9,216.6z"/>
<path class="st1" d="M108.3,231c0-1.7,1.4-3.1,3.1-3c1.7,0,3.1,1.4,3,3.1c0,1.7-1.4,3.1-3.1,3C109.7,234.1,108.3,232.7,108.3,231z
	 M109.5,231c0,1,0.8,1.9,1.8,1.9c1,0,1.9-0.8,1.9-1.8c0-1-0.8-1.9-1.8-1.9C110.4,229.2,109.6,230,109.5,231z"/>
<path class="st1" d="M118.8,231.2c0-1.7,1.4-3.1,3.1-3c1.7,0,3.1,1.4,3,3.1c0,1.7-1.4,3.1-3.1,3
	C120.2,234.3,118.8,232.9,118.8,231.2z M120.1,231.2c0,1,0.8,1.9,1.8,1.9c1,0,1.9-0.8,1.9-1.8c0-1-0.8-1.9-1.8-1.9
	C120.9,229.3,120.1,230.2,120.1,231.2z"/>
<path class="st1" d="M129.4,231.3c0-1.7,1.4-3.1,3.1-3c1.7,0,3.1,1.4,3,3.1c0,1.7-1.4,3.1-3.1,3C130.7,234.4,129.4,233,129.4,231.3z
	 M130.6,231.3c0,1,0.8,1.9,1.8,1.9c1,0,1.9-0.8,1.9-1.8c0-1-0.8-1.9-1.8-1.9C131.5,229.5,130.6,230.3,130.6,231.3z"/>
<path class="st1" d="M1057.2,751.5c0.5,0,0.9-0.4,0.9-0.9v-4.7h4.7c0.5,0,0.9-0.4,0.9-0.9s-0.4-0.9-0.9-0.9h-4.7v-4.7
	c0-0.5-0.4-0.9-0.9-0.9c-0.5,0-0.9,0.4-0.9,0.9v4.7h-4.7c-0.5,0-0.9,0.4-0.9,0.9s0.4,0.9,0.9,0.9h4.7v4.7
	C1056.3,751.1,1056.7,751.5,1057.2,751.5z"/>
<path class="st1" d="M959.1,296.2c0.5,0,0.9-0.4,0.9-0.9v-4.7h4.7c0.5,0,0.9-0.4,0.9-0.9c0-0.5-0.4-0.9-0.9-0.9H960v-4.7
	c0-0.5-0.4-0.9-0.9-0.9c-0.5,0-0.9,0.4-0.9,0.9v4.7h-4.7c-0.5,0-0.9,0.4-0.9,0.9c0,0.5,0.4,0.9,0.9,0.9h4.7v4.7
	C958.2,295.8,958.6,296.2,959.1,296.2z"/>
<path class="st1" d="M1122.4,340.5c0.5,0,0.9-0.4,0.9-0.9v-4.7h4.7c0.5,0,0.9-0.4,0.9-0.9c0-0.5-0.4-0.9-0.9-0.9h-4.7v-4.7
	c0-0.5-0.4-0.9-0.9-0.9c-0.5,0-0.9,0.4-0.9,0.9v4.7h-4.7c-0.5,0-0.9,0.4-0.9,0.9c0,0.5,0.4,0.9,0.9,0.9h4.7v4.7
	C1121.5,340,1121.9,340.5,1122.4,340.5z"/>
<path class="st1" d="M1229.2,159c0.5,0,0.9-0.4,0.9-0.9v-4.7h4.7c0.5,0,0.9-0.4,0.9-0.9c0-0.5-0.4-0.9-0.9-0.9h-4.7V147
	c0-0.5-0.4-0.9-0.9-0.9s-0.9,0.4-0.9,0.9v4.7h-4.7c-0.5,0-0.9,0.4-0.9,0.9c0,0.5,0.4,0.9,0.9,0.9h4.7v4.7
	C1228.3,158.6,1228.7,159,1229.2,159z"/>
<path class="st2" d="M1096.9,725.9c-0.1,0-0.2,0-0.4,0C1096.7,725.9,1096.8,725.9,1096.9,725.9z"/>
<path class="st2" d="M1099.2,725.4c-0.1,0-0.3,0.1-0.4,0.1C1098.9,725.5,1099,725.4,1099.2,725.4z"/>
<path class="st2" d="M1098.1,725.7c-0.1,0-0.3,0.1-0.4,0.1C1097.8,725.8,1098,725.7,1098.1,725.7z"/>
<path class="st2" d="M1100.2,725c-0.1,0.1-0.3,0.1-0.4,0.2C1100,725.1,1100.1,725.1,1100.2,725z"/>
<path class="st2" d="M1102.5,723.7c-0.2,0.1-0.3,0.2-0.5,0.3C1102.2,723.9,1102.4,723.8,1102.5,723.7z"/>
<path class="st2" d="M1101.5,724.3c-0.2,0.1-0.4,0.2-0.6,0.3C1101.1,724.6,1101.3,724.4,1101.5,724.3z"/>
<path class="st2" d="M1239.9,497.1c0.1-0.2,0.3-0.3,0.4-0.5C1240.1,496.8,1240,496.9,1239.9,497.1z"/>
<path class="st2" d="M1083.5,712.8c0-0.1,0-0.3,0.1-0.4C1083.5,712.5,1083.5,712.6,1083.5,712.8z"/>
<path class="st2" d="M1083.6,711.6c0-0.2,0.1-0.3,0.1-0.5C1083.7,711.3,1083.7,711.4,1083.6,711.6z"/>
<path class="st2" d="M1083.9,710.5c0.1-0.2,0.1-0.3,0.2-0.5C1084,710.2,1084,710.3,1083.9,710.5z"/>
<path class="st2" d="M1238.2,500c0.1-0.2,0.2-0.3,0.2-0.5C1238.3,499.6,1238.2,499.8,1238.2,500z"/>
<path class="st2" d="M1243.2,494.2c0.2-0.1,0.5-0.3,0.7-0.4C1243.6,493.9,1243.4,494.1,1243.2,494.2z"/>
<path class="st2" d="M1245.1,493.3c0.3-0.1,0.6-0.2,0.8-0.3C1245.7,493.1,1245.4,493.2,1245.1,493.3z"/>
<path class="st2" d="M1244.1,493.7c0.3-0.1,0.5-0.2,0.8-0.3C1244.6,493.5,1244.4,493.6,1244.1,493.7z"/>
<path class="st2" d="M1246.2,492.9c0.3-0.1,0.6-0.2,0.9-0.2C1246.8,492.8,1246.5,492.9,1246.2,492.9z"/>
<path class="st2" d="M1238.6,499c0.1-0.2,0.2-0.3,0.3-0.5C1238.8,498.6,1238.7,498.8,1238.6,499z"/>
<path class="st2" d="M1247.2,492.7c0.3-0.1,0.7-0.1,1-0.1C1247.9,492.6,1247.6,492.6,1247.2,492.7z"/>
<path class="st2" d="M1239.2,498c0.1-0.2,0.2-0.3,0.4-0.5C1239.4,497.7,1239.3,497.8,1239.2,498z"/>
<path class="st2" d="M1241.4,495.5c0.2-0.2,0.4-0.3,0.6-0.5C1241.7,495.2,1241.6,495.3,1241.4,495.5z"/>
<path class="st2" d="M1242.2,494.8c0.2-0.1,0.4-0.3,0.6-0.4C1242.7,494.5,1242.4,494.7,1242.2,494.8z"/>
<path class="st2" d="M1240.6,496.3c0.2-0.2,0.3-0.3,0.5-0.5C1240.9,495.9,1240.7,496.1,1240.6,496.3z"/>
<path class="st0" d="M1094.5,712.7v-4.9c0-0.5,0.4-0.9,0.9-0.9s0.9,0.4,0.9,0.9v5.2h5.2c0.5,0,0.9,0.4,0.9,0.9
	c0,0.5-0.4,0.9-0.9,0.9h-5.1c0.3,0.3,0.6,0.5,1,0.7c3.1,1.9,6.5,2.4,9.6,1.6c0.1-0.5,0.2-1,0.3-1.5c0-0.1,0-0.2,0-0.2
	c0.1-0.5,0.1-1,0.1-1.6c0-6.6-5.4-12-12-12c-0.4,0-0.7,0-1,0.1C1092.5,705.6,1092.6,709.7,1094.5,712.7z"/>
<path class="st5" d="M1096.9,725.9c0.3,0,0.5-0.1,0.7-0.1c0.1,0,0.3-0.1,0.4-0.1c0.2-0.1,0.4-0.1,0.7-0.2c0.1,0,0.3-0.1,0.4-0.1
	c0.2-0.1,0.4-0.2,0.6-0.2c0.1-0.1,0.3-0.1,0.4-0.2c0.2-0.1,0.5-0.2,0.7-0.3c0.2-0.1,0.4-0.2,0.6-0.3c0.2-0.1,0.3-0.2,0.5-0.3
	c0.2-0.1,0.3-0.2,0.5-0.3c0.1-0.1,0.2-0.2,0.4-0.3c0.2-0.1,0.3-0.3,0.5-0.4c0.1-0.1,0.2-0.2,0.3-0.2c0.2-0.2,0.3-0.3,0.5-0.5
	c0.1-0.1,0.1-0.1,0.2-0.2c0.8-0.9,1.5-1.9,2-3c0,0,0-0.1,0-0.1c0.1-0.3,0.2-0.5,0.3-0.8c0,0,0-0.1,0-0.1c0.1-0.3,0.2-0.6,0.3-0.9
	c-3.1,0.8-6.5,0.2-9.6-1.6c-0.4-0.2-0.7-0.5-1-0.7h-0.1v5.2c0,0.5-0.4,0.9-0.9,0.9s-0.9-0.4-0.9-0.9v-5.2h-5.2
	c-0.5,0-0.9-0.4-0.9-0.9c0-0.5,0.4-0.9,0.9-0.9h5.2v-0.3c-1.9-3-2-7.2-0.1-10.8l0,0c-0.3,0-0.7,0.1-1,0.1c0,0-0.1,0-0.1,0
	c-0.3,0.1-0.6,0.1-0.9,0.2c-0.1,0-0.1,0-0.2,0.1c-0.3,0.1-0.6,0.2-0.8,0.3c-0.1,0-0.2,0.1-0.2,0.1c-0.3,0.1-0.5,0.2-0.8,0.3
	c-0.1,0-0.2,0.1-0.3,0.1c-0.2,0.1-0.5,0.2-0.7,0.4c-0.1,0.1-0.2,0.1-0.3,0.2c-0.2,0.1-0.4,0.3-0.6,0.4c-0.1,0.1-0.2,0.2-0.3,0.2
	c-0.2,0.1-0.4,0.3-0.6,0.5c-0.1,0.1-0.2,0.2-0.3,0.3c-0.2,0.2-0.3,0.3-0.5,0.5c-0.1,0.1-0.2,0.2-0.3,0.3c-0.1,0.2-0.3,0.3-0.4,0.5
	c-0.1,0.1-0.2,0.3-0.3,0.4c-0.1,0.2-0.2,0.3-0.4,0.5c-0.1,0.1-0.2,0.3-0.3,0.5c-0.1,0.2-0.2,0.3-0.3,0.5c-0.1,0.2-0.2,0.3-0.2,0.5
	c-0.1,0.2-0.2,0.3-0.2,0.5c-0.1,0.2-0.1,0.4-0.2,0.6c-0.1,0.2-0.1,0.3-0.2,0.5c-0.1,0.2-0.1,0.4-0.2,0.7c0,0.2-0.1,0.3-0.1,0.5
	c-0.1,0.3-0.1,0.5-0.1,0.8c0,0.1,0,0.3-0.1,0.4c0,0.4-0.1,0.8-0.1,1.2c0,6.6,5.4,12,12,12c0.4,0,0.8,0,1.1-0.1
	C1096.7,725.9,1096.8,725.9,1096.9,725.9z"/>
<g>
	<path class="st2" d="M664.9,644.4c0.5,0.8,0.9,1.6,1.3,2.5C665.8,646,665.4,645.2,664.9,644.4z"/>
	<path class="st3" d="M645.6,671.5c2.1,2.9,2.7,6.7,2.8,10.7h-6V682c0-5.6-2.2-10.8-6.1-14.5c-4-3.8-6.2-9.2-5.8-14.7
		c0.6-9.3,8-16.7,17.3-17.3c5.2-0.3,10.1,1.4,13.9,5c0.4,0.4,0.9,0.8,1.3,1.3c0,0,0,0,0,0c0.4,0.5,0.8,0.9,1.1,1.4l0,0
		c-5.1-1.7-10.3-1.7-15.2,0.1C638.1,647.4,638.9,661.5,645.6,671.5z M649,640.1c0.3,0,0.6-0.3,0.6-0.6c0-0.3-0.3-0.6-0.6-0.6
		c-8.5,0-15.4,6.9-15.4,15.4c0,0.3,0.3,0.6,0.6,0.6c0.3,0,0.6-0.3,0.6-0.6C634.9,646.4,641.2,640.1,649,640.1z"/>
	<path class="st0" d="M667.5,652.7c0-0.1,0-0.2,0-0.3c0-0.4-0.1-0.9-0.2-1.3c0,0,0,0,0-0.1c-0.1-0.4-0.2-0.8-0.2-1.2
		c0-0.1,0-0.2-0.1-0.2c-0.1-0.4-0.2-0.9-0.4-1.3c0,0,0,0,0,0c-0.1-0.4-0.3-0.8-0.5-1.2c0,0,0-0.1-0.1-0.1c-0.4-0.9-0.8-1.7-1.3-2.5
		c0,0,0,0,0,0c-0.2-0.4-0.5-0.8-0.8-1.2l0,0c-5.1-1.7-10.3-1.7-15.2,0.1c-10.8,4.1-9.9,18.2-3.3,28.2c2.1,2.9,2.7,6.7,2.8,10.7h7.2
		V682c0-5.5,2.3-10.7,6.4-14.8c3.6-3.5,5.5-8.2,5.5-13.2C667.5,653.5,667.5,653.1,667.5,652.7z"/>
	<path class="st5" d="M653.1,694.3h-8.2c0,2.3,1.8,4.1,4.1,4.1S653.1,696.5,653.1,694.3z"/>
	<circle class="st0" cx="673.1" cy="708.4" r="2.2"/>
	<circle class="st0" cx="649" cy="708.4" r="2.2"/>
	<circle class="st0" cx="624.8" cy="708.4" r="2.2"/>
</g>
<path class="st1" d="M1119.9,763.2c0,0.5-0.4,0.9-0.9,0.9h-20c-3.1,0-5.6-2.5-5.6-5.6v-31.9c-7.2-0.5-12.9-6.5-12.9-13.8
	c0-7.6,6.2-13.9,13.9-13.9c7.6,0,13.9,6.2,13.9,13.9c0,7.3-5.7,13.3-12.9,13.8v31.9c0,2.1,1.7,3.8,3.8,3.8h20
	C1119.4,762.3,1119.9,762.7,1119.9,763.2z M1094.2,724.8c0.4,0,0.8,0,1.1-0.1c0.1,0,0.2,0,0.4,0c0.3,0,0.5-0.1,0.7-0.1
	c0.1,0,0.3-0.1,0.4-0.1c0.2-0.1,0.4-0.1,0.7-0.2c0.1,0,0.3-0.1,0.4-0.1c0.2-0.1,0.4-0.2,0.6-0.2c0.1-0.1,0.3-0.1,0.4-0.2
	c0.2-0.1,0.5-0.2,0.7-0.3c0.2-0.1,0.4-0.2,0.6-0.3c0.2-0.1,0.3-0.2,0.5-0.3c0.2-0.1,0.3-0.2,0.5-0.3c0.1-0.1,0.2-0.2,0.4-0.3
	c0.2-0.1,0.3-0.3,0.5-0.4c0.1-0.1,0.2-0.2,0.3-0.2c0.2-0.2,0.3-0.3,0.5-0.5c0.1-0.1,0.1-0.1,0.2-0.2c0.8-0.9,1.5-1.9,2-3
	c0,0,0-0.1,0-0.1c0.1-0.3,0.2-0.5,0.3-0.8c0,0,0-0.1,0-0.1c0.3-0.7,0.5-1.5,0.6-2.3c0-0.1,0-0.2,0-0.2c0.1-0.5,0.1-1,0.1-1.6
	c0-6.6-5.4-12-12-12c-0.4,0-0.7,0-1,0.1l0,0c-0.3,0-0.7,0.1-1,0.1c0,0-0.1,0-0.1,0c-0.3,0.1-0.6,0.1-0.9,0.2c-0.1,0-0.1,0-0.2,0.1
	c-0.3,0.1-0.6,0.2-0.8,0.3c-0.1,0-0.2,0.1-0.2,0.1c-0.3,0.1-0.5,0.2-0.8,0.3c-0.1,0-0.2,0.1-0.3,0.1c-0.2,0.1-0.5,0.2-0.7,0.4
	c-0.1,0.1-0.2,0.1-0.3,0.2c-0.2,0.1-0.4,0.3-0.6,0.4c-0.1,0.1-0.2,0.2-0.3,0.2c-0.2,0.1-0.4,0.3-0.6,0.5c-0.1,0.1-0.2,0.2-0.3,0.3
	c-0.2,0.2-0.3,0.3-0.5,0.5c-0.1,0.1-0.2,0.2-0.3,0.3c-0.1,0.2-0.3,0.3-0.4,0.5c-0.1,0.1-0.2,0.3-0.3,0.4c-0.1,0.2-0.2,0.3-0.4,0.5
	c-0.1,0.1-0.2,0.3-0.3,0.5c-0.1,0.2-0.2,0.3-0.3,0.5c-0.1,0.2-0.2,0.3-0.2,0.5c-0.1,0.2-0.2,0.3-0.2,0.5c-0.1,0.2-0.1,0.4-0.2,0.6
	c-0.1,0.2-0.1,0.3-0.2,0.5c-0.1,0.2-0.1,0.4-0.2,0.7c0,0.2-0.1,0.3-0.1,0.5c-0.1,0.3-0.1,0.5-0.1,0.8c0,0.1,0,0.3-0.1,0.4
	c0,0.4-0.1,0.8-0.1,1.2C1082.2,719.4,1087.6,724.8,1094.2,724.8z"/>
<path class="st1" d="M1101.2,712.8c0-0.5-0.4-0.9-0.9-0.9h-5.2v-5.2c0-0.5-0.4-0.9-0.9-0.9s-0.9,0.4-0.9,0.9v4.9v0.3h-5.2
	c-0.5,0-0.9,0.4-0.9,0.9c0,0.5,0.4,0.9,0.9,0.9h5.2v5.2c0,0.5,0.4,0.9,0.9,0.9s0.9-0.4,0.9-0.9v-5.2h0.1h5.1
	C1100.8,713.7,1101.2,713.3,1101.2,712.8z"/>
<path class="st1" d="M662.1,667.3c-3.9,3.8-6,8.7-6,13.9v0.8c0,0.3-0.3,0.6-0.6,0.6h-14.5c-0.3,0-0.6-0.3-0.6-0.6v-0.8
	c0-5.2-2.1-10.2-5.7-13.6c-4.3-4.1-6.6-9.8-6.2-15.7c0.6-9.9,8.6-17.8,18.5-18.4c5.5-0.3,10.8,1.5,14.8,5.3c4,3.7,6.2,9,6.2,14.4
	C668,658.5,665.9,663.5,662.1,667.3z M661.2,666.4c3.6-3.5,5.5-8.2,5.5-13.2c0-0.4,0-0.9-0.1-1.3c0-0.1,0-0.2,0-0.3
	c0-0.4-0.1-0.9-0.2-1.3c0,0,0,0,0-0.1c-0.1-0.4-0.2-0.8-0.2-1.2c0-0.1,0-0.2-0.1-0.2c-0.1-0.4-0.2-0.9-0.4-1.3c0,0,0,0,0,0
	c-0.1-0.4-0.3-0.8-0.5-1.2c0,0,0-0.1-0.1-0.1c-0.4-0.9-0.8-1.7-1.3-2.5c0,0,0,0,0,0c-0.2-0.4-0.5-0.8-0.8-1.2l0,0v0
	c-0.3-0.5-0.7-0.9-1.1-1.4c0,0,0,0,0,0c-0.4-0.4-0.8-0.9-1.3-1.3c-3.8-3.5-8.7-5.3-13.9-5c-9.3,0.6-16.7,8-17.3,17.3
	c-0.4,5.6,1.8,10.9,5.8,14.7c3.9,3.6,6.1,8.9,6.1,14.5v0.2h6h7.2v-0.2C654.8,675.7,657.1,670.4,661.2,666.4z"/>
<path class="st1" d="M640.8,684.6h14.6c0.3,0,0.6-0.3,0.6-0.6c0-0.3-0.3-0.6-0.6-0.6h-14.6c-0.3,0-0.6,0.3-0.6,0.6
	C640.2,684.3,640.5,684.6,640.8,684.6z"/>
<path class="st1" d="M640.8,686.8h14.6c0.3,0,0.6-0.3,0.6-0.6c0-0.3-0.3-0.6-0.6-0.6h-14.6c-0.3,0-0.6,0.3-0.6,0.6
	C640.2,686.6,640.5,686.8,640.8,686.8z"/>
<path class="st1" d="M640.8,689.1h14.6c0.3,0,0.6-0.3,0.6-0.6c0-0.3-0.3-0.6-0.6-0.6h-14.6c-0.3,0-0.6,0.3-0.6,0.6
	C640.2,688.8,640.5,689.1,640.8,689.1z"/>
<path class="st1" d="M640.9,691.3h14.6c0.3,0,0.6-0.3,0.6-0.6s-0.3-0.6-0.6-0.6h-14.6c-0.3,0-0.6,0.3-0.6,0.6
	S640.6,691.3,640.9,691.3z"/>
<path class="st1" d="M648.8,638.7c0-0.3-0.3-0.6-0.6-0.6c-8.5,0-15.4,6.9-15.4,15.4c0,0.3,0.3,0.6,0.6,0.6c0.3,0,0.6-0.3,0.6-0.6
	c0-7.8,6.3-14.1,14.1-14.1C648.5,639.3,648.8,639,648.8,638.7z"/>
<path class="st1" d="M685.1,707.6c0,0.3-0.3,0.6-0.6,0.6h-8.8c-0.3,1.6-1.7,2.8-3.3,2.8c-1.7,0-3-1.2-3.3-2.8h-17.5
	c-0.3,1.6-1.7,2.8-3.3,2.8s-3-1.2-3.3-2.8h-17.5c-0.3,1.6-1.7,2.8-3.3,2.8c-1.7,0-3-1.2-3.3-2.8h-8.8c-0.3,0-0.6-0.3-0.6-0.6
	c0-0.3,0.3-0.6,0.6-0.6h8.8c0.3-1.6,1.7-2.8,3.3-2.8c1.7,0,3,1.2,3.3,2.8h17.5c0.2-1.4,1.3-2.5,2.7-2.7v-5.5c0,0,0,0,0,0
	c-2.7-0.3-4.8-2.6-4.8-5.3v-0.6c0-0.3,0.3-0.6,0.6-0.6h9.5c0.3,0,0.6,0.3,0.6,0.6v0.6c0,2.8-2.1,5-4.8,5.3c0,0,0,0,0,0v5.5
	c1.4,0.2,2.5,1.3,2.7,2.7H669c0.3-1.6,1.7-2.8,3.3-2.8c1.7,0,3,1.2,3.3,2.8h8.8C684.8,707,685.1,707.3,685.1,707.6z M626.2,707.6
	c0-1.2-1-2.2-2.2-2.2c-1.2,0-2.2,1-2.2,2.2c0,1.2,1,2.2,2.2,2.2C625.2,709.8,626.2,708.8,626.2,707.6z M648.2,697.6
	c2.3,0,4.1-1.8,4.1-4.1h-8.2C644.1,695.7,645.9,697.6,648.2,697.6z M650.4,707.6c0-1.2-1-2.2-2.2-2.2c-1.2,0-2.2,1-2.2,2.2
	c0,1.2,1,2.2,2.2,2.2C649.4,709.8,650.4,708.8,650.4,707.6z M674.5,707.6c0-1.2-1-2.2-2.2-2.2c-1.2,0-2.2,1-2.2,2.2
	c0,1.2,1,2.2,2.2,2.2C673.5,709.8,674.5,708.8,674.5,707.6z"/>
<path class="st1" d="M629.3,695.5c0.3,0,0.6-0.3,0.6-0.6v-3.1h3.1c0.3,0,0.6-0.3,0.6-0.6c0-0.3-0.3-0.6-0.6-0.6h-3.1v-3.1
	c0-0.3-0.3-0.6-0.6-0.6c-0.3,0-0.6,0.3-0.6,0.6v3.1h-3.1c-0.3,0-0.6,0.3-0.6,0.6c0,0.3,0.3,0.6,0.6,0.6h3.1v3.1
	C628.7,695.3,628.9,695.5,629.3,695.5z"/>
<circle class="st0" cx="1207.5" cy="451.3" r="2.8"/>
<circle class="st0" cx="1177" cy="451.3" r="2.8"/>
<circle class="st0" cx="1146.4" cy="451.3" r="2.8"/>
<path class="st4" d="M1146.4,441.5c-2.9-4-14.8-20.9-14.8-28.2c0-8.1,6.6-14.8,14.8-14.8c8.1,0,14.8,6.6,14.8,14.8
	C1161.2,420.6,1149.3,437.6,1146.4,441.5z M1146.4,421.4c4.5,0,8.1-3.6,8.1-8.1c0-4.5-3.6-8.1-8.1-8.1c-4.5,0-8.1,3.6-8.1,8.1
	C1138.3,417.8,1141.9,421.4,1146.4,421.4z"/>
<circle class="st0" cx="1146.4" cy="413.3" r="6.6"/>
<g>
	<polygon class="st2" points="403.7,158.6 408.2,161.8 406.2,160.4 	"/>
	<polygon class="st2" points="429.7,142.6 422,137.2 424.1,138.6 	"/>
	<path class="st2" d="M422.1,144c0.1,0,0.2,0.1,0.2,0.1C422.3,144.1,422.2,144.1,422.1,144z"/>
	<path class="st2" d="M421.6,143.9c0.1,0,0.2,0.1,0.3,0.1C421.8,143.9,421.7,143.9,421.6,143.9z"/>
	<path class="st2" d="M420.3,150.2c-0.1,0-0.1,0-0.2,0C420.2,150.2,420.2,150.2,420.3,150.2z"/>
	<path class="st2" d="M420.9,150.3c-0.1,0-0.1,0-0.2,0C420.7,150.2,420.8,150.3,420.9,150.3z"/>
	<path class="st2" d="M421.6,150.2c-0.1,0-0.2,0-0.3,0.1C421.5,150.2,421.6,150.2,421.6,150.2z"/>
	<path class="st2" d="M422.4,149.9c0.3-0.1,0.5-0.3,0.8-0.5c-0.1,0.1-0.3,0.3-0.5,0.4C422.6,149.8,422.5,149.8,422.4,149.9z"/>
	<path class="st2" d="M419.7,150c-0.1,0-0.1,0-0.2-0.1C419.6,150,419.7,150,419.7,150z"/>
	<path class="st2" d="M421.6,143.9c-0.2,0-0.4-0.1-0.7-0.1c0.1,0,0.2,0,0.3,0C421.3,143.8,421.4,143.8,421.6,143.9z"/>
	<path class="st2" d="M422.2,150c-0.1,0-0.2,0.1-0.3,0.1C422,150.1,422.1,150,422.2,150z"/>
	<path class="st4" d="M428.8,135.7c-1.9,0-3.8,0.4-5.5,1l6.5,4.5C429.7,139.4,429.4,137.5,428.8,135.7z"/>
	<path class="st3" d="M424.1,138.6l-2-1.4c-3,1.3-5.7,3.4-7.6,6.2l-4.5,6.5l-5.5,7.9l-0.6,0.8l2.5,1.7
		C411,152,415.4,141.8,424.1,138.6z"/>
	<path class="st0" d="M415.8,167.1l-4.5-3.2l6-8.5c0.3-0.4,0.4-0.8,0.3-1.3c-0.1-0.4-0.3-0.8-0.7-1.1l-0.3-0.2
		c-0.4-0.3-0.8-0.4-1.3-0.3c-0.4,0.1-0.8,0.3-1.1,0.7l-6,8.5l-2-1.4c4.8-8.3,9.2-18.5,17.9-21.7l5.7,4c-0.2,3.3-1.3,6.5-3.3,9.3
		l-4.1,5.8l0,0l-6,8.6L415.8,167.1z M418.4,150.6c0.7,0.5,1.6,0.8,2.5,0.8c0.3,0,0.5,0,0.8-0.1c1.2-0.2,2.2-0.8,2.8-1.8
		c1.4-2,0.9-4.7-1.1-6.1c-2-1.4-4.7-0.9-6.1,1.1C415.9,146.5,416.4,149.2,418.4,150.6z"/>
	<path class="st4" d="M399.2,155.3l-1.9,2.7l3.6,2.5l7.7-11C404.9,150.1,401.5,152.1,399.2,155.3z"/>
	<path class="st4" d="M414.9,170.3l3.6,2.5l1.9-2.7c2.2-3.2,3-7.1,2.2-10.8L414.9,170.3z"/>
	<path class="st4" d="M416.4,154.4c0-0.1-0.1-0.3-0.2-0.4l-0.3-0.2c0,0,0,0,0,0c-0.1-0.1-0.3-0.1-0.4-0.1c-0.1,0-0.3,0.1-0.4,0.2
		l-7.8,11.1l1.2,0.9l7.8-11.1C416.4,154.7,416.4,154.5,416.4,154.4z"/>
	<path class="st3" d="M419,149.7c0.2,0.1,0.3,0.2,0.5,0.3c0.1,0,0.1,0,0.2,0.1c0.1,0,0.2,0.1,0.4,0.1c0.1,0,0.1,0,0.2,0
		c0.1,0,0.3,0,0.4,0c0.1,0,0.1,0,0.2,0c0.2,0,0.3,0,0.5,0c0.1,0,0.2,0,0.3-0.1c0.1,0,0.2,0,0.2-0.1c0.1,0,0.2-0.1,0.3-0.1
		c0.1,0,0.1-0.1,0.2-0.1c0.1-0.1,0.2-0.1,0.3-0.2c-1.5-1.6-2-3.9-1.5-5.9c-0.1,0-0.2,0-0.3,0c-1,0-2,0.5-2.7,1.4
		C417.2,146.6,417.6,148.6,419,149.7z"/>
	<path class="st0" d="M422.7,149.7c0.2-0.1,0.3-0.2,0.5-0.4c0.1-0.1,0.3-0.3,0.4-0.5c1-1.5,0.7-3.5-0.8-4.5
		c-0.1-0.1-0.3-0.2-0.4-0.2c-0.1,0-0.1-0.1-0.2-0.1c-0.1,0-0.1,0-0.2-0.1c-0.1,0-0.2-0.1-0.3-0.1c0,0,0,0-0.1,0
		c-0.1,0-0.2,0-0.4-0.1C420.7,145.8,421.2,148.1,422.7,149.7z"/>
</g>
<path class="st1" d="M1149.6,449.5h22.1c0.4-2,2.1-3.5,4.2-3.5c2.1,0,3.8,1.5,4.2,3.5h22.1c0.4-2,2.1-3.5,4.2-3.5
	c2.1,0,3.8,1.5,4.2,3.5h11.2c0.4,0,0.8,0.3,0.8,0.8c0,0.4-0.3,0.8-0.8,0.8h-11.2c-0.4,2-2.1,3.5-4.2,3.5c-2.1,0-3.8-1.5-4.2-3.5
	h-22.1c-0.4,2-2.1,3.5-4.2,3.5c-2.1,0-3.8-1.5-4.2-3.5h-22.1c-0.4,2-2.1,3.5-4.2,3.5c-2.1,0-3.8-1.5-4.2-3.5H1130
	c-0.4,0-0.8-0.3-0.8-0.8c0-0.4,0.3-0.8,0.8-0.8h11.2c0.4-2,2.1-3.5,4.2-3.5C1147.5,446,1149.3,447.5,1149.6,449.5z M1148.2,450.3
	c0-1.5-1.2-2.8-2.8-2.8c-1.5,0-2.8,1.2-2.8,2.8c0,1.5,1.2,2.8,2.8,2.8C1146.9,453,1148.2,451.8,1148.2,450.3z M1203.7,450.3
	c0,1.5,1.2,2.8,2.8,2.8s2.8-1.2,2.8-2.8c0-1.5-1.2-2.8-2.8-2.8S1203.7,448.7,1203.7,450.3z M1173.2,450.3c0,1.5,1.2,2.8,2.8,2.8
	c1.5,0,2.8-1.2,2.8-2.8c0-1.5-1.2-2.8-2.8-2.8C1174.4,447.5,1173.2,448.7,1173.2,450.3z"/>
<path class="st1" d="M1144.8,442.3c-0.6-0.9-15.7-21.2-15.7-29.9c0-9,7.3-16.3,16.3-16.3c9,0,16.3,7.3,16.3,16.3
	c0,8.7-15,29.1-15.7,29.9c-0.1,0.2-0.4,0.3-0.6,0.3S1144.9,442.5,1144.8,442.3z M1130.6,412.3c0,7.3,11.9,24.2,14.8,28.2
	c2.9-4,14.8-20.9,14.8-28.2c0-8.1-6.6-14.8-14.8-14.8C1137.3,397.6,1130.6,404.2,1130.6,412.3z"/>
<path class="st1" d="M1145.4,420.4c-4.5,0-8.1-3.6-8.1-8.1c0-4.5,3.6-8.1,8.1-8.1c4.5,0,8.1,3.6,8.1,8.1
	C1153.5,416.8,1149.9,420.4,1145.4,420.4z M1145.4,418.9c3.6,0,6.6-3,6.6-6.6c0-3.6-3-6.6-6.6-6.6c-3.7,0-6.6,3-6.6,6.6
	C1138.8,415.9,1141.8,418.9,1145.4,418.9z"/>
<path class="st1" d="M422.7,157.4c1.2,4.4,0.5,9-2.2,12.7l-2.2,3.1c-0.1,0.2-0.3,0.2-0.5,0.2c-0.1,0-0.2,0-0.3-0.1l-4.5-3.2
	c-0.1-0.1-0.2-0.2-0.2-0.4c0-0.1,0-0.3,0.1-0.4l1.5-2.1l-4.5-3.2l-1.5,2.1c-0.1,0.1-0.2,0.2-0.4,0.2c0,0-0.1,0-0.1,0
	c-0.1,0-0.2,0-0.3-0.1l-2.1-1.5c-0.3-0.2-0.3-0.5-0.1-0.8l1.5-2.1l-4.5-3.2l-1.5,2.1c-0.1,0.2-0.3,0.2-0.5,0.2c-0.1,0-0.2,0-0.3-0.1
	l-4.5-3.2c-0.1-0.1-0.2-0.2-0.2-0.4s0-0.3,0.1-0.4l2.2-3.1c2.6-3.7,6.7-6,11.2-6.3l3.9-5.5c2.1-3,5-5.3,8.3-6.7c0,0,0.1,0,0.1,0
	c2.2-0.9,4.6-1.4,7.1-1.5l1.7-2.4c-0.5-0.6-0.5-1.5,0-2.2c0.6-0.9,1.8-1.1,2.6-0.5c0.4,0.3,0.7,0.7,0.8,1.2c0.1,0.5,0,1-0.3,1.4
	c-0.3,0.4-0.7,0.7-1.2,0.8c-0.1,0-0.2,0-0.3,0c-0.2,0-0.4,0-0.6-0.1l-1.7,2.4c0.8,2.3,1.1,4.7,1,7.1c0,0,0,0.1,0,0.1
	c-0.2,3.6-1.4,7.1-3.5,10.1L422.7,157.4z M431,130.8c0.2,0.1,0.4,0.2,0.6,0.1c0.2,0,0.4-0.1,0.5-0.3c0,0,0,0,0,0
	c0.1-0.2,0.2-0.4,0.1-0.6c0-0.2-0.1-0.4-0.3-0.5c-0.1-0.1-0.3-0.1-0.4-0.1c-0.2,0-0.5,0.1-0.6,0.3
	C430.6,130.1,430.6,130.6,431,130.8z M422.5,136l6.5,4.5c0-1.9-0.3-3.7-0.9-5.6C426.2,135,424.3,135.3,422.5,136z M407.9,148.8
	c-3.8,0.5-7.2,2.6-9.4,5.8l-1.9,2.7l3.6,2.5L407.9,148.8z M415.6,154c0.1-0.1,0.1-0.3,0.1-0.4c0-0.1-0.1-0.3-0.2-0.4l-0.3-0.2l0,0
	c-0.1-0.1-0.3-0.1-0.4-0.1c-0.1,0-0.3,0.1-0.4,0.2l-7.8,11.1l1.2,0.9L415.6,154z M415,166.4l0.6-0.8l6-8.6v0l4.1-5.8
	c2-2.8,3.1-6,3.3-9.3l-7.7-5.4c-3,1.3-5.7,3.4-7.6,6.2l-4.5,6.5l-5.5,7.9l-0.6,0.8l4.5,3.2l6-8.5c0.3-0.4,0.7-0.6,1.1-0.7
	c0.4-0.1,0.9,0,1.3,0.3l0.3,0.2c0.4,0.3,0.6,0.7,0.7,1.1c0.1,0.4,0,0.9-0.3,1.3l-6,8.5L415,166.4z M421.9,158.6l-7.7,11l3.6,2.5
	l1.9-2.7C421.9,166.3,422.7,162.4,421.9,158.6z"/>
<path class="st1" d="M416.5,143.7c1.4-2,4.1-2.5,6.1-1.1c2,1.4,2.5,4.1,1.1,6.1c-0.7,1-1.7,1.6-2.8,1.8c-0.3,0-0.5,0.1-0.8,0.1
	c-0.9,0-1.8-0.3-2.5-0.8C415.6,148.5,415.2,145.7,416.5,143.7z M418.3,148.9c0.2,0.1,0.3,0.2,0.5,0.3c0.1,0,0.1,0,0.2,0.1
	c0.1,0,0.2,0.1,0.4,0.1c0.1,0,0.1,0,0.2,0c0.1,0,0.3,0,0.4,0c0.1,0,0.1,0,0.2,0c0.2,0,0.3,0,0.5,0c0.1,0,0.2,0,0.3-0.1
	c0.1,0,0.2,0,0.2-0.1c0.1,0,0.2-0.1,0.3-0.1c0.1,0,0.1-0.1,0.2-0.1c0.3-0.1,0.5-0.3,0.8-0.5c0.1-0.1,0.3-0.3,0.4-0.5
	c1-1.5,0.7-3.5-0.8-4.5c-0.1-0.1-0.3-0.2-0.4-0.2c-0.1,0-0.1-0.1-0.2-0.1c-0.1,0-0.1,0-0.2-0.1c-0.1,0-0.2-0.1-0.3-0.1
	c0,0,0,0-0.1,0c-0.2,0-0.4-0.1-0.7-0.1c-1,0-2,0.5-2.7,1.4C416.5,145.9,416.8,147.9,418.3,148.9z"/>
<path class="st1" d="M409.6,172l-13.4,19.3c-0.2,0.3-0.1,0.6,0.1,0.8c0.1,0.1,0.2,0.1,0.3,0.1c0.2,0,0.4-0.1,0.5-0.2l13.4-19.3
	c0.2-0.3,0.1-0.6-0.1-0.8C410.2,171.7,409.8,171.7,409.6,172z"/>
<path class="st1" d="M402.9,172.9c-0.3-0.2-0.6-0.1-0.8,0.1L386.3,196c-0.2,0.3-0.1,0.6,0.1,0.8c0.1,0.1,0.2,0.1,0.3,0.1
	c0.2,0,0.4-0.1,0.5-0.2l15.9-22.9C403.3,173.5,403.2,173.1,402.9,172.9z"/>
<path class="st1" d="M396.8,175.4l5.3-7.7c0.2-0.3,0.1-0.6-0.1-0.8c-0.3-0.2-0.6-0.1-0.8,0.1l-5.3,7.7c-0.2,0.3-0.1,0.6,0.1,0.8
	c0.1,0.1,0.2,0.1,0.3,0.1C396.5,175.7,396.7,175.6,396.8,175.4z"/>
<path class="st1" d="M387.1,187.6c0.2,0,0.4-0.1,0.5-0.2l4.8-6.9c0.2-0.3,0.1-0.6-0.1-0.8c-0.3-0.2-0.6-0.1-0.8,0.1l-4.8,6.9
	c-0.2,0.3-0.1,0.6,0.1,0.8C386.9,187.6,387,187.6,387.1,187.6z"/>
<path class="st1" d="M387.6,179.9c0.2,0,0.4-0.1,0.5-0.2l6.5-9.4c0.2-0.3,0.1-0.6-0.1-0.8c-0.3-0.2-0.6-0.1-0.8,0.1l-6.5,9.4
	c-0.2,0.3-0.1,0.6,0.1,0.8C387.4,179.8,387.5,179.9,387.6,179.9z"/>
<path class="st2" d="M156.9,693.1c-0.2-0.5-0.3-0.9-0.4-1.4c0,0.3,0.1,0.6,0.2,0.9C156.7,692.7,156.8,692.9,156.9,693.1z"/>
<path class="st2" d="M976.7,361.8c0,0.5,0,1-0.1,1.4C976.7,362.8,976.7,362.3,976.7,361.8z"/>
<polygon class="st2" points="936.5,331.5 936.5,331.5 936.5,331.5 "/>
<path class="st2" d="M934.4,346.1c0.4-0.3,0.8-0.5,1.2-0.9C935.2,345.5,934.8,345.8,934.4,346.1z"/>
<polygon class="st2" points="936.5,340.2 936.5,340.2 936.5,340.2 "/>
<polygon class="st2" points="958,358.6 958,358.6 958,358.6 "/>
<path class="st2" d="M976.5,363.9c0,0.3-0.1,0.6-0.2,1C976.4,364.5,976.5,364.2,976.5,363.9z"/>
<path class="st2" d="M959.3,363.9c-0.7-1-0.9-2.3-0.5-3.4c0.4-1.2,1.4-2,2.6-2.3c1.4-0.4,2.9,0.2,3.8,1.4c0.7,1,0.9,2.3,0.5,3.4
	c-0.4,1.2-1.4,2-2.6,2.3C961.7,365.7,960.2,365.1,959.3,363.9z"/>
<path class="st2" d="M976.2,365.3c-0.1,0.5-0.3,1-0.4,1.4C976,366.3,976.1,365.8,976.2,365.3z"/>
<path class="st2" d="M169.5,686c-0.1-0.1-0.2-0.2-0.3-0.3C169.3,685.8,169.4,685.9,169.5,686z"/>
<path class="st2" d="M156.9,693.1c0.1,0.2,0.1,0.3,0.2,0.5C157,693.5,157,693.3,156.9,693.1z"/>
<path class="st2" d="M171,689.8c0-0.1,0-0.2,0-0.2C171,689.7,171,689.8,171,689.8z"/>
<path class="st2" d="M170.9,689.1c0-0.1,0-0.2-0.1-0.3C170.9,688.9,170.9,689,170.9,689.1z"/>
<path class="st2" d="M170.7,688.4c0-0.1-0.1-0.2-0.1-0.3C170.7,688.2,170.7,688.3,170.7,688.4z"/>
<path class="st2" d="M170.5,687.8c0-0.1-0.1-0.2-0.1-0.3C170.4,687.6,170.5,687.7,170.5,687.8z"/>
<path class="st2" d="M167.5,684.3c-0.1-0.1-0.3-0.2-0.4-0.2C167.2,684.1,167.3,684.2,167.5,684.3z"/>
<path class="st2" d="M166.3,683.7c-0.2-0.1-0.3-0.1-0.5-0.2C165.9,683.6,166.1,683.6,166.3,683.7z"/>
<path class="st2" d="M166.9,684c-0.2-0.1-0.3-0.1-0.5-0.2C166.6,683.8,166.7,683.9,166.9,684z"/>
<path class="st2" d="M165.6,683.5c-0.2-0.1-0.4-0.1-0.6-0.1C165.3,683.4,165.5,683.5,165.6,683.5z"/>
<path class="st2" d="M170.2,687.2c-0.1-0.1-0.1-0.2-0.2-0.3C170.1,687,170.2,687.1,170.2,687.2z"/>
<path class="st2" d="M156.4,690.6c0,0.3,0,0.6,0.1,0.9C156.4,691.2,156.4,690.9,156.4,690.6z"/>
<path class="st2" d="M165,683.4c-0.2,0-0.4-0.1-0.6-0.1C164.6,683.3,164.8,683.3,165,683.4z"/>
<path class="st2" d="M923.2,336.1c-0.6-1.3-0.5-2.7,0.3-3.8c0.6-1,1.7-1.7,2.8-1.9c0.2,0,0.3,0,0.5,0c1.6-0.1,3.2,0.9,3.8,2.4
	c0.6,1.3,0.5,2.7-0.3,3.8c-0.7,1.2-1.9,1.9-3.3,1.9C925.3,338.5,923.8,337.6,923.2,336.1z"/>
<path class="st2" d="M169.9,686.6c-0.1-0.1-0.1-0.2-0.2-0.3C169.7,686.4,169.8,686.5,169.9,686.6z"/>
<path class="st2" d="M168.5,685.1c-0.1-0.1-0.2-0.2-0.3-0.3C168.3,684.9,168.4,685,168.5,685.1z"/>
<path class="st2" d="M168,684.7c-0.1-0.1-0.2-0.2-0.4-0.3C167.8,684.5,167.9,684.6,168,684.7z"/>
<path class="st2" d="M169,685.5c-0.1-0.1-0.2-0.2-0.3-0.3C168.8,685.3,168.9,685.4,169,685.5z"/>
<path class="st0" d="M1240.1,623.4v6.6h-34.9v-4.5c0-1.2,0.9-2.1,2.1-2.1H1240.1z M1218.7,627.9h15.7c0.5,0,0.9-0.4,0.9-0.9
	c0-0.5-0.4-0.9-0.9-0.9h-15.7c-0.5,0-0.9,0.4-0.9,0.9C1217.8,627.5,1218.2,627.9,1218.7,627.9z"/>
<path class="st0" d="M161.1,668.8h-19.9c-0.7,0-1.3-0.6-1.3-1.3v-6.6h21.2V668.8z M152.9,662.1c-1.6,0-2.9,1.3-2.9,2.9
	c0,1.6,1.3,2.9,2.9,2.9c1.6,0,2.9-1.3,2.9-2.9C155.7,663.4,154.4,662.1,152.9,662.1z"/>
<path class="st0" d="M152.2,666.6c-0.6-0.3-1.1-0.9-1.1-1.6c0-0.7,0.4-1.3,1.1-1.6C152.8,664.3,152.8,665.6,152.2,666.6z"/>
<path class="st5" d="M152.9,666.7c-0.2,0-0.5-0.1-0.7-0.1c0.7-0.9,0.7-2.3,0-3.2c0.2-0.1,0.4-0.1,0.7-0.1c1,0,1.8,0.8,1.8,1.8
	C154.6,665.9,153.8,666.7,152.9,666.7z"/>
<path class="st3" d="M1245.8,623.4c1.2,0,2.1,0.9,2.1,2.1v4.5h-7.8v-6.6H1245.8z"/>
<path class="st3" d="M165.8,660.9v6.6c0,0.7-0.6,1.3-1.3,1.3h-3.5v-7.9H165.8z"/>
<path class="st3" d="M959.4,376.1C959.4,376.1,959.4,376.1,959.4,376.1c-0.1-0.1-0.2-0.2-0.2-0.2c-0.1-0.1-0.2-0.1-0.3-0.1
	c-4.1-0.7-7.6-3.5-9.6-7.5c-2-4.1-2-8.9,0-12.8c1.8-3.9,5.3-6.8,9.6-7.8c0.5-0.1,0.9-0.2,1.4-0.3c0.2,0,0.5-0.1,0.7-0.1
	c0.2,0,0.4,0,0.6-0.1c0.3,0,0.6,0,0.9,0c0.1,0,0.2,0,0.3,0c0.4,0,0.7,0,1.1,0.1l0,0c-4.8,2.2-6.6,6.7-5.9,11.3v0
	c-0.1,0.2-0.3,0.4-0.4,0.6c0,0,0,0,0,0c-0.1,0.2-0.2,0.4-0.3,0.7c-0.6,1.7-0.4,3.5,0.7,5c1.2,1.6,3.2,2.5,5.1,2.2
	c0.1,0,0.3-0.1,0.4-0.1c0.2-0.1,0.5-0.1,0.7-0.2c4.1,1.1,8.5-1,12.4-3.2c0,0.1,0,0.2,0,0.3c0,0.3-0.1,0.6-0.2,1
	c0,0.2-0.1,0.3-0.1,0.5c-0.1,0.5-0.3,1-0.4,1.4c0,0.1,0,0.1-0.1,0.2c-0.2,0.4-0.4,0.9-0.6,1.3c0,0.1-0.1,0.2-0.1,0.2
	c-0.2,0.5-0.5,0.9-0.8,1.3c0,0,0,0,0,0.1c-0.3,0.5-0.6,0.9-1,1.3c-0.1,0.1-0.1,0.1-0.2,0.2c-0.3,0.3-0.6,0.6-0.9,0.9
	c-0.1,0.1-0.2,0.2-0.4,0.3c-0.3,0.3-0.6,0.5-0.9,0.7c-0.1,0.1-0.2,0.2-0.4,0.3c-0.4,0.3-0.9,0.6-1.4,0.9c-0.1,0.1-0.2,0.1-0.2,0.2
	c0,0-0.1,0.1-0.1,0.1c0,0,0,0.1-0.1,0.1c0,0.1,0,0.2-0.1,0.2c0,0,0,0,0,0c0,0.1,0,0.2,0,0.3c-0.8,0.3-1.7,0.6-2.6,0.8
	c-0.2-0.3-0.5-0.4-0.9-0.4c-1.1,0.2-2.3,0.3-3.5,0.3c-0.4,0-0.7,0.2-0.8,0.6c-0.5,0-1,0-1.5-0.1l0,0
	C959.6,376.5,959.5,376.3,959.4,376.1z"/>
<path class="st0" d="M942.1,366.9c-0.7-2.9-0.8-5.8-0.3-8.7c0.1-0.8-0.3-1.6-1-1.8l-2.8-1l1.7-4.5l2.7,1.1c0.7,0.3,1.6,0,2-0.7
	c1.5-2.5,3.5-4.7,5.9-6.4c0.7-0.5,0.9-1.3,0.6-2l-1.2-2.7l4.4-2l1.2,2.7c0.3,0.7,1.1,1.1,1.9,0.9c2.9-0.7,5.8-0.8,8.7-0.3
	c0.8,0.1,1.6-0.3,1.8-1l1-2.8l4.5,1.7l-1.1,2.7c-0.3,0.7,0,1.6,0.7,2c2.5,1.5,4.7,3.5,6.4,5.9c0.5,0.7,1.3,0.9,2,0.6l2.7-1.2l2,4.4
	l-2.7,1.2c-0.7,0.3-1.1,1.1-0.9,1.9c0.7,2.9,0.8,5.8,0.3,8.7c-0.1,0.8,0.3,1.6,1,1.8l2.8,1l-1.7,4.5l-2.7-1.1
	c-0.3-0.1-0.5-0.1-0.8-0.1c-0.5,0.1-0.9,0.4-1.2,0.8c-1.5,2.5-3.5,4.7-5.9,6.4c-0.7,0.5-0.9,1.3-0.6,2l1.2,2.7l-4.4,2l-1.2-2.7
	c-0.3-0.7-1.1-1.1-1.9-0.9c-2.9,0.7-5.8,0.8-8.7,0.3c-0.8-0.1-1.6,0.3-1.8,1l-1,2.8l-4.5-1.7l1.1-2.7c0.3-0.7,0-1.6-0.7-2
	c-2.5-1.5-4.7-3.5-6.4-5.9c-0.5-0.7-1.3-0.9-2-0.6l-2.7,1.2l-2-4.4l2.7-1.2C941.9,368.4,942.3,367.6,942.1,366.9z M947.8,369.1
	c2.2,4.5,6.1,7.5,10.8,8.4c0.1,0,0.2,0,0.3,0c0.3-0.1,0.6-0.3,0.7-0.7c0,0,0-0.1,0-0.1c0.5,0.1,1,0.1,1.5,0.1c0,0.1-0.1,0.2-0.1,0.2
	c0,0.5,0.3,0.9,0.8,0.9c1,0,2,0,3-0.2c0.3,0,0.6-0.1,0.8-0.2c0.5-0.1,0.7-0.5,0.6-1c0-0.1-0.1-0.2-0.1-0.3c0.9-0.2,1.8-0.5,2.6-0.8
	c0,0.1,0,0.1,0.1,0.2c0.2,0.3,0.5,0.5,0.9,0.4c0.1,0,0.2,0,0.3-0.1c7.3-3.9,10.4-13.3,7-20.8c-0.2-0.4-0.7-0.6-1.1-0.4
	c-0.4,0.2-0.6,0.7-0.4,1.1c0.2,0.4,0.3,0.8,0.5,1.1c0,0.1,0.1,0.2,0.1,0.4c0.1,0.3,0.2,0.5,0.2,0.8c0,0.1,0.1,0.3,0.1,0.4
	c0.1,0.4,0.1,0.7,0.2,1.1c0,0.2,0,0.4,0.1,0.6c0,0.2,0,0.4,0,0.6c0,0.2,0,0.4,0,0.7c0,0.1,0,0.3,0,0.4c0,0.5,0,1-0.1,1.4
	c0,0.1,0,0.2,0,0.2c-3.9,2.2-8.2,4.4-12.4,3.2c0.3-0.1,0.7-0.3,1-0.5c0,0,0,0,0,0c0.3-0.2,0.5-0.4,0.8-0.7c0,0,0.1-0.1,0.1-0.1
	c0.2-0.2,0.4-0.5,0.6-0.8c0,0,0.1-0.1,0.1-0.1c0.2-0.3,0.3-0.6,0.5-0.9c0.6-1.7,0.4-3.5-0.7-5c-1.2-1.8-3.5-2.6-5.6-2.1
	c-0.3,0.1-0.5,0.2-0.8,0.3c-0.1,0-0.1,0.1-0.2,0.1c-0.2,0.1-0.5,0.2-0.7,0.4c0,0,0,0,0,0c-0.3,0.2-0.5,0.4-0.7,0.6c0,0,0,0,0,0
	c-0.2,0.2-0.4,0.4-0.6,0.7l0,0c-0.7-4.5,1-9.1,5.9-11.3l0,0c0.5,0.1,1.1,0.1,1.6,0.3c0.1,0,0.1,0,0.2,0c0.5,0.1,0.9,0.2,1.4,0.4
	c0.1,0,0.2,0.1,0.3,0.1c0.4,0.2,0.8,0.3,1.2,0.5c0.1,0.1,0.2,0.1,0.3,0.2c0.5,0.3,0.9,0.5,1.4,0.9c0.4,0.3,0.9,0.2,1.2-0.2
	c0.3-0.4,0.2-0.9-0.2-1.2c-3.6-2.6-8.2-3.5-12.7-2.3c-4.8,1.2-8.7,4.4-10.7,8.7C945.6,359.1,945.6,364.5,947.8,369.1z"/>
<path class="st0" d="M942.9,329.3l0.6,2.7l-1.7,0.4c-0.6,0.1-1.1,0.7-1.1,1.4c0.1,2-0.2,3.9-1,5.7c-0.2,0.6,0,1.3,0.5,1.7l1.4,0.9
	l-1.5,2.3l-1.4-0.9c-0.6-0.4-1.3-0.3-1.8,0.2c-0.3,0.3-0.5,0.5-0.8,0.8c-0.2,0.2-0.4,0.4-0.6,0.5c-0.4-0.6-0.5-1.2-0.2-1.7
	c0.4-1.1,0.7-2.2,1-3.2h0c0.6-0.9,1-1.9,1.3-2.9c0,0,0,0,0,0c0.1-0.3,0.2-0.6,0.2-1c0,0,0-0.1,0-0.1c0.1-0.3,0.1-0.6,0.1-0.9
	c0-0.1,0-0.1,0-0.2c0-0.3,0-0.6,0-0.9c0-0.1,0-0.2,0-0.2c0-0.3,0-0.6-0.1-0.8c0-0.1,0-0.2,0-0.3c0-0.4-0.1-0.7-0.2-1.1
	c-0.1-0.5-0.6-0.7-1-0.6c-0.1,0-0.2,0.1-0.2,0.1c0,0-0.1,0.1-0.1,0.1h0c-0.4-1.4-1-2.6-1.8-3.7c0.1,0,0.1-0.1,0.2-0.1
	c0.3-0.3,0.4-0.8,0.1-1.2c-0.2-0.3-0.5-0.5-0.8-0.8c-0.1-0.1-0.2-0.2-0.3-0.3c-0.2-0.1-0.3-0.3-0.5-0.4c-0.2-0.1-0.3-0.2-0.5-0.3
	c-0.1-0.1-0.3-0.2-0.4-0.3c-0.2-0.1-0.4-0.2-0.6-0.3c-0.1-0.1-0.2-0.1-0.3-0.2c-0.2-0.1-0.5-0.2-0.7-0.3c-0.1,0-0.2-0.1-0.3-0.1
	c-0.3-0.1-0.6-0.2-0.8-0.2c-0.1,0-0.1,0-0.2,0c-0.3-0.1-0.6-0.1-0.9-0.2c0,0-0.1,0-0.1,0c-0.3,0-0.7-0.1-1-0.1c-1-0.3-2-0.5-3.1-0.7
	c0.2-1,0.5-1.8,0.9-2.5c0.1,0.1,0.2,0.2,0.4,0.3c0.1,0,0.1,0.1,0.2,0.1c0.1,0,0.1,0,0.2,0.1c0.1,0,0.3,0.1,0.4,0.1
	c2-0.1,3.9,0.2,5.7,1c0.6,0.2,1.3,0,1.7-0.5l0.9-1.4l2.3,1.5l-0.9,1.4c-0.4,0.6-0.3,1.3,0.2,1.8c1.5,1.3,2.6,2.9,3.4,4.7
	c0.3,0.6,1,0.9,1.6,0.8L942.9,329.3z"/>
<path class="st0" d="M164.3,689.8v-3c0-0.3-0.2-0.6-0.6-0.6c-0.3,0-0.6,0.2-0.6,0.6v3.2H160c-0.3,0-0.6,0.2-0.6,0.6
	c0,0.3,0.2,0.6,0.6,0.6h3.1c-0.2,0.2-0.4,0.3-0.6,0.4c-1.9,1.1-4,1.5-5.8,1c-0.1-0.3-0.1-0.6-0.2-0.9c0,0,0-0.1,0-0.1
	c0-0.3-0.1-0.6-0.1-0.9c0-4,3.3-7.3,7.3-7.3c0.2,0,0.4,0,0.6,0C165.5,685.5,165.5,688,164.3,689.8z"/>
<path class="st1" d="M963.8,376.9c1.3,0,2.5-0.1,3.8-0.3c0.4-0.1,0.7,0.1,0.9,0.4c0.1,0.1,0.1,0.2,0.1,0.3c0.1,0.5-0.2,1-0.7,1.1
	c-0.3,0.1-0.6,0.1-0.9,0.2c-1.1,0.2-2.2,0.2-3.3,0.2c-0.5,0-0.9-0.4-0.9-0.9c0-0.1,0-0.2,0.1-0.3
	C963.1,377.2,963.4,376.9,963.8,376.9z"/>
<path class="st4" d="M165.3,617.6c1.3,0,2.4,1.1,2.4,2.4v3.3v36.3v7.2c0,1.3-1.1,2.4-2.4,2.4h-23.4c-1.3,0-2.4-1.1-2.4-2.4v-7.2
	v-36.3V620c0-1.3,1.1-2.4,2.4-2.4H165.3z M140.6,666.8c0,0.7,0.6,1.3,1.3,1.3h19.9h3.5c0.7,0,1.3-0.6,1.3-1.3v-6.6h-4.7h-21.2V666.8
	z M140.6,620v2.7h21.2h4.7V620c0-0.7-0.6-1.3-1.3-1.3h-3.5h-19.9C141.2,618.7,140.6,619.3,140.6,620z"/>
<path class="st1" d="M153.6,667.1c-1.6,0-2.9-1.3-2.9-2.9c0-1.6,1.3-2.9,2.9-2.9s2.9,1.3,2.9,2.9
	C156.5,665.8,155.2,667.1,153.6,667.1z M153.6,662.5c-0.2,0-0.5,0.1-0.7,0.1c-0.6,0.3-1.1,0.9-1.1,1.6c0,0.7,0.4,1.3,1.1,1.6
	c0.2,0.1,0.4,0.1,0.7,0.1c1,0,1.8-0.8,1.8-1.8C155.3,663.2,154.6,662.5,153.6,662.5z"/>
<path class="st1" d="M1219.9,624.9h15.7c0.5,0,0.9,0.4,0.9,0.9c0,0.5-0.4,0.9-0.9,0.9h-15.7c-0.5,0-0.9-0.4-0.9-0.9
	C1219,625.3,1219.4,624.9,1219.9,624.9z"/>
<path class="st1" d="M939,367.3l2.6-1.2c-0.8-3.1-0.9-6.2-0.3-9.3l-2.8-1c-0.4-0.2-0.7-0.5-0.9-0.9c-0.2-0.4-0.2-0.8,0-1.3l1.7-4.6
	c0.2-0.4,0.5-0.7,0.9-0.9c0.4-0.2,0.8-0.2,1.3,0l2.7,1c1.6-2.7,3.8-5.1,6.4-6.8l-1.2-2.7c-0.2-0.4-0.2-0.8,0-1.3
	c0.2-0.4,0.5-0.7,0.9-0.9l4.5-2c0.8-0.4,1.8,0,2.2,0.8l1.2,2.6c3.1-0.8,6.3-0.9,9.4-0.3l1-2.8c0.2-0.4,0.5-0.7,0.9-0.9
	c0.4-0.2,0.8-0.2,1.3,0l4.6,1.7c0.8,0.3,1.3,1.3,1,2.1l-1,2.7c2.7,1.6,5.1,3.8,6.8,6.4l2.7-1.2c0.4-0.2,0.8-0.2,1.3,0
	c0.4,0.2,0.7,0.5,0.9,0.9l2,4.5c0.4,0.8,0,1.8-0.8,2.2l-2.6,1.2c0.8,3.1,0.9,6.3,0.3,9.4l2.8,1c0.8,0.3,1.3,1.3,1,2.1l-1.7,4.6
	c-0.3,0.8-1.3,1.3-2.1,1l-2.7-1c-1.6,2.7-3.8,5.1-6.4,6.8l1.2,2.7c0.4,0.8,0,1.8-0.8,2.2l-4.5,2c-0.1,0.1-0.3,0.1-0.4,0.1
	c-0.3,0-0.6,0-0.8-0.1c-0.4-0.2-0.7-0.5-0.9-0.9l-1.2-2.6c-3.1,0.8-6.3,0.9-9.4,0.3l-1,2.8c-0.3,0.8-1.3,1.3-2.1,1l-4.6-1.7
	c-0.8-0.3-1.3-1.3-1-2.1l1-2.7c-2.7-1.6-5.1-3.8-6.8-6.4l-2.7,1.2c-0.8,0.4-1.8,0-2.2-0.8l-2-4.5c-0.2-0.4-0.2-0.8,0-1.3
	C938.3,367.8,938.6,367.5,939,367.3z M941.7,373.2l2.7-1.2c0.7-0.3,1.6-0.1,2,0.6c1.7,2.4,3.8,4.4,6.4,5.9c0.7,0.4,1,1.2,0.7,2
	l-1.1,2.7l4.5,1.7l1-2.8c0.3-0.7,1-1.2,1.8-1c2.9,0.5,5.8,0.4,8.7-0.3c0.8-0.2,1.6,0.2,1.9,0.9l1.2,2.7l4.4-2l-1.2-2.7
	c-0.3-0.7-0.1-1.6,0.6-2c2.4-1.7,4.4-3.8,5.9-6.4c0.3-0.4,0.7-0.7,1.2-0.8c0.3,0,0.5,0,0.8,0.1l2.7,1.1l1.7-4.5l-2.8-1
	c-0.7-0.3-1.2-1-1-1.8c0.5-2.9,0.4-5.8-0.3-8.7c-0.2-0.8,0.2-1.6,0.9-1.9l2.7-1.2l-2-4.4l-2.7,1.2c-0.7,0.3-1.6,0.1-2-0.6
	c-1.7-2.4-3.8-4.4-6.4-5.9c-0.7-0.4-1-1.2-0.7-2l1.1-2.7l-4.5-1.7l-1,2.8c-0.3,0.7-1,1.2-1.8,1c-2.9-0.5-5.8-0.4-8.7,0.3
	c-0.8,0.2-1.6-0.2-1.9-0.9l-1.2-2.7l-4.4,2l1.2,2.7c0.3,0.7,0.1,1.6-0.6,2c-2.4,1.7-4.4,3.8-5.9,6.4c-0.4,0.7-1.2,1-2,0.7l-2.7-1.1
	l-1.7,4.5l2.8,1c0.7,0.3,1.2,1,1,1.8c-0.5,2.9-0.4,5.8,0.3,8.7c0.2,0.8-0.2,1.6-0.9,1.9l-2.7,1.2L941.7,373.2z"/>
<path class="st1" d="M964.2,365.9c-2,0.3-4-0.5-5.1-2.2c-1-1.5-1.3-3.3-0.7-5c0.1-0.2,0.2-0.5,0.3-0.7c0,0,0,0,0,0
	c0.1-0.2,0.2-0.4,0.4-0.6l0,0c0.2-0.2,0.4-0.5,0.6-0.7c0,0,0,0,0,0c0.2-0.2,0.5-0.4,0.7-0.6c0,0,0,0,0,0c0.2-0.1,0.5-0.3,0.7-0.4
	c0.1,0,0.1-0.1,0.2-0.1c0.3-0.1,0.5-0.2,0.8-0.3c2.1-0.5,4.3,0.3,5.6,2.1c1,1.5,1.3,3.3,0.7,5c-0.1,0.3-0.3,0.6-0.5,0.9
	c0,0,0,0.1-0.1,0.1c-0.2,0.3-0.4,0.5-0.6,0.8c0,0-0.1,0.1-0.1,0.1c-0.2,0.2-0.5,0.5-0.8,0.7c0,0,0,0,0,0c-0.3,0.2-0.6,0.4-1,0.5
	c-0.2,0.1-0.5,0.2-0.7,0.2C964.5,365.9,964.3,365.9,964.2,365.9z M966.8,361.9c0.4-1.1,0.3-2.4-0.5-3.4c-0.8-1.2-2.4-1.8-3.8-1.4
	c-1.2,0.3-2.2,1.1-2.6,2.3c-0.4,1.2-0.3,2.4,0.5,3.4c0.8,1.2,2.4,1.8,3.8,1.4C965.4,363.9,966.4,363.1,966.8,361.9z"/>
<path class="st1" d="M969.9,374c0-0.1,0-0.2,0.1-0.2c0,0,0-0.1,0.1-0.1c0,0,0-0.1,0.1-0.1c0.1-0.1,0.1-0.1,0.2-0.2
	c0.5-0.3,0.9-0.5,1.4-0.9c0.1-0.1,0.3-0.2,0.4-0.3c0.3-0.2,0.6-0.5,0.9-0.7c0.1-0.1,0.2-0.2,0.4-0.3c0.3-0.3,0.6-0.6,0.9-0.9
	c0.1-0.1,0.1-0.1,0.2-0.2c0.3-0.4,0.7-0.9,1-1.3c0,0,0,0,0-0.1c0.3-0.4,0.5-0.9,0.8-1.3c0-0.1,0.1-0.2,0.1-0.2
	c0.2-0.4,0.4-0.9,0.6-1.3c0-0.1,0-0.1,0.1-0.2c0.2-0.5,0.3-0.9,0.4-1.4c0-0.2,0.1-0.3,0.1-0.5c0.1-0.3,0.1-0.6,0.2-1
	c0-0.1,0-0.2,0-0.4c0-0.1,0-0.2,0-0.2c0.1-0.5,0.1-1,0.1-1.4c0-0.1,0-0.3,0-0.4c0-0.2,0-0.4,0-0.7c0-0.2,0-0.4,0-0.6
	c0-0.2,0-0.4-0.1-0.6c-0.1-0.4-0.1-0.7-0.2-1.1c0-0.1-0.1-0.3-0.1-0.4c-0.1-0.3-0.1-0.6-0.2-0.8c0-0.1-0.1-0.2-0.1-0.4
	c-0.1-0.4-0.3-0.8-0.5-1.1c-0.2-0.4,0-0.9,0.4-1.1c0.4-0.2,0.9,0,1.1,0.4c3.4,7.6,0.3,16.9-7,20.8c-0.1,0-0.2,0.1-0.3,0.1
	c-0.3,0.1-0.7-0.1-0.9-0.4c0-0.1,0-0.1-0.1-0.2C969.9,374.2,969.9,374.1,969.9,374C969.9,374,969.9,374,969.9,374z"/>
<path class="st1" d="M959.6,345c4.5-1.2,9.2-0.3,12.7,2.3c0.4,0.3,0.5,0.8,0.2,1.2c-0.3,0.4-0.8,0.5-1.2,0.2
	c-0.4-0.3-0.9-0.6-1.4-0.9c-0.1-0.1-0.2-0.1-0.3-0.2c-0.4-0.2-0.8-0.4-1.2-0.5c-0.1,0-0.2-0.1-0.3-0.1c-0.4-0.2-0.9-0.3-1.4-0.4
	c-0.1,0-0.1,0-0.2,0c-0.5-0.1-1.1-0.2-1.6-0.3h0l0,0c-0.4,0-0.7-0.1-1.1-0.1c-0.1,0-0.2,0-0.3,0c-0.3,0-0.6,0-0.9,0
	c-0.2,0-0.4,0-0.6,0.1c-0.2,0-0.5,0-0.7,0.1c-0.5,0.1-0.9,0.2-1.4,0.3c-4.3,1.1-7.8,3.9-9.6,7.8c-2,3.9-2,8.6,0,12.8
	c2,4,5.4,6.7,9.6,7.5c0.1,0,0.2,0.1,0.3,0.1c0.1,0,0.1,0.1,0.2,0.1c0,0,0,0,0.1,0.1c0.1,0.2,0.2,0.4,0.2,0.6l0,0c0,0,0,0.1,0,0.1
	c-0.1,0.4-0.4,0.6-0.7,0.7c-0.1,0-0.2,0-0.3,0c-4.6-0.8-8.6-3.9-10.8-8.4c-2.3-4.6-2.3-9.9,0-14.3C951,349.4,954.9,346.2,959.6,345z
	"/>
<path class="st1" d="M928.2,339L928.2,339c-2.3,0.1-4.5-1.3-5.4-3.4c-0.8-1.8-0.6-3.8,0.4-5.4c1-1.6,2.8-2.6,4.7-2.7
	c2.3-0.1,4.5,1.3,5.4,3.4c0.8,1.8,0.6,3.8-0.4,5.4c-0.9,1.4-2.4,2.4-4,2.6C928.6,339,928.4,339,928.2,339z M931.4,335.4
	c0.7-1.2,0.8-2.6,0.3-3.8c-0.7-1.5-2.2-2.5-3.8-2.4c-0.2,0-0.3,0-0.5,0c-1.2,0.2-2.2,0.8-2.8,1.9c-0.7,1.2-0.8,2.6-0.3,3.8
	c0.7,1.5,2.2,2.5,3.8,2.4C929.5,337.3,930.7,336.6,931.4,335.4z"/>
<path class="st1" d="M935.7,341.5C935.7,341.5,935.7,341.5,935.7,341.5c-0.3,0.3-0.5,0.5-0.8,0.7c0,0-0.1,0.1-0.1,0.1
	c-0.2,0.2-0.4,0.3-0.7,0.5c-0.1,0.1-0.2,0.1-0.3,0.2c-0.2,0.1-0.4,0.2-0.6,0.4c-0.2,0.1-0.3,0.2-0.5,0.2c-0.2,0.1-0.3,0.2-0.5,0.2
	c-0.3,0.1-0.7,0.3-1,0.4c0,0-0.1,0-0.1,0c-0.4,0.1-0.8-0.2-0.9-0.6c-0.1-0.4,0.1-0.9,0.6-1.1c4.7-1.4,7.7-6.5,6.6-11.3
	c0-0.1,0-0.2,0-0.3c0,0,0-0.1,0-0.1c0,0,0-0.1,0-0.1c0-0.1,0.1-0.2,0.2-0.3c0,0,0,0,0,0c0,0,0.1-0.1,0.1-0.1c0.1,0,0.1-0.1,0.2-0.1
	c0.4-0.1,0.9,0.2,1,0.6c0.1,0.4,0.1,0.7,0.2,1.1c0,0.1,0,0.2,0,0.3c0,0.3,0.1,0.6,0.1,0.8c0,0.1,0,0.2,0,0.2c0,0.3,0,0.6,0,0.9
	c0,0.1,0,0.1,0,0.2c0,0.3-0.1,0.6-0.1,0.9c0,0,0,0.1,0,0.1c-0.1,0.3-0.1,0.6-0.2,1c0,0,0,0,0,0c-0.3,1-0.7,2-1.3,2.9c0,0,0,0,0,0
	C937.1,340,936.4,340.8,935.7,341.5z"/>
<path class="st1" d="M925.8,342.6c0.8,0.2,1.5,0.3,2.3,0.3c0.5,0,0.8,0.4,0.8,0.8c0,0.4-0.3,0.8-0.7,0.8c0,0-0.1,0-0.1,0
	c-0.9,0-1.8-0.1-2.7-0.3c-0.5-0.1-0.7-0.6-0.6-1C924.9,342.8,925.4,342.5,925.8,342.6z"/>
<path class="st1" d="M935.5,326.8c-0.1,0-0.1,0-0.2,0c0,0-0.1,0-0.1,0c-0.1,0-0.1,0-0.1,0c-0.1,0-0.2-0.1-0.2-0.2
	c-1.7-1.9-4.3-3-7.1-2.8c-2.9,0.1-5.6,1.5-7.3,3.8c-1.8,2.2-2.4,5.4-1.7,8.3c0.7,2.9,2.6,5.1,5.2,6.1c0.4,0.2,0.6,0.7,0.5,1.1
	c-0.1,0.3-0.4,0.5-0.7,0.5c-0.1,0-0.3,0-0.4-0.1c-3.1-1.2-5.3-3.9-6.2-7.3c-0.9-3.5-0.2-7.1,2-9.8c2-2.7,5.1-4.3,8.6-4.5
	c0.3,0,0.6,0,0.9,0c0.3,0,0.7,0,1,0.1c0,0,0.1,0,0.1,0c0.3,0,0.6,0.1,0.9,0.2c0.1,0,0.1,0,0.2,0c0.3,0.1,0.6,0.1,0.8,0.2
	c0.1,0,0.2,0.1,0.3,0.1c0.2,0.1,0.5,0.2,0.7,0.3c0.1,0,0.2,0.1,0.3,0.2c0.2,0.1,0.4,0.2,0.6,0.3c0.1,0.1,0.3,0.2,0.4,0.3
	c0.2,0.1,0.3,0.2,0.5,0.3c0.2,0.1,0.3,0.3,0.5,0.4c0.1,0.1,0.2,0.2,0.3,0.3c0.3,0.2,0.5,0.5,0.8,0.8c0.3,0.3,0.3,0.9-0.1,1.2
	c-0.1,0-0.1,0.1-0.2,0.1C935.7,326.7,935.6,326.7,935.5,326.8C935.5,326.8,935.5,326.8,935.5,326.8z"/>
<path class="st1" d="M160.2,689.8c0-0.3,0.2-0.6,0.6-0.6h3.2v-3.2c0-0.3,0.2-0.6,0.6-0.6c0.3,0,0.6,0.2,0.6,0.6v3v0.2h3.2
	c0.3,0,0.6,0.2,0.6,0.6s-0.2,0.6-0.6,0.6H165v3.2c0,0.3-0.2,0.6-0.6,0.6c-0.3,0-0.6-0.2-0.6-0.6v-3.2h0h-3.1
	C160.5,690.4,160.2,690.1,160.2,689.8z"/>
<path class="st1" d="M129.9,689.3c-0.3,0-0.6-0.2-0.6-0.6v-2.8h-2.8c-0.3,0-0.6-0.2-0.6-0.6s0.2-0.6,0.6-0.6h2.8V682
	c0-0.3,0.2-0.6,0.6-0.6s0.6,0.2,0.6,0.6v2.8h2.8c0.3,0,0.6,0.2,0.6,0.6s-0.2,0.6-0.6,0.6h-2.8v2.8
	C130.4,689.1,130.2,689.3,129.9,689.3z"/>
<path class="st0" d="M149.2,634.4v3.1c0,1,0.4,1.9,1.1,2.6c0.6,0.6,1.3,0.9,2.1,1v1.9c-1.8,0.3-3.1,1.8-3.1,3.6v3.1
	c0,1,0.4,1.9,1.1,2.6c0.7,0.7,1.6,1.1,2.6,1.1c2,0,3.7-1.7,3.7-3.7v-3.1c0-1.9-1.4-3.4-3.1-3.6v-1.9c0.8-0.1,1.5-0.5,2.1-1
	c0.7-0.7,1.1-1.6,1.1-2.6l0-3.1c0-2-1.7-3.7-3.7-3.7C150.9,630.6,149.2,632.3,149.2,634.4z M152.3,639.9c-1.1-0.3-2-1.3-2-2.5v-3.1
	c0-1.4,1.2-2.6,2.6-2.6c0.7,0,1.4,0.3,1.8,0.8c0.5,0.5,0.8,1.1,0.8,1.8v3.1c0,0.7-0.3,1.3-0.8,1.8c-0.4,0.4-0.8,0.6-1.3,0.7v-3.1
	c0-0.3-0.2-0.6-0.6-0.6s-0.6,0.2-0.6,0.6V639.9z M150.3,649.6v-3.1c0-1.2,0.9-2.3,2-2.5v3.1c0,0.2,0.1,0.3,0.2,0.4
	c0.1,0.1,0.2,0.2,0.4,0.2c0.3,0,0.6-0.2,0.6-0.6V644c1.2,0.3,2,1.3,2,2.5v3.1c0,1.4-1.2,2.6-2.6,2.6
	C151.5,652.2,150.3,651.1,150.3,649.6z"/>
<circle class="st6" cx="104.8" cy="67.5" r="67.5"/>
<circle class="st6" cx="931.5" cy="560.8" r="94.8"/>
<circle class="st6" cx="1043.2" cy="129.6" r="37.2"/>
<circle class="st6" cx="338.7" cy="629" r="79.6"/>
<g>
	<path class="st2" d="M196,404.3c0.5,0.8,0.9,1.6,1.3,2.5C196.9,405.9,196.5,405.1,196,404.3z"/>
	<path class="st3" d="M176.7,431.4c2.1,2.9,2.7,6.7,2.8,10.7h-6v-0.2c0-5.6-2.2-10.8-6.1-14.5c-4-3.8-6.2-9.2-5.8-14.7
		c0.6-9.3,8-16.7,17.3-17.3c5.2-0.3,10.1,1.4,13.9,5c0.4,0.4,0.9,0.8,1.3,1.3c0,0,0,0,0,0c0.4,0.5,0.8,0.9,1.1,1.4l0,0
		c-5.1-1.7-10.3-1.7-15.2,0.1C169.3,407.4,170.1,421.5,176.7,431.4z M180.1,400c0.3,0,0.6-0.3,0.6-0.6c0-0.3-0.3-0.6-0.6-0.6
		c-8.5,0-15.4,6.9-15.4,15.4c0,0.3,0.3,0.6,0.6,0.6c0.3,0,0.6-0.3,0.6-0.6C166,406.4,172.3,400,180.1,400z"/>
	<path class="st0" d="M198.6,412.6c0-0.1,0-0.2,0-0.3c0-0.4-0.1-0.9-0.2-1.3c0,0,0,0,0-0.1c-0.1-0.4-0.2-0.8-0.2-1.2
		c0-0.1,0-0.2-0.1-0.2c-0.1-0.4-0.2-0.9-0.4-1.3c0,0,0,0,0,0c-0.1-0.4-0.3-0.8-0.5-1.2c0,0,0-0.1-0.1-0.1c-0.4-0.9-0.8-1.7-1.3-2.5
		c0,0,0,0,0,0c-0.2-0.4-0.5-0.8-0.8-1.2l0,0c-5.1-1.7-10.3-1.7-15.2,0.1c-10.8,4.1-9.9,18.2-3.3,28.2c2.1,2.9,2.7,6.7,2.8,10.7h7.2
		v-0.2c0-5.5,2.3-10.7,6.4-14.8c3.6-3.5,5.5-8.2,5.5-13.2C198.7,413.5,198.7,413,198.6,412.6z"/>
	<path class="st5" d="M184.2,454.2H176c0,2.3,1.8,4.1,4.1,4.1C182.4,458.3,184.2,456.5,184.2,454.2z"/>
	<circle class="st0" cx="204.3" cy="468.3" r="2.2"/>
	<circle class="st0" cx="180.1" cy="468.3" r="2.2"/>
	<circle class="st0" cx="156" cy="468.3" r="2.2"/>
</g>
<path class="st1" d="M193.2,427.2c-3.9,3.8-6,8.7-6,13.9v0.8c0,0.3-0.3,0.6-0.6,0.6h-14.5c-0.3,0-0.6-0.3-0.6-0.6v-0.8
	c0-5.2-2.1-10.2-5.7-13.6c-4.3-4.1-6.6-9.8-6.2-15.7c0.6-9.9,8.6-17.8,18.5-18.4c5.5-0.3,10.8,1.5,14.8,5.3c4,3.7,6.2,9,6.2,14.4
	C199.1,418.5,197,423.5,193.2,427.2z M192.3,426.3c3.6-3.5,5.5-8.2,5.5-13.2c0-0.4,0-0.9-0.1-1.3c0-0.1,0-0.2,0-0.3
	c0-0.4-0.1-0.9-0.2-1.3c0,0,0,0,0-0.1c-0.1-0.4-0.2-0.8-0.2-1.2c0-0.1,0-0.2-0.1-0.2c-0.1-0.4-0.2-0.9-0.4-1.3c0,0,0,0,0,0
	c-0.1-0.4-0.3-0.8-0.5-1.2c0,0,0-0.1-0.1-0.1c-0.4-0.9-0.8-1.7-1.3-2.5c0,0,0,0,0,0c-0.2-0.4-0.5-0.8-0.8-1.2l0,0v0
	c-0.3-0.5-0.7-0.9-1.1-1.4c0,0,0,0,0,0c-0.4-0.4-0.8-0.9-1.3-1.3c-3.8-3.5-8.7-5.3-13.9-5c-9.3,0.6-16.7,8-17.3,17.3
	c-0.4,5.6,1.8,10.9,5.8,14.7c3.9,3.6,6.1,8.9,6.1,14.5v0.2h6h7.2v-0.2C186,435.6,188.2,430.4,192.3,426.3z"/>
<path class="st1" d="M172,444.5h14.6c0.3,0,0.6-0.3,0.6-0.6c0-0.3-0.3-0.6-0.6-0.6H172c-0.3,0-0.6,0.3-0.6,0.6
	C171.3,444.3,171.6,444.5,172,444.5z"/>
<path class="st1" d="M172,446.8h14.6c0.3,0,0.6-0.3,0.6-0.6c0-0.3-0.3-0.6-0.6-0.6H172c-0.3,0-0.6,0.3-0.6,0.6
	C171.3,446.5,171.6,446.8,172,446.8z"/>
<path class="st1" d="M172,449h14.6c0.3,0,0.6-0.3,0.6-0.6c0-0.3-0.3-0.6-0.6-0.6H172c-0.3,0-0.6,0.3-0.6,0.6
	C171.3,448.7,171.6,449,172,449z"/>
<path class="st1" d="M172,451.2h14.6c0.3,0,0.6-0.3,0.6-0.6c0-0.3-0.3-0.6-0.6-0.6H172c-0.3,0-0.6,0.3-0.6,0.6
	C171.4,450.9,171.7,451.2,172,451.2z"/>
<path class="st1" d="M179.9,398.6c0-0.3-0.3-0.6-0.6-0.6c-8.5,0-15.4,6.9-15.4,15.4c0,0.3,0.3,0.6,0.6,0.6c0.3,0,0.6-0.3,0.6-0.6
	c0-7.8,6.3-14.1,14.1-14.1C179.7,399.2,179.9,399,179.9,398.6z"/>
<path class="st1" d="M216.2,467.5c0,0.3-0.3,0.6-0.6,0.6h-8.8c-0.3,1.6-1.7,2.8-3.3,2.8c-1.7,0-3-1.2-3.3-2.8h-17.5
	c-0.3,1.6-1.7,2.8-3.3,2.8c-1.7,0-3-1.2-3.3-2.8h-17.5c-0.3,1.6-1.7,2.8-3.3,2.8c-1.7,0-3-1.2-3.3-2.8H143c-0.3,0-0.6-0.3-0.6-0.6
	c0-0.3,0.3-0.6,0.6-0.6h8.8c0.3-1.6,1.7-2.8,3.3-2.8c1.7,0,3,1.2,3.3,2.8H176c0.2-1.4,1.3-2.5,2.7-2.7v-5.5c0,0,0,0,0,0
	c-2.7-0.3-4.8-2.6-4.8-5.3v-0.6c0-0.3,0.3-0.6,0.6-0.6h9.5c0.3,0,0.6,0.3,0.6,0.6v0.6c0,2.8-2.1,5-4.8,5.3c0,0,0,0,0,0v5.5
	c1.4,0.2,2.5,1.3,2.7,2.7h17.5c0.3-1.6,1.7-2.8,3.3-2.8c1.7,0,3,1.2,3.3,2.8h8.8C216,466.9,216.2,467.2,216.2,467.5z M157.4,467.5
	c0-1.2-1-2.2-2.2-2.2c-1.2,0-2.2,1-2.2,2.2c0,1.2,1,2.2,2.2,2.2C156.4,469.7,157.4,468.7,157.4,467.5z M179.3,457.5
	c2.3,0,4.1-1.8,4.1-4.1h-8.2C175.2,455.7,177.1,457.5,179.3,457.5z M181.5,467.5c0-1.2-1-2.2-2.2-2.2c-1.2,0-2.2,1-2.2,2.2
	c0,1.2,1,2.2,2.2,2.2C180.5,469.7,181.5,468.7,181.5,467.5z M205.7,467.5c0-1.2-1-2.2-2.2-2.2c-1.2,0-2.2,1-2.2,2.2
	c0,1.2,1,2.2,2.2,2.2C204.7,469.7,205.7,468.7,205.7,467.5z"/>
<path class="st1" d="M160.4,455.5c0.3,0,0.6-0.3,0.6-0.6v-3.1h3.1c0.3,0,0.6-0.3,0.6-0.6c0-0.3-0.3-0.6-0.6-0.6H161v-3.1
	c0-0.3-0.3-0.6-0.6-0.6c-0.3,0-0.6,0.3-0.6,0.6v3.1h-3.1c-0.3,0-0.6,0.3-0.6,0.6c0,0.3,0.3,0.6,0.6,0.6h3.1v3.1
	C159.8,455.2,160.1,455.5,160.4,455.5z"/>
<g>
	<path class="st2" d="M747.8,86.6c0.5,0.8,0.9,1.6,1.3,2.5C748.7,88.2,748.3,87.4,747.8,86.6z"/>
	<path class="st3" d="M728.5,113.7c2.1,2.9,2.7,6.7,2.8,10.7h-6v-0.2c0-5.6-2.2-10.8-6.1-14.5c-4-3.8-6.2-9.2-5.8-14.7
		c0.6-9.3,8-16.7,17.3-17.3c5.2-0.3,10.1,1.4,13.9,5c0.4,0.4,0.9,0.8,1.3,1.3c0,0,0,0,0,0c0.4,0.5,0.8,0.9,1.1,1.4l0,0
		c-5.1-1.7-10.3-1.7-15.2,0.1C721.1,89.6,721.9,103.7,728.5,113.7z M731.9,82.3c0.3,0,0.6-0.3,0.6-0.6c0-0.3-0.3-0.6-0.6-0.6
		c-8.5,0-15.4,6.9-15.4,15.4c0,0.3,0.3,0.6,0.6,0.6c0.3,0,0.6-0.3,0.6-0.6C717.8,88.6,724.1,82.3,731.9,82.3z"/>
	<path class="st0" d="M750.4,94.9c0-0.1,0-0.2,0-0.3c0-0.4-0.1-0.9-0.2-1.3c0,0,0,0,0-0.1c-0.1-0.4-0.2-0.8-0.2-1.2
		c0-0.1,0-0.2-0.1-0.2c-0.1-0.4-0.2-0.9-0.4-1.3c0,0,0,0,0,0c-0.1-0.4-0.3-0.8-0.5-1.2c0,0,0-0.1-0.1-0.1c-0.4-0.9-0.8-1.7-1.3-2.5
		c0,0,0,0,0,0c-0.2-0.4-0.5-0.8-0.8-1.2l0,0c-5.1-1.7-10.3-1.7-15.2,0.1c-10.8,4.1-9.9,18.2-3.3,28.2c2.1,2.9,2.7,6.7,2.8,10.7h7.2
		v-0.2c0-5.5,2.3-10.7,6.4-14.8c3.6-3.5,5.5-8.2,5.5-13.2C750.5,95.7,750.4,95.3,750.4,94.9z"/>
	<path class="st5" d="M736,136.5h-8.2c0,2.3,1.8,4.1,4.1,4.1S736,138.7,736,136.5z"/>
	<circle class="st0" cx="756.1" cy="150.6" r="2.2"/>
	<circle class="st0" cx="731.9" cy="150.6" r="2.2"/>
	<circle class="st0" cx="707.8" cy="150.6" r="2.2"/>
</g>
<path class="st1" d="M745,109.5c-3.9,3.8-6,8.7-6,13.9v0.8c0,0.3-0.3,0.6-0.6,0.6h-14.5c-0.3,0-0.6-0.3-0.6-0.6v-0.8
	c0-5.2-2.1-10.2-5.7-13.6c-4.3-4.1-6.6-9.8-6.2-15.7c0.6-9.9,8.6-17.8,18.5-18.4c5.5-0.3,10.8,1.5,14.8,5.3c4,3.7,6.2,9,6.2,14.4
	C750.9,100.7,748.8,105.7,745,109.5z M744.1,108.6c3.6-3.5,5.5-8.2,5.5-13.2c0-0.4,0-0.9-0.1-1.3c0-0.1,0-0.2,0-0.3
	c0-0.4-0.1-0.9-0.2-1.3c0,0,0,0,0-0.1c-0.1-0.4-0.2-0.8-0.2-1.2c0-0.1,0-0.2-0.1-0.2c-0.1-0.4-0.2-0.9-0.4-1.3c0,0,0,0,0,0
	c-0.1-0.4-0.3-0.8-0.5-1.2c0,0,0-0.1-0.1-0.1c-0.4-0.9-0.8-1.7-1.3-2.5c0,0,0,0,0,0c-0.2-0.4-0.5-0.8-0.8-1.2l0,0v0
	c-0.3-0.5-0.7-0.9-1.1-1.4c0,0,0,0,0,0c-0.4-0.4-0.8-0.9-1.3-1.3c-3.8-3.5-8.7-5.3-13.9-5c-9.3,0.6-16.7,8-17.3,17.3
	c-0.4,5.6,1.8,10.9,5.8,14.7c3.9,3.6,6.1,8.9,6.1,14.5v0.2h6h7.2v-0.2C737.7,117.9,740,112.7,744.1,108.6z"/>
<path class="st1" d="M723.7,126.8h14.6c0.3,0,0.6-0.3,0.6-0.6c0-0.3-0.3-0.6-0.6-0.6h-14.6c-0.3,0-0.6,0.3-0.6,0.6
	C723.1,126.5,723.4,126.8,723.7,126.8z"/>
<path class="st1" d="M723.7,129h14.6c0.3,0,0.6-0.3,0.6-0.6s-0.3-0.6-0.6-0.6h-14.6c-0.3,0-0.6,0.3-0.6,0.6S723.4,129,723.7,129z"/>
<path class="st1" d="M723.7,131.3h14.6c0.3,0,0.6-0.3,0.6-0.6c0-0.3-0.3-0.6-0.6-0.6h-14.6c-0.3,0-0.6,0.3-0.6,0.6
	C723.1,131,723.4,131.3,723.7,131.3z"/>
<path class="st1" d="M723.8,133.5h14.6c0.3,0,0.6-0.3,0.6-0.6s-0.3-0.6-0.6-0.6h-14.6c-0.3,0-0.6,0.3-0.6,0.6
	S723.5,133.5,723.8,133.5z"/>
<path class="st1" d="M731.7,80.9c0-0.3-0.3-0.6-0.6-0.6c-8.5,0-15.4,6.9-15.4,15.4c0,0.3,0.3,0.6,0.6,0.6c0.3,0,0.6-0.3,0.6-0.6
	c0-7.8,6.3-14.1,14.1-14.1C731.5,81.5,731.7,81.2,731.7,80.9z"/>
<path class="st1" d="M768,149.8c0,0.3-0.3,0.6-0.6,0.6h-8.8c-0.3,1.6-1.7,2.8-3.3,2.8c-1.7,0-3-1.2-3.3-2.8h-17.5
	c-0.3,1.6-1.7,2.8-3.3,2.8c-1.7,0-3-1.2-3.3-2.8h-17.5c-0.3,1.6-1.7,2.8-3.3,2.8c-1.7,0-3-1.2-3.3-2.8h-8.8c-0.3,0-0.6-0.3-0.6-0.6
	c0-0.3,0.3-0.6,0.6-0.6h8.8c0.3-1.6,1.7-2.8,3.3-2.8c1.7,0,3,1.2,3.3,2.8h17.5c0.2-1.4,1.3-2.5,2.7-2.7V141c0,0,0,0,0,0
	c-2.7-0.3-4.8-2.6-4.8-5.3v-0.6c0-0.3,0.3-0.6,0.6-0.6h9.5c0.3,0,0.6,0.3,0.6,0.6v0.6c0,2.8-2.1,5-4.8,5.3c0,0,0,0,0,0v5.5
	c1.4,0.2,2.5,1.3,2.7,2.7h17.5c0.3-1.6,1.7-2.8,3.3-2.8c1.7,0,3,1.2,3.3,2.8h8.8C767.8,149.2,768,149.5,768,149.8z M709.2,149.8
	c0-1.2-1-2.2-2.2-2.2c-1.2,0-2.2,1-2.2,2.2c0,1.2,1,2.2,2.2,2.2C708.2,152,709.2,151,709.2,149.8z M731.1,139.8
	c2.3,0,4.1-1.8,4.1-4.1H727C727,137.9,728.8,139.8,731.1,139.8z M733.3,149.8c0-1.2-1-2.2-2.2-2.2c-1.2,0-2.2,1-2.2,2.2
	c0,1.2,1,2.2,2.2,2.2C732.3,152,733.3,151,733.3,149.8z M757.5,149.8c0-1.2-1-2.2-2.2-2.2c-1.2,0-2.2,1-2.2,2.2c0,1.2,1,2.2,2.2,2.2
	C756.5,152,757.5,151,757.5,149.8z"/>
<path class="st1" d="M712.2,137.7c0.3,0,0.6-0.3,0.6-0.6v-3.1h3.1c0.3,0,0.6-0.3,0.6-0.6c0-0.3-0.3-0.6-0.6-0.6h-3.1v-3.1
	c0-0.3-0.3-0.6-0.6-0.6c-0.3,0-0.6,0.3-0.6,0.6v3.1h-3.1c-0.3,0-0.6,0.3-0.6,0.6c0,0.3,0.3,0.6,0.6,0.6h3.1v3.1
	C711.6,137.5,711.9,137.7,712.2,137.7z"/>
<g>
	<path class="st2" d="M1059.9,204.4c0.5,0.8,0.9,1.6,1.3,2.5C1060.8,206,1060.3,205.2,1059.9,204.4z"/>
	<path class="st3" d="M1040.6,231.4c2.1,2.9,2.7,6.7,2.8,10.7h-6v-0.2c0-5.6-2.2-10.8-6.1-14.5c-4-3.8-6.2-9.2-5.8-14.7
		c0.6-9.3,8-16.7,17.3-17.3c5.2-0.3,10.1,1.4,13.9,5c0.4,0.4,0.9,0.8,1.3,1.3c0,0,0,0,0,0c0.4,0.5,0.8,0.9,1.1,1.4l0,0
		c-5.1-1.7-10.3-1.7-15.2,0.1C1033.1,207.4,1033.9,221.5,1040.6,231.4z M1044,200.1c0.3,0,0.6-0.3,0.6-0.6c0-0.3-0.3-0.6-0.6-0.6
		c-8.5,0-15.4,6.9-15.4,15.4c0,0.3,0.3,0.6,0.6,0.6c0.3,0,0.6-0.3,0.6-0.6C1029.9,206.4,1036.2,200.1,1044,200.1z"/>
	<path class="st0" d="M1062.5,212.6c0-0.1,0-0.2,0-0.3c0-0.4-0.1-0.9-0.2-1.3c0,0,0,0,0-0.1c-0.1-0.4-0.2-0.8-0.2-1.2
		c0-0.1,0-0.2-0.1-0.2c-0.1-0.4-0.2-0.9-0.4-1.3c0,0,0,0,0,0c-0.1-0.4-0.3-0.8-0.5-1.2c0,0,0-0.1-0.1-0.1c-0.4-0.9-0.8-1.7-1.3-2.5
		c0,0,0,0,0,0c-0.2-0.4-0.5-0.8-0.8-1.2l0,0c-5.1-1.7-10.3-1.7-15.2,0.1c-10.8,4.1-9.9,18.2-3.3,28.2c2.1,2.9,2.7,6.7,2.8,10.7h7.2
		v-0.2c0-5.5,2.3-10.7,6.4-14.8c3.6-3.5,5.5-8.2,5.5-13.2C1062.5,213.5,1062.5,213.1,1062.5,212.6z"/>
	<path class="st5" d="M1048.1,254.2h-8.2c0,2.3,1.8,4.1,4.1,4.1C1046.2,258.4,1048.1,256.5,1048.1,254.2z"/>
	<circle class="st0" cx="1068.1" cy="268.4" r="2.2"/>
	<circle class="st0" cx="1044" cy="268.4" r="2.2"/>
	<circle class="st0" cx="1019.8" cy="268.4" r="2.2"/>
</g>
<path class="st1" d="M1057.1,227.3c-3.9,3.8-6,8.7-6,13.9v0.8c0,0.3-0.3,0.6-0.6,0.6h-14.5c-0.3,0-0.6-0.3-0.6-0.6v-0.8
	c0-5.2-2.1-10.2-5.7-13.6c-4.3-4.1-6.6-9.8-6.2-15.7c0.6-9.9,8.6-17.8,18.5-18.4c5.5-0.3,10.8,1.5,14.8,5.3c4,3.7,6.2,9,6.2,14.4
	C1063,218.5,1060.9,223.5,1057.1,227.3z M1056.2,226.4c3.6-3.5,5.5-8.2,5.5-13.2c0-0.4,0-0.9-0.1-1.3c0-0.1,0-0.2,0-0.3
	c0-0.4-0.1-0.9-0.2-1.3c0,0,0,0,0-0.1c-0.1-0.4-0.2-0.8-0.2-1.2c0-0.1,0-0.2-0.1-0.2c-0.1-0.4-0.2-0.9-0.4-1.3c0,0,0,0,0,0
	c-0.1-0.4-0.3-0.8-0.5-1.2c0,0,0-0.1-0.1-0.1c-0.4-0.9-0.8-1.7-1.3-2.5c0,0,0,0,0,0c-0.2-0.4-0.5-0.8-0.8-1.2l0,0v0
	c-0.3-0.5-0.7-0.9-1.1-1.4c0,0,0,0,0,0c-0.4-0.4-0.8-0.9-1.3-1.3c-3.8-3.5-8.7-5.3-13.9-5c-9.3,0.6-16.7,8-17.3,17.3
	c-0.4,5.6,1.8,10.9,5.8,14.7c3.9,3.6,6.1,8.9,6.1,14.5v0.2h6h7.2v-0.2C1049.8,235.7,1052.1,230.4,1056.2,226.4z"/>
<path class="st1" d="M1035.8,244.6h14.6c0.3,0,0.6-0.3,0.6-0.6c0-0.3-0.3-0.6-0.6-0.6h-14.6c-0.3,0-0.6,0.3-0.6,0.6
	C1035.2,244.3,1035.5,244.6,1035.8,244.6z"/>
<path class="st1" d="M1035.8,246.8h14.6c0.3,0,0.6-0.3,0.6-0.6s-0.3-0.6-0.6-0.6h-14.6c-0.3,0-0.6,0.3-0.6,0.6
	S1035.5,246.8,1035.8,246.8z"/>
<path class="st1" d="M1035.8,249h14.6c0.3,0,0.6-0.3,0.6-0.6c0-0.3-0.3-0.6-0.6-0.6h-14.6c-0.3,0-0.6,0.3-0.6,0.6
	C1035.2,248.8,1035.5,249,1035.8,249z"/>
<path class="st1" d="M1035.9,251.3h14.6c0.3,0,0.6-0.3,0.6-0.6s-0.3-0.6-0.6-0.6h-14.6c-0.3,0-0.6,0.3-0.6,0.6
	S1035.5,251.3,1035.9,251.3z"/>
<path class="st1" d="M1043.8,198.7c0-0.3-0.3-0.6-0.6-0.6c-8.5,0-15.4,6.9-15.4,15.4c0,0.3,0.3,0.6,0.6,0.6c0.3,0,0.6-0.3,0.6-0.6
	c0-7.8,6.3-14.1,14.1-14.1C1043.5,199.3,1043.8,199,1043.8,198.7z"/>
<path class="st1" d="M1080.1,267.6c0,0.3-0.3,0.6-0.6,0.6h-8.8c-0.3,1.6-1.7,2.8-3.3,2.8c-1.7,0-3-1.2-3.3-2.8h-17.5
	c-0.3,1.6-1.7,2.8-3.3,2.8c-1.7,0-3-1.2-3.3-2.8h-17.5c-0.3,1.6-1.7,2.8-3.3,2.8c-1.7,0-3-1.2-3.3-2.8h-8.8c-0.3,0-0.6-0.3-0.6-0.6
	c0-0.3,0.3-0.6,0.6-0.6h8.8c0.3-1.6,1.7-2.8,3.3-2.8c1.7,0,3,1.2,3.3,2.8h17.5c0.2-1.4,1.3-2.5,2.7-2.7v-5.5c0,0,0,0,0,0
	c-2.7-0.3-4.8-2.6-4.8-5.3v-0.6c0-0.3,0.3-0.6,0.6-0.6h9.5c0.3,0,0.6,0.3,0.6,0.6v0.6c0,2.8-2.1,5-4.8,5.3c0,0,0,0,0,0v5.5
	c1.4,0.2,2.5,1.3,2.7,2.7h17.5c0.3-1.6,1.7-2.8,3.3-2.8c1.7,0,3,1.2,3.3,2.8h8.8C1079.8,267,1080.1,267.3,1080.1,267.6z
	 M1021.2,267.6c0-1.2-1-2.2-2.2-2.2c-1.2,0-2.2,1-2.2,2.2c0,1.2,1,2.2,2.2,2.2C1020.2,269.8,1021.2,268.8,1021.2,267.6z
	 M1043.2,257.6c2.3,0,4.1-1.8,4.1-4.1h-8.2C1039.1,255.7,1040.9,257.6,1043.2,257.6z M1045.4,267.6c0-1.2-1-2.2-2.2-2.2
	c-1.2,0-2.2,1-2.2,2.2c0,1.2,1,2.2,2.2,2.2C1044.4,269.8,1045.4,268.8,1045.4,267.6z M1069.5,267.6c0-1.2-1-2.2-2.2-2.2
	c-1.2,0-2.2,1-2.2,2.2c0,1.2,1,2.2,2.2,2.2C1068.5,269.8,1069.5,268.8,1069.5,267.6z"/>
<path class="st1" d="M1024.2,255.5c0.3,0,0.6-0.3,0.6-0.6v-3.1h3.1c0.3,0,0.6-0.3,0.6-0.6c0-0.3-0.3-0.6-0.6-0.6h-3.1v-3.1
	c0-0.3-0.3-0.6-0.6-0.6c-0.3,0-0.6,0.3-0.6,0.6v3.1h-3.1c-0.3,0-0.6,0.3-0.6,0.6c0,0.3,0.3,0.6,0.6,0.6h3.1v3.1
	C1023.6,255.2,1023.9,255.5,1024.2,255.5z"/>
</svg>
