<?xml version="1.0" encoding="utf-8"?>
<!-- Generator: Adobe Illustrator 21.0.0, SVG Export Plug-In . SVG Version: 6.00 Build 0)  -->
<svg version="1.1" xmlns="http://www.w3.org/2000/svg" xmlns:xlink="http://www.w3.org/1999/xlink" x="0px" y="0px"
	 viewBox="0 0 200 200" style="enable-background:new 0 0 200 200;" xml:space="preserve">
<style type="text/css">
	.st0{opacity:0.5;fill:none;stroke:#F2F2F2;stroke-miterlimit:10;}
	.st1{fill:#F2F2F2;}
	.st2{opacity:0.75;fill:#D9EBFF;}
	.st3{fill:#D9EBFF;}
	.st4{fill:#C8E2FC;}
	.st5{fill:#A5D3F9;}
	.st6{fill:#93CBF9;}
	.st7{fill:#172182;}
	.st8{fill:none;stroke:#1654D3;stroke-width:0.5;stroke-linecap:round;stroke-linejoin:round;stroke-miterlimit:10;}
	.st9{clip-path:url(#SVGID_2_);}
	.st10{fill:#C6426E;}
	.st11{fill:#0F7AEC;}
	.st12{fill:#C4DFF7;}
</style>
<g id="Layer_2">
	<g id="Layer_3">
		<circle class="st0" cx="107.4" cy="111.1" r="79.2"/>
	</g>
	<circle class="st1" cx="107.4" cy="111.1" r="72.9"/>
</g>
<g id="Layer_1">
	<g>
		<g>
			<g>
				<g>
					<path class="st2" d="M179.3,74.5h-44.9c-1,0-1.7-0.9-1.5-1.8l5.6-28.2c0.1-0.7,0.8-1.2,1.5-1.2h44.9c1,0,1.7,0.9,1.5,1.8
						l-5.6,28.2C180.7,74,180,74.5,179.3,74.5z"/>
					<polygon class="st2" points="183.5,49.2 184.1,46.1 140,46.1 139.4,49.2 					"/>
					<polygon class="st2" points="161.1,52.9 161.4,51.4 139.3,51.4 139,52.9 					"/>
					<polygon class="st2" points="160.5,55.9 160.8,54.4 138.8,54.4 138.4,55.9 					"/>
					<polygon class="st2" points="159.9,58.9 160.3,57.3 138.2,57.3 137.9,58.9 					"/>
					<polygon class="st2" points="159.4,61.9 159.7,60.3 137.6,60.3 137.3,61.9 					"/>
					<polygon class="st2" points="158.8,64.9 159.1,63.3 137.1,63.3 136.8,64.9 					"/>
					<polygon class="st2" points="158.3,67.9 158.6,66.3 136.5,66.3 136.2,67.9 					"/>
					<polygon class="st2" points="157.7,70.9 158,69.3 135.9,69.3 135.6,70.9 					"/>
					<polygon class="st2" points="164,51.4 160.2,70.9 179.1,70.9 182.9,51.4 					"/>
				</g>
				<g>
					<path class="st2" d="M30.5,74.6h46.1c1,0,1.7-0.9,1.5-1.9l-5.7-28.9c-0.1-0.7-0.8-1.3-1.5-1.3H24.8c-1,0-1.7,0.9-1.5,1.9
						L29,73.3C29.1,74,29.8,74.6,30.5,74.6z"/>
					<polygon class="st2" points="26.2,48.5 25.6,45.3 70.9,45.3 71.5,48.5 					"/>
					<polygon class="st2" points="27,52.4 26.6,50.8 49.3,50.8 49.6,52.4 					"/>
					<polygon class="st2" points="27.5,55.5 27.2,53.8 49.9,53.8 50.2,55.5 					"/>
					<polygon class="st2" points="28.1,58.5 27.8,56.9 50.4,56.9 50.8,58.5 					"/>
					<polygon class="st2" points="28.7,61.6 28.4,60 51,60 51.3,61.6 					"/>
					<polygon class="st2" points="29.3,64.7 28.9,63.1 51.6,63.1 51.9,64.7 					"/>
					<polygon class="st2" points="29.8,67.7 29.5,66.1 52.2,66.1 52.5,67.7 					"/>
					<polygon class="st2" points="30.4,70.8 30.1,69.2 52.7,69.2 53.1,70.8 					"/>
					<polygon class="st2" points="71.6,50.8 75.5,70.8 56.1,70.8 52.2,50.8 					"/>
				</g>
			</g>
		</g>
		<g>
			<g>
				<path class="st3" d="M131.4,165c1.4-5.4,2.9-11,6.3-15.4c0.9-1.2,1.9-2.2,3.3-2.9c3.5-1.8,6.9-1.1,10.6-0.9
					c2.2,0.1,4.4-1,6.1-2.4c1.5-1.3,2-3.1,3.4-4.4c6.9-6.4,27.6-8.4,25.3,6.2c-0.7,4.5-4.5,8.3-8.9,9.4c-1.7,0.4-3.5,0.5-5.2,0.9
					c-2.1,0.5-5.5,2.4-6.6,4.5c-0.5,0.8-0.6,1.8-1.1,2.7c-1,1.7-3.1,2.4-5.1,2.4c-4.4,0.2-8.7-1.7-13.1-1.4
					c-7.9,0.5-10.8,6.4-17.1,10.7"/>
			</g>
			<g>
				<g>
					<path class="st4" d="M182,147.8c-20-3.5-42.9,5.4-52.8,23.9c-0.1,0.3,0.2,0.4,0.4,0.2c5.6-7.9,12-14.6,20.8-19
						c9.7-4.9,20.9-6.5,31.6-4.8C182.1,148.1,182.2,147.8,182,147.8L182,147.8z"/>
				</g>
			</g>
			<g>
				<g>
					<path class="st4" d="M155.5,159.5c-3.3-2.8-7.6-4.1-11.9-3.2c-0.2,0-0.1,0.4,0.1,0.4c4.2-0.6,8.3,0.3,11.7,3
						C155.4,159.7,155.5,159.6,155.5,159.5L155.5,159.5z"/>
				</g>
			</g>
			<g>
				<g>
					<path class="st4" d="M166.6,155.8c-3.1-3.7-7.8-5.4-12.6-4.9c-0.1,0-0.1,0.2,0,0.2C158.8,150.7,163.1,152.6,166.6,155.8
						C166.6,156,166.6,155.9,166.6,155.8L166.6,155.8z"/>
				</g>
			</g>
			<g>
				<g>
					<path class="st4" d="M171,142.3c-0.7,1.1-1.4,2.1-2.3,3c-0.8,0.8-1.8,1.5-2.7,2.2c-0.1,0.1,0,0.3,0.2,0.2
						c2.1-1,3.9-3.3,4.9-5.3C171.2,142.3,171.1,142.2,171,142.3L171,142.3z"/>
				</g>
			</g>
			<g>
				<g>
					<path class="st4" d="M149.9,148.5c-1.3,2.5-3,4.5-4.9,6.6c-0.1,0.1,0,0.2,0.1,0.2c2.2-1.7,3.8-4.1,4.9-6.7
						C150.1,148.5,150,148.4,149.9,148.5L149.9,148.5z"/>
				</g>
			</g>
			<g>
				<g>
					<path class="st4" d="M163.6,142.6c-1.8,3.9-4.8,5.8-8.5,7.6c-0.1,0.1,0,0.3,0.1,0.3c3.9-0.8,7-4.4,8.5-7.8
						C163.7,142.6,163.6,142.5,163.6,142.6L163.6,142.6z"/>
				</g>
			</g>
		</g>
		<g>
			<g>
				<path class="st3" d="M81.7,167.2c-3.1-2.6-7.3-3.5-11.4-3.4c-4,0.1-8,0.9-12.1,1.4c-1.3,0.2-2.6,0.3-3.9-0.1
					c-1.3-0.4-2.5-1.3-2.8-2.6c-0.3-1.4,0.4-3.1-0.5-4.3c-0.9-1.2-2.7-1-4.2-0.6c-6.6,1.6-12.4,1.7-18.9-0.7
					c-3.3-1.3-6.8-4.2-6.1-7.7c0.7-3.6,4.8-4.8,6.1-7.9c1.4-3.3-1.5-7.4-3.9-9.4c-3-2.5-6.8-3.8-10-6c-5.1-3.4-8.7-8.7-10.1-14.6
					S3.8,99,7,93.8c1.1-1.8,2.5-3.5,4.3-4.5C17.4,86,23,92.8,25,97.8c1.9,4.8,2.5,10,4.5,14.8c1.5,3.6,4.8,7.3,8.7,6.6
					c2.7-0.5,4.7-2.1,7.4-1.6c3.1,0.5,4.5,3.6,3.9,6.6c-0.6,3-2.3,5.9-2,9c0.3,3.2,2.8,5.6,5.1,7.8c3.9,3.6,7-5.7,12.5,3.4
					c2.5,4.2,14.3,21.6,14.3,21.6"/>
			</g>
			<g>
				<g>
					<path class="st4" d="M17,107.7c1,6.8,5.5,12.5,9.8,17.6c4.8,5.8,10.1,11,16,15.6c4.9,3.8,9.9,6.6,15.4,9.4
						c5.5,2.8,10.2,6,12.2,12.2c0.1,0.2,0.4,0.1,0.3-0.1c-1.3-4.9-4.8-8.2-9-10.6c-5.1-3-10.5-5.1-15.3-8.6
						c-6.3-4.5-12.1-9.7-17.2-15.5c-5.1-5.7-10.8-12.3-12.1-20.1C17.2,107.6,17,107.6,17,107.7L17,107.7z"/>
				</g>
			</g>
			<g>
				<g>
					<path class="st4" d="M30.1,148.4c1.6,1.9,3.8,2.6,6.2,2.9c4.2,0.6,8.5,0.5,12.8,1.2c2.6,0.4,5,0.3,7.6,0.1
						c2.8-0.2,6.1-0.6,8.6,1.1c0,0,0.1,0,0-0.1c-3.4-3-9.4-1.1-13.4-1.3c-3.5-0.1-6.9-0.8-10.4-1.1c-3.8-0.3-8.4-0.1-11.3-3.1
						C30.2,148.1,30,148.2,30.1,148.4L30.1,148.4z"/>
				</g>
			</g>
			<g>
				<g>
					<path class="st4" d="M26.4,132.5c3.7,3.1,8.1,5.2,13,5.9c0.2,0,0.3-0.2,0.1-0.3C34.7,137.2,30.3,135.4,26.4,132.5
						C26.4,132.4,26.3,132.5,26.4,132.5L26.4,132.5z"/>
				</g>
			</g>
			<g>
				<g>
					<path class="st4" d="M30.3,121.8c2,5.7,4.4,12.2,8.7,16.6c0.1,0.1,0.2,0,0.2-0.1c-1.7-2.5-3.4-4.8-4.8-7.5
						c-1.5-2.9-2.7-6-3.9-9C30.4,121.7,30.2,121.7,30.3,121.8L30.3,121.8z"/>
				</g>
			</g>
			<g>
				<g>
					<path class="st4" d="M14.7,114.7c2.8,3.3,6.5,7.2,10.6,8.8c0.1,0,0.1-0.1,0-0.1c-4-2.2-7.5-5.5-10.5-8.8
						C14.8,114.5,14.6,114.6,14.7,114.7L14.7,114.7z"/>
				</g>
			</g>
		</g>
		<g>
			<g>
				<path class="st3" d="M131.5,159.6c1-5.8,2.4-12.7,7.1-16.7c4.9-4.2,8.8-6.9,15-8.3c5.3-1.2,9.2-3.4,12.2-8.2
					c1.3-2.1,2.5-4.6,2-7c-0.2-1.2-0.8-2.3-1.1-3.5c-1-3.7,0.7-8,4-10c5-2.9,7.4-3,10.4-8.4c2.2-4,3.6-7.6,3.2-12.3
					c-0.3-4.3-2.5-6.6-5.7-9.8c-4-4-10-1.7-13,1.3c-3.2,3.2-8,13-12.9,13c-1.8,0-3.3-1.1-5-1.6c-3.1-1-6.7-0.1-9.2,2s-3.9,5.4-4,8.6
					c-0.3,7,4.6,14.4,1.3,20.6c-1.1,2.1-3.1,3.7-4.7,5.5c-2.8,3.1-4.2,8.4-5.1,12.4c-1,4.2,0.8,8.4,1.9,12.4
					c0.5,1.7,0.9,3.5,0.7,5.2c-0.2,1.9-1,3.7-2,5.3"/>
			</g>
			<g>
				<g>
					<path class="st4" d="M174.8,81.6c-5.9,15.7-20.3,25.6-30.3,38.6c-4.9,6.3-8.6,13.4-10.6,21.2c-2,7.6-3,15.7-3.4,23.6
						c0,0.3,0.4,0.3,0.5,0.1c1.2-8.1,1.5-16.3,3.7-24.2c2.3-8.3,6.5-15.7,12-22.4c9.8-12,22.9-21.8,28.4-36.8
						C175.1,81.5,174.9,81.4,174.8,81.6L174.8,81.6z"/>
				</g>
			</g>
			<g>
				<g>
					<path class="st4" d="M157.9,113.4c-4.1-0.1-8.3,1.1-11.2,4.1c-0.1,0.1,0,0.4,0.2,0.3C150.3,115.4,153.7,113.7,157.9,113.4
						C158,113.5,158,113.5,157.9,113.4L157.9,113.4z"/>
				</g>
			</g>
			<g>
				<g>
					<path class="st4" d="M149.4,129.8c-6.2,0.8-12.6,4.9-15.3,10.7c-0.1,0.2,0.2,0.4,0.3,0.2c3.7-5.6,8.3-9.3,15-10.7
						C149.6,130,149.5,129.8,149.4,129.8L149.4,129.8z"/>
				</g>
			</g>
			<g>
				<g>
					<path class="st4" d="M163.3,93.7c-0.7,4-2.3,7.4-4.5,10.8c-0.1,0.2,0.2,0.4,0.3,0.2c2.5-3.2,3.8-7.1,4.4-11
						C163.5,93.7,163.3,93.7,163.3,93.7L163.3,93.7z"/>
				</g>
			</g>
			<g>
				<g>
					<path class="st4" d="M173.3,96.7c-4.2-0.6-8.4,2-11.4,4.7c-0.1,0.1,0,0.3,0.2,0.2C165.6,99.5,168.8,96.6,173.3,96.7
						C173.3,96.8,173.3,96.7,173.3,96.7L173.3,96.7z"/>
				</g>
			</g>
			<g>
				<g>
					<path class="st4" d="M149.8,103.7c0.2,5-1,9.6-3.3,14.1c-0.1,0.1,0.1,0.2,0.2,0.1c2.5-4.3,3.5-9.2,3.2-14.2
						C149.9,103.6,149.8,103.6,149.8,103.7L149.8,103.7z"/>
				</g>
			</g>
		</g>
		<g>
			<path class="st5" d="M116,75.2l-2.8-14.7l-15.1-1.9c-0.8,10.2-1.3,18-1.3,18l-9.1,0.9c0,0,6,7.5,20.7,6.3
				c10.6-0.8,14.4-6.3,14.4-6.3L116,75.2z"/>
		</g>
		<g>
			<path class="st6" d="M98.2,63.1c0.6,3.7,4.3,6.7,8,6.6c4.3-0.2,6.7-4.6,6.4-8.6"/>
		</g>
		<g>
			<path class="st7" d="M107,32.4c1.9-2.1,4.4-3.7,7.2-3.8c1.5-0.1,3,0.3,4.4,0.8c1.4,0.6,2.7,1.4,3.5,2.6c5.4,7.7,2.2,19.1-1.5,27
				c-0.3,0.7-0.8,1.4-1.5,1.8c-2.2,1.2-7.3,3.4-7.6,0.6c-0.1-0.8,1.6-5.7,1.7-6.5"/>
		</g>
		<g>
			<path class="st5" d="M119,48.8c0.2-0.8,1.1-1.3,1.9-1.4c0.7-0.1,1.4,0,1.9,0.5c0.5,0.6,0.5,1.4,0.5,2.2c0,1.4-0.2,2.8-0.7,4.1
				c-0.6,1.3-1.7,2.3-3.1,2.5c-1.4,0.2-2.9-0.9-2.9-2.3"/>
		</g>
		<g>
			<path class="st7" d="M88.5,26.9c-3.4,3.9-5.1,12.7-5.1,14.3c0,4,3.5,16.3,7.7,19.5c1.2,0.9,6.4,3.5,7.1,1.9
				c0.2-0.5-1.6-3-1.1-3.4c0.6-0.6,0.8-1.4,0.8-2.2c0-0.8-0.2-1.6-0.4-2.4"/>
		</g>
		<g>
			<path class="st5" d="M120.2,38.4c-0.1-1.7-1.3-3.7-2.8-4.6c-3.4-2-7-4-10.9-4c-2.6,0-5.2,0.8-7.5,1.9c-2.8,1.4-5.3,3.2-7.5,5.3
				c-1.2,1.2-2.3,2.5-2.6,4.1c-0.2,1.1,0,2.3,0.2,3.5c1.1,5.7,1.8,12.4,5.7,17c3.6,4.2,7.7,5.7,13,5c7.1-1,11.4-8.4,12-14.7
				C120.4,47.4,120.5,42.9,120.2,38.4z"/>
		</g>
		<g>
			<path class="st7" d="M125.2,24c-0.1-0.6-0.8-0.9-1.2-0.4c-0.5,0.8-1.2,1.4-2.1,1.7c0.7-1.1,0.9-2.5,0.6-3.8
				c-0.1-0.6-0.8-0.8-1.3-0.6c-2.9,1.2-6.7,1-9.2-0.3c-2.5-1.3-5.5-1.8-8.3-1.7c-3.3,0.1-5.7,0.5-8.7,2c-3.8,1.9-3.7,4.6-3.7,4.6
				s-2-0.4-3.6,1.5c-2.2,2.6-4.4,8.9-4.3,14c0.1,2.4,2,0.3,2.8,2.6c0.6,1.8-0.4,4.1,1.5,4.8c0.4,0.1,0.8,0.2,1.2,0
				c0.7-0.3,2.8,0.7,2.8-0.1c-2-8.3-0.2-11.1,1.3-12c0.7-0.4,2,0.4,2.6,0c0.6-0.4,0.8-1.1,1.3-1.7c0.6-0.6,1.3-1,2.1-1.2
				c1.5-0.4,3.1-0.2,4.6-0.1c2.8,0.2,5.7,0,8.5,0.3c3,0.3,6.3,0.5,9.1-0.8C124.9,31.4,125.5,27.5,125.2,24z"/>
		</g>
		<g>
			<path class="st5" d="M91.1,49.1c-0.3-0.8-1.2-1.2-2-1.2c-0.7,0-1.4,0.2-1.8,0.7c-0.5,0.6-0.4,1.5-0.3,2.2c0.2,1.4,0.5,2.8,1.2,4
				C88.8,56,90,57,91.4,57c1.4,0,2.8-1.2,2.7-2.6"/>
		</g>
		<g>
			<path class="st7" d="M90.7,38.6c-0.4,2.8,0.2,5.6,0.7,8.3c0.3,1.4,0.6,2.9,0.9,4.3c-0.3,0.2-0.8,0.1-1.1-0.1
				c-0.3-0.2-0.5-0.6-0.7-0.9c-0.6-1.1-1.3-2.2-1.9-3.3c-0.4-0.8-0.9-1.6-0.9-2.5"/>
		</g>
		<g>
			<path class="st7" d="M116.2,33.3c0.7,1.3,1.9,2.3,2.5,3.6c0.8,1.6,0.8,3.4,0.8,5.2c0,3.4,0,6.8-0.1,10.2c0.4-0.7,0.6-1.5,0.8-2.3
				c0.6-2.5,1.2-4.9,1.7-7.4c0.2-0.9,0.7-1.7,0.8-2.6c0.2-0.9,0-2-0.2-2.9c-0.7-3.8-3.1-7.3-6.5-9.1"/>
		</g>
		<circle class="st8" cx="17.6" cy="120.2" r="2.7"/>
		<circle class="st8" cx="178.5" cy="125.1" r="2.7"/>
		<g>
			<g>
				<line class="st8" x1="140.4" y1="13.1" x2="140.4" y2="18.4"/>
				<line class="st8" x1="143.1" y1="15.8" x2="137.8" y2="15.8"/>
			</g>
		</g>
		<g>
			<g>
				<line class="st8" x1="72.6" y1="58.9" x2="72.6" y2="64.2"/>
				<line class="st8" x1="75.2" y1="61.6" x2="70" y2="61.6"/>
			</g>
		</g>
	</g>
</g>
<g id="Layer_5">
</g>
<g id="Layer_4">
	<g>
		<defs>
			<circle id="SVGID_1_" cx="107.4" cy="111.1" r="72.9"/>
		</defs>
		<clipPath id="SVGID_2_">
			<use xlink:href="#SVGID_1_"  style="overflow:visible;"/>
		</clipPath>
		<g class="st9">
			<path class="st10" d="M63.9,162.4l0.8-1.1c0,0,0.3,0.3,0.5,0.7c0.7,0.9-0.2,2.7-1.1,3.4c-1,0.9-2.2,1.4-2.9,1.1
				c-0.6-0.4-0.3-2.9-0.3-2.9l0.7-0.5L63.9,162.4z"/>
			<path class="st10" d="M146,162.4l-0.8-1.1c0,0-0.3,0.3-0.5,0.7c-0.7,0.9,0.2,2.7,1.1,3.4c1,0.9,2.2,1.4,2.9,1.1
				c0.6-0.4,0.3-2.9,0.3-2.9l-0.7-0.5L146,162.4z"/>
			<g>
				<path class="st11" d="M144.3,82.8c-3.2-3.5-21.6-5.4-21.6-5.4l-12.5,1.3h-10l-12.5-1.3c0,0-18.4,2-21.6,5.4
					c-13.4,14.5-23.2,56.5-22.6,63.1c0.5,6.6,17.9,20.5,17.9,20.5s0.5-4.2,3.9-4.5c-0.5-7-6.3-19.6-6.3-19.6L71.6,114
					c0.2-0.5,0.9-0.3,0.9,0.2c1.4,21.8,7.1,41.5,7.3,50.5c4.4,0.9,14.3,6.8,25.7,9.2c11.9,2.5,25.6,2,25.6,2c1-15.1,2.4-26,3.8-38.2
					c1.2-7.2,2.4-15.1,2.9-23.3c0-0.5,0.7-0.7,0.9-0.2l11.2,27.4c0,0-5.1,13.3-5.3,20.3c3.4,0.3,3.9,4.5,3.9,4.5
					s17.8-13.9,18.3-20.5C167.5,139.3,157.7,97.3,144.3,82.8z"/>
			</g>
			<g>
				<path class="st2" d="M127.8,131.4H92.3c-0.8,0-1.3-0.7-1.2-1.4l4.4-22.3c0.1-0.6,0.6-1,1.2-1h35.5c0.8,0,1.3,0.7,1.2,1.4
					l-4.4,22.3C128.9,131,128.4,131.4,127.8,131.4z"/>
				<polygon class="st2" points="131.1,111.3 131.6,108.9 96.7,108.9 96.2,111.3 				"/>
				<polygon class="st2" points="113.4,114.3 113.6,113.1 96.2,113.1 95.9,114.3 				"/>
				<polygon class="st2" points="112.9,116.7 113.2,115.4 95.7,115.4 95.5,116.7 				"/>
				<polygon class="st2" points="112.5,119 112.7,117.8 95.3,117.8 95.1,119 				"/>
				<polygon class="st2" points="112,121.4 112.3,120.2 94.9,120.2 94.6,121.4 				"/>
				<polygon class="st2" points="111.6,123.8 111.8,122.5 94.4,122.5 94.2,123.8 				"/>
				<polygon class="st2" points="111.2,126.1 111.4,124.9 94,124.9 93.7,126.1 				"/>
				<polygon class="st2" points="110.7,128.5 111,127.2 93.5,127.2 93.3,128.5 				"/>
				<polygon class="st2" points="115.7,113.1 112.7,128.5 127.6,128.5 130.6,113.1 				"/>
			</g>
			<g>
				<path class="st2" d="M42.4,107.5H79c0.8,0,1.4-0.7,1.2-1.5l-4.5-22.9c-0.1-0.6-0.6-1-1.2-1H37.9c-0.8,0-1.4,0.7-1.2,1.5
					l4.5,22.9C41.3,107.1,41.8,107.5,42.4,107.5z"/>
				<polygon class="st2" points="39,86.9 38.5,84.3 74.5,84.3 75,86.9 				"/>
				<polygon class="st2" points="57.3,89.9 57,88.7 75,88.7 75.2,89.9 				"/>
				<polygon class="st2" points="57.7,92.4 57.5,91.1 75.5,91.1 75.7,92.4 				"/>
				<polygon class="st2" points="58.2,94.8 57.9,93.5 75.9,93.5 76.2,94.8 				"/>
				<polygon class="st2" points="58.7,97.3 58.4,96 76.4,96 76.6,97.3 				"/>
				<polygon class="st2" points="59.1,99.7 58.9,98.4 76.8,98.4 77.1,99.7 				"/>
				<polygon class="st2" points="59.6,102.1 59.3,100.8 77.3,100.8 77.5,102.1 				"/>
				<polygon class="st2" points="60,104.6 59.8,103.3 77.7,103.3 78,104.6 				"/>
				<polygon class="st2" points="54.9,88.7 58,104.6 42.6,104.6 39.5,88.7 				"/>
			</g>
			<g>
				<path class="st12" d="M133.8,167.8H76.4l-5.3-36.6c-0.3-1.8,1.1-3.4,3-3.4h62c1.8,0,3.2,1.6,3,3.4L133.8,167.8z"/>
				<path class="st5" d="M83.3,164.6c-0.4,0.2-2.7,1.1-4.2,1.5c-1,0.2-3-0.1-3-0.1l-0.4-2.5c-0.9-0.6-1.3-0.4-4.5-0.4
					c-1.5,0-3.2,0.9-4,0.4c-0.7-0.5-2.4-1.4-2.4-1.4s-0.5-0.1-1.7,0.8c-1.4,1.1-1.7,2.9-1.7,2.9s2.2,1.2,3.3,2.9
					c0.5,0.8,5.7,4.8,7.3,5.4c1.7,0.6,5.8-0.1,7.3-0.4c1.9-0.4,4.5-2.8,5-3.2c0.3-0.3,0.8-2.4,1.5-4c1.1-0.9,1.3-1.9,1.3-2.3
					C87.1,163.1,84.6,164,83.3,164.6z"/>
				<path class="st5" d="M126.6,164.6c0.4,0.2,2.7,1.1,4.2,1.5c1,0.2,3.3-0.2,3.3-0.2l0.3-2.3c0.9-0.6,1.7-1,4.3-0.6
					c1.4,0.2,3.2,0.9,4,0.4c0.7-0.5,2.4-1.4,2.4-1.4s0.5-0.1,1.7,0.8c1.4,1.1,1.7,2.9,1.7,2.9s-2.2,1.2-3.3,2.9
					c-0.5,0.8-5.7,4.8-7.3,5.4c-1.7,0.6-5.8-0.1-7.3-0.4c-1.9-0.4-4.5-2.8-5-3.2c-0.3-0.3-0.8-2.4-1.5-4c-1.1-0.9-1.3-1.9-1.3-2.3
					C122.8,163.1,125.3,164,126.6,164.6z"/>
			</g>
		</g>
	</g>
</g>
</svg>
