<?xml version="1.0" encoding="utf-8"?>
<!-- Generator: Adobe Illustrator 21.0.0, SVG Export Plug-In . SVG Version: 6.00 Build 0)  -->
<svg version="1.1" id="Layer_1" xmlns="http://www.w3.org/2000/svg" xmlns:xlink="http://www.w3.org/1999/xlink" x="0px" y="0px"
	 viewBox="0 0 150 50" style="enable-background:new 0 0 150 50;" xml:space="preserve">
<style type="text/css">
	.st0{fill:#0074EF;}
	.st1{fill:#FFFFFF;}
	.st2{fill:#0278D1;}
	.st3{fill:url(#SVGID_1_);}
	.st4{fill:url(#SVGID_2_);}
	.st5{fill:url(#SVGID_3_);}
	.st6{fill:#757575;}
</style>
<g>
	<path class="st0" d="M99.1,24.4v-14c0-5.5,5.9-8.9,10.7-6.2l12.1,7l11.9,6.8c0.8,0.5,1.4,1,2,1.6c-0.6-1.2-1.5-2.3-2.9-3.1l-12.1-7
		l-11.2-6.5C104.4,0.2,98,3.9,98,9.8v13v15.4c0,1.8,0.7,3.3,1.8,4.4c-0.4-0.8-0.7-1.8-0.7-2.8V24.4z"/>
	<path class="st1" d="M100.2,41.6V26.2V10.7c0-3.8,3.2-6.5,6.6-6.3c1.1-0.1,2.2,0.2,3.2,0.8l5.9,3.7l7,4.1l11.6,6.7
		c1,0.6,1.8,1.3,2.4,2.1c-0.3-0.8-0.7-1.5-1.2-2.1c-0.5-0.6-1.2-1.2-2-1.6l-11.9-6.8l-12.1-7c-4.7-2.7-10.7,0.7-10.7,6.2v14v15.4
		c0,1,0.2,2,0.7,2.8c0.3,0.5,0.6,1,0.9,1.4C100.4,43.3,100.2,42.5,100.2,41.6z"/>
	<path class="st2" d="M136.9,21.8c-0.6-0.8-1.4-1.6-2.4-2.1L123,13l-7-4.1l6.6,4.1l10.8,6.7c4.7,2.9,4.7,10.1,0,13l-10.8,6.7
		l-6.6,4.1l7-4.1l11.6-6.7C138.6,30.3,139.4,25.2,136.9,21.8z"/>
	<path class="st2" d="M101.3,41.6V26.2V10.7c0-3.6,2.6-6.1,5.6-6.3c-3.4-0.2-6.6,2.5-6.6,6.3v15.4v15.4c0,0.9,0.2,1.7,0.5,2.4
		c1,2.5,3.5,4,6.2,3.9C103.9,47.7,101.3,45.2,101.3,41.6z"/>
	<path class="st0" d="M133.4,32.6c4.7-2.9,4.7-10.1,0-13L122.6,13L116,8.9l-5.9-3.7c-1-0.6-2.1-0.9-3.2-0.8c-3,0.2-5.6,2.7-5.6,6.3
		v15.4v15.4c0,3.6,2.6,6.1,5.6,6.3c1.1,0.1,2.2-0.2,3.2-0.8l5.9-3.7l6.6-4.1L133.4,32.6z M129.1,20.1c3.2,0,5.7,2.6,5.7,5.7
		c0,3.2-2.6,5.7-5.7,5.7c-3.2,0-5.7-2.6-5.7-5.7C123.3,22.7,125.9,20.1,129.1,20.1z M102.6,18.7c0-0.4,0.1-0.7,0.3-0.9
		c0-0.1,0.1-0.1,0.2-0.2v0c0.1-0.1,0.2-0.2,0.3-0.2c0.6-0.4,1.4-0.4,1.9,0.1l7,7c0.1,0.1,0.1,0.1,0.1,0.2l6.9-6.9
		c0.5-0.5,1.3-0.6,1.9-0.1c0.4,0.3,0.7,0.7,0.7,1.2v15.4c0,0.8-0.7,1.4-1.4,1.4c-0.8,0-1.4-0.7-1.4-1.4v-7.1l-3.1,3.1
		c-0.6,0.6-1.5,0.6-2,0c-0.6-0.6-0.6-1.5,0-2l5.1-5.1c0,0,0.1,0,0.1-0.1v-0.9l-8,8c-0.6,0.6-1.5,0.6-2,0c-0.6-0.6-0.6-1.5,0-2
		l1.4-1.4c-0.1,0-0.1-0.1-0.2-0.2l-4.6-4.6v12.2c0,0.8-0.7,1.4-1.4,1.4c-0.8,0-1.4-0.7-1.4-1.4V18.7z"/>
	<path class="st2" d="M129.1,31.6c3.2,0,5.7-2.6,5.7-5.7c0-3.2-2.6-5.7-5.7-5.7c-3.2,0-5.7,2.6-5.7,5.7
		C123.3,29,125.9,31.6,129.1,31.6z M129.1,20.5c3,0,5.4,2.4,5.4,5.4c0,3-2.4,5.4-5.4,5.4c-3,0-5.4-2.4-5.4-5.4
		C123.7,22.9,126.1,20.5,129.1,20.5z"/>
	<path class="st0" d="M129.1,31.3c3,0,5.4-2.4,5.4-5.4c0-3-2.4-5.4-5.4-5.4c-3,0-5.4,2.4-5.4,5.4C123.7,28.8,126.1,31.3,129.1,31.3z
		 M129.1,20.8c2.8,0,5.1,2.3,5.1,5.1s-2.3,5.1-5.1,5.1c-2.8,0-5.1-2.3-5.1-5.1S126.3,20.8,129.1,20.8z"/>
	<path class="st2" d="M129.1,30.9c2.8,0,5.1-2.3,5.1-5.1s-2.3-5.1-5.1-5.1c-2.8,0-5.1,2.3-5.1,5.1S126.3,30.9,129.1,30.9z
		 M126.7,24.8h1.4v-1.4c0-0.6,0.5-1.1,1.1-1.1c0.6,0,1.1,0.5,1.1,1.1v1.4h1.4c0.6,0,1.1,0.5,1.1,1.1c0,0.6-0.5,1.1-1.1,1.1h-1.4v1.4
		c0,0.6-0.5,1.1-1.1,1.1c-0.6,0-1.1-0.5-1.1-1.1v-1.4h-1.4c-0.6,0-1.1-0.5-1.1-1.1C125.7,25.2,126.2,24.8,126.7,24.8z"/>
	<path class="st1" d="M105.2,17.6l7,7c0.1,0.1,0.1,0.1,0.2,0.2l0.1-0.1c0-0.1-0.1-0.1-0.1-0.2l-7-7c-0.5-0.5-1.3-0.6-1.9-0.1
		C104,17,104.7,17.1,105.2,17.6z"/>
	<path class="st1" d="M104.1,35.6c0.8,0,1.4-0.7,1.4-1.4V22l-2.4-2.4c-0.5-0.5-0.6-1.3-0.2-1.8c-0.2,0.3-0.3,0.6-0.3,0.9v15.5
		C102.6,35,103.3,35.6,104.1,35.6z"/>
	<path class="st1" d="M121.4,19.8l-2.4,2.4v0.9c0.6-0.5,1.4-0.5,2,0.1c0.6,0.6,0.6,1.5,0,2l-2,2v7.1c0,0.8,0.7,1.4,1.4,1.4
		c0.8,0,1.4-0.7,1.4-1.4V18.8c0-0.5-0.3-1-0.7-1.2c0.1,0,0.1,0.1,0.2,0.1C121.9,18.3,121.9,19.2,121.4,19.8z"/>
	<path class="st1" d="M120.9,23.1c-0.5-0.5-1.4-0.6-2-0.1c0,0-0.1,0-0.1,0.1l-5.1,5.1c-0.6,0.6-0.6,1.5,0,2c0.6,0.6,1.5,0.6,2,0
		l3.1-3.1l2-2C121.5,24.6,121.5,23.7,120.9,23.1z"/>
	<path class="st0" d="M112.3,26.5c-0.1,0.1-0.2,0.2-0.3,0.2c-0.5,0.4-1.2,0.4-1.7,0l-1.4,1.4c-0.6,0.6-0.6,1.5,0,2
		c0.6,0.6,1.5,0.6,2,0l8-8v-3.4c0-0.8,0.7-1.4,1.4-1.4c0.3,0,0.5,0.1,0.8,0.2c-0.6-0.4-1.4-0.4-1.9,0.1l-6.9,6.9
		C112.9,25.2,112.8,26,112.3,26.5z"/>
	<linearGradient id="SVGID_1_" gradientUnits="userSpaceOnUse" x1="111.4019" y1="20.2817" x2="111.1768" y2="20.0566">
		<stop  offset="0" style="stop-color:#FFFFFF"/>
		<stop  offset="1" style="stop-color:#000000"/>
	</linearGradient>
	<path class="st3" d="M112.3,26.5c-0.1,0.1-0.2,0.2-0.3,0.2c-0.5,0.4-1.2,0.4-1.7,0l-1.4,1.4c-0.6,0.6-0.6,1.5,0,2
		c0.6,0.6,1.5,0.6,2,0l8-8v-3.4c0-0.8,0.7-1.4,1.4-1.4c0.3,0,0.5,0.1,0.8,0.2c-0.6-0.4-1.4-0.4-1.9,0.1l-6.9,6.9
		C112.9,25.2,112.8,26,112.3,26.5z"/>
	<path class="st1" d="M112.2,26.6c0,0-0.1,0.1-0.1,0.1c0.1-0.1,0.2-0.1,0.3-0.2c0.5-0.5,0.6-1.3,0.1-1.9l-0.1,0.1
		C112.7,25.3,112.7,26.1,112.2,26.6z"/>
	<linearGradient id="SVGID_2_" gradientUnits="userSpaceOnUse" x1="109.1248" y1="22.5588" x2="108.8997" y2="22.3337">
		<stop  offset="0" style="stop-color:#FFFFFF"/>
		<stop  offset="1" style="stop-color:#000000"/>
	</linearGradient>
	<path class="st4" d="M112.2,26.6c0,0-0.1,0.1-0.1,0.1c0.1-0.1,0.2-0.1,0.3-0.2c0.5-0.5,0.6-1.3,0.1-1.9l-0.1,0.1
		C112.7,25.3,112.7,26.1,112.2,26.6z"/>
	<path class="st1" d="M119,18.8v3.4l2.4-2.4c0.6-0.6,0.6-1.5,0-2c-0.1-0.1-0.1-0.1-0.2-0.1c-0.2-0.1-0.5-0.2-0.8-0.2
		C119.6,17.4,119,18,119,18.8z"/>
	<linearGradient id="SVGID_3_" gradientUnits="userSpaceOnUse" x1="115.9389" y1="15.7447" x2="115.7138" y2="15.5196">
		<stop  offset="0" style="stop-color:#FFFFFF"/>
		<stop  offset="1" style="stop-color:#000000"/>
	</linearGradient>
	<path class="st5" d="M119,18.8v3.4l2.4-2.4c0.6-0.6,0.6-1.5,0-2c-0.1-0.1-0.1-0.1-0.2-0.1c-0.2-0.1-0.5-0.2-0.8-0.2
		C119.6,17.4,119,18,119,18.8z"/>
	<path class="st1" d="M103.1,19.6l2.4,2.4l4.6,4.6c0.1,0.1,0.1,0.1,0.2,0.2c0.5,0.4,1.2,0.3,1.7,0c0,0,0.1-0.1,0.1-0.1
		c0.5-0.5,0.6-1.3,0.2-1.8c0-0.1-0.1-0.1-0.2-0.2l-7-7c-0.5-0.5-1.2-0.5-1.7-0.2c-0.1,0.1-0.2,0.1-0.3,0.2v0
		c-0.1,0.1-0.1,0.1-0.2,0.2C102.6,18.3,102.6,19.1,103.1,19.6z"/>
	<path class="st1" d="M131.5,26.9c0.6,0,1.1-0.5,1.1-1.1c0-0.6-0.5-1.1-1.1-1.1h-1.4v2.1H131.5z"/>
	<path class="st1" d="M126.7,26.9h1.4v-2.1h-1.4c-0.6,0-1.1,0.5-1.1,1.1C125.7,26.4,126.2,26.9,126.7,26.9z"/>
	<path class="st1" d="M128.1,28.2c0,0.6,0.5,1.1,1.1,1.1c0.6,0,1.1-0.5,1.1-1.1v-1.4v-2.1v-1.4c0-0.6-0.5-1.1-1.1-1.1
		c-0.6,0-1.1,0.5-1.1,1.1v1.4v2.1V28.2z"/>
</g>
<g>
	<path class="st6" d="M30.3,13v8.8H33V13h2.1v8.8h2.2V24h-12c-0.1,0.7-0.3,1.3-0.7,1.8c-0.4,0.5-0.8,1-1.3,1.3
		c-0.5,0.4-1.1,0.6-1.7,0.8c-0.6,0.2-1.3,0.3-1.9,0.3c-0.7,0-1.4-0.1-2.1-0.3c-0.7-0.2-1.3-0.5-1.8-0.9c-0.5-0.4-1-0.9-1.3-1.5
		s-0.5-1.3-0.5-2.2V15h2.1v8.2c0,0.5,0.1,0.9,0.3,1.2s0.5,0.6,0.8,0.9c0.3,0.2,0.7,0.4,1.1,0.5c0.4,0.1,0.8,0.2,1.3,0.2
		c0.4,0,0.9-0.1,1.3-0.2c0.4-0.1,0.8-0.3,1.1-0.5c0.3-0.2,0.6-0.5,0.8-0.9c0.2-0.4,0.3-0.8,0.3-1.2V13h2.1v8.8h2.7V13H30.3z"/>
	<path class="st6" d="M40.7,8.8v13.1h2.2V24h-6.5v-2.1h2.2V8.8H40.7z"/>
	<path class="st6" d="M47.8,13v7.4c0,0.5-0.1,0.9-0.3,1.4c-0.2,0.4-0.4,0.8-0.8,1.1c-0.3,0.3-0.7,0.6-1.1,0.8S44.7,24,44.2,24H42
		v-2.1h2.3c0.2,0,0.4,0,0.5-0.1c0.2-0.1,0.3-0.2,0.4-0.3c0.1-0.1,0.2-0.3,0.3-0.4c0.1-0.2,0.1-0.3,0.1-0.5V13H47.8z M45.6,27.1
		c0-0.2,0-0.3,0.1-0.4c0.1-0.1,0.1-0.2,0.2-0.3s0.2-0.2,0.4-0.2c0.1-0.1,0.3-0.1,0.4-0.1c0.3,0,0.6,0.1,0.8,0.3s0.3,0.5,0.3,0.8
		c0,0.2,0,0.3-0.1,0.4c-0.1,0.1-0.1,0.2-0.2,0.3s-0.2,0.2-0.3,0.2c-0.1,0.1-0.3,0.1-0.4,0.1c-0.2,0-0.3,0-0.4-0.1
		c-0.1-0.1-0.3-0.1-0.4-0.2s-0.2-0.2-0.2-0.3C45.6,27.4,45.6,27.3,45.6,27.1z"/>
	<path class="st6" d="M57.8,13v8.8H60V24h-2.3c-0.1,0.3-0.2,0.6-0.3,1c-0.2,0.4-0.4,0.8-0.7,1.2c-0.3,0.4-0.7,0.8-1.2,1.2
		c-0.5,0.4-1.1,0.7-1.9,1l-0.8-2c0.4-0.2,0.7-0.3,1-0.5c0.3-0.2,0.5-0.4,0.7-0.6c0.2-0.2,0.4-0.4,0.5-0.6c0.1-0.2,0.2-0.4,0.3-0.5
		c0.2-0.4,0.3-0.8,0.3-1.2V13H57.8z M55.6,9.9c0-0.2,0-0.3,0.1-0.4c0.1-0.1,0.1-0.2,0.2-0.4C56,9,56.2,8.9,56.3,8.9
		c0.1-0.1,0.3-0.1,0.4-0.1c0.2,0,0.3,0,0.4,0.1c0.1,0.1,0.2,0.1,0.4,0.2c0.1,0.1,0.2,0.2,0.2,0.4c0.1,0.1,0.1,0.3,0.1,0.4
		c0,0.2,0,0.3-0.1,0.4c-0.1,0.1-0.1,0.2-0.2,0.3c-0.1,0.1-0.2,0.2-0.4,0.2C57,10.9,56.9,11,56.7,11c-0.3,0-0.6-0.1-0.8-0.3
		S55.6,10.2,55.6,9.9z"/>
	<path class="st6" d="M61.1,14.1c0.2-0.1,0.5-0.2,0.8-0.3s0.7-0.2,1.1-0.4c0.4-0.1,0.8-0.2,1.3-0.3c0.4-0.1,0.9-0.1,1.3-0.1
		c0.6,0,1.2,0.1,1.8,0.2s1.1,0.4,1.6,0.8c0.5,0.4,0.8,0.9,1.1,1.6c0.3,0.7,0.4,1.5,0.4,2.5v3.7h2.2V24H59v-2.1h9.3v-3.7
		c0-0.6-0.1-1.1-0.2-1.5s-0.4-0.7-0.6-0.9c-0.3-0.2-0.6-0.4-0.9-0.5c-0.3-0.1-0.7-0.1-1-0.1c-0.3,0-0.7,0-1,0.1
		c-0.4,0.1-0.7,0.1-1,0.2c-0.3,0.1-0.6,0.2-0.9,0.3c-0.3,0.1-0.5,0.2-0.6,0.3L61.1,14.1z M64.5,27.1c0-0.2,0-0.3,0.1-0.4
		c0.1-0.1,0.1-0.2,0.2-0.3c0.1-0.1,0.2-0.2,0.4-0.2c0.1-0.1,0.3-0.1,0.4-0.1c0.3,0,0.6,0.1,0.8,0.3c0.2,0.2,0.3,0.5,0.3,0.8
		c0,0.2,0,0.3-0.1,0.4c-0.1,0.1-0.1,0.2-0.2,0.3c-0.1,0.1-0.2,0.2-0.3,0.2c-0.1,0.1-0.3,0.1-0.4,0.1c-0.2,0-0.3,0-0.4-0.1
		s-0.2-0.1-0.4-0.2c-0.1-0.1-0.2-0.2-0.2-0.3C64.5,27.4,64.5,27.3,64.5,27.1z"/>
	<path class="st6" d="M77.6,13v8.8h2.2V24h-8v-2.1h3.7V13H77.6z M74.5,9.9c0-0.2,0-0.3,0.1-0.4s0.1-0.2,0.2-0.4
		C75,9,75.1,8.9,75.2,8.9c0.1-0.1,0.3-0.1,0.4-0.1s0.3,0,0.4,0.1c0.1,0.1,0.2,0.1,0.3,0.2c0.1,0.1,0.2,0.2,0.2,0.4s0.1,0.3,0.1,0.4
		c0,0.3-0.1,0.6-0.3,0.8c-0.2,0.2-0.5,0.3-0.8,0.3c-0.2,0-0.3,0-0.4-0.1c-0.1-0.1-0.2-0.1-0.3-0.2c-0.1-0.1-0.2-0.2-0.2-0.3
		C74.6,10.2,74.5,10,74.5,9.9z"/>
	<path class="st6" d="M78.8,21.8h2.4c-0.1-0.2-0.1-0.4-0.1-0.7c0-0.2,0-0.5,0-0.7V18c0-0.7,0.1-1.3,0.4-1.9c0.3-0.6,0.6-1.1,1.1-1.6
		c0.4-0.5,1-0.8,1.6-1.1s1.2-0.4,1.9-0.4c0.7,0,1.3,0.1,1.9,0.4c0.6,0.3,1.1,0.6,1.6,1.1s0.8,1,1.1,1.6s0.4,1.2,0.4,1.9v2.5
		c0,0.7-0.1,1.3-0.4,1.9c-0.3,0.6-0.6,1.1-1.1,1.6c-0.4,0.5-1,0.8-1.6,1.1s-1.2,0.4-1.9,0.4c-0.7,0-1.3-0.1-1.9-0.4
		s-1.1-0.6-1.6-1.1h-3.6V21.8z M85.9,15.2c-0.4,0-0.7,0.1-1.1,0.2c-0.3,0.2-0.6,0.4-0.9,0.6c-0.2,0.3-0.4,0.6-0.6,0.9
		c-0.1,0.3-0.2,0.7-0.2,1.1v2.4c0,0.4,0.1,0.8,0.2,1.1c0.1,0.3,0.3,0.7,0.6,0.9c0.2,0.3,0.5,0.5,0.9,0.6s0.7,0.2,1.1,0.2
		c0.4,0,0.7-0.1,1.1-0.2s0.6-0.4,0.9-0.6c0.3-0.3,0.5-0.6,0.6-0.9c0.1-0.3,0.2-0.7,0.2-1.1V18c0-0.4-0.1-0.7-0.2-1.1
		c-0.1-0.3-0.3-0.6-0.6-0.9c-0.3-0.3-0.5-0.5-0.9-0.6S86.3,15.2,85.9,15.2z"/>
</g>
<g>
	<path class="st6" d="M16.7,34.1v3.1c0,0.3,0,0.5-0.1,0.7s-0.2,0.3-0.4,0.5c-0.2,0.1-0.3,0.2-0.5,0.3c-0.2,0.1-0.4,0.1-0.6,0.1
		c-0.2,0-0.4,0-0.6-0.1c-0.2-0.1-0.4-0.2-0.5-0.3c-0.2-0.1-0.3-0.3-0.4-0.5s-0.1-0.4-0.1-0.7v-2.5H14v2.5c0,0.1,0,0.3,0.1,0.4
		s0.1,0.2,0.2,0.3s0.2,0.1,0.3,0.2c0.1,0,0.3,0.1,0.4,0.1c0.1,0,0.3,0,0.4-0.1c0.1,0,0.2-0.1,0.3-0.2c0.1-0.1,0.2-0.2,0.2-0.3
		c0.1-0.1,0.1-0.2,0.1-0.4v-3.1H16.7z M14.7,33.1c0,0,0-0.1,0-0.1c0,0,0-0.1,0.1-0.1s0.1-0.1,0.1-0.1c0,0,0.1,0,0.1,0
		c0,0,0.1,0,0.1,0c0,0,0.1,0,0.1,0.1c0,0,0.1,0.1,0.1,0.1c0,0,0,0.1,0,0.1s0,0.1,0,0.1c0,0,0,0.1-0.1,0.1c0,0-0.1,0.1-0.1,0.1
		s-0.1,0-0.1,0c-0.1,0-0.2,0-0.2-0.1C14.7,33.3,14.7,33.2,14.7,33.1z"/>
	<path class="st6" d="M18.1,32.8v3.5c0,0.1,0,0.1,0,0.2s0.1,0.1,0.1,0.1c0,0,0.1,0.1,0.1,0.1s0.1,0,0.2,0h0.3v0.6h-0.3
		c-0.1,0-0.3,0-0.4-0.1c-0.1-0.1-0.2-0.1-0.3-0.2s-0.2-0.2-0.2-0.3s-0.1-0.3-0.1-0.4v-3.5H18.1z"/>
	<path class="st6" d="M18.5,36.7h0.7c0-0.1,0-0.1,0-0.2c0-0.1,0-0.1,0-0.2v-0.7c0-0.2,0-0.4,0.1-0.6s0.2-0.3,0.3-0.5
		c0.1-0.1,0.3-0.2,0.5-0.3s0.4-0.1,0.6-0.1c0.2,0,0.4,0,0.6,0.1c0.2,0.1,0.3,0.2,0.5,0.3c0.1,0.1,0.2,0.3,0.3,0.5
		c0.1,0.2,0.1,0.4,0.1,0.6v0.7c0,0.2,0,0.4-0.1,0.6c-0.1,0.2-0.2,0.3-0.3,0.5c-0.1,0.1-0.3,0.2-0.5,0.3s-0.4,0.1-0.6,0.1
		c-0.2,0-0.4,0-0.6-0.1c-0.2-0.1-0.3-0.2-0.5-0.3h-1.1V36.7z M20.6,34.7c-0.1,0-0.2,0-0.3,0.1c-0.1,0-0.2,0.1-0.3,0.2
		c-0.1,0.1-0.1,0.2-0.2,0.3c0,0.1-0.1,0.2-0.1,0.3v0.7c0,0.1,0,0.2,0.1,0.3c0,0.1,0.1,0.2,0.2,0.3c0.1,0.1,0.2,0.1,0.3,0.2
		s0.2,0.1,0.3,0.1c0.1,0,0.2,0,0.3-0.1s0.2-0.1,0.3-0.2s0.1-0.2,0.2-0.3c0-0.1,0.1-0.2,0.1-0.3v-0.7c0-0.1,0-0.2-0.1-0.3
		c0-0.1-0.1-0.2-0.2-0.3s-0.2-0.1-0.3-0.2C20.8,34.7,20.7,34.7,20.6,34.7z"/>
	<path class="st6" d="M23.5,31.6h-0.3h0c-0.1,0-0.1,0-0.2,0.1S23,31.8,23,31.9c0,0,0,0.1,0,0.1c0,0,0,0.1,0,0.1c0,0,0,0,0,0.1
		c0,0,0,0,0.1,0h0.5v0.3h-1v-0.3h0.2c0-0.1-0.1-0.2-0.1-0.3c0-0.1,0-0.1,0-0.2c0-0.1,0-0.1,0.1-0.2c0,0,0.1-0.1,0.2-0.1s0.2,0,0.2,0
		h0.3V31.6z M23.4,32.8v4.6h-0.6v-4.6H23.4z"/>
	<path class="st6" d="M24.6,38h1c0.1,0,0.2,0,0.3,0c0.1,0,0.2-0.1,0.2-0.1c0.1-0.1,0.1-0.1,0.2-0.2c0.1-0.1,0.1-0.2,0.1-0.3h-1.3
		c-0.1,0-0.3,0-0.4-0.1c-0.1-0.1-0.2-0.1-0.3-0.2c-0.1-0.1-0.2-0.2-0.2-0.3c-0.1-0.1-0.1-0.3-0.1-0.4v-0.7c0-0.2,0-0.4,0.1-0.6
		c0.1-0.2,0.2-0.3,0.3-0.5c0.1-0.1,0.3-0.2,0.5-0.3c0.2-0.1,0.4-0.1,0.6-0.1c0.1,0,0.3,0,0.4,0.1s0.2,0.1,0.4,0.2
		c0.1,0.1,0.2,0.1,0.3,0.2c0.1,0.1,0.2,0.2,0.2,0.3c0.1,0.1,0.1,0.2,0.1,0.4c0,0.1,0.1,0.3,0.1,0.4v1.6c0,0.2,0,0.4-0.1,0.6
		s-0.2,0.3-0.3,0.5c-0.1,0.1-0.3,0.2-0.5,0.3c-0.2,0.1-0.4,0.1-0.6,0.1h-1V38z M26.5,36.7v-1.1c0-0.1,0-0.2-0.1-0.3
		c0-0.1-0.1-0.2-0.2-0.3c-0.1-0.1-0.2-0.1-0.3-0.2c-0.1,0-0.2-0.1-0.3-0.1s-0.2,0-0.3,0.1c-0.1,0-0.2,0.1-0.3,0.2s-0.1,0.2-0.2,0.3
		c0,0.1-0.1,0.2-0.1,0.3v0.7c0,0.1,0,0.1,0,0.2c0,0,0.1,0.1,0.1,0.1s0.1,0.1,0.1,0.1c0,0,0.1,0,0.2,0H26.5z"/>
	<path class="st6" d="M32.6,36.7v0.6h-1.3v-1.8c0-0.1,0-0.2-0.1-0.3c0-0.1-0.1-0.2-0.2-0.3s-0.2-0.1-0.3-0.2c-0.1,0-0.2-0.1-0.3-0.1
		c-0.1,0-0.2,0-0.3,0.1c-0.1,0-0.2,0.1-0.3,0.2c-0.1,0.1-0.1,0.2-0.2,0.3s-0.1,0.2-0.1,0.3v0.7c0,0.1,0,0.1,0,0.2
		c0,0,0.1,0.1,0.1,0.1s0.1,0.1,0.1,0.1c0,0,0.1,0,0.2,0h0.7v0.6H30c-0.1,0-0.3,0-0.4-0.1c-0.1-0.1-0.2-0.1-0.3-0.2
		c-0.1-0.1-0.2-0.2-0.2-0.3c-0.1-0.1-0.1-0.3-0.1-0.4v-0.7c0-0.2,0-0.4,0.1-0.6c0.1-0.2,0.2-0.3,0.3-0.5c0.1-0.1,0.3-0.2,0.5-0.3
		c0.2-0.1,0.4-0.1,0.6-0.1c0.2,0,0.4,0,0.6,0.1s0.3,0.2,0.5,0.3s0.2,0.3,0.3,0.5s0.1,0.4,0.1,0.6v1.1H32.6z M29.6,33.1
		c0,0,0-0.1,0-0.1c0,0,0-0.1,0.1-0.1c0,0,0.1-0.1,0.1-0.1c0,0,0.1,0,0.1,0c0,0,0.1,0,0.1,0c0,0,0.1,0,0.1,0.1c0,0,0.1,0.1,0.1,0.1
		c0,0,0,0.1,0,0.1s0,0.1,0,0.1c0,0,0,0.1-0.1,0.1c0,0-0.1,0.1-0.1,0.1s-0.1,0-0.1,0c0,0-0.1,0-0.1,0s-0.1,0-0.1-0.1
		c0,0-0.1-0.1-0.1-0.1C29.6,33.2,29.6,33.2,29.6,33.1z M30.6,33.1c0,0,0-0.1,0-0.1c0,0,0-0.1,0.1-0.1c0,0,0.1-0.1,0.1-0.1
		c0,0,0.1,0,0.1,0c0,0,0.1,0,0.1,0c0,0,0.1,0,0.1,0.1c0,0,0.1,0.1,0.1,0.1c0,0,0,0.1,0,0.1c0,0.1,0,0.2-0.1,0.2
		c-0.1,0.1-0.1,0.1-0.2,0.1c0,0-0.1,0-0.1,0s-0.1,0-0.1-0.1c0,0-0.1-0.1-0.1-0.1C30.6,33.2,30.6,33.2,30.6,33.1z"/>
	<path class="st6" d="M34,34.1v2.6h0.7v0.6h-2.4v-0.6h1.1v-2.6H34z M32.4,38.3c0,0,0-0.1,0-0.1c0,0,0-0.1,0.1-0.1
		c0,0,0.1-0.1,0.1-0.1c0,0,0.1,0,0.1,0c0,0,0.1,0,0.1,0c0,0,0.1,0,0.1,0.1c0,0,0.1,0.1,0.1,0.1c0,0,0,0.1,0,0.1c0,0,0,0.1,0,0.1
		c0,0,0,0.1-0.1,0.1c0,0-0.1,0.1-0.1,0.1c0,0-0.1,0-0.1,0c0,0-0.1,0-0.1,0c0,0-0.1,0-0.1-0.1c0,0-0.1-0.1-0.1-0.1
		C32.4,38.4,32.4,38.3,32.4,38.3z M33.4,38.3c0,0,0-0.1,0-0.1c0,0,0-0.1,0.1-0.1c0,0,0.1-0.1,0.1-0.1c0,0,0.1,0,0.1,0s0.1,0,0.1,0
		c0,0,0.1,0,0.1,0.1c0,0,0.1,0.1,0.1,0.1c0,0,0,0.1,0,0.1c0,0.1,0,0.2-0.1,0.2c-0.1,0.1-0.1,0.1-0.2,0.1c0,0-0.1,0-0.1,0
		c0,0-0.1,0-0.1-0.1c0,0-0.1-0.1-0.1-0.1C33.4,38.4,33.4,38.3,33.4,38.3z"/>
	<path class="st6" d="M34.4,36.7H35v-1.2c0-0.2,0-0.4,0.1-0.6c0.1-0.2,0.2-0.3,0.3-0.5c0.1-0.1,0.3-0.2,0.5-0.3s0.4-0.1,0.6-0.1
		c0.2,0,0.4,0,0.6,0.1c0.2,0.1,0.3,0.2,0.5,0.3c0.1,0.1,0.2,0.3,0.3,0.5c0.1,0.2,0.1,0.4,0.1,0.6v0.8c0,0.2,0,0.3-0.1,0.4
		c-0.1,0.1-0.1,0.2-0.2,0.3c-0.1,0.1-0.2,0.2-0.3,0.2s-0.3,0.1-0.4,0.1h-2.5V36.7z M35.7,36.7h1.2c0.1,0,0.1,0,0.2,0s0.1,0,0.1-0.1
		s0.1-0.1,0.1-0.1c0-0.1,0-0.1,0-0.2v-0.8c0-0.1,0-0.2-0.1-0.3c0-0.1-0.1-0.2-0.2-0.3s-0.2-0.1-0.3-0.2c-0.1,0-0.2-0.1-0.3-0.1
		c-0.1,0-0.2,0-0.3,0.1c-0.1,0-0.2,0.1-0.3,0.2c-0.1,0.1-0.1,0.2-0.2,0.3c0,0.1-0.1,0.2-0.1,0.3V36.7z M36.2,33.1c0,0,0-0.1,0-0.1
		c0,0,0-0.1,0.1-0.1c0,0,0.1-0.1,0.1-0.1c0,0,0.1,0,0.1,0c0,0,0.1,0,0.1,0c0,0,0.1,0,0.1,0.1c0,0,0.1,0.1,0.1,0.1c0,0,0,0.1,0,0.1
		c0,0.1,0,0.2-0.1,0.2c-0.1,0.1-0.1,0.1-0.2,0.1c0,0-0.1,0-0.1,0s-0.1,0-0.1-0.1c0,0-0.1-0.1-0.1-0.1C36.2,33.2,36.2,33.2,36.2,33.1
		z"/>
	<path class="st6" d="M39.3,32.8v4.6h-0.6v-4.6H39.3z"/>
	<path class="st6" d="M41.3,34.1v2.6h0.7v0.6h-0.7c0,0.1-0.1,0.2-0.1,0.3c0,0.1-0.1,0.2-0.2,0.3c-0.1,0.1-0.2,0.2-0.4,0.3
		c-0.1,0.1-0.3,0.2-0.6,0.3l-0.2-0.6c0.1,0,0.2-0.1,0.3-0.2c0.1-0.1,0.2-0.1,0.2-0.2s0.1-0.1,0.2-0.2c0-0.1,0.1-0.1,0.1-0.2
		c0.1-0.1,0.1-0.2,0.1-0.4v-3H41.3z"/>
	<path class="st6" d="M43.4,34.1v2.6H44v0.6h-2.4v-0.6h1.1v-2.6H43.4z M41.8,33.1c0,0,0-0.1,0-0.1c0,0,0-0.1,0.1-0.1
		c0,0,0.1-0.1,0.1-0.1c0,0,0.1,0,0.1,0c0,0,0.1,0,0.1,0c0,0,0.1,0,0.1,0.1c0,0,0.1,0.1,0.1,0.1c0,0,0,0.1,0,0.1s0,0.1,0,0.1
		c0,0,0,0.1-0.1,0.1c0,0-0.1,0.1-0.1,0.1s-0.1,0-0.1,0c-0.1,0-0.2,0-0.2-0.1C41.8,33.3,41.8,33.2,41.8,33.1z M42.7,33.1
		c0,0,0-0.1,0-0.1c0,0,0-0.1,0.1-0.1s0.1-0.1,0.1-0.1c0,0,0.1,0,0.1,0s0.1,0,0.1,0c0,0,0.1,0,0.1,0.1c0,0,0.1,0.1,0.1,0.1
		c0,0,0,0.1,0,0.1c0,0.1,0,0.2-0.1,0.2c-0.1,0.1-0.1,0.1-0.2,0.1c0,0-0.1,0-0.1,0s-0.1,0-0.1-0.1s-0.1-0.1-0.1-0.1
		C42.7,33.2,42.7,33.2,42.7,33.1z"/>
	<path class="st6" d="M44.3,34.4c0.1,0,0.1-0.1,0.2-0.1s0.2-0.1,0.3-0.1c0.1,0,0.2-0.1,0.4-0.1c0.1,0,0.3,0,0.4,0
		c0.2,0,0.4,0,0.5,0.1c0.2,0,0.3,0.1,0.5,0.2c0.1,0.1,0.3,0.3,0.3,0.5c0.1,0.2,0.1,0.4,0.1,0.8v0.7c0,0.1,0,0.3-0.1,0.4
		C47,36.8,47,36.9,46.9,37c-0.1,0.1-0.2,0.2-0.3,0.2c-0.1,0.1-0.3,0.1-0.4,0.1h-2.4v-0.6h2.4c0.1,0,0.1,0,0.2,0s0.1-0.1,0.1-0.1
		s0.1-0.1,0.1-0.1c0,0,0-0.1,0-0.2v-0.7c0-0.2,0-0.3-0.1-0.4c0-0.1-0.1-0.2-0.2-0.3c-0.1-0.1-0.2-0.1-0.3-0.1c-0.1,0-0.2,0-0.3,0
		c-0.1,0-0.2,0-0.3,0c-0.1,0-0.2,0-0.3,0.1c-0.1,0-0.2,0.1-0.3,0.1c-0.1,0-0.1,0.1-0.2,0.1L44.3,34.4z"/>
	<path class="st6" d="M48.5,32.8v4.6h-0.6v-4.6H48.5z"/>
	<path class="st6" d="M54.4,37.3h-0.7c0,0.2-0.1,0.4-0.2,0.6s-0.2,0.3-0.4,0.4c-0.2,0.1-0.3,0.2-0.5,0.2c-0.2,0.1-0.4,0.1-0.6,0.1
		c-0.2,0-0.4,0-0.6-0.1c-0.2-0.1-0.4-0.2-0.5-0.3c-0.2-0.1-0.3-0.3-0.4-0.5s-0.1-0.4-0.1-0.7v-2.5H51v2.5c0,0.1,0,0.3,0.1,0.4
		s0.1,0.2,0.2,0.3s0.2,0.1,0.3,0.2c0.1,0,0.3,0.1,0.4,0.1c0.1,0,0.3,0,0.4-0.1c0.1,0,0.2-0.1,0.3-0.2s0.2-0.2,0.2-0.3
		c0.1-0.1,0.1-0.2,0.1-0.4v-4.3h0.6v3.9h0.7V37.3z"/>
	<path class="st6" d="M57,33.2l-1,0.9c0,0,0.1,0,0.2,0c0.1,0,0.1,0,0.2,0c0.2,0,0.3,0,0.5,0c0.1,0,0.3,0.1,0.4,0.1
		c0.1,0,0.3,0.1,0.4,0.2c0.1,0.1,0.2,0.2,0.3,0.3c0.1,0.1,0.2,0.2,0.2,0.4c0,0.2,0.1,0.3,0.1,0.5v1.1h0.7v0.6h-4.7v-0.6h3.4v-1.1
		c0-0.2,0-0.3-0.1-0.4c-0.1-0.1-0.2-0.2-0.3-0.3s-0.2-0.1-0.4-0.1c-0.1,0-0.3,0-0.4,0c-0.1,0-0.3,0-0.4,0c-0.1,0-0.3,0-0.4,0.1
		c-0.1,0-0.2,0.1-0.3,0.1c-0.1,0-0.2,0.1-0.2,0.1l-0.3-0.5l1.8-1.7L57,33.2z"/>
	<path class="st6" d="M60.2,34.1v2.2c0,0.1,0,0.3-0.1,0.4S60,36.9,59.9,37c-0.1,0.1-0.2,0.2-0.3,0.2s-0.3,0.1-0.4,0.1h-0.7v-0.6h0.7
		c0.1,0,0.1,0,0.2,0s0.1-0.1,0.1-0.1c0,0,0.1-0.1,0.1-0.1s0-0.1,0-0.2v-2.2H60.2z M59.6,38.3c0,0,0-0.1,0-0.1c0,0,0-0.1,0.1-0.1
		s0.1-0.1,0.1-0.1c0,0,0.1,0,0.1,0c0.1,0,0.2,0,0.2,0.1c0.1,0.1,0.1,0.1,0.1,0.2c0,0,0,0.1,0,0.1c0,0,0,0.1-0.1,0.1
		c0,0-0.1,0.1-0.1,0.1c0,0-0.1,0-0.1,0s-0.1,0-0.1,0c0,0-0.1,0-0.1-0.1s-0.1-0.1-0.1-0.1C59.6,38.4,59.6,38.3,59.6,38.3z"/>
	<path class="st6" d="M66.2,32.8v3.9h0.7v0.6h-3.3c-0.2,0-0.4,0-0.6-0.1c-0.2-0.1-0.3-0.2-0.5-0.3c-0.1-0.1-0.2-0.3-0.3-0.5
		c-0.1-0.2-0.1-0.4-0.1-0.6v-1.2h0.6v1.2c0,0.1,0,0.2,0.1,0.3c0,0.1,0.1,0.2,0.2,0.3c0.1,0.1,0.2,0.1,0.3,0.2s0.2,0.1,0.3,0.1h2
		v-3.9H66.2z M64.5,33.3h-0.3h0c-0.1,0-0.1,0-0.2,0.1c0,0-0.1,0.1-0.1,0.1c0,0,0,0.1,0,0.1s0,0.1,0,0.1s0,0,0,0.1s0,0,0.1,0h0.5v0.3
		h-1v-0.3l0.2,0c0-0.1-0.1-0.2-0.1-0.3c0-0.1,0-0.1,0-0.2c0-0.1,0-0.1,0.1-0.2c0,0,0.1-0.1,0.2-0.1c0.1,0,0.1,0,0.2,0h0.3V33.3z"/>
	<path class="st6" d="M67.9,32.8v3.5c0,0.1,0,0.3-0.1,0.4c-0.1,0.1-0.1,0.2-0.2,0.3c-0.1,0.1-0.2,0.2-0.3,0.2
		c-0.1,0.1-0.3,0.1-0.4,0.1h-0.3v-0.6h0.3c0.1,0,0.1,0,0.2,0c0.1,0,0.1-0.1,0.1-0.1s0.1-0.1,0.1-0.1c0,0,0-0.1,0-0.2v-3.5H67.9z"/>
	<path class="st6" d="M69.2,32.8v3.5c0,0.1,0,0.1,0,0.2s0.1,0.1,0.1,0.1c0,0,0.1,0.1,0.1,0.1s0.1,0,0.2,0H70v0.6h-0.3
		c-0.1,0-0.3,0-0.4-0.1c-0.1-0.1-0.2-0.1-0.3-0.2s-0.2-0.2-0.2-0.3s-0.1-0.3-0.1-0.4v-3.5H69.2z"/>
	<path class="st6" d="M69.7,36.7h0.7c0-0.1,0-0.1,0-0.2c0-0.1,0-0.1,0-0.2v-0.7c0-0.2,0-0.4,0.1-0.6c0.1-0.2,0.2-0.3,0.3-0.5
		c0.1-0.1,0.3-0.2,0.5-0.3s0.4-0.1,0.6-0.1c0.2,0,0.4,0,0.6,0.1c0.2,0.1,0.3,0.2,0.5,0.3s0.2,0.3,0.3,0.5c0.1,0.2,0.1,0.4,0.1,0.6
		v0.7c0,0.1,0,0.1,0,0.2s0,0.1,0,0.2h0.7v0.6h-1.1c-0.1,0.1-0.3,0.2-0.5,0.3c-0.2,0.1-0.4,0.1-0.6,0.1c-0.2,0-0.4,0-0.6-0.1
		c-0.2-0.1-0.3-0.2-0.5-0.3h-1.1V36.7z M71.8,34.7c-0.1,0-0.2,0-0.3,0.1c-0.1,0-0.2,0.1-0.3,0.2c-0.1,0.1-0.1,0.2-0.2,0.3
		c0,0.1-0.1,0.2-0.1,0.3v0.7c0,0.1,0,0.2,0.1,0.3c0,0.1,0.1,0.2,0.2,0.3c0.1,0.1,0.2,0.1,0.3,0.2s0.2,0.1,0.3,0.1
		c0.1,0,0.2,0,0.3-0.1s0.2-0.1,0.3-0.2s0.1-0.2,0.2-0.3c0-0.1,0.1-0.2,0.1-0.3v-0.7c0-0.1,0-0.2-0.1-0.3c0-0.1-0.1-0.2-0.2-0.3
		s-0.2-0.1-0.3-0.2C72,34.7,71.9,34.7,71.8,34.7z"/>
	<path class="st6" d="M76.8,37.3h-3.2v-0.6h0.7v-1.2c0-0.2,0-0.4,0.1-0.6c0.1-0.2,0.2-0.3,0.3-0.5c0.1-0.1,0.3-0.2,0.5-0.3
		c0.2-0.1,0.4-0.1,0.6-0.1c0.2,0,0.5,0.1,0.7,0.2l-0.3,0.6c-0.1,0-0.2-0.1-0.3-0.1c-0.1,0-0.2,0-0.2,0c-0.1,0-0.2,0-0.3,0.1
		c-0.1,0-0.2,0.1-0.3,0.2C75.1,35,75,35.1,75,35.2c0,0.1-0.1,0.2-0.1,0.3v1.2h1.9V37.3z"/>
	<path class="st6" d="M78.2,32.8v4.6h-0.6v-4.6H78.2z"/>
	<path class="st6" d="M81.2,34.1v2.6h0.7v0.6h-0.7c0,0.1-0.1,0.2-0.1,0.3c0,0.1-0.1,0.2-0.2,0.3c-0.1,0.1-0.2,0.2-0.4,0.3
		c-0.1,0.1-0.3,0.2-0.6,0.3l-0.2-0.6c0.1,0,0.2-0.1,0.3-0.2c0.1-0.1,0.2-0.1,0.2-0.2c0.1-0.1,0.1-0.1,0.2-0.2c0-0.1,0.1-0.1,0.1-0.2
		c0.1-0.1,0.1-0.2,0.1-0.4v-3H81.2z M80.6,33.1c0,0,0-0.1,0-0.1c0,0,0-0.1,0.1-0.1c0,0,0.1-0.1,0.1-0.1c0,0,0.1,0,0.1,0
		c0,0,0.1,0,0.1,0c0,0,0.1,0,0.1,0.1c0,0,0.1,0.1,0.1,0.1c0,0,0,0.1,0,0.1s0,0.1,0,0.1c0,0,0,0.1-0.1,0.1c0,0-0.1,0.1-0.1,0.1
		c0,0-0.1,0-0.1,0c-0.1,0-0.2,0-0.2-0.1C80.6,33.3,80.6,33.2,80.6,33.1z"/>
	<path class="st6" d="M82.2,34.4c0.1,0,0.1-0.1,0.2-0.1s0.2-0.1,0.3-0.1c0.1,0,0.2-0.1,0.4-0.1s0.3,0,0.4,0c0.2,0,0.4,0,0.5,0.1
		c0.2,0,0.3,0.1,0.5,0.2c0.1,0.1,0.3,0.3,0.3,0.5C85,35,85,35.3,85,35.6v1.1h0.7v0.6h-4.1v-0.6h2.8v-1.1c0-0.2,0-0.3-0.1-0.4
		c0-0.1-0.1-0.2-0.2-0.3c-0.1-0.1-0.2-0.1-0.3-0.1c-0.1,0-0.2,0-0.3,0c-0.1,0-0.2,0-0.3,0c-0.1,0-0.2,0-0.3,0.1
		c-0.1,0-0.2,0.1-0.3,0.1s-0.1,0.1-0.2,0.1L82.2,34.4z M83.2,38.3c0,0,0-0.1,0-0.1c0,0,0-0.1,0.1-0.1c0,0,0.1-0.1,0.1-0.1
		c0,0,0.1,0,0.1,0c0.1,0,0.2,0,0.2,0.1s0.1,0.1,0.1,0.2c0,0,0,0.1,0,0.1c0,0,0,0.1-0.1,0.1s-0.1,0.1-0.1,0.1c0,0-0.1,0-0.1,0
		s-0.1,0-0.1,0c0,0-0.1,0-0.1-0.1c0,0-0.1-0.1-0.1-0.1C83.2,38.4,83.2,38.3,83.2,38.3z"/>
	<path class="st6" d="M87.1,34.1v2.2c0,0.1,0,0.3-0.1,0.4s-0.1,0.2-0.2,0.3s-0.2,0.2-0.3,0.2s-0.3,0.1-0.4,0.1h-0.7v-0.6h0.7
		c0.1,0,0.1,0,0.2,0s0.1-0.1,0.1-0.1c0,0,0.1-0.1,0.1-0.1s0-0.1,0-0.2v-2.2H87.1z M86.5,33.1c0,0,0-0.1,0-0.1c0,0,0-0.1,0.1-0.1
		c0,0,0.1-0.1,0.1-0.1c0,0,0.1,0,0.1,0c0,0,0.1,0,0.1,0c0,0,0.1,0,0.1,0.1c0,0,0.1,0.1,0.1,0.1c0,0,0,0.1,0,0.1c0,0.1,0,0.2-0.1,0.2
		s-0.1,0.1-0.2,0.1c0,0-0.1,0-0.1,0c0,0-0.1,0-0.1-0.1c0,0-0.1-0.1-0.1-0.1C86.5,33.2,86.5,33.2,86.5,33.1z"/>
	<path class="st6" d="M88.5,32.8v4.6h-0.6v-4.6H88.5z"/>
</g>
</svg>
