<?xml version="1.0" encoding="utf-8"?>
<!-- Generator: Adobe Illustrator 21.0.0, SVG Export Plug-In . SVG Version: 6.00 Build 0)  -->
<svg version="1.1" id="Layer_1" xmlns="http://www.w3.org/2000/svg" xmlns:xlink="http://www.w3.org/1999/xlink" x="0px" y="0px"
	 viewBox="0 0 100 100" style="enable-background:new 0 0 100 100;" xml:space="preserve">
<style type="text/css">
	.st0{fill:#E7F0F0;}
	.st1{fill:#405B91;}
	.st2{fill:#B6D0FB;stroke:#405B91;stroke-width:0.25;stroke-miterlimit:10;}
	.st3{fill:#0B3E75;}
	.st4{fill:#7DC3EA;stroke:#405B91;stroke-width:0.25;stroke-miterlimit:10;}
	.st5{fill:url(#SVGID_1_);stroke:#405B91;stroke-width:0.25;stroke-miterlimit:10;}
	.st6{fill:#155396;}
	.st7{fill:url(#SVGID_2_);stroke:#405B91;stroke-width:0.25;stroke-miterlimit:10;}
	.st8{fill:url(#SVGID_3_);stroke:#405B91;stroke-width:0.25;stroke-miterlimit:10;}
	.st9{fill:#237CC0;}
	.st10{fill:#134B87;}
	.st11{fill:url(#SVGID_4_);stroke:#405B91;stroke-width:0.25;stroke-miterlimit:10;}
	.st12{fill:url(#SVGID_5_);stroke:#405B91;stroke-width:0.25;stroke-miterlimit:10;}
	.st13{fill:#D2DAE5;}
	.st14{fill:#107AEC;stroke:#0D69BC;stroke-width:0.25;stroke-miterlimit:10;}
	.st15{fill:#1D5EA4;}
</style>
<g id="Layer_2">
	<g id="Layer_39">
	</g>
	<g id="Layer_38">
	</g>
	<g id="Layer_37">
	</g>
	<g id="Layer_36">
	</g>
	<g id="Layer_35">
	</g>
	<g id="Layer_34">
	</g>
	<g id="Layer_33">
	</g>
	<g id="Layer_32">
	</g>
	<g id="Layer_31">
	</g>
	<g id="Layer_30">
	</g>
	<g id="Layer_29">
	</g>
	<g id="Layer_28">
	</g>
	<g id="Layer_27">
	</g>
	<g id="Layer_26">
	</g>
	<g id="Layer_25">
	</g>
	<g id="Layer_24">
	</g>
	<g id="Layer_23">
	</g>
	<g id="Layer_22">
	</g>
	<g id="Layer_21">
	</g>
	<g id="Layer_20">
	</g>
	<g id="Layer_19">
	</g>
	<g id="Layer_18">
	</g>
	<g id="Layer_17">
	</g>
	<g id="Layer_16">
	</g>
	<g id="Layer_15">
	</g>
	<g id="Layer_14">
	</g>
	<g id="Layer_13">
	</g>
	<g id="Layer_12">
	</g>
	<g id="Layer_11">
	</g>
	<g id="Layer_10">
	</g>
	<g id="Layer_9">
	</g>
	<g id="Layer_8">
	</g>
	<g id="Layer_7">
	</g>
	<g id="Layer_6">
	</g>
	<g id="Layer_5">
	</g>
	<g id="Layer_4">
	</g>
	<g id="Layer_3">
	</g>
</g>
<g id="Layer_40">
	<path class="st0" d="M88.3,61c0,0,21.8-29.9-23.7-38.6s-43.1,7-43.1,7s3,9.7-10.2,14s4.3,38.8,17,36.7c12.7-2.2,47.5,0,47.5,0
		S91.3,82.3,88.3,61z"/>
	<g>
		<path class="st1" d="M94.1,80.2H8c-0.1,0-0.2-0.1-0.2-0.2s0.1-0.2,0.2-0.2h86.1c0.1,0,0.2,0.1,0.2,0.2
			C94.3,80.1,94.2,80.2,94.1,80.2z"/>
	</g>
</g>
<g id="Layer_41">
	<path class="st2" d="M51.1,44.3h14.4c1.1,0,1.9,0.9,1.9,1.9l0,0c0,1.1-0.9,1.9-1.9,1.9H51.1c-1.1,0-1.9-0.9-1.9-1.9l0,0
		C49.1,45.2,50,44.3,51.1,44.3L51.1,44.3z"/>
	<path class="st2" d="M93.7,80.1H6.5c-1.2,0-2.2-1-2.2-2.2l0,0c0-1.2,1-2.2,2.2-2.2h87.3c1.2,0,2.2,1,2.2,2.2l0,0
		C95.9,79.1,94.9,80.1,93.7,80.1L93.7,80.1z"/>
	<path class="st3" d="M77.4,58.8c2.5,0,4.5,2,4.5,4.5c0,2.5-2,4.5-4.5,4.5s-4.5-2-4.5-4.5C72.9,60.8,74.9,58.8,77.4,58.8L77.4,58.8z
		"/>
	<path class="st4" d="M33.1,54.4h42.2c0.8,0,1.4,0.6,1.4,1.4V76c0,0.8-0.6,1.4-1.4,1.4H57v-2c0-0.2,0-0.4-0.1-0.6
		c-0.7,0.6-1.1,1.5-1.1,2.6H37.5c-3.2,0-5.8-2.6-5.8-5.8V55.9C31.7,55.1,32.3,54.4,33.1,54.4L33.1,54.4z"/>
	
		<linearGradient id="SVGID_1_" gradientUnits="userSpaceOnUse" x1="75.0596" y1="35.7" x2="86.3238" y2="35.7" gradientTransform="matrix(1 0 0 -1 0 99)">
		<stop  offset="0" style="stop-color:#86B8E0"/>
		<stop  offset="0.1163" style="stop-color:#98C4E7"/>
		<stop  offset="0.3255" style="stop-color:#B2D6F2"/>
		<stop  offset="0.5401" style="stop-color:#C5E2F9"/>
		<stop  offset="0.7615" style="stop-color:#D0EAFE"/>
		<stop  offset="1" style="stop-color:#D4ECFF"/>
	</linearGradient>
	<path class="st5" d="M80.7,57.7c3.1,0,5.6,2.5,5.6,5.6c0,3.1-2.5,5.6-5.6,5.6s-5.6-2.5-5.6-5.6C75.1,60.2,77.6,57.7,80.7,57.7
		L80.7,57.7z"/>
	<path class="st2" d="M76.7,69.4v6.7c0,0.8-0.6,1.4-1.4,1.4H57v-2c0-0.2,0-0.4-0.1-0.6c-0.7,0.6-1.1,1.5-1.1,2.6H37.5
		c-3.2,0-5.8-2.6-5.8-5.8v-2.3L76.7,69.4L76.7,69.4z"/>
	<path class="st4" d="M32.3,74.3c-0.3-0.5-0.5-1.1-0.6-1.7H44c0.1,0.6,0.3,1.2,0.6,1.7H32.3L32.3,74.3z"/>
	<path class="st4" d="M75.3,59.3c2.2,0,4.1,1.8,4.1,4.1c0,2.2-1.8,4.1-4.1,4.1c-2.2,0-4.1-1.8-4.1-4.1
		C71.2,61.1,73.1,59.3,75.3,59.3L75.3,59.3z"/>
	<path class="st2" d="M45.4,54.4h29.9c0.8,0,1.4,0.6,1.4,1.4V76c0,0.8-0.6,1.4-1.4,1.4h-4.9v-2c0-0.8-0.7-1.5-1.5-1.5h-9.8
		c-0.9,0-1.7,0.3-2.3,0.9l0,0c-0.1,0-0.1,0.1-0.2,0.2l0,0l0,0l0,0l0,0l0,0l0,0l0,0l0,0l0,0l0,0l0,0l0,0l0,0l0,0l0,0l0,0l0,0l0,0l0,0
		v0.1l0,0l0,0l0,0l0,0l0,0l0,0l0,0l0,0l0,0l0,0l0,0l0,0l0,0l0,0l0,0l0,0l0,0l0,0l0,0l0,0l0,0l0,0v0.1l0,0v0.1l0,0l0,0l0,0l0,0l0,0
		l0,0l0,0l0,0l0,0l0,0l0,0l0,0v0.1l0,0v0.1l0,0l0,0v0.1l0,0l0,0v0.1l0,0v0.1l0,0l0,0l0,0l0,0l0,0l0,0l0,0l0,0l0,0l0,0l0,0
		c0,0.1,0,0.2,0,0.2l0,0l0,0v0.1h-5.8c-3.2,0-5.9-2.7-5.9-5.9V55.9C44,55.1,44.6,54.4,45.4,54.4L45.4,54.4z"/>
	<path class="st4" d="M76.7,69.4v6.7c0,0.8-0.6,1.4-1.4,1.4h-4.9v-2c0-0.8-0.7-1.5-1.5-1.5h-9.8c-0.9,0-1.7,0.3-2.3,0.9l0,0
		c-0.1,0-0.1,0.1-0.2,0.2l0,0l0,0l0,0l0,0l0,0l0,0l0,0l0,0l0,0l0,0l0,0l0,0l0,0l0,0l0,0l0,0l0,0l0,0l0,0v0.1l0,0l0,0l0,0l0,0l0,0
		l0,0l0,0l0,0l0,0l0,0l0,0l0,0l0,0l0,0l0,0l0,0l0,0l0,0l0,0l0,0l0,0l0,0v0.1l0,0v0.1l0,0l0,0l0,0l0,0l0,0l0,0l0,0l0,0l0,0l0,0l0,0
		l0,0v0.1l0,0v0.1l0,0l0,0v0.1l0,0l0,0v0.1l0,0v0.1l0,0l0,0l0,0l0,0l0,0l0,0l0,0l0,0l0,0l0,0l0,0c0,0.1,0,0.2,0,0.2l0,0l0,0v0.1
		h-5.8c-3.2,0-5.9-2.7-5.9-5.9v-2.2h31.8V69.4z"/>
	<path class="st2" d="M70.4,77.5H57v-2c0-0.2,0-0.4-0.1-0.6c0.6-0.6,1.4-0.9,2.3-0.9H69c0.8,0,1.5,0.7,1.5,1.5L70.4,77.5L70.4,77.5z
		 M56.7,75.1c0.1-0.1,0.1-0.1,0.2-0.2C56.8,75,56.8,75,56.7,75.1L56.7,75.1z"/>
	<path class="st6" d="M47.5,57.4h13.1c0.3,0,0.6,0.3,0.6,0.6v8.5c0,0.3-0.3,0.6-0.6,0.6H47.5c-0.3,0-0.6-0.3-0.6-0.6V58
		C46.9,57.6,47.2,57.4,47.5,57.4L47.5,57.4z"/>
	<path class="st2" d="M37.8,58.3c1.2,0,2.1,0.9,2.1,2.1s-0.9,2.1-2.1,2.1h-2.9c1.2,0,2.1-0.9,2.1-2.1s-0.9-2.1-2.1-2.1H37.8
		L37.8,58.3z"/>
	<path class="st4" d="M34.9,58.3c1.2,0,2.1,0.9,2.1,2.1s-0.9,2.1-2.1,2.1l-3.3,1.2v-6.6L34.9,58.3L34.9,58.3z"/>
	
		<linearGradient id="SVGID_2_" gradientUnits="userSpaceOnUse" x1="27.4454" y1="38.6" x2="34.2077" y2="38.6" gradientTransform="matrix(1 0 0 -1 0 99)">
		<stop  offset="0" style="stop-color:#86B8E0"/>
		<stop  offset="0.1163" style="stop-color:#98C4E7"/>
		<stop  offset="0.3255" style="stop-color:#B2D6F2"/>
		<stop  offset="0.5401" style="stop-color:#C5E2F9"/>
		<stop  offset="0.7615" style="stop-color:#D0EAFE"/>
		<stop  offset="1" style="stop-color:#D4ECFF"/>
	</linearGradient>
	<path class="st7" d="M30.8,57c1.9,0,3.4,1.5,3.4,3.4s-1.5,3.4-3.4,3.4s-3.4-1.5-3.4-3.4C27.4,58.5,29,57,30.8,57L30.8,57z"/>
	<path class="st4" d="M30.8,58.3c1.2,0,2.1,0.9,2.1,2.1s-0.9,2.1-2.1,2.1s-2.1-0.9-2.1-2.1S29.7,58.3,30.8,58.3L30.8,58.3z"/>
	<path class="st4" d="M78.7,58.8c2.5,0,4.5,2,4.5,4.5c0,2.5-2,4.5-4.5,4.5l0,0h-1.3c2.5,0,4.5-2,4.5-4.5s-2-4.5-4.5-4.5L78.7,58.8
		L78.7,58.8L78.7,58.8z"/>
	<path class="st4" d="M47.5,57.4h12c0.3,0,0.6,0.3,0.6,0.6v8.5c0,0.3-0.3,0.6-0.6,0.6h-12c-0.3,0-0.6-0.3-0.6-0.6V58
		C46.9,57.6,47.2,57.4,47.5,57.4L47.5,57.4z"/>
	<path class="st4" d="M86,57.7c3.1,0,5.6,2.5,5.6,5.6c0,3.1-2.5,5.6-5.6,5.6l0,0h-5.3c3.1,0,5-2.5,5-5.6s-1.9-5.6-5-5.6L86,57.7
		L86,57.7L86,57.7z"/>
	
		<linearGradient id="SVGID_3_" gradientUnits="userSpaceOnUse" x1="48.6759" y1="38.3" x2="52.1292" y2="38.3" gradientTransform="matrix(1 0 0 -1 0 99)">
		<stop  offset="0" style="stop-color:#86B8E0"/>
		<stop  offset="0.1163" style="stop-color:#98C4E7"/>
		<stop  offset="0.3255" style="stop-color:#B2D6F2"/>
		<stop  offset="0.5401" style="stop-color:#C5E2F9"/>
		<stop  offset="0.7615" style="stop-color:#D0EAFE"/>
		<stop  offset="1" style="stop-color:#D4ECFF"/>
	</linearGradient>
	<path class="st8" d="M50.4,59L50.4,59c0.9,0,1.7,0.8,1.7,1.7l0,0c0,0.9-0.8,1.7-1.7,1.7l0,0c-0.9,0-1.7-0.8-1.7-1.7l0,0
		C48.7,59.8,49.5,59,50.4,59L50.4,59z"/>
	<path class="st9" d="M34,73.2h1.9c0.1,0,0.3,0.1,0.3,0.3l0,0c0,0.1-0.1,0.3-0.3,0.3H34c-0.1,0-0.3-0.1-0.3-0.3l0,0
		C33.8,73.3,33.9,73.2,34,73.2L34,73.2z"/>
	<path class="st9" d="M37.3,73.2h1.9c0.1,0,0.3,0.1,0.3,0.3l0,0c0,0.1-0.1,0.3-0.3,0.3h-1.9c-0.1,0-0.3-0.1-0.3-0.3l0,0
		C37,73.3,37.1,73.2,37.3,73.2L37.3,73.2z"/>
	<path class="st9" d="M40.6,73.2h1.9c0.1,0,0.3,0.1,0.3,0.3l0,0c0,0.1-0.1,0.3-0.3,0.3h-1.9c-0.1,0-0.3-0.1-0.3-0.3l0,0
		C40.3,73.3,40.4,73.2,40.6,73.2L40.6,73.2z"/>
	<path class="st2" d="M82.6,45.5c1.8,0,3.3,1.5,3.3,3.3s-1.5,3.3-3.3,3.3l0,0h-9.5l0,0c-1.8,0-3.3-1.5-3.3-3.3s1.5-3.3,3.3-3.3l0,0
		H82.6L82.6,45.5L82.6,45.5z"/>
	<path class="st2" d="M71.2,46.3c1.4,0,2.5,1.1,2.5,2.5s-1.1,2.5-2.5,2.5l0,0h-24c-0.9,0-1.6,0.7-1.6,1.6v1.6h-4.5v-4.1
		c0-2.2,1.8-4.1,4.1-4.1H71.2L71.2,46.3z"/>
	<path class="st4" d="M71.2,51.3L71.2,51.3c1.4,0,2.5-1.1,2.5-2.5s-1.1-2.5-2.5-2.5H49.7c-2.2,0-4.1,1.8-4.1,4.1v2.5
		c0-0.9,0.7-1.6,1.6-1.6H71.2L71.2,51.3z"/>
	<path class="st4" d="M41.8,54.4h1.1v-3.8c0-0.3-0.3-0.6-0.6-0.6l0,0c-0.3,0-0.6,0.3-0.6,0.6L41.8,54.4L41.8,54.4z"/>
	<path class="st4" d="M37.8,62.5h-2.9V69c0,0.8,0.7,1.5,1.5,1.5l0,0c0.8,0,1.5-0.7,1.5-1.5L37.8,62.5L37.8,62.5z"/>
	<path class="st4" d="M48.7,49h20.6c0.3,0,0.6,0.3,0.6,0.6l0,0c0,0.3-0.3,0.6-0.6,0.6H48.7c-0.3,0-0.6-0.3-0.6-0.6l0,0
		C48.2,49.2,48.4,49,48.7,49L48.7,49z"/>
	<path class="st4" d="M80.4,49.8h1.9c0.3,0,0.5,0.2,0.5,0.5l0,0c0,0.3-0.2,0.5-0.5,0.5h-1.9c-0.3,0-0.5-0.2-0.5-0.5l0,0
		C79.9,50.1,80.2,49.8,80.4,49.8L80.4,49.8z"/>
	<path class="st4" d="M77.4,67.4c0.9,0,1.7-0.8,1.7-1.7c0-0.9-0.8-1.7-1.7-1.7c-0.9,0-1.7,0.8-1.7,1.7
		C75.7,66.7,76.5,67.4,77.4,67.4L77.4,67.4z M74.9,69.2c0.3-0.9-0.2-1.8-1.1-2.1c-0.9-0.3-1.8,0.2-2.1,1.1c-0.3,0.9,0.2,1.8,1.1,2.1
		C73.7,70.6,74.6,70.1,74.9,69.2L74.9,69.2z M83.1,68.2c-0.3-0.9-1.2-1.4-2.1-1.1s-1.4,1.2-1.1,2.1s1.2,1.4,2.1,1.1
		C82.9,70,83.3,69,83.1,68.2L83.1,68.2z M77.4,69.3c-0.4,0-0.7,0.3-0.7,0.7s0.3,0.7,0.7,0.7c0.4,0,0.7-0.3,0.7-0.7
		S77.8,69.3,77.4,69.3L77.4,69.3z M69.9,70c0-4.1,3.4-7.5,7.5-7.5s7.5,3.4,7.5,7.5s-3.4,7.5-7.5,7.5S69.9,74.1,69.9,70L69.9,70z
		 M76.2,74.4c0.5-0.8,0.4-1.8-0.4-2.4c-0.8-0.5-1.8-0.4-2.4,0.4c-0.5,0.8-0.4,1.8,0.4,2.4S75.7,75.2,76.2,74.4L76.2,74.4z
		 M80.9,74.8c0.8-0.5,0.9-1.6,0.4-2.4s-1.6-0.9-2.4-0.4s-0.9,1.6-0.4,2.4C79.1,75.2,80.1,75.4,80.9,74.8L80.9,74.8z"/>
	<path class="st3" d="M77.4,66c-2.2,0-4,1.8-4,4s1.8,4,4,4h2c-2.2,0-4-1.8-4-4s1.8-4,4-4H77.4L77.4,66z"/>
	<path class="st10" d="M79.4,66c-2.2,0-4,1.8-4,4s1.8,4,4,4s4-1.8,4-4S81.6,66,79.4,66L79.4,66z"/>
	
		<linearGradient id="SVGID_4_" gradientUnits="userSpaceOnUse" x1="71.9" y1="29" x2="86.8764" y2="29" gradientTransform="matrix(1 0 0 -1 0 99)">
		<stop  offset="0" style="stop-color:#86B8E0"/>
		<stop  offset="0.1163" style="stop-color:#98C4E7"/>
		<stop  offset="0.3255" style="stop-color:#B2D6F2"/>
		<stop  offset="0.5401" style="stop-color:#C5E2F9"/>
		<stop  offset="0.7615" style="stop-color:#D0EAFE"/>
		<stop  offset="1" style="stop-color:#D4ECFF"/>
	</linearGradient>
	<path class="st11" d="M79.4,67.4c0.9,0,1.7-0.8,1.7-1.7c0-0.9-0.8-1.7-1.7-1.7c-0.9,0-1.7,0.8-1.7,1.7
		C77.7,66.7,78.5,67.4,79.4,67.4L79.4,67.4z M76.9,69.2c0.3-0.9-0.2-1.8-1.1-2.1c-0.9-0.3-1.8,0.2-2.1,1.1c-0.3,0.9,0.2,1.8,1.1,2.1
		C75.7,70.6,76.6,70.1,76.9,69.2L76.9,69.2z M85.1,68.2c-0.3-0.9-1.2-1.4-2.1-1.1s-1.4,1.2-1.1,2.1s1.2,1.4,2.1,1.1
		C84.9,70,85.3,69,85.1,68.2L85.1,68.2z M79.4,69.3c-0.4,0-0.7,0.3-0.7,0.7s0.3,0.7,0.7,0.7c0.4,0,0.7-0.3,0.7-0.7
		S79.8,69.3,79.4,69.3L79.4,69.3z M71.9,70c0-4.1,3.4-7.5,7.5-7.5s7.5,3.4,7.5,7.5s-3.4,7.5-7.5,7.5S71.9,74.1,71.9,70L71.9,70z
		 M78.2,74.4c0.5-0.8,0.4-1.8-0.4-2.4c-0.8-0.5-1.8-0.4-2.4,0.4c-0.5,0.8-0.4,1.8,0.4,2.4S77.7,75.2,78.2,74.4L78.2,74.4z
		 M82.9,74.8c0.8-0.5,0.9-1.6,0.4-2.4s-1.6-0.9-2.4-0.4s-0.9,1.6-0.4,2.4C81.1,75.2,82.1,75.4,82.9,74.8L82.9,74.8z"/>
	
		<linearGradient id="SVGID_5_" gradientUnits="userSpaceOnUse" x1="9.1697" y1="32.5" x2="29.9031" y2="32.5" gradientTransform="matrix(1 0 0 -1 0 99)">
		<stop  offset="0" style="stop-color:#86B8E0"/>
		<stop  offset="0.1163" style="stop-color:#98C4E7"/>
		<stop  offset="0.3255" style="stop-color:#B2D6F2"/>
		<stop  offset="0.5401" style="stop-color:#C5E2F9"/>
		<stop  offset="0.7615" style="stop-color:#D0EAFE"/>
		<stop  offset="1" style="stop-color:#D4ECFF"/>
	</linearGradient>
	<path class="st12" d="M10.8,55.6h17.5c0.9,0,1.6,0.7,1.6,1.6v18.6c0,0.9-0.7,1.6-1.6,1.6H10.8c-0.9,0-1.6-0.7-1.6-1.6V57.3
		C9.2,56.4,9.9,55.6,10.8,55.6L10.8,55.6z"/>
	<path class="st2" d="M53.7,51.1c1.8,0,3.3,1.5,3.3,3.3V57v16.9c3.7,0,7.3,0,11,0V54.4c0-1.8-1.5-3.3-3.3-3.3
		C61,51.1,57.4,51.1,53.7,51.1L53.7,51.1z M57.1,52h-0.7c0.2,0.2,0.5,0.6,0.7,0.9h0.7C57.7,52.6,57.3,52.2,57.1,52L57.1,52z
		 M58.1,72h-0.7v1h0.7V72L58.1,72z M58.1,64.4h-0.7v1h0.7V64.4L58.1,64.4z M58.1,66.9h-0.7v1h0.7V66.9L58.1,66.9z M58.1,69.5h-0.7v1
		h0.7V69.5L58.1,69.5z M58.1,61.9h-0.7v1h0.7V61.9L58.1,61.9z M58.1,54.2h-0.7v1h0.7V54.2L58.1,54.2z M58.1,56.8h-0.7v1h0.7V56.8
		L58.1,56.8z M58.1,59.3h-0.7v1h0.7V59.3L58.1,59.3z M66.4,52h-0.7c0.2,0.2,0.5,0.6,0.7,0.9h0.7C66.9,52.6,66.6,52.2,66.4,52
		L66.4,52z M67.5,72h-0.7v1h0.7V72L67.5,72z M67.5,69.5h-0.7v1h0.7V69.5L67.5,69.5z M67.5,66.9h-0.7v1h0.7V66.9L67.5,66.9z
		 M67.5,64.4h-0.7v1h0.7V64.4L67.5,64.4z M67.5,61.9h-0.7v1h0.7V61.9L67.5,61.9z M67.5,59.3h-0.7v1h0.7V59.3L67.5,59.3z M67.5,56.8
		h-0.7v1h0.7V56.8L67.5,56.8z M67.5,54.2h-0.7v1h0.7V54.2L67.5,54.2z"/>
	<path class="st13" d="M53.7,51.1h1.5c-1.8,0-3.3,1.5-3.3,3.3h-1.5C50.4,52.6,51.9,51.1,53.7,51.1L53.7,51.1z"/>
	<polygon class="st4" points="66.3,64.1 58.6,64.1 58.6,73 66.3,73 	"/>
	<polygon class="st14" points="66.3,54.2 58.6,54.2 58.6,63.2 66.3,63.2 	"/>
	<path class="st14" d="M63,51.1h-7.5c1.4,0,2.6,0.9,3.1,2.2l0.1,0.1h7.5C65.7,52.1,64.4,51.1,63,51.1L63,51.1z"/>
	<path class="st2" d="M54.4,51.2c1.5,0.3,2.6,1.7,2.6,3.2h-5.1C51.9,52.9,53,51.6,54.4,51.2L54.4,51.2z"/>
	<path class="st2" d="M10.7,55.6h16.4c0.8,0,1.5,0.7,1.5,1.5V76c0,0.8-0.7,1.5-1.5,1.5H10.7c-0.8,0-1.5-0.7-1.5-1.5V57.2
		C9.2,56.3,9.9,55.6,10.7,55.6L10.7,55.6z"/>
	<polygon class="st4" points="10.9,57.3 26.9,57.3 26.9,72 10.9,72 	"/>
	<polygon class="st14" points="21.8,64.7 18.9,66.3 16,67.9 16,64.7 16,61.5 18.9,63.1 	"/>
	<path class="st15" d="M13.3,73.7c0.7,0,1.3,0.6,1.3,1.3c0,0.7-0.6,1.3-1.3,1.3H13l0,0c-0.6-0.1-1-0.6-1-1.3c0-0.6,0.4-1.1,1-1.3
		l0,0H13.3L13.3,73.7z"/>
	<path class="st4" d="M13,73.7c0.7,0,1.3,0.6,1.3,1.3c0,0.7-0.6,1.3-1.3,1.3s-1.3-0.6-1.3-1.3C11.8,74.3,12.3,73.7,13,73.7L13,73.7z
		"/>
	<path class="st2" d="M41.9,48.9h-1.2v-0.3c0-0.3-0.3-0.6-0.6-0.6h-0.6H20.7h-0.6c-0.3,0-0.6,0.3-0.6,0.6v0.3h-1.2l1.2-1.2h21.2
		L41.9,48.9L41.9,48.9z"/>
	<path class="st2" d="M40.7,54.4h1.2v-5.7c0-0.6-0.5-1-1-1h-0.2V54.4L40.7,54.4z"/>
	<path class="st2" d="M18.3,55.6h1.2v-8l0,0c-0.7,0-1.2,0.5-1.2,1.2V55.6L18.3,55.6z"/>
	<path class="st2" d="M13.4,38.2h14.4c1.1,0,1.9,0.9,1.9,1.9l0,0c0,1.1-0.9,1.9-1.9,1.9H13.4c-1.1,0-1.9-0.9-1.9-1.9l0,0
		C11.4,39,12.3,38.2,13.4,38.2L13.4,38.2z"/>
	<path class="st2" d="M69,24h9.6c1.1,0,1.9,0.9,1.9,1.9l0,0c0,1.1-0.9,1.9-1.9,1.9H69c-1.1,0-1.9-0.9-1.9-1.9l0,0
		C67.1,24.9,68,24,69,24L69,24z"/>
</g>
</svg>
