<?xml version="1.0" encoding="utf-8"?>
<!-- Generator: Adobe Illustrator 21.0.0, SVG Export Plug-In . SVG Version: 6.00 Build 0)  -->
<svg version="1.1" id="Layer_2" xmlns="http://www.w3.org/2000/svg" xmlns:xlink="http://www.w3.org/1999/xlink" x="0px" y="0px"
	 viewBox="0 0 100 100" style="enable-background:new 0 0 100 100;" xml:space="preserve">
<style type="text/css">
	.st0{fill:#E7F0F0;}
	.st1{opacity:0.4;}
	.st2{fill:#FFFFFF;}
	.st3{fill:none;stroke:#405B91;stroke-width:0.25;stroke-miterlimit:10;}
	.st4{fill:#7DC3EA;stroke:#405B91;stroke-width:0.25;stroke-miterlimit:10;}
	.st5{fill:#405B91;}
	.st6{fill:#396CAA;stroke:#405B91;stroke-width:0.25;stroke-miterlimit:10;}
	.st7{fill:#173D7A;}
	.st8{fill:url(#SVGID_1_);stroke:#405B91;stroke-width:0.25;stroke-miterlimit:10;}
	.st9{fill:#D4ECFF;stroke:#405B91;stroke-width:0.25;stroke-miterlimit:10;}
	.st10{fill:#B6D0FB;stroke:#405B91;stroke-width:0.25;stroke-miterlimit:10;}
	.st11{fill:#D4ECFF;}
	.st12{fill:#50AA50;}
	.st13{opacity:0.4;fill:#FFFFFF;enable-background:new    ;}
	.st14{fill:#C5D3E8;}
	.st15{fill:#107AEC;stroke:#0D69BC;stroke-width:0.25;stroke-miterlimit:10;}
	.st16{fill:#0D69BC;stroke:#107AEC;stroke-width:0.25;stroke-miterlimit:10;}
	.st17{fill:#79B1E0;}
</style>
<path class="st0" d="M88.3,61c0,0,21.8-29.9-23.7-38.6s-43.1,7-43.1,7s3,9.7-10.2,14s4.3,38.8,17,36.7c12.7-2.2,47.5,0,47.5,0
	S91.3,82.3,88.3,61z"/>
<g class="st1">
	<path class="st2" d="M80.1,37L80.1,37l-6-3.4l6-3.4l6,3.4L80.1,37z M74.5,33.5l5.6,3.2l5.6-3.2l-5.6-3.2L74.5,33.5z"/>
	<path class="st2" d="M68.5,37l-6-3.4l6-3.4l6,3.4L68.5,37z M63,33.5l5.6,3.2l5.6-3.2l-5.6-3.2L63,33.5z"/>
	<path class="st2" d="M74.3,40.3L74.3,40.3l-6-3.4l6-3.4h0.1l5.9,3.4L74.3,40.3z M68.8,36.8l5.6,3.2l5.6-3.2l-5.6-3.2L68.8,36.8z"/>
	<path class="st2" d="M80.1,43.6L80.1,43.6l-6-3.4l6-3.4h0.1l5.9,3.4L80.1,43.6z M74.5,40.2l5.6,3.2l5.6-3.2L80.1,37L74.5,40.2z"/>
	<path class="st2" d="M57,37L57,37l-6-3.4l6-3.4l6,3.4L57,37z M51.5,33.5l5.6,3.2l5.6-3.2L57,30.3L51.5,33.5z"/>
	<path class="st2" d="M62.8,40.3l-6-3.4l6-3.4l6,3.4L62.8,40.3z M57.2,36.8l5.6,3.2l5.6-3.2l-5.6-3.2L57.2,36.8z"/>
	<path class="st2" d="M68.5,43.6l-6-3.4l6-3.4h0.1l5.9,3.4L68.5,43.6z M63,40.2l5.6,3.2l5.6-3.2L68.5,37L63,40.2z"/>
	<path class="st2" d="M74.3,46.9L74.3,46.9l-6-3.4l6-3.4h0.1l5.9,3.4L74.3,46.9z M68.8,43.5l5.6,3.2l5.6-3.2l-5.6-3.2L68.8,43.5z"/>
	<path class="st2" d="M80.1,50.3L80.1,50.3l-6-3.4l6-3.4h0.1l5.9,3.4L80.1,50.3z M74.5,46.8l5.6,3.2l5.6-3.2l-5.6-3.2L74.5,46.8z"/>
	<path class="st2" d="M45.5,37L45.5,37l-6-3.4l6-3.4h0.1l5.9,3.4L45.5,37z M40,33.5l5.6,3.2l5.6-3.2l-5.6-3.2L40,33.5z"/>
	<path class="st2" d="M51.3,40.3L51.3,40.3l-6-3.4l6-3.4h0.1l5.9,3.4L51.3,40.3z M45.7,36.8l5.6,3.2l5.6-3.2l-5.6-3.2L45.7,36.8z"/>
	<path class="st2" d="M57,43.6L57,43.6l-6-3.4l6-3.4l6,3.4L57,43.6z M51.5,40.2l5.6,3.2l5.5-3.2L57,37L51.5,40.2z"/>
	<path class="st2" d="M62.8,46.9l-6-3.4l6-3.4l6,3.4L62.8,46.9z M57.2,43.5l5.6,3.2l5.6-3.2l-5.6-3.2L57.2,43.5z"/>
	<path class="st2" d="M68.5,50.3l-6-3.4l6-3.4h0.1l5.9,3.4L68.5,50.3z M63,46.8l5.6,3.2l5.6-3.2l-5.6-3.2L63,46.8z"/>
	<path class="st2" d="M74.3,53.6L74.3,53.6l-6-3.4l6-3.4h0.1l5.9,3.4L74.3,53.6z M68.8,50.1l5.6,3.2l5.6-3.2l-5.6-3.2L68.8,50.1z"/>
	<path class="st2" d="M80.1,56.9L80.1,56.9l-6-3.4l6-3.4h0.1l5.9,3.4L80.1,56.9z M74.5,53.5l5.6,3.2l5.6-3.2l-5.6-3.2L74.5,53.5z"/>
	<path class="st2" d="M34,37L34,37l-6-3.4l6-3.4l6,3.4L34,37z M28.4,33.5l5.6,3.2l5.6-3.2L34,30.3L28.4,33.5z"/>
	<path class="st2" d="M39.7,40.3L39.7,40.3l-6-3.4l6-3.4h0.1l5.9,3.4L39.7,40.3z M34.2,36.8l5.6,3.2l5.6-3.2l-5.6-3.2L34.2,36.8z"/>
	<path class="st2" d="M45.5,43.6l-6-3.4l6-3.4h0.1l5.9,3.4L45.5,43.6z M40,40.2l5.6,3.2l5.6-3.2L45.5,37L40,40.2z"/>
	<path class="st2" d="M51.3,46.9L51.3,46.9l-6-3.4l6-3.4h0.1l5.9,3.4L51.3,46.9z M45.7,43.5l5.6,3.2l5.6-3.2l-5.6-3.2L45.7,43.5z"/>
	<path class="st2" d="M57,50.3l-6-3.4l6-3.4l6,3.4L57,50.3z M51.5,46.8L57,50l5.6-3.2L57,43.6L51.5,46.8z"/>
	<path class="st2" d="M62.8,53.6L62.8,53.6l-6-3.4l6-3.4l6,3.4L62.8,53.6z M57.2,50.1l5.6,3.2l5.6-3.2l-5.6-3.2L57.2,50.1z"/>
	<path class="st2" d="M68.5,56.9L68.5,56.9l-6-3.4l6-3.4h0.1l5.9,3.4L68.5,56.9z M63,53.5l5.6,3.2l5.6-3.2l-5.6-3.2L63,53.5z"/>
	<path class="st2" d="M74.3,60.2l-6-3.4l6-3.4h0.1l5.9,3.4L74.3,60.2z M68.8,56.8l5.6,3.2l5.6-3.2l-5.6-3.2L68.8,56.8z"/>
	<path class="st2" d="M80.1,63.6L80.1,63.6l-6-3.4l6-3.4h0.1l5.9,3.4L80.1,63.6z M74.5,60.1l5.6,3.2l5.6-3.2l-5.6-3.2L74.5,60.1z"/>
	<path class="st2" d="M22.5,37l-6-3.4l6-3.4h0.1l5.9,3.4L22.5,37z M16.9,33.5l5.6,3.2l5.6-3.2l-5.6-3.2L16.9,33.5z"/>
	<path class="st2" d="M28.2,40.3L28.2,40.3l-6-3.4l6-3.4h0.1l5.9,3.4L28.2,40.3z M22.7,36.8l5.6,3.2l5.6-3.2l-5.6-3.2L22.7,36.8z"/>
	<path class="st2" d="M34,43.6L34,43.6l-6-3.4l6-3.4h0.1l5.9,3.4L34,43.6z M28.4,40.2l5.6,3.2l5.6-3.2L34,37L28.4,40.2z"/>
	<path class="st2" d="M39.7,46.9L39.7,46.9l-6-3.4l6-3.4l6,3.4L39.7,46.9z M34.2,43.5l5.6,3.2l5.6-3.2l-5.6-3.2L34.2,43.5z"/>
	<path class="st2" d="M45.5,50.3L45.5,50.3l-6-3.4l6-3.4h0.1l5.9,3.4L45.5,50.3z M40,46.8l5.6,3.2l5.6-3.2l-5.6-3.2L40,46.8z"/>
	<path class="st2" d="M51.3,53.6l-6-3.4l6-3.4l6,3.4L51.3,53.6z M45.7,50.1l5.6,3.2l5.6-3.2l-5.6-3.2L45.7,50.1z"/>
	<path class="st2" d="M57,56.9L57,56.9l-6-3.4l6-3.4h0.1l5.9,3.4L57,56.9z M51.5,53.5l5.6,3.2l5.6-3.2L57,50.3L51.5,53.5z"/>
	<path class="st2" d="M62.8,60.2L62.8,60.2l-6-3.4l6-3.4h0.1l5.9,3.4L62.8,60.2z M57.2,56.8l5.6,3.2l5.6-3.2l-5.6-3.2L57.2,56.8z"/>
	<path class="st2" d="M68.5,63.6L68.5,63.6l-6-3.4l6-3.4l6,3.4L68.5,63.6z M63,60.1l5.6,3.2l5.6-3.2l-5.6-3.2L63,60.1z"/>
	<path class="st2" d="M74.3,66.9L74.3,66.9l-6-3.4l6-3.4h0.1l5.9,3.4L74.3,66.9z M68.8,63.4l5.6,3.2l5.6-3.2l-5.6-3.2L68.8,63.4z"/>
	<path class="st2" d="M80.1,70.2l-6-3.4l6-3.4h0.1l5.9,3.4L80.1,70.2z M74.5,66.8l5.6,3.2l5.6-3.2l-5.6-3.2L74.5,66.8z"/>
	<path class="st2" d="M22.5,43.6l-6-3.4l6-3.4h0.1l5.9,3.4L22.5,43.6z M16.9,40.2l5.6,3.2l5.6-3.2L22.5,37L16.9,40.2z"/>
	<path class="st2" d="M28.2,46.9L28.2,46.9l-6-3.4l6-3.4h0.1l5.9,3.4L28.2,46.9z M22.7,43.5l5.6,3.2l5.6-3.2l-5.6-3.2L22.7,43.5z"/>
	<path class="st2" d="M34,50.3L34,50.3l-6-3.4l6-3.4h0.1l5.9,3.4L34,50.3z M28.4,46.8L34,50l5.6-3.2L34,43.6L28.4,46.8z"/>
	<path class="st2" d="M39.7,53.6L39.7,53.6l-6-3.4l6-3.4h0.1l5.9,3.4L39.7,53.6z M34.2,50.1l5.6,3.2l5.6-3.2l-5.6-3.2L34.2,50.1z"/>
	<path class="st2" d="M45.5,56.9l-6-3.4l6-3.4l6,3.4L45.5,56.9z M40,53.5l5.6,3.2l5.6-3.2l-5.6-3.2L40,53.5z"/>
	<path class="st2" d="M51.3,60.2l-6-3.4l6-3.4h0.1l5.9,3.4L51.3,60.2z M45.7,56.8l5.6,3.2l5.6-3.2l-5.6-3.2L45.7,56.8z"/>
	<path class="st2" d="M57,63.6L57,63.6l-6-3.4l6-3.4h0.1l5.9,3.4L57,63.6z M51.5,60.1l5.6,3.2l5.6-3.2L57,56.9L51.5,60.1z"/>
	<path class="st2" d="M62.8,66.9L62.8,66.9l-6-3.4l6-3.4h0.1l5.9,3.4L62.8,66.9z M57.2,63.4l5.6,3.2l5.6-3.2l-5.6-3.2L57.2,63.4z"/>
	<path class="st2" d="M68.5,70.2L68.5,70.2l-6-3.4l6-3.4h0.1l5.9,3.4L68.5,70.2z M63,66.8l5.6,3.2l5.6-3.2l-5.6-3.2L63,66.8z"/>
	<path class="st2" d="M74.3,73.5L74.3,73.5l-6-3.4l6-3.4l6,3.4L74.3,73.5z M68.8,70.1l5.6,3.2l5.6-3.2l-5.6-3.2L68.8,70.1z"/>
	<path class="st2" d="M80.1,76.9l-6-3.4l6-3.4h0.1l5.9,3.4L80.1,76.9z M74.5,73.4l5.6,3.2l5.6-3.2l-5.6-3.2L74.5,73.4z"/>
	<path class="st2" d="M22.5,50.3L22.5,50.3l-6-3.4l6-3.4h0.1l5.9,3.4L22.5,50.3z M16.9,46.8l5.6,3.2l5.6-3.2l-5.6-3.2L16.9,46.8z"/>
	<path class="st2" d="M28.2,53.6l-6-3.4l6-3.4h0.1l5.9,3.4L28.2,53.6z M22.7,50.1l5.6,3.2l5.6-3.2l-5.6-3.2L22.7,50.1z"/>
	<path class="st2" d="M34,56.9L34,56.9l-6-3.4l6-3.4h0.1l5.9,3.4L34,56.9z M28.4,53.5l5.6,3.2l5.6-3.2L34,50.3L28.4,53.5z"/>
	<path class="st2" d="M39.7,60.2L39.7,60.2l-6-3.4l6-3.4l6,3.4L39.7,60.2z M34.2,56.8l5.6,3.2l5.5-3.2l-5.6-3.2L34.2,56.8z"/>
	<path class="st2" d="M45.5,63.6l-6-3.4l6-3.4l6,3.4L45.5,63.6z M40,60.1l5.6,3.2l5.6-3.2l-5.6-3.2L40,60.1z"/>
	<path class="st2" d="M51.3,66.9L51.3,66.9l-6-3.4l6-3.4h0.1l5.9,3.4L51.3,66.9z M45.7,63.4l5.6,3.2l5.6-3.2l-5.6-3.2L45.7,63.4z"/>
	<path class="st2" d="M57,70.2l-6-3.4l6-3.4h0.1l5.9,3.4L57,70.2z M51.5,66.8L57,70l5.6-3.2L57,63.6L51.5,66.8z"/>
	<path class="st2" d="M62.8,73.5L62.8,73.5l-6-3.4l6-3.4h0.1l5.9,3.4L62.8,73.5z M57.2,70.1l5.6,3.2l5.6-3.2l-5.6-3.2L57.2,70.1z"/>
	<path class="st2" d="M68.5,76.9L68.5,76.9l-6-3.4l6-3.4h0.1l5.9,3.4L68.5,76.9z M63,73.4l5.6,3.2l5.6-3.2l-5.6-3.2L63,73.4z"/>
	<path class="st2" d="M22.5,56.9L22.5,56.9l-6-3.4l6-3.4l6,3.4L22.5,56.9z M16.9,53.5l5.6,3.2l5.6-3.2l-5.6-3.2L16.9,53.5z"/>
	<path class="st2" d="M28.2,60.2L28.2,60.2l-6-3.4l6-3.4h0.1l5.9,3.4L28.2,60.2z M22.7,56.8l5.6,3.2l5.6-3.2l-5.6-3.2L22.7,56.8z"/>
	<path class="st2" d="M34,63.6l-6-3.4l6-3.4h0.1l5.9,3.4L34,63.6z M28.4,60.1l5.6,3.2l5.6-3.2L34,56.9L28.4,60.1z"/>
	<path class="st2" d="M39.7,66.9l-6-3.4l6-3.4l6,3.4L39.7,66.9z M34.2,63.4l5.6,3.2l5.6-3.2l-5.6-3.2L34.2,63.4z"/>
	<path class="st2" d="M45.5,70.2L45.5,70.2l-6-3.4l6-3.4h0.1l5.9,3.4L45.5,70.2z M40,66.8l5.6,3.2l5.6-3.2l-5.6-3.2L40,66.8z"/>
	<path class="st2" d="M51.3,73.5L51.3,73.5l-6-3.4l6-3.4l6,3.4L51.3,73.5z M45.7,70.1l5.6,3.2l5.6-3.2l-5.6-3.2L45.7,70.1z"/>
	<path class="st2" d="M57,76.9L57,76.9l-6-3.4l6-3.4h0.1l5.9,3.4L57,76.9z M51.5,73.4l5.6,3.2l5.6-3.2L57,70.2L51.5,73.4z"/>
	<path class="st2" d="M22.5,63.6L22.5,63.6l-6-3.4l6-3.4h0.1l5.9,3.4L22.5,63.6z M16.9,60.1l5.6,3.2l5.6-3.2l-5.6-3.2L16.9,60.1z"/>
	<path class="st2" d="M28.2,66.9L28.2,66.9l-6-3.4l6-3.4l6,3.4L28.2,66.9z M22.7,63.4l5.6,3.2l5.6-3.2l-5.6-3.2L22.7,63.4z"/>
	<path class="st2" d="M34,70.2l-6-3.4l6-3.4l6,3.4L34,70.2z M28.4,66.8L34,70l5.6-3.2L34,63.6L28.4,66.8z"/>
	<path class="st2" d="M39.7,73.5L39.7,73.5l-6-3.4l6-3.4h0.1l5.9,3.4L39.7,73.5z M34.2,70.1l5.6,3.2l5.6-3.2l-5.6-3.2L34.2,70.1z"/>
	<path class="st2" d="M45.5,76.9L45.5,76.9l-6-3.4l6-3.4h0.1l5.9,3.4L45.5,76.9z M40,73.4l5.6,3.2l5.6-3.2l-5.6-3.2L40,73.4z"/>
	<path class="st2" d="M22.5,70.2L22.5,70.2l-6-3.4l6-3.4h0.1l5.9,3.4L22.5,70.2z M16.9,66.8l5.6,3.2l5.6-3.2l-5.6-3.2L16.9,66.8z"/>
	<path class="st2" d="M28.2,73.5L28.2,73.5l-6-3.4l6-3.4l6,3.4L28.2,73.5z M22.7,70.1l5.6,3.2l5.5-3.2l-5.6-3.2L22.7,70.1z"/>
	<path class="st2" d="M34,76.9l-6-3.4l6-3.4h0.1l5.9,3.4L34,76.9z M28.4,73.4l5.6,3.2l5.6-3.2L34,70.2L28.4,73.4z"/>
	<path class="st2" d="M22.5,76.9L22.5,76.9l-6-3.4l6-3.4h0.1l5.9,3.4L22.5,76.9z M16.9,73.4l5.6,3.2l5.6-3.2l-5.6-3.2L16.9,73.4z"/>
</g>
<g>
	<line class="st3" x1="25.6" y1="54.8" x2="25.6" y2="23.5"/>
	<circle class="st3" cx="25.6" cy="23" r="0.5"/>
	<g>
		<line class="st3" x1="77.6" y1="41.2" x2="77.6" y2="20.9"/>
		<circle class="st3" cx="77.6" cy="20.3" r="0.5"/>
	</g>
	<g>
		<line class="st3" x1="85.4" y1="62.3" x2="85.4" y2="34.1"/>
		<circle class="st3" cx="85.4" cy="33.5" r="0.5"/>
	</g>
	<g>
		<line class="st3" x1="18.4" y1="60.9" x2="18.4" y2="32.8"/>
		<circle class="st3" cx="18.4" cy="32.2" r="0.5"/>
	</g>
</g>
<g>
	<path class="st4" d="M78.1,55.6L62,46.3c-0.9-0.5-2.4-0.4-3.4,0.1L24.9,65.8c-1,0.6-1.1,1.5-0.2,2l16.1,9.3
		c0.9,0.5,2.4,0.4,3.4-0.1l33.7-19.4C78.8,57,79,56.1,78.1,55.6z"/>
	<path class="st5" d="M42.2,75.4c-0.6,0-1.2-0.1-1.6-0.4l-16.1-9.3c-0.5-0.3-0.7-0.7-0.7-1.1c0-0.5,0.4-1,1-1.4l33.7-19.4
		c1.1-0.6,2.7-0.7,3.7-0.1L78.3,53c0.5,0.3,0.7,0.7,0.7,1.1c0,0.5-0.4,1-1,1.4L44.3,74.9C43.7,75.3,42.9,75.4,42.2,75.4z M60.5,44
		c-0.6,0-1.3,0.1-1.8,0.4L25.1,63.8c-0.4,0.2-0.7,0.6-0.7,0.9s0.2,0.5,0.4,0.6l16.1,9.3c0.8,0.5,2.2,0.4,3.1-0.1l33.7-19.4
		c0.4-0.2,0.7-0.6,0.7-0.9c0-0.3-0.2-0.5-0.4-0.6l-16.1-9.3C61.5,44.1,61.1,44,60.5,44z"/>
	<g>
		<g>
			<path class="st6" d="M40.3,71.4l-16.7-9.7c-0.5-0.3-0.8-0.7-0.8-1.2l0,0v-2.4l0.9,1.1c0.1,0,0.1-0.1,0.2-0.1l34.2-19.7
				c1.4-0.8,3.4-0.9,4.6-0.2l16.5,9.5c0.3-0.4,1-1.1,1-1.1V50l0,0c0,0.5-0.4,1.1-1.1,1.5L44.9,71.2C43.5,72,41.4,72.1,40.3,71.4z"/>
			<path class="st7" d="M31.2,65.4l1,0.6c0.1,0.1,0.2,0,0.2-0.2l0,0c0-0.2-0.1-0.4-0.2-0.4l-1-0.6c-0.1-0.1-0.2,0-0.2,0.2l0,0
				C31,65.2,31.1,65.4,31.2,65.4z"/>
			
				<linearGradient id="SVGID_1_" gradientUnits="userSpaceOnUse" x1="42.4" y1="-9.7341" x2="82.3697" y2="-9.7341" gradientTransform="matrix(1 0 0 1 0 65)">
				<stop  offset="0" style="stop-color:#86B8E0"/>
				<stop  offset="0.1163" style="stop-color:#98C4E7"/>
				<stop  offset="0.3255" style="stop-color:#B2D6F2"/>
				<stop  offset="0.5401" style="stop-color:#C5E2F9"/>
				<stop  offset="0.7615" style="stop-color:#D0EAFE"/>
				<stop  offset="1" style="stop-color:#D4ECFF"/>
			</linearGradient>
			<path class="st8" d="M58.1,39.4c1.4-0.8,3.4-0.9,4.6-0.2l16.5,9.5c0.3-0.4,1-1.1,1-1.1V50l0,0c0,0.5-0.4,1.1-1.1,1.5L44.9,71.2
				c-0.7,0.4-1.6,0.6-2.5,0.6V48.4L58.1,39.4z"/>
			<path class="st9" d="M79.4,46.4l-16.7-9.7c-1.2-0.7-3.2-0.6-4.6,0.2L23.9,56.6c-1.4,0.8-1.5,2-0.3,2.6l16.7,9.7
				c1.2,0.7,3.2,0.6,4.6-0.2L79,49.1C80.4,48.3,80.5,47.1,79.4,46.4z"/>
			<path class="st2" d="M40.3,69.2l-16.7-9.7c-0.6-0.4-0.9-0.8-0.8-1.3c0,0.4,0.3,0.8,0.8,1.1L40.3,69c1.2,0.7,3.2,0.6,4.6-0.2
				L79,49.1c0.7-0.4,1-0.9,1.1-1.3c0,0.5-0.3,1.1-1.1,1.6L44.8,69C43.5,69.8,41.4,69.9,40.3,69.2z"/>
			<path class="st10" d="M78.1,46.8L62,37.5c-0.9-0.5-2.4-0.4-3.4,0.1L24.9,57.1c-1,0.6-1.1,1.5-0.2,2l16.1,9.3
				c0.9,0.5,2.4,0.4,3.4-0.1l33.7-19.4C78.8,48.2,79,47.3,78.1,46.8z"/>
		</g>
		<g>
			<polygon class="st11" points="44.8,63.5 33.5,56.9 34.2,56.5 45.5,63.1 			"/>
			<polygon class="st11" points="36.9,61.6 31.2,58.3 31.9,57.9 37.6,61.2 			"/>
			<polygon class="st12" points="39.7,63.2 37.8,62.1 38.5,61.7 40.4,62.8 			"/>
			<polygon class="st2" points="42.5,64.8 40.6,63.7 41.4,63.3 43.2,64.4 			"/>
			<polygon class="st2" points="37,60.3 32.3,57.6 33,57.2 37.7,59.9 			"/>
			<polygon class="st11" points="42.6,63.6 38,60.9 38.7,60.5 43.4,63.2 			"/>
			<g>
				<path class="st12" d="M39.2,57.8c-0.2,0.1-0.6,0.1-0.8,0s-0.2-0.4,0-0.5s0.6-0.1,0.8,0C39.4,57.5,39.4,57.7,39.2,57.8z"/>
				<path class="st2" d="M40.5,58.6c-0.2,0.1-0.6,0.1-0.8,0s-0.2-0.4,0-0.5s0.6-0.1,0.8,0C40.7,58.2,40.7,58.4,40.5,58.6z"/>
				<path class="st11" d="M41.7,59.3c-0.2,0.1-0.6,0.1-0.8,0s-0.2-0.4,0-0.5s0.6-0.1,0.8,0C42,58.9,42,59.2,41.7,59.3z"/>
				<path class="st12" d="M43,60c-0.2,0.1-0.6,0.1-0.8,0s-0.2-0.4,0-0.5s0.6-0.1,0.8,0C43.2,59.7,43.2,59.9,43,60z"/>
				<path class="st2" d="M44.2,60.7c-0.2,0.1-0.6,0.1-0.8,0s-0.2-0.4,0-0.5s0.6-0.1,0.8,0C44.5,60.4,44.5,60.6,44.2,60.7z"/>
			</g>
		</g>
		<g>
			<polygon class="st12" points="69.6,46.9 67.7,45.8 68.4,45.4 70.3,46.5 			"/>
			<polygon class="st2" points="72.2,48.4 70.3,47.3 71.1,46.9 73,48 			"/>
			<polygon class="st2" points="61.1,41.9 59.2,40.8 59.9,40.4 61.8,41.5 			"/>
			<polygon class="st2" points="69.2,48 66.5,46.5 67.2,46 69.9,47.6 			"/>
			<polygon class="st11" points="71.1,49.1 69.9,48.4 70.6,48 71.8,48.7 			"/>
		</g>
	</g>
	<g>
		<path class="st2" d="M74.7,63.7L74.7,63.7c-0.2-0.1-0.3-0.2-0.2-0.3c0.3-0.5,0.6-0.9,1.1-1.2C75.7,62,76,62,76.2,62
			c0.3,0,0.8-0.2,1.1-0.7c0.2-0.2,0.4-0.4,0.7-0.6c0.3-0.1,0.5-0.2,0.7-0.2c0.3,0,0.8-0.2,1.1-0.7c0.2-0.2,0.4-0.4,0.7-0.6
			c0.3-0.1,0.5-0.2,0.7-0.2c0.3,0,0.8-0.2,1.1-0.7c0.2-0.2,0.4-0.4,0.7-0.6c0.4-0.2,0.8-0.3,1.1-0.1c0.1,0.1,0.2,0.2,0.1,0.3
			S84,58.1,83.9,58c-0.2-0.1-0.4,0-0.6,0.1s-0.4,0.3-0.5,0.5c-0.5,0.6-1,0.9-1.5,0.9c-0.1,0-0.3,0-0.5,0.1s-0.4,0.3-0.5,0.5
			c-0.5,0.6-1,0.9-1.5,0.9c-0.1,0-0.3,0-0.5,0.1s-0.4,0.3-0.5,0.5c-0.5,0.6-1,0.9-1.5,0.9c-0.1,0-0.3,0-0.5,0.1
			c-0.3,0.2-0.6,0.5-0.9,1C74.8,63.7,74.7,63.7,74.7,63.7z"/>
	</g>
	<g>
		<path class="st2" d="M59.4,73.7c0,0.3-0.2,0.7-0.5,0.9c-0.3,0.2-0.5,0-0.5-0.3s0.2-0.7,0.5-0.9C59.2,73.2,59.4,73.4,59.4,73.7z"/>
		<path class="st2" d="M61.1,72.8c0,0.3-0.2,0.7-0.5,0.9c-0.3,0.2-0.5,0-0.5-0.3s0.2-0.7,0.5-0.9C60.8,72.3,61.1,72.4,61.1,72.8z"/>
		<path class="st2" d="M62.7,71.8c0,0.3-0.2,0.7-0.5,0.9c-0.3,0.2-0.5,0-0.5-0.3s0.2-0.7,0.5-0.9C62.5,71.4,62.7,71.5,62.7,71.8z"/>
		<path class="st2" d="M64.3,70.9c0,0.3-0.2,0.7-0.5,0.9c-0.3,0.2-0.5,0-0.5-0.3s0.2-0.7,0.5-0.9C64.1,70.4,64.3,70.6,64.3,70.9z"/>
	</g>
	<g>
		<path class="st2" d="M55.5,31.5c0,0.3-0.2,0.7-0.5,0.9s-0.5,0-0.5-0.3s0.2-0.7,0.5-0.9S55.5,31.1,55.5,31.5z"/>
		<path class="st2" d="M56.9,30.7c0,0.3-0.2,0.7-0.5,0.9s-0.5,0-0.5-0.3s0.2-0.7,0.5-0.9C56.7,30.2,56.9,30.3,56.9,30.7z"/>
		<path class="st2" d="M55.5,29.9c0,0.3-0.2,0.7-0.5,0.9c-0.3,0.2-0.5,0-0.5-0.3s0.2-0.7,0.5-0.9S55.5,29.6,55.5,29.9z"/>
		<path class="st2" d="M56.9,29.1c0,0.3-0.2,0.7-0.5,0.9s-0.5,0-0.5-0.3s0.2-0.7,0.5-0.9C56.7,28.6,56.9,28.8,56.9,29.1z"/>
	</g>
	<g>
		<polygon class="st2" points="25.2,49.8 24.2,50.4 24.2,49.2 25.2,48.6 		"/>
		<polygon class="st2" points="26.8,48.9 25.8,49.4 25.8,48.3 26.8,47.7 		"/>
		<polygon class="st2" points="28.4,47.9 27.4,48.5 27.4,47.4 28.4,46.8 		"/>
		<polygon class="st2" points="30,47 29,47.6 29,46.4 30,45.8 		"/>
	</g>
	<g>
		<polygon class="st2" points="48.9,79.6 47.9,80.1 47.9,79 48.9,78.4 		"/>
		<polygon class="st2" points="50.3,78.7 49.3,79.3 49.3,78.2 50.3,77.6 		"/>
		<polygon class="st2" points="48.9,81.1 47.9,81.6 47.9,80.5 48.9,79.9 		"/>
		<polygon class="st2" points="50.3,80.3 49.3,80.8 49.3,79.7 50.3,79.1 		"/>
	</g>
	<path class="st5" d="M72.1,27.3c-0.2,0.1-0.3,0.2-0.5,0.4c0-1-0.7-1.3-1.6-0.9c-0.3,0.2-0.5,0.4-0.8,0.7c-0.4-0.7-1.2-0.8-2.1-0.3
		c-1.3,0.7-2.3,2.5-2.3,4c0,0.1,0,0.2,0,0.3c-0.2,0-0.4,0-0.6,0.1c-0.6,0.4-1.1,1.2-1.1,1.9s0.5,1,1.1,0.6l7.8-4.5
		c0.6-0.3,1.1-1.2,1.1-1.8C73.2,27.3,72.7,27,72.1,27.3z"/>
	<path class="st13" d="M26.3,74c-0.2,0.1-0.4,0.3-0.5,0.4c0-1-0.8-1.4-1.7-0.9c-0.3,0.2-0.6,0.4-0.8,0.7c-0.4-0.7-1.2-0.9-2.2-0.3
		c-1.4,0.8-2.4,2.7-2.4,4.2c0,0.1,0,0.2,0,0.4c-0.2,0-0.4,0-0.7,0.1c-0.6,0.4-1.2,1.3-1.2,2s0.5,1,1.2,0.7l8.3-4.8
		c0.6-0.4,1.1-1.2,1.1-1.9S26.9,73.7,26.3,74z"/>
	<g>
		<g>
			<path class="st14" d="M57.7,56.2c-2.6,1.5-6.7,1.5-9.3,0s-2.6-3.9,0-5.4s6.7-1.5,9.3,0S60.3,54.7,57.7,56.2z"/>
			<path class="st15" d="M61.2,48.3V46h-0.4c-0.4-0.7-1-1.3-2-1.8c-3.2-1.8-8.3-1.8-11.5,0c-0.9,0.5-1.6,1.2-2,1.8h-0.4v2.3l0,0
				c0,1.2,0.8,2.4,2.4,3.3c3.2,1.8,8.3,1.8,11.5,0C60.4,50.7,61.2,49.5,61.2,48.3z"/>
			<path class="st16" d="M58.8,44.2c-1.6-0.9-3.7-1.4-5.8-1.4V53c2.1,0,4.2-0.5,5.8-1.4s2.4-2.1,2.4-3.3V46h-0.4
				C60.4,45.4,59.7,44.7,58.8,44.2z"/>
			<path class="st15" d="M58.8,49.4c-3.2,1.8-8.3,1.8-11.5,0s-3.2-4.8,0-6.7c3.2-1.8,8.3-1.8,11.5,0C62,44.6,62,47.5,58.8,49.4z"/>
			<path class="st2" d="M58.8,49.4c-3.2,1.8-8.3,1.8-11.5,0c-1.5-0.9-2.3-2-2.4-3.2c-0.1,1.3,0.7,2.5,2.4,3.5
				c3.2,1.8,8.3,1.8,11.5,0c1.7-1,2.4-2.2,2.4-3.5C61.1,47.3,60.4,48.5,58.8,49.4z"/>
		</g>
	</g>
	<polygon class="st17" points="51.8,60.7 38.8,53.2 39.1,53 52.1,60.5 	"/>
	<polygon class="st11" points="43,55.8 38.6,53.3 39.3,52.9 43.7,55.4 	"/>
	<polygon class="st2" points="42.8,55.9 42.6,55.8 43.7,55.2 43.9,55.3 	"/>
</g>
<g>
	<path class="st2" d="M12.4,72.2h-0.1c-0.1-0.1-0.2-0.2-0.1-0.4c0.3-0.5,0.7-0.9,1.1-1.2c0.3-0.2,0.5-0.2,0.8-0.2s0.8-0.2,1.1-0.7
		c0.2-0.3,0.4-0.4,0.7-0.6c0.3-0.2,0.5-0.2,0.8-0.2s0.8-0.2,1.1-0.7c0.2-0.3,0.4-0.4,0.7-0.6c0.3-0.2,0.5-0.2,0.8-0.2
		s0.8-0.2,1.1-0.7c0.2-0.3,0.4-0.4,0.7-0.6c0.4-0.2,0.8-0.3,1.1-0.1c0.1,0.1,0.2,0.2,0.1,0.3c-0.1,0.1-0.2,0.2-0.3,0.1
		c-0.2-0.1-0.4,0-0.6,0.1S21,66.8,20.9,67c-0.5,0.6-1,0.9-1.6,0.9c-0.1,0-0.3,0-0.5,0.1s-0.4,0.3-0.5,0.5c-0.5,0.6-1,0.9-1.6,0.9
		c-0.1,0-0.3,0-0.5,0.1s-0.4,0.3-0.5,0.5c-0.5,0.6-1,0.9-1.6,0.9c-0.1,0-0.3,0-0.5,0.1c-0.3,0.2-0.6,0.5-0.9,1
		C12.6,72.1,12.5,72.2,12.4,72.2z"/>
</g>
<path class="st2" d="M78.4,37.4c-0.2,0-0.4,0-0.6-0.1c-0.4-0.2-0.6-0.7-0.6-1.3c0-1.1,0.8-2.5,1.8-3.1c0.5-0.3,1-0.3,1.4-0.1
	C80.8,33,81,33.4,81,34c0,1.1-0.8,2.5-1.8,3.1C79,37.3,78.7,37.4,78.4,37.4z M79.9,33.1c-0.2,0-0.4,0.1-0.6,0.2
	c-0.8,0.5-1.5,1.7-1.5,2.7c0,0.4,0.1,0.7,0.4,0.9c0.2,0.1,0.6,0.1,0.9-0.1c0.8-0.5,1.5-1.7,1.5-2.7c0-0.4-0.1-0.7-0.4-0.9
	C80.1,33.1,80,33.1,79.9,33.1z"/>
<g>
	<path class="st5" d="M93.4,79.4H7.3c-0.1,0-0.2-0.1-0.2-0.2S7.2,79,7.3,79h86.1c0.1,0,0.2,0.1,0.2,0.2
		C93.6,79.3,93.5,79.4,93.4,79.4z"/>
</g>
</svg>
