<?xml version="1.0" encoding="utf-8"?>
<!-- Generator: Adobe Illustrator 21.0.0, SVG Export Plug-In . SVG Version: 6.00 Build 0)  -->
<svg version="1.1" id="Layer_1" xmlns="http://www.w3.org/2000/svg" xmlns:xlink="http://www.w3.org/1999/xlink" x="0px" y="0px"
	 viewBox="0 0 100 100" style="enable-background:new 0 0 100 100;" xml:space="preserve">
<style type="text/css">
	.st0{fill:#E7F0F0;}
	.st1{fill:#405B91;}
	.st2{fill:url(#SVGID_1_);stroke:#405B91;stroke-width:0.25;stroke-miterlimit:10;}
	.st3{fill:url(#SVGID_2_);stroke:#405B91;stroke-width:0.25;stroke-miterlimit:10;}
	.st4{fill:url(#SVGID_3_);stroke:#405B91;stroke-width:0.25;stroke-miterlimit:10;}
	.st5{fill:#7DC3EA;stroke:#405B91;stroke-width:0.25;stroke-miterlimit:10;}
	.st6{fill:url(#SVGID_4_);stroke:#405B91;stroke-width:0.25;stroke-miterlimit:10;}
	.st7{fill:#134B87;}
	.st8{fill:#155396;}
	.st9{fill:#338ACC;}
	.st10{fill:url(#SVGID_5_);stroke:#405B91;stroke-width:0.25;stroke-miterlimit:10;}
	.st11{fill:url(#SVGID_6_);stroke:#405B91;stroke-width:0.25;stroke-miterlimit:10;}
	.st12{fill:#B6D0FB;stroke:#405B91;stroke-width:0.25;stroke-miterlimit:10;}
	.st13{fill:#107AEC;stroke:#0D69BC;stroke-width:0.25;stroke-miterlimit:10;}
	.st14{fill:#F28264;}
	.st15{fill:#4C4D6E;}
	.st16{fill:url(#SVGID_7_);stroke:#405B91;stroke-width:0.25;stroke-miterlimit:10;}
	.st17{fill:#D2DAE5;}
	.st18{fill:url(#SVGID_8_);stroke:#405B91;stroke-width:0.25;stroke-miterlimit:10;}
	.st19{fill:url(#SVGID_9_);stroke:#405B91;stroke-width:0.25;stroke-miterlimit:10;}
	.st20{fill:#D0D1ED;}
	.st21{fill:#E5E6FF;}
	.st22{fill:#F5F5FF;}
	.st23{fill:url(#SVGID_10_);stroke:#405B91;stroke-width:0.25;stroke-miterlimit:10;}
	.st24{fill:#32334A;}
	.st25{fill:#ACACBF;}
</style>
<g id="Layer_40">
	<path class="st0" d="M88.3,61c0,0,21.8-29.9-23.7-38.6s-43.1,7-43.1,7s3,9.7-10.2,14s4.3,38.8,17,36.7c12.7-2.2,47.5,0,47.5,0
		S91.3,82.3,88.3,61z"/>
	<g>
		<path class="st1" d="M94.1,80.2H8c-0.1,0-0.2-0.1-0.2-0.2s0.1-0.2,0.2-0.2h86.1c0.1,0,0.2,0.1,0.2,0.2
			C94.3,80.1,94.2,80.2,94.1,80.2z"/>
	</g>
</g>
<linearGradient id="SVGID_1_" gradientUnits="userSpaceOnUse" x1="67.1634" y1="44.3" x2="81.8047" y2="44.3" gradientTransform="matrix(1 0 0 -1 0 99)">
	<stop  offset="0" style="stop-color:#86B8E0"/>
	<stop  offset="0.1163" style="stop-color:#98C4E7"/>
	<stop  offset="0.3255" style="stop-color:#B2D6F2"/>
	<stop  offset="0.5401" style="stop-color:#C5E2F9"/>
	<stop  offset="0.7615" style="stop-color:#D0EAFE"/>
	<stop  offset="1" style="stop-color:#D4ECFF"/>
</linearGradient>
<path class="st2" d="M68.7,53.2h11.6c0.9,0,1.5,0.7,1.5,1.5l0,0c0,0.9-0.7,1.5-1.5,1.5H68.7c-0.9,0-1.5-0.7-1.5-1.5l0,0
	C67.2,53.9,67.9,53.2,68.7,53.2L68.7,53.2z"/>
<linearGradient id="SVGID_2_" gradientUnits="userSpaceOnUse" x1="16.7368" y1="58.2" x2="31.3781" y2="58.2" gradientTransform="matrix(1 0 0 -1 0 99)">
	<stop  offset="0" style="stop-color:#86B8E0"/>
	<stop  offset="0.1163" style="stop-color:#98C4E7"/>
	<stop  offset="0.3255" style="stop-color:#B2D6F2"/>
	<stop  offset="0.5401" style="stop-color:#C5E2F9"/>
	<stop  offset="0.7615" style="stop-color:#D0EAFE"/>
	<stop  offset="1" style="stop-color:#D4ECFF"/>
</linearGradient>
<path class="st3" d="M18.3,39.3h11.6c0.9,0,1.5,0.7,1.5,1.5l0,0c0,0.9-0.7,1.5-1.5,1.5H18.3c-0.9,0-1.5-0.7-1.5-1.5l0,0
	C16.7,40,17.4,39.3,18.3,39.3L18.3,39.3z"/>
<linearGradient id="SVGID_3_" gradientUnits="userSpaceOnUse" x1="14.1" y1="21.5" x2="87.9" y2="21.5" gradientTransform="matrix(1 0 0 -1 0 99)">
	<stop  offset="0" style="stop-color:#86B8E0"/>
	<stop  offset="0.1163" style="stop-color:#98C4E7"/>
	<stop  offset="0.3255" style="stop-color:#B2D6F2"/>
	<stop  offset="0.5401" style="stop-color:#C5E2F9"/>
	<stop  offset="0.7615" style="stop-color:#D0EAFE"/>
	<stop  offset="1" style="stop-color:#D4ECFF"/>
</linearGradient>
<path class="st4" d="M86.1,79.3H15.9c-1,0-1.8-0.8-1.8-1.8l0,0c0-1,0.8-1.8,1.8-1.8h70.2c1,0,1.8,0.8,1.8,1.8l0,0
	C87.9,78.5,87.1,79.3,86.1,79.3L86.1,79.3z"/>
<path class="st5" d="M74.7,60.6h2.1c3,0,5.5,2.5,5.5,5.5V77c0,0.4-0.4,0.8-0.8,0.8H70c-0.4,0-0.8-0.4-0.8-0.8V66.1
	C69.2,63.1,71.7,60.6,74.7,60.6L74.7,60.6z"/>
<linearGradient id="SVGID_4_" gradientUnits="userSpaceOnUse" x1="76.8" y1="29.8" x2="86.7233" y2="29.8" gradientTransform="matrix(1 0 0 -1 0 99)">
	<stop  offset="0" style="stop-color:#86B8E0"/>
	<stop  offset="0.1163" style="stop-color:#98C4E7"/>
	<stop  offset="0.3255" style="stop-color:#B2D6F2"/>
	<stop  offset="0.5401" style="stop-color:#C5E2F9"/>
	<stop  offset="0.7615" style="stop-color:#D0EAFE"/>
	<stop  offset="1" style="stop-color:#D4ECFF"/>
</linearGradient>
<path class="st6" d="M76.8,60.6h4.4c3,0,5.5,2.5,5.5,5.5V77c0,0.4-0.4,0.8-0.8,0.8h-4.4c0.4,0,0.8-0.4,0.8-0.8V66.1
	C82.3,63.1,79.9,60.6,76.8,60.6L76.8,60.6z"/>
<path class="st5" d="M75.8,63c2.3,0,4.2,1.9,4.2,4.2c0,2.3-1.9,4.2-4.2,4.2c-2.3,0-4.2-1.9-4.2-4.2C71.5,64.9,73.4,63,75.8,63
	L75.8,63z"/>
<path class="st7" d="M75.8,63.8c1.9,0,3.4,1.5,3.4,3.4s-1.5,3.4-3.4,3.4s-3.4-1.5-3.4-3.4S73.9,63.8,75.8,63.8L75.8,63.8z"/>
<path class="st5" d="M75.8,64.3c1.6,0,2.9,1.3,2.9,2.9s-1.3,2.9-2.9,2.9s-2.9-1.3-2.9-2.9S74.1,64.3,75.8,64.3L75.8,64.3z"/>
<path class="st7" d="M75.8,66.6c0.4,0,0.7,0.3,0.7,0.7S76.2,68,75.8,68c-0.4,0-0.7-0.3-0.7-0.7S75.4,66.6,75.8,66.6L75.8,66.6z"/>
<path class="st8" d="M75.8,74.7c0.4,0,0.8,0.4,0.8,0.8s-0.4,0.8-0.8,0.8H75c0.4,0,0.8-0.4,0.8-0.8s-0.4-0.8-0.8-0.8H75.8L75.8,74.7z
	"/>
<path class="st9" d="M74.9,74.7c0.4,0,0.8,0.4,0.8,0.8s-0.4,0.8-0.8,0.8s-0.8-0.4-0.8-0.8S74.5,74.7,74.9,74.7L74.9,74.7z"/>
<path class="st5" d="M20.8,60.6h2.1c3,0,5.5,2.5,5.5,5.5V77c0,0.4-0.4,0.8-0.8,0.8H16.1c-0.4,0-0.8-0.4-0.8-0.8V66.1
	C15.3,63.1,17.8,60.6,20.8,60.6L20.8,60.6z"/>
<linearGradient id="SVGID_5_" gradientUnits="userSpaceOnUse" x1="22.9121" y1="29.8" x2="32.8353" y2="29.8" gradientTransform="matrix(1 0 0 -1 0 99)">
	<stop  offset="0" style="stop-color:#86B8E0"/>
	<stop  offset="0.1163" style="stop-color:#98C4E7"/>
	<stop  offset="0.3255" style="stop-color:#B2D6F2"/>
	<stop  offset="0.5401" style="stop-color:#C5E2F9"/>
	<stop  offset="0.7615" style="stop-color:#D0EAFE"/>
	<stop  offset="1" style="stop-color:#D4ECFF"/>
</linearGradient>
<path class="st10" d="M22.9,60.6h4.4c3,0,5.5,2.5,5.5,5.5V77c0,0.4-0.4,0.8-0.8,0.8h-4.4c0.4,0,0.8-0.4,0.8-0.8V66.1
	C28.4,63.1,26,60.6,22.9,60.6L22.9,60.6z"/>
<path class="st5" d="M21.9,63c2.3,0,4.2,1.9,4.2,4.2c0,2.3-1.9,4.2-4.2,4.2s-4.2-1.9-4.2-4.2C17.6,64.9,19.5,63,21.9,63L21.9,63z"/>
<path class="st7" d="M21.9,63.8c1.9,0,3.4,1.5,3.4,3.4s-1.5,3.4-3.4,3.4s-3.4-1.5-3.4-3.4S20,63.8,21.9,63.8L21.9,63.8z"/>
<path class="st5" d="M21.9,64.3c1.6,0,2.9,1.3,2.9,2.9s-1.3,2.9-2.9,2.9S19,68.8,19,67.2S20.2,64.3,21.9,64.3L21.9,64.3z"/>
<path class="st7" d="M21.9,66.6c0.4,0,0.7,0.3,0.7,0.7S22.3,68,21.9,68c-0.4,0-0.7-0.3-0.7-0.7S21.5,66.6,21.9,66.6L21.9,66.6z"/>
<path class="st8" d="M21.9,74.7c0.4,0,0.8,0.4,0.8,0.8s-0.4,0.8-0.8,0.8H21c0.4,0,0.8-0.4,0.8-0.8s-0.4-0.8-0.8-0.8H21.9L21.9,74.7z
	"/>
<path class="st9" d="M21,74.7c0.4,0,0.8,0.4,0.8,0.8s-0.4,0.8-0.8,0.8s-0.8-0.4-0.8-0.8S20.6,74.7,21,74.7L21,74.7z"/>
<linearGradient id="SVGID_6_" gradientUnits="userSpaceOnUse" x1="45.184" y1="28.0778" x2="56.6691" y2="28.0778" gradientTransform="matrix(1 0 0 -1 0 99)">
	<stop  offset="0" style="stop-color:#86B8E0"/>
	<stop  offset="0.1163" style="stop-color:#98C4E7"/>
	<stop  offset="0.3255" style="stop-color:#B2D6F2"/>
	<stop  offset="0.5401" style="stop-color:#C5E2F9"/>
	<stop  offset="0.7615" style="stop-color:#D0EAFE"/>
	<stop  offset="1" style="stop-color:#D4ECFF"/>
</linearGradient>
<path class="st11" d="M45.2,63.9h8.4l3.1,12c0.3,1.1-0.4,2-1.5,2h-5.7c-0.3,0.1-0.7,0-0.7,0h-1.9l0,0c1,0,1.7-0.9,1.5-1.9L45.2,63.9
	L45.2,63.9z"/>
<path class="st5" d="M44.9,63.9h7.8l3.1,12c0.3,1.1-0.4,1.5-1.5,1.5h-5.7l0,0h-0.1h-1.9l0,0c1,0,1.7-0.4,1.5-1.4L44.9,63.9
	L44.9,63.9z"/>
<path class="st7" d="M68.3,35.7h-0.6c1.4,0,2.6,1.4,2.6,3.2V67c0,1.7-1.2,3.2-2.6,3.2h0.6c1.4,0,3.1-1.4,3.1-3.2V38.9
	C71.4,37.2,69.7,35.7,68.3,35.7L68.3,35.7z"/>
<path class="st5" d="M67.7,35.7h-41c-1.4,0-2.6,1.4-2.6,3.2V67c0,1.7,1.2,3.2,2.6,3.2h41c1.4,0,2.6-1.4,2.6-3.2V38.9
	C70.3,37.2,69.1,35.7,67.7,35.7L67.7,35.7z"/>
<path class="st12" d="M26.7,35.7h40.9c1.5,0,2.7,1.2,2.7,2.7v26.5H24.1V38.4C24.1,37,25.3,35.7,26.7,35.7L26.7,35.7z"/>
<path class="st5" d="M53.2,77.8h-12l0,0c0-0.5,0.4-0.8,0.8-0.8h10.4C52.9,77,53.2,77.4,53.2,77.8L53.2,77.8L53.2,77.8z"/>
<path class="st12" d="M26.1,37.4h42.1c0.3,0,0.5,0.2,0.5,0.5v25c0,0.3-0.2,0.5-0.5,0.5H26.1c-0.3,0-0.5-0.2-0.5-0.5v-25
	C25.6,37.6,25.8,37.4,26.1,37.4L26.1,37.4z"/>
<path class="st5" d="M26.1,37.4h42.1c0.3,0,0.5,0.2,0.5,0.5v0.9H25.6v-0.9C25.6,37.6,25.8,37.4,26.1,37.4L26.1,37.4z"/>
<path class="st12" d="M47.9,66.5c0.2-0.2,0.4-0.2,0.4-0.2s0,0.2-0.1,0.4c-0.2,0.2-0.4,0.2-0.4,0.2S47.7,66.7,47.9,66.5L47.9,66.5z
	 M47.8,67c0.1,0,0.2-0.1,0.4-0.1c0.4,0,0.5,0.3,0.5,0.3s-0.3,0.1-0.3,0.5s0.3,0.5,0.3,0.5s-0.2,0.7-0.6,0.7c-0.1,0-0.3-0.1-0.4-0.1
	c-0.2,0-0.3,0.1-0.4,0.1c-0.3,0-0.7-0.6-0.7-1.1s0.3-0.8,0.6-0.8C47.5,66.9,47.7,67,47.8,67L47.8,67z"/>
<polygon class="st13" points="50.9,46.2 47.2,48.2 43.4,50.3 43.4,46.2 43.4,42 47.2,44.1 "/>
<path class="st14" d="M26.5,37.7c0.2,0,0.3,0.1,0.3,0.3s-0.1,0.3-0.3,0.3c-0.2,0-0.3-0.1-0.3-0.3C26.2,37.9,26.4,37.7,26.5,37.7
	L26.5,37.7z"/>
<path class="st15" d="M27.4,37.7c0.2,0,0.3,0.1,0.3,0.3s-0.1,0.3-0.3,0.3c-0.2,0-0.3-0.1-0.3-0.3C27.1,37.9,27.3,37.7,27.4,37.7
	L27.4,37.7z"/>
<path class="st15" d="M28.4,37.7c0.2,0,0.3,0.1,0.3,0.3s-0.1,0.3-0.3,0.3c-0.2,0-0.3-0.1-0.3-0.3C28,37.9,28.2,37.7,28.4,37.7
	L28.4,37.7z"/>
<linearGradient id="SVGID_7_" gradientUnits="userSpaceOnUse" x1="55.7807" y1="42.7" x2="74.0807" y2="42.7" gradientTransform="matrix(1 0 0 -1 0 99)">
	<stop  offset="0" style="stop-color:#86B8E0"/>
	<stop  offset="0.1163" style="stop-color:#98C4E7"/>
	<stop  offset="0.3255" style="stop-color:#B2D6F2"/>
	<stop  offset="0.5401" style="stop-color:#C5E2F9"/>
	<stop  offset="0.7615" style="stop-color:#D0EAFE"/>
	<stop  offset="1" style="stop-color:#D4ECFF"/>
</linearGradient>
<path class="st16" d="M74.1,50.6c0,1.5-1.2,2.6-2.6,2.6h-2H55.8c0,2.9,0,5.9,0,8.8h15.7c1.5,0,2.6-1.2,2.6-2.6
	C74.1,56.4,74.1,53.5,74.1,50.6L74.1,50.6z M73.4,53.3v-0.5c-0.1,0.1-0.5,0.4-0.7,0.5v0.5C72.9,53.8,73.3,53.5,73.4,53.3L73.4,53.3z
	 M57.3,54.1v-0.5h-0.8v0.5H57.3L57.3,54.1z M63.4,54.1v-0.5h-0.8v0.5H63.4L63.4,54.1z M61.4,54.1v-0.5h-0.8v0.5H61.4L61.4,54.1z
	 M59.3,54.1v-0.5h-0.8v0.5H59.3L59.3,54.1z M65.5,54.1v-0.5h-0.8v0.5H65.5L65.5,54.1z M71.6,54.1v-0.5h-0.8v0.5H71.6L71.6,54.1z
	 M69.6,54.1v-0.5h-0.8v0.5H69.6L69.6,54.1z M67.5,54.1v-0.5h-0.8v0.5H67.5L67.5,54.1z M73.4,60.8v-0.5c-0.1,0.1-0.5,0.4-0.7,0.5v0.5
	C72.9,61.2,73.3,60.9,73.4,60.8L73.4,60.8z M57.3,61.6v-0.5h-0.8v0.5H57.3L57.3,61.6z M59.3,61.6v-0.5h-0.8v0.5H59.3L59.3,61.6z
	 M61.4,61.6v-0.5h-0.8v0.5H61.4L61.4,61.6z M63.4,61.6v-0.5h-0.8v0.5H63.4L63.4,61.6z M65.5,61.6v-0.5h-0.8v0.5H65.5L65.5,61.6z
	 M67.5,61.6v-0.5h-0.8v0.5H67.5L67.5,61.6z M69.6,61.6v-0.5h-0.8v0.5H69.6L69.6,61.6z M71.6,61.6v-0.5h-0.8v0.5H71.6L71.6,61.6z"/>
<path class="st17" d="M74.1,50.6v1.2c0-1.5-1.2-2.6-2.6-2.6V48C72.9,47.9,74.1,49.1,74.1,50.6L74.1,50.6z"/>
<polygon class="st5" points="63.7,60.7 63.7,54.5 56.5,54.5 56.5,60.7 "/>
<polygon class="st5" points="71.6,60.7 71.6,54.5 64.4,54.5 64.4,60.7 "/>
<path class="st5" d="M74.1,58v-6c0,1.1-0.7,2.1-1.7,2.5l-0.1,0.1v6C73.3,60.2,74.1,59.2,74.1,58L74.1,58z"/>
<path class="st5" d="M74,51.2c-0.3,1.2-1.3,2.1-2.6,2.1v-4.1C72.7,49.1,73.7,50,74,51.2L74,51.2z"/>
<linearGradient id="SVGID_8_" gradientUnits="userSpaceOnUse" x1="18.5633" y1="41.4" x2="47.8753" y2="41.4" gradientTransform="matrix(1 0 0 -1 0 99)">
	<stop  offset="0" style="stop-color:#86B8E0"/>
	<stop  offset="0.1163" style="stop-color:#98C4E7"/>
	<stop  offset="0.3255" style="stop-color:#B2D6F2"/>
	<stop  offset="0.5401" style="stop-color:#C5E2F9"/>
	<stop  offset="0.7615" style="stop-color:#D0EAFE"/>
	<stop  offset="1" style="stop-color:#D4ECFF"/>
</linearGradient>
<path class="st18" d="M18.7,62h0.6h5.9h2h13.6h2h5v-8.8h-7.1H25.2h-6.6v8.3v0.4C18.6,62,18.6,62,18.7,62L18.7,62z M40.8,61.6v-0.5
	h0.7v0.5H40.8L40.8,61.6z M40.8,54.1v-0.5h0.7v0.5H40.8L40.8,54.1z M46.8,61.1v0.5h0.8v-0.5H46.8L46.8,61.1z M42.7,61.1v0.5h0.8
	v-0.5H42.7L42.7,61.1z M44.7,61.1v0.5h0.8v-0.5H44.7L44.7,61.1z M46.8,53.6v0.5h0.8v-0.5H46.8L46.8,53.6z M44.7,53.6v0.5h0.8v-0.5
	H44.7L44.7,53.6z M42.7,53.6v0.5h0.8v-0.5H42.7L42.7,53.6z M25.2,61.6v-0.5h0.7v0.5H25.2L25.2,61.6z M25.2,54.1v-0.5h0.7v0.5H25.2
	L25.2,54.1z M39.3,61.1v0.5h0.8v-0.5H39.3L39.3,61.1z M33.2,61.1v0.5H34v-0.5H33.2L33.2,61.1z M35.2,61.1v0.5H36v-0.5H35.2
	L35.2,61.1z M37.3,61.1v0.5h0.8v-0.5H37.3L37.3,61.1z M31.1,61.1v0.5H32v-0.5H31.1L31.1,61.1z M27,61.1v0.5h0.8v-0.5H27L27,61.1z
	 M29.1,61.1v0.5h0.8v-0.5H29.1L29.1,61.1z M39.3,53.6v0.5h0.8v-0.5H39.3L39.3,53.6z M37.3,53.6v0.5h0.8v-0.5H37.3L37.3,53.6z
	 M35.2,53.6v0.5H36v-0.5H35.2L35.2,53.6z M33.2,53.6v0.5H34v-0.5H33.2L33.2,53.6z M31.1,53.6v0.5H32v-0.5H31.1L31.1,53.6z
	 M29.1,53.6v0.5h0.8v-0.5H29.1L29.1,53.6z M27,53.6v0.5h0.8v-0.5H27L27,53.6z M23.6,61.1v0.5h0.8v-0.5H23.6L23.6,61.1z M19.6,61.1
	v0.5h0.8v-0.5H19.6L19.6,61.1z M21.6,61.1v0.5h0.8v-0.5H21.6L21.6,61.1z M23.6,53.6v0.5h0.8v-0.5H23.6L23.6,53.6z M21.6,53.6v0.5
	h0.8v-0.5H21.6L21.6,53.6z M19.6,53.6v0.5h0.8v-0.5H19.6L19.6,53.6z"/>
<polygon class="st5" points="32.9,54.5 32.9,60.7 40.1,60.7 40.1,54.5 "/>
<polygon class="st5" points="25.2,60.7 32.2,60.7 32.2,54.5 25.2,54.5 "/>
<polygon class="st5" points="40.8,60.7 47.9,60.7 47.9,54.5 40.8,54.5 "/>
<polygon class="st5" points="19.3,60.7 24.5,60.7 24.5,54.5 19.3,54.5 "/>
<linearGradient id="SVGID_9_" gradientUnits="userSpaceOnUse" x1="47.8753" y1="44.9" x2="56.4753" y2="44.9" gradientTransform="matrix(1 0 0 -1 0 99)">
	<stop  offset="0" style="stop-color:#86B8E0"/>
	<stop  offset="0.1163" style="stop-color:#98C4E7"/>
	<stop  offset="0.3255" style="stop-color:#B2D6F2"/>
	<stop  offset="0.5401" style="stop-color:#C5E2F9"/>
	<stop  offset="0.7615" style="stop-color:#D0EAFE"/>
	<stop  offset="1" style="stop-color:#D4ECFF"/>
</linearGradient>
<path class="st19" d="M47.9,58.5h8.6c0-2.9,0-5.9,0-8.8h-8.6V58.5L47.9,58.5z M55,57.6v0.5h0.8v-0.5H55L55,57.6z M48.8,57.6v0.5h0.8
	v-0.5H48.8L48.8,57.6z M50.9,57.6v0.5h0.8v-0.5H50.9L50.9,57.6z M52.9,57.6v0.5h0.8v-0.5H52.9L52.9,57.6z M55,50.1v0.5h0.8v-0.5H55
	L55,50.1z M52.9,50.1v0.5h0.8v-0.5H52.9L52.9,50.1z M50.9,50.1v0.5h0.8v-0.5H50.9L50.9,50.1z M48.8,50.1v0.5h0.8v-0.5H48.8
	L48.8,50.1z"/>
<polygon class="st13" points="48.6,51 48.6,57.2 55.8,57.2 55.8,51 "/>
<path class="st20" d="M68,77.8h-7c-0.1,0-0.2-0.1-0.2-0.2l0,0c0-0.8,0.6-1.4,1.4-1.4h5.1c0.7,0,1.2,0.5,1.2,1.2l0,0
	C68.5,77.6,68.3,77.8,68,77.8L68,77.8z"/>
<path class="st21" d="M68.1,77.8h-5.5c-0.1,0-0.1-0.1-0.1-0.1l0,0c0-0.8,0.7-1.5,1.5-1.5h3.3c0.7,0,1.2,0.6,1.2,1.2l0,0
	C68.5,77.7,68.3,77.8,68.1,77.8L68.1,77.8z"/>
<path class="st22" d="M65.7,76.2h1.6c0.5,0,0.9,0.3,1.1,0.7h-2C66,76.9,65.7,76.6,65.7,76.2L65.7,76.2L65.7,76.2z"/>
<linearGradient id="SVGID_10_" gradientUnits="userSpaceOnUse" x1="30.8" y1="27.2" x2="42.8448" y2="27.2" gradientTransform="matrix(1 0 0 -1 0 99)">
	<stop  offset="0" style="stop-color:#86B8E0"/>
	<stop  offset="0.1163" style="stop-color:#98C4E7"/>
	<stop  offset="0.3255" style="stop-color:#B2D6F2"/>
	<stop  offset="0.5401" style="stop-color:#C5E2F9"/>
	<stop  offset="0.7615" style="stop-color:#D0EAFE"/>
	<stop  offset="1" style="stop-color:#D4ECFF"/>
</linearGradient>
<path class="st23" d="M36.8,69.7c-0.7,0-1.4-0.6-1.4-1.4c0-0.7,0.6-1.4,1.4-1.4c0.7,0,1.4,0.6,1.4,1.4S37.6,69.7,36.8,69.7
	L36.8,69.7z M38.8,71.2c-0.2-0.7,0.2-1.5,0.9-1.7s1.5,0.2,1.7,0.9c0.2,0.7-0.2,1.5-0.9,1.7C39.8,72.3,39,71.9,38.8,71.2L38.8,71.2z
	 M32.3,70.3c0.2-0.7,1-1.1,1.7-0.9s1.1,1,0.9,1.7c-0.2,0.7-1,1.1-1.7,0.9C32.4,71.8,32,71.1,32.3,70.3L32.3,70.3z M36.8,71.2
	c0.3,0,0.6,0.3,0.6,0.6c0,0.3-0.3,0.6-0.6,0.6s-0.6-0.3-0.6-0.6S36.5,71.2,36.8,71.2L36.8,71.2z M42.8,71.8c0-3.3-2.7-6-6-6
	s-6,2.7-6,6s2.7,6,6,6C40.2,77.8,42.8,75.1,42.8,71.8L42.8,71.8z M37.7,75.4c-0.4-0.6-0.3-1.5,0.3-1.9s1.5-0.3,1.9,0.3
	c0.4,0.6,0.3,1.5-0.3,1.9C39,76.1,38.2,76,37.7,75.4L37.7,75.4z M34,75.7c-0.6-0.4-0.7-1.3-0.3-1.9s1.3-0.7,1.9-0.3
	c0.6,0.4,0.7,1.3,0.3,1.9C35.5,76,34.6,76.1,34,75.7L34,75.7z"/>
<path class="st24" d="M36.8,68.6c1.8,0,3.2,1.4,3.2,3.2c0,1.8-1.4,3.2-3.2,3.2h-1.6c1.8,0,3.2-1.4,3.2-3.2c0-1.8-1.4-3.2-3.2-3.2
	H36.8L36.8,68.6z"/>
<path class="st15" d="M35.2,68.6c1.8,0,3.2,1.4,3.2,3.2c0,1.8-1.4,3.2-3.2,3.2S32,73.6,32,71.8S33.4,68.6,35.2,68.6L35.2,68.6z"/>
<path class="st12" d="M35.2,69.7c-0.7,0-1.4-0.6-1.4-1.4c0-0.7,0.6-1.4,1.4-1.4c0.7,0,1.4,0.6,1.4,1.4C36.6,69.1,36,69.7,35.2,69.7
	L35.2,69.7z M37.2,71.2c-0.2-0.7,0.2-1.5,0.9-1.7s1.5,0.2,1.7,0.9c0.2,0.7-0.2,1.5-0.9,1.7C38.2,72.3,37.4,71.9,37.2,71.2L37.2,71.2
	z M30.7,70.3c0.2-0.7,1-1.1,1.7-0.9s1.1,1,0.9,1.7c-0.2,0.7-1,1.1-1.7,0.9C30.8,71.8,30.4,71.1,30.7,70.3L30.7,70.3z M35.2,71.2
	c0.3,0,0.6,0.3,0.6,0.6c0,0.3-0.3,0.6-0.6,0.6s-0.6-0.3-0.6-0.6C34.6,71.5,34.9,71.2,35.2,71.2L35.2,71.2z M41.2,71.8
	c0-3.3-2.7-6-6-6s-6,2.7-6,6s2.7,6,6,6S41.2,75.1,41.2,71.8L41.2,71.8z M36.1,75.4c-0.4-0.6-0.3-1.5,0.3-1.9s1.5-0.3,1.9,0.3
	c0.4,0.6,0.3,1.5-0.3,1.9C37.4,76.1,36.6,76,36.1,75.4L36.1,75.4z M32.4,75.7c-0.6-0.4-0.7-1.3-0.3-1.9s1.3-0.7,1.9-0.3
	c0.6,0.4,0.7,1.3,0.3,1.9C33.9,76,33,76.1,32.4,75.7L32.4,75.7z"/>
<polygon class="st25" points="23.1,75.3 37,75.3 37,75.5 23.1,75.5 "/>
<polygon class="st25" points="23.1,77.6 37,77.6 37,77.8 23.1,77.8 "/>
<polygon class="st24" points="25.1,77.6 34.5,77.6 34.5,75.5 25.1,75.5 "/>
<polygon class="st21" points="23.1,75.3 35.3,75.3 35.3,75.5 23.1,75.5 "/>
<polygon class="st21" points="23.1,77.6 35.3,77.6 35.3,77.8 23.1,77.8 "/>
<polygon class="st15" points="25.1,77.6 33.4,77.6 33.4,75.5 25.1,75.5 "/>
<polygon class="st24" points="25.1,77.2 34.5,77.2 34.5,75.9 25.1,75.9 "/>
<polygon class="st24" points="25.1,77.2 33.4,77.2 33.4,75.9 25.1,75.9 "/>
</svg>
