<?xml version="1.0" encoding="utf-8"?>
<!-- Generator: Adobe Illustrator 21.0.0, SVG Export Plug-In . SVG Version: 6.00 Build 0)  -->
<svg version="1.1" id="Layer_1" xmlns="http://www.w3.org/2000/svg" xmlns:xlink="http://www.w3.org/1999/xlink" x="0px" y="0px"
	 viewBox="0 0 235 221" style="enable-background:new 0 0 235 221;" xml:space="preserve">
<style type="text/css">
	.st0{opacity:6.000000e-02;fill:url(#XMLID_2_);}
	.st1{fill:url(#SVGID_1_);}
	.st2{fill:url(#SVGID_2_);}
	.st3{fill:url(#SVGID_3_);}
	.st4{fill:url(#SVGID_4_);}
	.st5{fill:#FFFEFF;}
	.st6{fill:#F3F1EF;}
	.st7{opacity:0.3;fill:#E6E0DA;}
	.st8{fill:url(#SVGID_5_);}
	.st9{fill:#FFC563;}
	.st10{fill:#555993;}
	.st11{fill:#C95E06;}
	.st12{fill:url(#SVGID_6_);}
	.st13{fill:#FFF1D1;}
	.st14{fill:url(#SVGID_7_);}
	.st15{fill:url(#SVGID_8_);}
	.st16{fill:url(#SVGID_9_);}
	.st17{fill:url(#SVGID_10_);}
	.st18{fill:url(#SVGID_11_);}
	.st19{fill:url(#SVGID_12_);}
	.st20{fill:url(#SVGID_13_);}
	.st21{fill:url(#SVGID_14_);}
	.st22{fill:url(#SVGID_15_);}
	.st23{fill:url(#SVGID_16_);}
	.st24{fill:url(#SVGID_17_);}
	.st25{opacity:0.3;fill:#FFC563;}
	.st26{fill:#F0F0F0;}
	.st27{fill:url(#SVGID_18_);}
	.st28{fill:#FFD37A;}
	.st29{fill:url(#SVGID_19_);}
	.st30{fill:#FAFAFA;}
	.st31{opacity:0.3;}
	.st32{fill:url(#SVGID_20_);}
	.st33{opacity:0.7;fill:#FFC563;}
	.st34{fill:url(#SVGID_21_);}
	.st35{fill:url(#SVGID_22_);}
	.st36{fill:url(#SVGID_23_);}
	.st37{fill:url(#SVGID_24_);}
	.st38{fill:url(#SVGID_25_);}
	.st39{fill:#FE9D20;}
	.st40{fill:url(#SVGID_26_);}
	.st41{fill:#FFDE8D;}
	.st42{fill:url(#SVGID_27_);}
	.st43{fill:url(#SVGID_28_);}
	.st44{fill:url(#SVGID_29_);}
	.st45{opacity:0.7;fill:#AB95A2;}
	.st46{fill:url(#SVGID_30_);}
	.st47{fill:url(#SVGID_31_);}
	.st48{fill:url(#SVGID_32_);}
	.st49{fill:url(#SVGID_33_);}
	.st50{fill:url(#SVGID_34_);}
	.st51{fill:url(#SVGID_35_);}
	.st52{fill:url(#SVGID_36_);}
	.st53{fill:url(#SVGID_37_);}
	.st54{fill:url(#SVGID_38_);}
	.st55{fill:url(#SVGID_39_);}
	.st56{fill:url(#SVGID_40_);}
	.st57{opacity:0.3;fill:#817FBA;}
	.st58{fill:url(#SVGID_41_);}
	.st59{fill:url(#SVGID_42_);}
	.st60{fill:url(#SVGID_43_);}
	.st61{fill:#FFDC8A;}
</style>
<linearGradient id="XMLID_2_" gradientUnits="userSpaceOnUse" x1="-19.6585" y1="297.2156" x2="129.9277" y2="108.7688">
	<stop  offset="0" style="stop-color:#0042B3;stop-opacity:0"/>
	<stop  offset="1" style="stop-color:#0042B3"/>
</linearGradient>
<path id="XMLID_307_" class="st0" d="M65.8,75.8c-29.4,12.9-47.2,43.6-42.6,75.4c2.5,17.2,11,38.8,35.3,50.4
	c57.6,27.7,119.2-14.4,135.7-49.5c16.5-35.1,22.9-89.4-8-123c-18.6-20.2-61.8-22.9-76.7,13.3C101.4,62.3,83.5,68.1,65.8,75.8z"/>
<g>
	<linearGradient id="SVGID_1_" gradientUnits="userSpaceOnUse" x1="148.5977" y1="176.7491" x2="218.5705" y2="112.2217">
		<stop  offset="0" style="stop-color:#6270CA"/>
		<stop  offset="0.1277" style="stop-color:#6873C7"/>
		<stop  offset="0.2965" style="stop-color:#797BBE"/>
		<stop  offset="0.4883" style="stop-color:#9489AF"/>
		<stop  offset="0.6972" style="stop-color:#BA9C9B"/>
		<stop  offset="0.9174" style="stop-color:#EBB481"/>
		<stop  offset="1" style="stop-color:#FFBE76"/>
	</linearGradient>
	<path class="st1" d="M184.5,123.2h9.5v-13.4l-12.6-0.3c-9.9-0.3-18,7.7-18,17.5v12.8h-12.7v14.9h12.7v38.1h15.4v-38.1h12.9l2-14.9
		h-14.8v-10.9C178.8,125.7,181.3,123.2,184.5,123.2z"/>
	<linearGradient id="SVGID_2_" gradientUnits="userSpaceOnUse" x1="183.9702" y1="-11.5405" x2="55.7986" y2="260.3181">
		<stop  offset="0" style="stop-color:#6270CA"/>
		<stop  offset="0.1277" style="stop-color:#6873C7"/>
		<stop  offset="0.2965" style="stop-color:#797BBE"/>
		<stop  offset="0.4883" style="stop-color:#9489AF"/>
		<stop  offset="0.6972" style="stop-color:#BA9C9B"/>
		<stop  offset="0.9174" style="stop-color:#EBB481"/>
		<stop  offset="1" style="stop-color:#FFBE76"/>
	</linearGradient>
	<path class="st2" d="M140.7,192.8H98.2c-8.5,0-15.3-6.9-15.3-15.3V73.3c0-8.5,6.9-15.3,15.3-15.3h42.5c8.5,0,15.3,6.9,15.3,15.3
		v104.2C156,185.9,149.1,192.8,140.7,192.8z"/>
	<linearGradient id="SVGID_3_" gradientUnits="userSpaceOnUse" x1="148.4949" y1="62.7774" x2="80.7374" y2="208.6552">
		<stop  offset="0" style="stop-color:#DED5CE"/>
		<stop  offset="1" style="stop-color:#FFFFFF"/>
	</linearGradient>
	<path class="st3" d="M147.3,61.7h-16.5l-3.1,3.2h-16.6l-3.1-3.2H91.5c-2.7,0-4.9,2.2-4.9,4.9v117.5c0,2.7,2.2,4.9,4.9,4.9h55.8
		c2.7,0,4.9-2.2,4.9-4.9V66.6C152.2,63.9,150,61.7,147.3,61.7z"/>
	<linearGradient id="SVGID_4_" gradientUnits="userSpaceOnUse" x1="166.8704" y1="70.0995" x2="95.4428" y2="158.2842">
		<stop  offset="0" style="stop-color:#DED5CE"/>
		<stop  offset="1" style="stop-color:#FFFFFF"/>
	</linearGradient>
	<path class="st4" d="M86.6,94.9v-12c7.1-7.1,14.1-14.2,21.2-21.2h0.3l3.1,3.2h5.6C106.7,74.9,96.6,84.9,86.6,94.9z M103.1,124.5
		l49.1-49.1v-8.7c0-2.7-2.2-4.9-4.9-4.9h-16.5l-3.1,3.2H126C112.9,78,99.7,91.1,86.6,104.3V141C92.1,135.5,97.6,130,103.1,124.5z
		 M152.2,96.1V84.5c-21.9,21.9-43.8,43.8-65.7,65.7v11.4C108.5,139.8,130.4,118,152.2,96.1z M152.2,146.2v-40.5
		c-21.9,21.9-43.8,43.9-65.7,65.8v12.6c0,2.7,2.2,4.9,4.9,4.9h17.8L152.2,146.2z M152.2,174.4v-13.7c-9.5,9.4-18.9,18.9-28.4,28.3
		h13.8L152.2,174.4z"/>
	<path class="st5" d="M130.8,61.7h16.5c2.1,0,3.9,1.3,4.6,3.2h-24.2L130.8,61.7z M86.9,64.8h24.2l-3.1-3.2H91.5
		C89.4,61.7,87.6,63,86.9,64.8z"/>
	<g>
		<polygon class="st6" points="143.9,62.8 143.6,62.8 143.6,62.5 140.9,62.5 140.9,64 143.6,64 143.6,63.7 143.9,63.7 		"/>
		<g>
			<rect x="145.7" y="63.6" class="st6" width="0.3" height="0.4"/>
			<rect x="146.3" y="63.3" class="st6" width="0.3" height="0.8"/>
			<rect x="146.9" y="62.9" class="st6" width="0.3" height="1.2"/>
			<rect x="147.5" y="62.5" class="st6" width="0.3" height="1.6"/>
		</g>
		<path class="st6" d="M138.3,64h-0.8c-0.4,0-0.8-0.3-0.8-0.8l0,0c0-0.4,0.3-0.8,0.8-0.8h0.8c0.4,0,0.8,0.3,0.8,0.8l0,0
			C139,63.7,138.7,64,138.3,64z"/>
		<path class="st6" d="M133.7,64l1.1-1.1c-0.3-0.3-0.7-0.5-1.1-0.5c-0.4,0-0.8,0.2-1.1,0.5L133.7,64z"/>
	</g>
	<g>
		<circle class="st6" cx="92.8" cy="63.3" r="0.8"/>
		<circle class="st6" cx="95.4" cy="63.3" r="0.8"/>
		<circle class="st6" cx="97.9" cy="63.3" r="0.8"/>
		<rect x="100.9" y="62.5" class="st6" width="5.4" height="1.6"/>
	</g>
	<path class="st7" d="M143.3,168.3H92.7c-2,0-3.5-1.6-3.5-3.5V74.2c0-2,1.6-3.5,3.5-3.5h50.6c2,0,3.5,1.6,3.5,3.5v90.5
		C146.9,166.7,145.3,168.3,143.3,168.3z"/>
	<path class="st5" d="M144.8,166.8H94.1c-2,0-3.5-1.6-3.5-3.5V72.8c0-2,1.6-3.5,3.5-3.5h50.6c2,0,3.5,1.6,3.5,3.5v90.5
		C148.3,165.3,146.7,166.8,144.8,166.8z"/>
	<g>
		<path class="st7" d="M135.7,63.3l-8.4,8.5l0.3,0.4l-1.2,0.9c0,0-1.4,0.1-1.5,0.3l-8-6.1c-0.8-0.6-2-0.5-2.6,0.3l-8.9,11.6
			c-0.6,0.8-0.5,2,0.3,2.6l18.9,14.5c0.8,0.6,2,0.5,2.6-0.3l8.9-11.6c0.6-0.8,0.5-2-0.3-2.6l-8.1-6.3c0.2-0.3,0.4-0.7,0.6-1l0.7-0.7
			l0.8,0.9c0,0,8.6-7.1,10-10c0.6-1.3,0.8-4.4,0.9-6.8h-4.5L135.7,63.3z"/>
	</g>
	<g>
		
			<linearGradient id="SVGID_5_" gradientUnits="userSpaceOnUse" x1="313.8732" y1="2040.7683" x2="317.696" y2="2015.8007" gradientTransform="matrix(0.7733 0.6341 -0.6341 0.7733 1157.7242 -1684.3156)">
			<stop  offset="0" style="stop-color:#FF791F"/>
			<stop  offset="0.9976" style="stop-color:#FFA71F"/>
		</linearGradient>
		<path class="st8" d="M122.2,94.1l-15.8-13c-1.5-1.2-1.7-3.5-0.5-5l7.1-8.7c1.2-1.5,3.5-1.7,5-0.5l15.8,13c1.5,1.2,1.7,3.5,0.5,5
			l-7.1,8.7C125.9,95.1,123.7,95.4,122.2,94.1z"/>
		<path class="st5" d="M129.6,83.2c0.6-1.1,0.6-2.1-0.1-3c-0.3-0.4-0.6-0.7-0.9-1c-1.8-1.7-3.7-3.4-5.7-4.9c-1.3-1-2.5-2-3.9-2.9
			c-1.3-0.9-2.4-0.8-3.6,0.3c-1.9,1.8-3.5,3.7-4.9,5.9c-0.7,1.1-0.7,2.1,0,3c0.2,0.3,0.5,0.6,0.7,0.8c1.5,1.4,3.1,2.7,4.6,4.1
			c0.3,0.2,0.6,0.5,0.8,0.7c1.5,1.2,2.9,2.3,4.5,3.4c1.1,0.7,2.1,0.7,3.2-0.1c0.5-0.4,1-0.9,1.4-1.4C127.3,86.6,128.6,85,129.6,83.2
			z M116.8,81.5l3.6-4.4c0.7,1.8,1.3,3.5,2,5.3C120.5,82.2,118.7,81.9,116.8,81.5z"/>
		<path class="st9" d="M127.7,70.7l-1.8,1.3c0,0-1.4,0-1.5,0.3l0.9,0.7l-2.4,2.1c0,0,0,1.3,0.9,1.6c0.8,0.3,3.2-1.4,3.9-3.2l1.8-1.6
			L127.7,70.7z"/>
		<path class="st10" d="M122.1,42.2c-0.4,3,0.7,6,2.6,8.3c1.9,2.3,4.5,4,7.1,5.3c1.8,0.9,3.7,1.7,5.7,2c2,0.3,4.1,0,5.9-1
			c2.3-1.4,3.6-4.1,3.3-6.7c-0.3-2.6-2.2-5-4.7-5.8c-1.6-0.5-3.5-0.5-5-1.3c-1.1-0.6-1.9-1.6-2.6-2.6c-1.5-2-3.8-4.2-6.5-3.9
			C124.8,36.8,122.6,39.1,122.1,42.2z"/>
		<g>
			<path class="st10" d="M132.8,44c-0.2,1.5-1.2,2.6-1.2,2.6l0.2-2.4L132.8,44z"/>
			<g>
				<g>
					<path class="st9" d="M131.6,50c0,0-1.1,1.4-2.4,0.6c0,0-0.5-1.2-0.7-1.5c-0.2-0.3-2.2-0.2-3.3-2c-1.4-2.4-2.9-7.7,1.2-8.7
						c4.1-1,5.7,3.5,5.6,6.9C131.9,48.9,131.6,50,131.6,50z"/>
				</g>
			</g>
			<g>
				<g>
					
						<ellipse transform="matrix(0.8793 -0.4763 0.4763 0.8793 -4.7399 68.2414)" class="st9" cx="132.3" cy="43.5" rx="0.9" ry="0.9"/>
				</g>
			</g>
			<g>
				<g>
					
						<ellipse transform="matrix(0.8793 -0.4763 0.4763 0.8793 -6.9468 64.8316)" class="st9" cx="124.4" cy="46.1" rx="0.9" ry="0.9"/>
				</g>
			</g>
			<g>
				<path class="st11" d="M125.3,43.7C125.3,43.7,125.4,43.7,125.3,43.7c0.2-0.3,0.4-0.4,0.6-0.5c0.2-0.1,0.4-0.1,0.6,0
					c0.1,0,0.1,0,0.2-0.1c0-0.1,0-0.1-0.1-0.2c-0.3-0.1-0.6-0.1-0.8,0c-0.3,0.1-0.5,0.3-0.6,0.6C125.1,43.6,125.1,43.7,125.3,43.7
					C125.2,43.7,125.3,43.7,125.3,43.7z"/>
			</g>
			<g>
				<path class="st11" d="M127.7,43C127.7,43,127.7,43,127.7,43c0.2-0.3,0.4-0.4,0.7-0.5c0,0,0,0,0,0c0.2,0,0.5,0,0.7,0.2
					c0.1,0,0.1,0,0.2,0c0-0.1,0-0.1,0-0.2c-0.3-0.2-0.6-0.3-0.9-0.2c0,0,0,0,0,0c-0.3,0.1-0.6,0.2-0.8,0.5
					C127.5,42.9,127.5,43,127.7,43C127.6,43,127.6,43,127.7,43z"/>
			</g>
			<g>
				<path class="st11" d="M128,46.2c0.1,0,0.2-0.1,0.3-0.2c0.1-0.1,0.1-0.1,0-0.2c-0.1-0.1-0.1-0.1-0.2,0c-0.1,0.1-0.1,0.1-0.1,0.1
					c0,0,0,0-0.1-0.2l-0.1-1c0-0.1-0.1-0.1-0.2-0.1c-0.1,0-0.1,0.1-0.1,0.2l0.1,1c0,0.1,0,0.3,0.2,0.4
					C127.9,46.2,127.9,46.2,128,46.2z"/>
			</g>
			<g>
				<path class="st11" d="M128.2,47c0.1,0,0.2-0.1,0.3-0.1c0.4-0.2,0.8-0.6,0.9-1c0-0.1,0-0.1-0.1-0.2c-0.1,0-0.1,0-0.2,0.1
					c-0.1,0.4-0.4,0.7-0.8,0.9c-0.4,0.2-0.8,0.1-1.2,0c-0.1,0-0.1,0-0.2,0.1c0,0.1,0,0.1,0.1,0.2C127.4,47,127.8,47.1,128.2,47z"/>
			</g>
			<g>
				
					<ellipse transform="matrix(0.6969 -0.7172 0.7172 0.6969 6.3322 104.1995)" class="st11" cx="126.4" cy="44.6" rx="0.5" ry="0.5"/>
			</g>
			<g>
				<ellipse transform="matrix(0.6969 -0.7172 0.7172 0.6969 7.492 105.6824)" class="st11" cx="128.8" cy="44" rx="0.5" ry="0.5"/>
			</g>
			<path class="st10" d="M131.6,37.8c-1.4-1.4-5.3-1.2-7.3,1.2c-1.9,2.4,0,6.2,0,6.2l0.4,1c0,0,0.1-1.7-0.3-2.9c0,0,0.7-0.5,0.9-1.1
				c0.2-0.5,0.1-1,0.1-1c2.1,0.9,5.4,1.3,5.4,1.3l0.2,2.3c0.1,0,0.3,0,0.4,0c0-0.8,0-2,0.3-2.2c0,0,0.5-0.2,0.9-0.1
				C132.8,42.6,133,39.2,131.6,37.8z"/>
			<g>
				<path class="st11" d="M132,44c0.1,0,0.1-0.1,0.1-0.1c0-0.3-0.1-0.5-0.2-0.7c0-0.1-0.1-0.1-0.2-0.1c-0.1,0-0.1,0.1-0.1,0.2
					c0.1,0.2,0.1,0.4,0.1,0.7C131.8,44,131.9,44,132,44C131.9,44,132,44,132,44z"/>
			</g>
			<g>
				<path class="st11" d="M131.9,43.5C132,43.5,132,43.5,131.9,43.5c0.2-0.1,0.3-0.1,0.4-0.2c0.1,0,0.1-0.1,0.1-0.1
					c0-0.1-0.1-0.1-0.1-0.1c-0.2,0-0.4,0.1-0.5,0.2c-0.1,0-0.1,0.1,0,0.2C131.8,43.5,131.9,43.6,131.9,43.5z"/>
			</g>
		</g>
		<linearGradient id="SVGID_6_" gradientUnits="userSpaceOnUse" x1="124.8859" y1="82.4896" x2="129.4878" y2="52.4335">
			<stop  offset="0" style="stop-color:#FF791F"/>
			<stop  offset="0.9976" style="stop-color:#FFA71F"/>
		</linearGradient>
		<path class="st12" d="M140.6,52.9c0-1.4-1.1-2.5-2.5-2.7l-1-0.1l-4.3-0.3l-0.3-1.5l-5,1.4l0.8,1.4l-4,1.3l0,0l0,0
			c-1.4,0.5-8.6,2.6-7.6,5.5h9.8h0.4h9.2l-0.6,4.5l-8.6,8.2l2.4,3c0,0,8.8-6.8,10.3-9.7C140.7,61.8,140.7,56.1,140.6,52.9z"/>
		<path class="st9" d="M126.9,58c0,0,1.8,1.3,1.9,1.1c0.1-0.2-0.5-1.1-0.5-1.1h2.9c0,0-0.4-1.4-1.1-1.6c-0.7-0.2-2.9-0.5-2.9-0.5
			L126,56L126.9,58z"/>
		<g>
			<path class="st11" d="M136.2,57.6C136.2,57.6,136.2,57.6,136.2,57.6c-0.1,0-0.1-0.1-0.1-0.1l0.5-4.5c0-0.1,0.1-0.1,0.1-0.1
				c0.1,0,0.1,0.1,0.1,0.1l-0.5,4.5C136.3,57.6,136.3,57.6,136.2,57.6z"/>
		</g>
		<g>
			<path class="st11" d="M125.7,55.4h-5.8c-0.1,0-0.1-0.1-0.1-0.1c0-0.1,0.1-0.1,0.1-0.1h5.7c0.1-1.1,1.3-2.4,1.3-2.5
				c0-0.1,0.1-0.1,0.2,0c0.1,0,0.1,0.1,0,0.2c0,0-1.2,1.4-1.3,2.4C125.9,55.3,125.8,55.4,125.7,55.4z"/>
		</g>
	</g>
	<g id="HCjH9v.tif_5_">
		<g>
			<path class="st13" d="M61.3,56.1c-0.5,0-1-0.2-1.5-0.4c0.1,0.1,0.1,0.2,0.2,0.3c0.1,0.1,0.1,0.2,0.2,0.3c0.1,0.1,0.2,0.2,0.2,0.3
				c0.2,0.2,0.4,0.4,0.6,0.6c0.1,0,0.1,0.1,0.1,0.2c0,1.8,0.5,3.4,1.5,4.9c1.1,1.6,2.6,2.6,4.5,3.1c1,0.2,2,0.3,3,0.1
				c1.1-0.2,2.2-0.5,3.2-1.2c-1.5,0.1-2.9-0.2-4.1-1.2c0.6,0,1.1-0.2,1.6-0.6c0.5-0.4,0.8-0.8,1-1.4c-0.4,0.1-0.8,0.1-1.2-0.1
				c0.4-0.1,0.7-0.2,1-0.4c0.8-0.5,1.2-1.3,1.2-2.2c0-0.1,0-0.1-0.1-0.1c-0.3,0.2-0.6,0.2-0.9,0.3c-0.1,0-0.1,0-0.2,0
				c0.6-0.4,1-1,1.2-1.7c0.2-0.7,0.1-1.4-0.3-2c-0.1,0-0.1,0.1-0.2,0.2c-1.1,1.3-2.5,2.1-4.1,2.5c-0.4,0.1-0.9,0.2-1.4,0.2
				c-0.1,0-0.1,0-0.1-0.1c0.3-1.4-0.5-2.8-1.9-3.2c-1-0.3-2-0.1-2.8,0.6c-0.1,0.1-0.2,0.1-0.3,0.1c-0.3-0.1-0.5-0.2-0.8-0.3
				c-0.3-0.1-0.5-0.2-0.8-0.4C60.4,55.3,60.8,55.8,61.3,56.1z"/>
		</g>
	</g>
	<path class="st13" d="M176.5,94.6h-8.4c-3,0-5.4-2.4-5.4-5.4v-8.4c0-3,2.4-5.4,5.4-5.4h8.4c3,0,5.4,2.4,5.4,5.4v8.4
		C181.9,92.2,179.5,94.6,176.5,94.6z M168.1,77.2c-2,0-3.6,1.6-3.6,3.6v8.4c0,2,1.6,3.6,3.6,3.6h8.4c2,0,3.6-1.6,3.6-3.6v-8.4
		c0-2-1.6-3.6-3.6-3.6H168.1z M172.3,89.9c-2.7,0-4.9-2.2-4.9-4.9c0-2.7,2.2-4.9,4.9-4.9c2.7,0,4.9,2.2,4.9,4.9
		C177.2,87.7,175,89.9,172.3,89.9z M172.3,81.9c-1.7,0-3.1,1.4-3.1,3.1c0,1.7,1.4,3.1,3.1,3.1c1.7,0,3.1-1.4,3.1-3.1
		C175.5,83.3,174.1,81.9,172.3,81.9z M177.4,78.7c-0.6,0-1.2,0.5-1.2,1.2c0,0.6,0.5,1.2,1.2,1.2c0.6,0,1.2-0.5,1.2-1.2
		C178.6,79.2,178.1,78.7,177.4,78.7z"/>
	<path class="st7" d="M102,74.1H82.9v68.3H102c1,0,1.9-0.8,1.9-1.9v-3.4v-12.8v-5.8v0v0v-4.9v0V79.9v-0.6v-3.4
		C103.9,74.9,103,74.1,102,74.1z"/>
	<g>
		<linearGradient id="SVGID_7_" gradientUnits="userSpaceOnUse" x1="82.8782" y1="78.8815" x2="82.8782" y2="78.3653">
			<stop  offset="0.3817" style="stop-color:#DBDBDB;stop-opacity:0"/>
			<stop  offset="1" style="stop-color:#DBDBDB"/>
		</linearGradient>
		<polygon class="st14" points="62.8,78.4 103,78.4 103,79 62.8,79 		"/>
		<g>
			<linearGradient id="SVGID_8_" gradientUnits="userSpaceOnUse" x1="82.8782" y1="142.6567" x2="82.8782" y2="124.0851">
				<stop  offset="0" style="stop-color:#FF791F"/>
				<stop  offset="0.9976" style="stop-color:#FFA71F"/>
			</linearGradient>
			<rect x="62.8" y="123.4" class="st15" width="40.2" height="12.8"/>
			<linearGradient id="SVGID_9_" gradientUnits="userSpaceOnUse" x1="62.7896" y1="120.4631" x2="102.9669" y2="120.4631">
				<stop  offset="0.2482" style="stop-color:#FFDC89"/>
				<stop  offset="0.9888" style="stop-color:#FFF2A9"/>
			</linearGradient>
			<rect x="62.8" y="117.5" class="st16" width="40.2" height="5.9"/>
			<linearGradient id="SVGID_10_" gradientUnits="userSpaceOnUse" x1="61.7316" y1="124.9031" x2="68.1236" y2="117.7858">
				<stop  offset="0" style="stop-color:#FF791F"/>
				<stop  offset="0.9976" style="stop-color:#FFA71F"/>
			</linearGradient>
			<path class="st17" d="M65.7,122.1L65.7,122.1c-0.9,0-1.7-0.8-1.7-1.7l0,0c0-0.9,0.8-1.7,1.7-1.7l0,0c0.9,0,1.7,0.8,1.7,1.7l0,0
				C67.4,121.4,66.6,122.1,65.7,122.1z"/>
			<linearGradient id="SVGID_11_" gradientUnits="userSpaceOnUse" x1="86.1181" y1="136.1306" x2="105.1675" y2="114.6885">
				<stop  offset="0" style="stop-color:#FF791F"/>
				<stop  offset="0.9976" style="stop-color:#FFA71F"/>
			</linearGradient>
			<path class="st18" d="M100.2,120.5c0,0.1-0.1,0.2-0.2,0.2c-0.1,0-0.2-0.1-0.2-0.2c0-0.1,0.1-0.2,0.2-0.2
				C100.1,120.3,100.2,120.4,100.2,120.5z M100,121.1c-0.1,0-0.2,0.1-0.2,0.2s0.1,0.2,0.2,0.2c0.1,0,0.2-0.1,0.2-0.2
				S100.1,121.1,100,121.1z M100,119.5c-0.1,0-0.2,0.1-0.2,0.2c0,0.1,0.1,0.2,0.2,0.2c0.1,0,0.2-0.1,0.2-0.2
				C100.2,119.6,100.1,119.5,100,119.5z"/>
			<g>
				<linearGradient id="SVGID_12_" gradientUnits="userSpaceOnUse" x1="62.293" y1="149.8484" x2="98.9075" y2="128.9639">
					<stop  offset="0.2482" style="stop-color:#FFDC89"/>
					<stop  offset="0.9888" style="stop-color:#FFF2A9"/>
				</linearGradient>
				<path class="st19" d="M99.4,141.5H66.3c-2,0-3.5-1.6-3.5-3.5v-1.7H103v1.7C103,139.9,101.4,141.5,99.4,141.5z"/>
				<linearGradient id="SVGID_13_" gradientUnits="userSpaceOnUse" x1="65.7251" y1="150.8262" x2="104.7438" y2="136.7463">
					<stop  offset="0" style="stop-color:#FF791F"/>
					<stop  offset="0.9976" style="stop-color:#FFA71F"/>
				</linearGradient>
				<circle class="st20" cx="98.9" cy="138.9" r="0.9"/>
				<linearGradient id="SVGID_14_" gradientUnits="userSpaceOnUse" x1="63.8786" y1="145.709" x2="102.897" y2="131.6292">
					<stop  offset="0" style="stop-color:#FF791F"/>
					<stop  offset="0.9976" style="stop-color:#FFA71F"/>
				</linearGradient>
				<path class="st21" d="M83.5,137.6h-1.2c-0.4,0-0.7,0.3-0.7,0.7v1.2c0,0.4,0.3,0.7,0.7,0.7h1.2c0.4,0,0.7-0.3,0.7-0.7v-1.2
					C84.1,137.9,83.8,137.6,83.5,137.6z M83.3,138.9H83v0.4h-0.2v-0.4h-0.4v-0.2h0.4v-0.4H83v0.4h0.4V138.9z"/>
				<linearGradient id="SVGID_15_" gradientUnits="userSpaceOnUse" x1="64.7628" y1="148.1609" x2="103.7822" y2="134.0808">
					<stop  offset="0" style="stop-color:#FF791F"/>
					<stop  offset="0.9976" style="stop-color:#FFA71F"/>
				</linearGradient>
				<path class="st22" d="M91.8,138.1c-0.2-0.2-0.6-0.2-0.8,0l-0.2,0.2l-0.2-0.2c-0.2-0.2-0.6-0.2-0.8,0c-0.2,0.2-0.2,0.6,0,0.8
					l0.9,0.9l0.9-0.9C92,138.6,92,138.3,91.8,138.1z"/>
				<linearGradient id="SVGID_16_" gradientUnits="userSpaceOnUse" x1="62.0833" y1="140.7345" x2="101.1019" y2="126.6547">
					<stop  offset="0" style="stop-color:#FF791F"/>
					<stop  offset="0.9976" style="stop-color:#FFA71F"/>
				</linearGradient>
				<path class="st23" d="M66.8,137.9l-0.9,0.9c0,0,0,0,0,0.1v0.8c0,0,0,0.1,0.1,0.1h0.6c0,0,0.1,0,0.1-0.1v-0.4
					c0-0.1,0.1-0.2,0.2-0.2l0,0c0.1,0,0.2,0.1,0.2,0.2v0.4c0,0,0,0.1,0.1,0.1h0.6c0,0,0.1,0,0.1-0.1v-0.8c0,0,0,0,0-0.1l-0.9-0.9
					C66.9,137.9,66.8,137.9,66.8,137.9z"/>
				<linearGradient id="SVGID_17_" gradientUnits="userSpaceOnUse" x1="62.9824" y1="143.2262" x2="102.0013" y2="129.1463">
					<stop  offset="0" style="stop-color:#FF791F"/>
					<stop  offset="0.9976" style="stop-color:#FFA71F"/>
				</linearGradient>
				<path class="st24" d="M75.8,139.6l-0.4-0.4c0.1-0.1,0.1-0.3,0.1-0.5c0-0.5-0.4-0.8-0.8-0.8c-0.5,0-0.8,0.4-0.8,0.8
					c0,0.5,0.4,0.8,0.8,0.8c0.2,0,0.3-0.1,0.5-0.1l0.4,0.4L75.8,139.6z M74.7,139.3c-0.3,0-0.5-0.2-0.5-0.5c0-0.3,0.2-0.5,0.5-0.5
					c0.3,0,0.5,0.2,0.5,0.5C75.3,139,75,139.3,74.7,139.3z"/>
			</g>
			<path class="st25" d="M74.5,121.1h-5.3c-0.3,0-0.6-0.3-0.6-0.6l0,0c0-0.3,0.3-0.6,0.6-0.6h5.3c0.3,0,0.6,0.3,0.6,0.6l0,0
				C75.2,120.8,74.9,121.1,74.5,121.1z"/>
		</g>
		<g>
			<rect x="62.8" y="117.5" class="st26" width="40.2" height="0"/>
		</g>
		<g>
			<linearGradient id="SVGID_18_" gradientUnits="userSpaceOnUse" x1="67.2867" y1="68.1674" x2="90.0131" y2="80.3143">
				<stop  offset="0" style="stop-color:#FF791F"/>
				<stop  offset="0.9976" style="stop-color:#FFA71F"/>
			</linearGradient>
			<path class="st27" d="M62.8,78.4H103v-1.7c0-2-1.6-3.5-3.5-3.5H66.3c-2,0-3.5,1.6-3.5,3.5V78.4z"/>
			<rect x="64.4" y="74.8" class="st28" width="7.7" height="1.8"/>
			<polygon class="st9" points="73.9,75.4 74.4,75.8 74.9,75.4 			"/>
			<circle class="st9" cx="100.8" cy="75.8" r="0.2"/>
			<circle class="st9" cx="100.8" cy="76.6" r="0.2"/>
			<circle class="st9" cx="100.8" cy="75" r="0.2"/>
			<g>
				<path class="st9" d="M96.6,75.8c0.3,0,0.6-0.3,0.6-0.6c0-0.3-0.3-0.6-0.6-0.6c-0.3,0-0.6,0.3-0.6,0.6
					C96,75.6,96.3,75.8,96.6,75.8z M96.6,74.9c0.2,0,0.3,0.1,0.3,0.3s-0.1,0.3-0.3,0.3c-0.2,0-0.3-0.1-0.3-0.3S96.4,74.9,96.6,74.9z
					"/>
				<path class="st9" d="M97.1,76h-1c-0.3,0-0.6,0.3-0.6,0.6v0.1c0,0.1,0.1,0.1,0.1,0.1c0.1,0,0.1-0.1,0.1-0.1v-0.1
					c0-0.2,0.1-0.3,0.3-0.3h1c0.2,0,0.3,0.1,0.3,0.3v0.1c0,0.1,0.1,0.1,0.1,0.1s0.1-0.1,0.1-0.1v-0.1C97.7,76.3,97.4,76,97.1,76z"/>
				<path class="st9" d="M95.7,75.9v-0.1h0.1c0.1,0,0.1-0.1,0.1-0.1c0-0.1-0.1-0.1-0.1-0.1h-0.1v-0.1c0-0.1-0.1-0.1-0.1-0.1
					s-0.1,0.1-0.1,0.1v0.1h-0.1c-0.1,0-0.1,0.1-0.1,0.1c0,0.1,0.1,0.1,0.1,0.1h0.1v0.1c0,0.1,0.1,0.1,0.1,0.1S95.7,76,95.7,75.9z"/>
			</g>
			<g>
				<path class="st9" d="M87.3,76.9v-2c0-0.1,0.1-0.3,0.3-0.3h1.2c0.1,0,0.3,0.1,0.3,0.3v2l-0.9-0.8L87.3,76.9z M88.1,75.8l0.6,0.5
					V75h-1.2v1.3L88.1,75.8z"/>
			</g>
			<g>
				<path class="st9" d="M93.4,75.1h-1.2c-0.1,0-0.1-0.1-0.1-0.1c0-0.1,0.1-0.1,0.1-0.1h1.2c0.1,0,0.1,0.1,0.1,0.1
					C93.5,75.1,93.5,75.1,93.4,75.1z"/>
			</g>
			<g>
				<path class="st9" d="M93.4,75.8h-1.2c-0.1,0-0.1-0.1-0.1-0.1c0-0.1,0.1-0.1,0.1-0.1h1.2c0.1,0,0.1,0.1,0.1,0.1
					C93.5,75.8,93.5,75.8,93.4,75.8z"/>
			</g>
			<g>
				<path class="st9" d="M93.4,76.6h-1.2c-0.1,0-0.1-0.1-0.1-0.1s0.1-0.1,0.1-0.1h1.2c0.1,0,0.1,0.1,0.1,0.1S93.5,76.6,93.4,76.6z"
					/>
			</g>
			<g>
				<polygon class="st9" points="91.7,74.7 91.7,74.9 91.9,74.9 91.8,75 91.8,75.2 91.7,75.1 91.5,75.2 91.5,75 91.4,74.9 
					91.6,74.9 				"/>
			</g>
			<g>
				<polygon class="st9" points="91.7,75.5 91.7,75.6 91.9,75.6 91.8,75.8 91.8,75.9 91.7,75.9 91.5,75.9 91.5,75.8 91.4,75.6 
					91.6,75.6 				"/>
			</g>
			<g>
				<polygon class="st9" points="91.7,76.2 91.7,76.4 91.9,76.4 91.8,76.5 91.8,76.7 91.7,76.6 91.5,76.7 91.5,76.5 91.4,76.4 
					91.6,76.4 				"/>
			</g>
			<g>
				<path class="st9" d="M83.9,76.8c-0.3,0-0.7-0.2-0.9-0.4c0-0.1,0-0.2,0-0.2c0.1,0,0.2,0,0.2,0c0.1,0.2,0.4,0.3,0.6,0.3
					c0.4,0,0.8-0.4,0.8-0.8c0-0.4-0.4-0.8-0.8-0.8c-0.3,0-0.6,0.2-0.7,0.5c0,0.1-0.1,0.1-0.2,0.1c-0.1,0-0.1-0.1-0.1-0.2
					c0.2-0.4,0.6-0.7,1-0.7c0.6,0,1.1,0.5,1.1,1.1C84.9,76.3,84.5,76.8,83.9,76.8z"/>
			</g>
			<g>
				<path class="st9" d="M83.6,76.1c0,0-0.1,0-0.1,0c-0.1-0.1,0-0.1,0-0.2l0.2-0.2v-0.5c0-0.1,0.1-0.1,0.1-0.1
					c0.1,0,0.1,0.1,0.1,0.1v0.7L83.6,76.1C83.7,76.1,83.7,76.1,83.6,76.1z"/>
			</g>
		</g>
		<g>
			<linearGradient id="SVGID_19_" gradientUnits="userSpaceOnUse" x1="66.5886" y1="113.3854" x2="94.2468" y2="87.2041">
				<stop  offset="0" style="stop-color:#FFF5DE"/>
				<stop  offset="1" style="stop-color:#FFFFFF"/>
			</linearGradient>
			<rect x="62.8" y="78.4" class="st29" width="40.2" height="39.1"/>
			<path class="st25" d="M100.5,89.3H77.1c-0.3,0-0.6-0.3-0.6-0.6V87c0-0.3,0.3-0.6,0.6-0.6h23.4c0.3,0,0.6,0.3,0.6,0.6v1.8
				C101.1,89,100.9,89.3,100.5,89.3z"/>
			<g>
				<circle class="st25" cx="69.6" cy="85.2" r="4.8"/>
				<g>
					<circle class="st30" cx="73.1" cy="88.7" r="1.2"/>
					<circle class="st28" cx="73.1" cy="88.7" r="1"/>
					<polygon class="st30" points="73.2,88.6 73.2,88.2 73,88.2 73,88.6 72.6,88.6 72.6,88.8 73,88.8 73,89.3 73.2,89.3 73.2,88.8 
						73.7,88.8 73.7,88.6 					"/>
				</g>
			</g>
			<g>
				<circle class="st25" cx="76.7" cy="104.9" r="3.1"/>
				<circle class="st25" cx="85.9" cy="104.9" r="3.1"/>
				<circle class="st25" cx="95.1" cy="104.9" r="3.1"/>
				<g>
					<circle class="st25" cx="67.6" cy="104.9" r="3.1"/>
					<polygon class="st30" points="68.6,104.8 67.7,104.8 67.7,103.9 67.5,103.9 67.5,104.8 66.6,104.8 66.6,105 67.5,105 
						67.5,105.9 67.7,105.9 67.7,105 68.6,105 					"/>
				</g>
			</g>
			<g class="st31">
				<rect x="62.8" y="112.6" class="st9" width="40.2" height="0"/>
			</g>
			<g class="st31">
				<rect x="77" y="113.9" class="st9" width="0.3" height="0.3"/>
				<rect x="77" y="114.7" class="st9" width="0.3" height="0.3"/>
				<rect x="77" y="115.5" class="st9" width="0.3" height="0.3"/>
				<g>
					<rect x="77.4" y="114" class="st9" width="1.4" height="0.1"/>
				</g>
				<g>
					<rect x="77.4" y="114.8" class="st9" width="1.4" height="0.1"/>
				</g>
				<g>
					<rect x="77.4" y="115.6" class="st9" width="1.4" height="0.1"/>
				</g>
				<g>
					<path class="st9" d="M87.9,115.8c-0.6,0-1-0.4-1-1c0-0.6,0.4-1,1-1c0.6,0,1,0.4,1,1C88.9,115.4,88.4,115.8,87.9,115.8z
						 M87.9,114c-0.5,0-0.9,0.4-0.9,0.9c0,0.5,0.4,0.9,0.9,0.9c0.5,0,0.9-0.4,0.9-0.9C88.7,114.4,88.3,114,87.9,114z"/>
				</g>
				<g>
					<path class="st9" d="M98.7,115.8h-1.8c-0.1,0-0.1-0.1-0.1-0.1v-1.5c0-0.1,0.1-0.1,0.1-0.1h0.6l0.2-0.2c0,0,0.1,0,0.2,0l0.2,0.2
						h0.6c0.1,0,0.1,0.1,0.1,0.1v1.5C98.8,115.8,98.8,115.8,98.7,115.8z M97,115.7h1.7v-1.4h-0.6c0,0-0.1,0-0.1,0l-0.2-0.2l-0.2,0.2
						c0,0,0,0-0.1,0H97V115.7z"/>
				</g>
				<g>
					<path class="st9" d="M97.8,115c-0.2,0-0.3-0.1-0.3-0.3c0-0.2,0.1-0.3,0.3-0.3c0.2,0,0.3,0.1,0.3,0.3
						C98.1,114.9,98,115,97.8,115z M97.8,114.6c-0.1,0-0.1,0.1-0.1,0.1c0,0.1,0.1,0.1,0.1,0.1c0.1,0,0.1-0.1,0.1-0.1
						C98,114.7,97.9,114.6,97.8,114.6z"/>
				</g>
				<g>
					<path class="st9" d="M98.3,115.5h-0.1v-0.2c0,0,0,0,0,0h-0.6c0,0,0,0,0,0v0.2h-0.1v-0.2c0-0.1,0.1-0.2,0.2-0.2h0.6
						c0.1,0,0.2,0.1,0.2,0.2V115.5z"/>
				</g>
				<g>
					<path class="st9" d="M87.6,115.3C87.6,115.3,87.6,115.3,87.6,115.3C87.5,115.2,87.5,115.2,87.6,115.3l-0.1-0.3l-0.2-0.2
						c0,0,0,0,0-0.1c0,0,0,0,0.1,0l0.2-0.1l0.1-0.2c0,0,0,0,0.1,0c0,0,0.1,0,0.1,0l0.1,0.2l0.2,0.1c0,0,0,0,0.1,0c0,0,0,0.1,0,0.1
						l-0.2,0.2l0,0.2c0,0,0,0.1,0,0.1c0,0,0,0-0.1,0l-0.2-0.1L87.6,115.3C87.6,115.3,87.6,115.3,87.6,115.3z M87.6,114.8l0.1,0.1
						c0,0,0,0,0,0.1l0,0.1l0.1-0.1c0,0,0,0,0.1,0l0.1,0.1l0-0.1c0,0,0,0,0-0.1l0.1-0.1l-0.1,0c0,0,0,0,0,0l-0.1-0.1l-0.1,0.1
						c0,0,0,0,0,0L87.6,114.8z"/>
				</g>
				<g>
					<rect x="67" y="113.9" class="st9" width="0.3" height="0.3"/>
					<rect x="67.8" y="113.9" class="st9" width="0.3" height="0.3"/>
					<rect x="68.6" y="113.9" class="st9" width="0.3" height="0.3"/>
					<rect x="67" y="114.7" class="st9" width="0.3" height="0.3"/>
					<rect x="67.8" y="114.7" class="st9" width="0.3" height="0.3"/>
					<rect x="68.6" y="114.7" class="st9" width="0.3" height="0.3"/>
					<rect x="67" y="115.5" class="st9" width="0.3" height="0.3"/>
					<rect x="67.8" y="115.5" class="st9" width="0.3" height="0.3"/>
					<rect x="68.6" y="115.5" class="st9" width="0.3" height="0.3"/>
				</g>
			</g>
		</g>
		<g>
			<path class="st28" d="M70.4,93.9H65c-0.3,0-0.5-0.2-0.5-0.5l0,0c0-0.3,0.2-0.5,0.5-0.5h5.5c0.3,0,0.5,0.2,0.5,0.5l0,0
				C70.9,93.7,70.7,93.9,70.4,93.9z"/>
			<path class="st28" d="M81.2,96H65c-0.3,0-0.5-0.2-0.5-0.5l0,0c0-0.3,0.2-0.5,0.5-0.5h16.2c0.3,0,0.5,0.2,0.5,0.5l0,0
				C81.7,95.8,81.5,96,81.2,96z"/>
			<path class="st28" d="M81.2,98.1H65c-0.3,0-0.5-0.2-0.5-0.5l0,0c0-0.3,0.2-0.5,0.5-0.5h16.2c0.3,0,0.5,0.2,0.5,0.5l0,0
				C81.7,97.8,81.5,98.1,81.2,98.1z"/>
			<path class="st28" d="M74,100.2h-9.1c-0.2,0-0.4-0.2-0.4-0.4v-0.2c0-0.2,0.2-0.4,0.4-0.4H74c0.2,0,0.4,0.2,0.4,0.4v0.2
				C74.4,100,74.2,100.2,74,100.2z"/>
		</g>
		<path class="st25" d="M69.1,110.1h-3c-0.2,0-0.4-0.2-0.4-0.4l0,0c0-0.2,0.2-0.4,0.4-0.4h3c0.2,0,0.4,0.2,0.4,0.4l0,0
			C69.4,109.9,69.3,110.1,69.1,110.1z"/>
		<path class="st25" d="M78.3,110.1h-3c-0.2,0-0.4-0.2-0.4-0.4l0,0c0-0.2,0.2-0.4,0.4-0.4h3c0.2,0,0.4,0.2,0.4,0.4l0,0
			C78.6,109.9,78.5,110.1,78.3,110.1z"/>
		<path class="st25" d="M87.4,110.1h-3c-0.2,0-0.4-0.2-0.4-0.4l0,0c0-0.2,0.2-0.4,0.4-0.4h3c0.2,0,0.4,0.2,0.4,0.4l0,0
			C87.8,109.9,87.6,110.1,87.4,110.1z"/>
		<path class="st25" d="M96.6,110.1h-3c-0.2,0-0.4-0.2-0.4-0.4l0,0c0-0.2,0.2-0.4,0.4-0.4h3c0.2,0,0.4,0.2,0.4,0.4l0,0
			C97,109.9,96.8,110.1,96.6,110.1z"/>
		<g class="st31">
			<g>
				<path class="st9" d="M82,83.1h-1.1c-0.5,0-1-0.4-1-1l0,0c0-0.5,0.4-1,1-1H82c0.5,0,1,0.4,1,1l0,0C82.9,82.7,82.5,83.1,82,83.1z"
					/>
				<path class="st9" d="M80.2,83.6h2.5c0.3,0,0.6,0.3,0.6,0.6l0,0c0,0.3-0.3,0.6-0.6,0.6h-2.5c-0.3,0-0.6-0.3-0.6-0.6l0,0
					C79.6,83.9,79.9,83.6,80.2,83.6z"/>
			</g>
			<g>
				<path class="st9" d="M89.6,83.1h-1.1c-0.5,0-1-0.4-1-1l0,0c0-0.5,0.4-1,1-1h1.1c0.5,0,1,0.4,1,1l0,0
					C90.5,82.7,90.1,83.1,89.6,83.1z"/>
				<path class="st9" d="M87.8,83.6h2.5c0.3,0,0.6,0.3,0.6,0.6l0,0c0,0.3-0.3,0.6-0.6,0.6h-2.5c-0.3,0-0.6-0.3-0.6-0.6l0,0
					C87.2,83.9,87.5,83.6,87.8,83.6z"/>
			</g>
			<g>
				<path class="st9" d="M96.8,83.1h-1.1c-0.5,0-1-0.4-1-1l0,0c0-0.5,0.4-1,1-1h1.1c0.5,0,1,0.4,1,1l0,0
					C97.7,82.7,97.3,83.1,96.8,83.1z"/>
				<path class="st9" d="M95,83.6h2.5c0.3,0,0.6,0.3,0.6,0.6l0,0c0,0.3-0.3,0.6-0.6,0.6H95c-0.3,0-0.6-0.3-0.6-0.6l0,0
					C94.4,83.9,94.7,83.6,95,83.6z"/>
			</g>
		</g>
	</g>
	<g>
		<linearGradient id="SVGID_20_" gradientUnits="userSpaceOnUse" x1="160.1378" y1="215.8635" x2="185.2207" y2="182.7541">
			<stop  offset="0" style="stop-color:#FF791F"/>
			<stop  offset="1" style="stop-color:#FFC15B"/>
		</linearGradient>
		<polygon class="st32" points="175.6,176.2 192.2,176.2 192.2,192.8 175.6,192.8 		"/>
		<path class="st33" d="M190.9,177.9c-0.1-0.1-0.2-0.1-0.3-0.1c-0.2,0-0.3,0.1-0.4,0.2c0-0.1,0-0.2,0-0.3H189l-0.1,0.5h0.4l-0.7,1.2
			l0.2-0.8h-0.5l0.2-0.9h-1c0,0.1,0,0.2,0,0.3c-0.1-0.1-0.3-0.2-0.4-0.2c-0.1,0-0.2,0-0.3,0.1c-0.3,0.3,0,1.3,0.4,1.9
			c0.2,0.2,0.4,0.4,0.7,0.4c0.1,0,0.3,0,0.4-0.1c0.3,0.3,0.6,0.3,0.6,0.3l0,1.4c-0.6,0-0.5,0.3-0.5,0.3h1.4c0,0,0-0.3-0.5-0.3l0-1.4
			c0,0,0.3,0,0.6-0.3c0.1,0.1,0.2,0.1,0.4,0.1c0.2,0,0.4-0.1,0.7-0.4C190.9,179.2,191.2,178.2,190.9,177.9z M187.2,179.6
			c-0.4-0.4-0.7-1.4-0.4-1.6c0.1-0.1,0.1-0.1,0.2-0.1c0.2,0,0.4,0.2,0.5,0.3c0.1,0.8,0.3,1.3,0.5,1.6
			C187.7,180,187.4,179.8,187.2,179.6z M190.3,179.6c-0.2,0.2-0.5,0.4-0.8,0.2c0.2-0.3,0.4-0.8,0.5-1.6c0.1-0.1,0.3-0.3,0.5-0.3
			c0.1,0,0.1,0,0.2,0.1C191,178.3,190.7,179.2,190.3,179.6z"/>
		
			<linearGradient id="SVGID_21_" gradientUnits="userSpaceOnUse" x1="5831.2109" y1="195.4483" x2="5847.5151" y2="176.3805" gradientTransform="matrix(-1 0 0 1 6024.459 0)">
			<stop  offset="0.2482" style="stop-color:#FFDC89"/>
			<stop  offset="0.9888" style="stop-color:#FFF2A9"/>
		</linearGradient>
		<polygon class="st34" points="182.8,176.2 185,176.2 185,192.8 182.8,192.8 		"/>
		
			<linearGradient id="SVGID_22_" gradientUnits="userSpaceOnUse" x1="5845.8887" y1="189.5862" x2="5855.377" y2="179.8607" gradientTransform="matrix(-1 0 0 1 6024.459 0)">
			<stop  offset="0" style="stop-color:#FF791F"/>
			<stop  offset="0.9976" style="stop-color:#FFA71F"/>
		</linearGradient>
		<polygon class="st35" points="171.6,176.2 175.6,176.2 175.6,192.8 171.6,192.8 		"/>
		
			<rect x="176.6" y="190.4" transform="matrix(-1 -1.224647e-16 1.224647e-16 -1 356.7769 382.3899)" class="st33" width="3.7" height="1.6"/>
	</g>
	<g>
		<linearGradient id="SVGID_23_" gradientUnits="userSpaceOnUse" x1="142.0923" y1="203.2401" x2="167.9779" y2="173.5419">
			<stop  offset="0" style="stop-color:#FF791F"/>
			<stop  offset="1" style="stop-color:#FFC15B"/>
		</linearGradient>
		<polygon class="st36" points="149.7,169.3 173.2,169.3 173.2,192.8 149.7,192.8 		"/>
		<path class="st33" d="M171.4,171.6c-0.1-0.1-0.3-0.2-0.5-0.2c-0.2,0-0.4,0.2-0.6,0.3c0-0.2,0-0.3,0-0.5h-1.5l-0.2,0.7h0.5l-1,1.6
			l0.3-1.1h-0.8l0.3-1.3h-1.5c0,0.2,0,0.3,0,0.5c-0.2-0.1-0.4-0.3-0.6-0.3c-0.2,0-0.3,0-0.5,0.2c-0.5,0.5-0.1,1.9,0.6,2.6
			c0.3,0.3,0.6,0.5,0.9,0.5c0.2,0,0.4-0.1,0.5-0.2c0.4,0.4,0.8,0.4,0.8,0.4l-0.1,1.9c-0.8,0-0.8,0.4-0.8,0.4h2c0,0,0-0.4-0.8-0.4
			l-0.1-1.9c0,0,0.4,0,0.8-0.4c0.2,0.1,0.3,0.2,0.5,0.2c0.3,0,0.6-0.2,0.9-0.5C171.5,173.5,171.9,172.1,171.4,171.6z M166.2,174.1
			c-0.5-0.6-0.9-1.9-0.6-2.3c0.1-0.1,0.2-0.1,0.3-0.1c0.2,0,0.5,0.3,0.7,0.4c0.1,1.1,0.4,1.8,0.7,2.3
			C166.8,174.7,166.5,174.4,166.2,174.1z M170.6,174.1c-0.3,0.3-0.7,0.6-1.1,0.3c0.3-0.4,0.6-1.1,0.7-2.3c0.2-0.2,0.4-0.4,0.7-0.4
			c0.1,0,0.2,0,0.3,0.1C171.6,172.1,171.2,173.4,170.6,174.1z"/>
		
			<linearGradient id="SVGID_24_" gradientUnits="userSpaceOnUse" x1="5849.6836" y1="196.578" x2="5872.8789" y2="169.4516" gradientTransform="matrix(-1 0 0 1 6024.459 0)">
			<stop  offset="0.2482" style="stop-color:#FFDC89"/>
			<stop  offset="0.9888" style="stop-color:#FFF2A9"/>
		</linearGradient>
		<polygon class="st37" points="159.9,169.3 163.1,169.3 163.1,192.8 159.9,192.8 		"/>
		
			<linearGradient id="SVGID_25_" gradientUnits="userSpaceOnUse" x1="5870.5649" y1="188.2384" x2="5884.0635" y2="174.4026" gradientTransform="matrix(-1 0 0 1 6024.459 0)">
			<stop  offset="0" style="stop-color:#FF791F"/>
			<stop  offset="0.9976" style="stop-color:#FFA71F"/>
		</linearGradient>
		<polygon class="st38" points="144,169.3 149.7,169.3 149.7,192.8 144,192.8 		"/>
		
			<rect x="151" y="189.4" transform="matrix(-1 -1.224647e-16 1.224647e-16 -1 307.2713 381.0541)" class="st33" width="5.2" height="2.3"/>
	</g>
	<g>
		<g>
			<g>
				<path class="st39" d="M72.2,163.8h-2v-2c0-2.6-2.1-4.7-4.7-4.7c-2.6,0-4.7,2.1-4.7,4.7v2h-2v-2c0-3.7,3-6.7,6.7-6.7
					c3.7,0,6.7,3,6.7,6.7V163.8z"/>
			</g>
			<rect x="50.8" y="161.4" class="st9" width="20.4" height="31.3"/>
			
				<rect x="71.2" y="161.4" transform="matrix(-1 -1.224647e-16 1.224647e-16 -1 146.8608 354.2016)" class="st9" width="4.5" height="31.3"/>
			<linearGradient id="SVGID_26_" gradientUnits="userSpaceOnUse" x1="61.2046" y1="198.9493" x2="78.7286" y2="164.4741">
				<stop  offset="0" style="stop-color:#FF791F"/>
				<stop  offset="1" style="stop-color:#FFC15B"/>
			</linearGradient>
			<polygon class="st40" points="71.2,192.8 73.4,192.8 73.4,161.4 71.2,161.4 			"/>
			<polygon class="st33" points="71.2,192.8 73.4,190.7 75.7,192.8 			"/>
			<g>
				<path class="st41" d="M66.7,164.8c-0.6,0-1-0.4-1-1v-2c0-2.6-2.1-4.7-4.7-4.7c-2.6,0-4.7,2.1-4.7,4.7v2c0,0.6-0.4,1-1,1
					c-0.6,0-1-0.4-1-1v-2c0-3.7,3-6.7,6.7-6.7c3.7,0,6.7,3,6.7,6.7v2C67.7,164.4,67.2,164.8,66.7,164.8z"/>
			</g>
		</g>
		<g>
			<g>
				<path class="st39" d="M51.5,171.8h-1.3v-1.4c0-1.9-1.5-3.4-3.4-3.4c-1.9,0-3.4,1.5-3.4,3.4v1.4H42v-1.4c0-2.6,2.1-4.8,4.8-4.8
					s4.8,2.1,4.8,4.8V171.8z"/>
			</g>
			<linearGradient id="SVGID_27_" gradientUnits="userSpaceOnUse" x1="34.5291" y1="200.8697" x2="51.7012" y2="163.6427">
				<stop  offset="0" style="stop-color:#6270CA"/>
				<stop  offset="0.1277" style="stop-color:#6873C7"/>
				<stop  offset="0.2965" style="stop-color:#797BBE"/>
				<stop  offset="0.4883" style="stop-color:#9489AF"/>
				<stop  offset="0.6972" style="stop-color:#BA9C9B"/>
				<stop  offset="0.9174" style="stop-color:#EBB481"/>
				<stop  offset="1" style="stop-color:#FFBE76"/>
			</linearGradient>
			<rect x="36.1" y="170.1" class="st42" width="14.7" height="22.7"/>
			<linearGradient id="SVGID_28_" gradientUnits="userSpaceOnUse" x1="52.4729" y1="197.0193" x2="52.4729" y2="165.8611">
				<stop  offset="0" style="stop-color:#6270CA"/>
				<stop  offset="0.1277" style="stop-color:#6873C7"/>
				<stop  offset="0.2965" style="stop-color:#797BBE"/>
				<stop  offset="0.4883" style="stop-color:#9489AF"/>
				<stop  offset="0.6972" style="stop-color:#BA9C9B"/>
				<stop  offset="0.9174" style="stop-color:#EBB481"/>
				<stop  offset="1" style="stop-color:#FFBE76"/>
			</linearGradient>
			<polygon class="st43" points="50.9,192.8 54.1,192.8 54.1,170.1 50.9,170.1 			"/>
			<linearGradient id="SVGID_29_" gradientUnits="userSpaceOnUse" x1="43.6326" y1="197.2396" x2="56.3039" y2="172.3112">
				<stop  offset="0" style="stop-color:#6270CA"/>
				<stop  offset="0.1277" style="stop-color:#6873C7"/>
				<stop  offset="0.2965" style="stop-color:#797BBE"/>
				<stop  offset="0.4883" style="stop-color:#9489AF"/>
				<stop  offset="0.6972" style="stop-color:#BA9C9B"/>
				<stop  offset="0.9174" style="stop-color:#EBB481"/>
				<stop  offset="1" style="stop-color:#FFBE76"/>
			</linearGradient>
			<polygon class="st44" points="50.9,192.8 52.5,192.8 52.5,170.1 50.9,170.1 			"/>
			<polygon class="st45" points="50.9,192.8 52.5,191.3 54.1,192.8 			"/>
			<g>
				<path class="st41" d="M47.6,172.5c-0.4,0-0.7-0.3-0.7-0.7v-1.4c0-1.9-1.5-3.4-3.4-3.4s-3.4,1.5-3.4,3.4v1.4
					c0,0.4-0.3,0.7-0.7,0.7c-0.4,0-0.7-0.3-0.7-0.7v-1.4c0-2.6,2.1-4.8,4.8-4.8c2.6,0,4.8,2.1,4.8,4.8v1.4
					C48.3,172.2,48,172.5,47.6,172.5z"/>
			</g>
		</g>
		<rect x="54.1" y="172.9" class="st25" width="1.6" height="19.9"/>
	</g>
	<g>
		<path class="st7" d="M156,117.9v-17.1c-0.1,0-0.3-0.1-0.4-0.1h-40.7c-1,0-1.9,0.8-1.9,1.9v13.5c0,1,0.8,1.9,1.9,1.9h40.7
			C155.7,118,155.8,117.9,156,117.9z"/>
		<linearGradient id="SVGID_30_" gradientUnits="userSpaceOnUse" x1="123.8939" y1="118.0714" x2="149.1433" y2="98.3251">
			<stop  offset="0.2482" style="stop-color:#FFDC89"/>
			<stop  offset="0.9888" style="stop-color:#FFF2A9"/>
		</linearGradient>
		<path class="st46" d="M155.4,116.6H118c-2,0-3.5-1.6-3.5-3.5V103c0-2,1.6-3.5,3.5-3.5h37.4c2,0,3.5,1.6,3.5,3.5v10.1
			C158.9,115.1,157.4,116.6,155.4,116.6z"/>
		<circle class="st5" cx="136.7" cy="108.1" r="5.2"/>
		<circle class="st5" cx="123.1" cy="108.1" r="5.2"/>
		<circle class="st5" cx="150.3" cy="108.1" r="5.2"/>
		<linearGradient id="SVGID_31_" gradientUnits="userSpaceOnUse" x1="120.9853" y1="131.2596" x2="135.3457" y2="109.886">
			<stop  offset="0" style="stop-color:#6270CA"/>
			<stop  offset="0.1277" style="stop-color:#6873C7"/>
			<stop  offset="0.2965" style="stop-color:#797BBE"/>
			<stop  offset="0.4883" style="stop-color:#9489AF"/>
			<stop  offset="0.6972" style="stop-color:#BA9C9B"/>
			<stop  offset="0.9174" style="stop-color:#EBB481"/>
			<stop  offset="1" style="stop-color:#FFBE76"/>
		</linearGradient>
		<polygon class="st47" points="135.8,106.5 135.8,109.6 138.4,108 		"/>
		<linearGradient id="SVGID_32_" gradientUnits="userSpaceOnUse" x1="130.3569" y1="137.7057" x2="144.7174" y2="116.332">
			<stop  offset="0" style="stop-color:#6270CA"/>
			<stop  offset="0.1277" style="stop-color:#6873C7"/>
			<stop  offset="0.2965" style="stop-color:#797BBE"/>
			<stop  offset="0.4883" style="stop-color:#9489AF"/>
			<stop  offset="0.6972" style="stop-color:#BA9C9B"/>
			<stop  offset="0.9174" style="stop-color:#EBB481"/>
			<stop  offset="1" style="stop-color:#FFBE76"/>
		</linearGradient>
		<polygon class="st48" points="150.9,106.5 150.9,107.8 148.7,106.5 148.7,109.6 150.9,108.3 150.9,109.6 151.9,109.6 151.9,106.5 
					"/>
		<linearGradient id="SVGID_33_" gradientUnits="userSpaceOnUse" x1="111.646" y1="125.1343" x2="126.0065" y2="103.7606">
			<stop  offset="0" style="stop-color:#6270CA"/>
			<stop  offset="0.1277" style="stop-color:#6873C7"/>
			<stop  offset="0.2965" style="stop-color:#797BBE"/>
			<stop  offset="0.4883" style="stop-color:#9489AF"/>
			<stop  offset="0.6972" style="stop-color:#BA9C9B"/>
			<stop  offset="0.9174" style="stop-color:#EBB481"/>
			<stop  offset="1" style="stop-color:#FFBE76"/>
		</linearGradient>
		<polygon class="st49" points="122.5,106.5 122.5,107.8 124.7,106.5 124.7,109.6 122.5,108.3 122.5,109.6 121.5,109.6 121.5,106.5 
					"/>
	</g>
	<path class="st13" d="M167.3,100.3c-2,0-3.6,1.6-3.6,3.6c0,2,1.6,3.6,3.6,3.6c2,0,3.6-1.6,3.6-3.6
		C170.9,101.9,169.3,100.3,167.3,100.3z M168.1,105.3c-0.2,0.2-0.4,0.3-0.7,0.4v0.2c0,0.1-0.1,0.2-0.2,0.2c-0.1,0-0.2-0.1-0.2-0.2
		v-0.2c-0.2,0-0.4-0.1-0.6-0.2c-0.2-0.1-0.3-0.3-0.4-0.4c0,0,0-0.1,0-0.1c0,0,0-0.1,0-0.1c0-0.1,0.1-0.1,0.1-0.1c0,0,0.1,0,0.1,0
		c0.1,0,0.2,0.1,0.2,0.2c0.2,0.2,0.4,0.4,0.7,0.4c0.2,0,0.3,0,0.4-0.1c0.1-0.1,0.2-0.2,0.2-0.4c0-0.1-0.1-0.3-0.2-0.3
		c-0.1-0.1-0.2-0.1-0.4-0.1l-0.1,0c-0.4-0.1-0.6-0.2-0.8-0.3c-0.2-0.2-0.3-0.4-0.3-0.7c0-0.3,0.1-0.5,0.3-0.6
		c0.2-0.2,0.4-0.3,0.6-0.3v-0.2c0-0.1,0-0.1,0.1-0.2c0,0,0.1-0.1,0.2-0.1c0.1,0,0.1,0,0.2,0.1c0,0,0.1,0.1,0.1,0.2v0.2
		c0.3,0.1,0.6,0.2,0.8,0.5c0,0,0,0.1,0,0.1c0,0,0,0,0,0.1c0,0,0,0.1-0.1,0.1c0,0-0.1,0.1-0.2,0.1c-0.1,0-0.1,0-0.2,0
		c-0.1-0.1-0.2-0.2-0.3-0.2c-0.1,0-0.2-0.1-0.4-0.1c-0.2,0-0.3,0-0.4,0.1c-0.1,0.1-0.2,0.2-0.2,0.3c0,0.2,0.1,0.3,0.2,0.3
		c0.1,0.1,0.3,0.1,0.5,0.2c0.3,0.1,0.5,0.2,0.7,0.3c0.2,0.2,0.3,0.4,0.3,0.7C168.4,104.8,168.3,105.1,168.1,105.3z"/>
	<g>
		<path class="st7" d="M121.7,147H82.9v14.4h38.8c1,0,1.9-0.8,1.9-1.9v-10.7C123.5,147.9,122.7,147,121.7,147z"/>
		<linearGradient id="SVGID_34_" gradientUnits="userSpaceOnUse" x1="98.8921" y1="170.4674" x2="102.527" y2="146.7271">
			<stop  offset="0" style="stop-color:#FF791F"/>
			<stop  offset="0.9976" style="stop-color:#FFA71F"/>
		</linearGradient>
		<path class="st50" d="M121,160.4H82c-2,0-3.5-1.6-3.5-3.5v-7.3c0-2,1.6-3.5,3.5-3.5h39c2,0,3.5,1.6,3.5,3.5v7.3
			C124.6,158.8,123,160.4,121,160.4z"/>
		<g>
			<linearGradient id="SVGID_35_" gradientUnits="userSpaceOnUse" x1="82.9173" y1="156.0421" x2="106.6361" y2="134.1067">
				<stop  offset="0.2482" style="stop-color:#FFDC89"/>
				<stop  offset="0.9888" style="stop-color:#FFF2A9"/>
			</linearGradient>
			<polygon class="st51" points="85.7,150 86.6,151.9 88.7,152.2 87.2,153.7 87.6,155.8 85.7,154.8 83.8,155.8 84.2,153.7 
				82.6,152.2 84.7,151.9 			"/>
			<linearGradient id="SVGID_36_" gradientUnits="userSpaceOnUse" x1="86.5704" y1="159.9923" x2="110.2893" y2="138.0567">
				<stop  offset="0.2482" style="stop-color:#FFDC89"/>
				<stop  offset="0.9888" style="stop-color:#FFF2A9"/>
			</linearGradient>
			<polygon class="st52" points="93.6,150 94.6,151.9 96.7,152.2 95.1,153.7 95.5,155.8 93.6,154.8 91.7,155.8 92.1,153.7 
				90.6,152.2 92.7,151.9 			"/>
			<linearGradient id="SVGID_37_" gradientUnits="userSpaceOnUse" x1="90.2236" y1="163.9424" x2="113.9425" y2="142.0069">
				<stop  offset="0.2482" style="stop-color:#FFDC89"/>
				<stop  offset="0.9888" style="stop-color:#FFF2A9"/>
			</linearGradient>
			<polygon class="st53" points="101.5,150 102.5,151.9 104.6,152.2 103.1,153.7 103.4,155.8 101.5,154.8 99.7,155.8 100,153.7 
				98.5,152.2 100.6,151.9 			"/>
			<linearGradient id="SVGID_38_" gradientUnits="userSpaceOnUse" x1="93.8768" y1="167.8926" x2="117.5957" y2="145.9571">
				<stop  offset="0.2482" style="stop-color:#FFDC89"/>
				<stop  offset="0.9888" style="stop-color:#FFF2A9"/>
			</linearGradient>
			<polygon class="st54" points="109.5,150 110.4,151.9 112.5,152.2 111,153.7 111.3,155.8 109.5,154.8 107.6,155.8 107.9,153.7 
				106.4,152.2 108.5,151.9 			"/>
			<polygon class="st5" points="117.4,150 118.3,151.9 120.4,152.2 118.9,153.7 119.3,155.8 117.4,154.8 115.5,155.8 115.9,153.7 
				114.3,152.2 116.4,151.9 			"/>
			<linearGradient id="SVGID_39_" gradientUnits="userSpaceOnUse" x1="96.8483" y1="171.1057" x2="120.5672" y2="149.1702">
				<stop  offset="0.2482" style="stop-color:#FFDC89"/>
				<stop  offset="0.9888" style="stop-color:#FFF2A9"/>
			</linearGradient>
			<polygon class="st55" points="117.4,154.8 117.4,150 116.4,151.9 114.3,152.2 115.9,153.7 115.5,155.8 			"/>
		</g>
	</g>
	<path class="st13" d="M55.3,146.8c-0.1-0.2-0.3-0.2-0.5-0.2h-3.4l-0.6-1.5c-0.1-0.3-0.5-0.5-0.8-0.3c-0.3,0.1-0.5,0.5-0.3,0.8
		l0.4,1h-1.8c-0.2,0-0.4,0.1-0.5,0.2c-0.1,0.2-0.2,0.4-0.1,0.5l1.1,3.7c0.2,0.5,0.6,0.9,1.2,0.9h3.1c0.5,0,1-0.4,1.2-0.9l1.1-3.7
		C55.4,147.2,55.4,147,55.3,146.8z M53.1,150.7h-3.1l-0.9-2.9h1.5l0.4,0.9c0.1,0.2,0.3,0.4,0.6,0.4c0.1,0,0.2,0,0.2,0
		c0.3-0.1,0.5-0.5,0.3-0.8l-0.2-0.5H54L53.1,150.7z"/>
	<g>
		<path class="st7" d="M135.5,140.4h-21.3c-2.6,0-4.6-2.1-4.6-4.6v-9.3c0-2.6,2.1-4.6,4.6-4.6h21.3c2.6,0,4.6,2.1,4.6,4.6v9.3
			C140.1,138.3,138,140.4,135.5,140.4z"/>
		<linearGradient id="SVGID_40_" gradientUnits="userSpaceOnUse" x1="150.4811" y1="99.3125" x2="116.556" y2="141.6715">
			<stop  offset="0" style="stop-color:#6270CA"/>
			<stop  offset="0.1277" style="stop-color:#6873C7"/>
			<stop  offset="0.2965" style="stop-color:#797BBE"/>
			<stop  offset="0.4883" style="stop-color:#9489AF"/>
			<stop  offset="0.6972" style="stop-color:#BA9C9B"/>
			<stop  offset="0.9174" style="stop-color:#EBB481"/>
			<stop  offset="1" style="stop-color:#FFBE76"/>
		</linearGradient>
		<path class="st56" d="M136.5,139.3h-21.3c-2.6,0-4.6-2.1-4.6-4.6v-9.3c0-2.6,2.1-4.6,4.6-4.6h21.3c2.6,0,4.6,2.1,4.6,4.6v9.3
			C141.1,137.3,139.1,139.3,136.5,139.3z"/>
		<rect x="114.7" y="129.7" class="st57" width="4.2" height="1"/>
		<rect x="119.7" y="129.7" class="st57" width="4.2" height="1"/>
		<rect x="110.6" y="131.7" class="st57" width="30.6" height="4.7"/>
		<g>
			<linearGradient id="SVGID_41_" gradientUnits="userSpaceOnUse" x1="116.0125" y1="133.7191" x2="128.542" y2="126.8599">
				<stop  offset="0" style="stop-color:#FF791F"/>
				<stop  offset="0.9976" style="stop-color:#FFA71F"/>
			</linearGradient>
			<path class="st58" d="M133.6,124c-0.5-0.8-1.3-1.3-2.3-1.3c-1.5,0-2.7,1.2-2.7,2.7c0,1.5,1.2,2.7,2.7,2.7c1,0,1.8-0.5,2.3-1.3
				c-0.2-0.4-0.4-0.9-0.4-1.4C133.2,124.9,133.3,124.4,133.6,124z"/>
			<path class="st5" d="M135.9,122.7c-1,0-1.8,0.5-2.3,1.3c0.2,0.4,0.4,0.9,0.4,1.4c0,0.5-0.1,1-0.4,1.4c0.5,0.8,1.3,1.3,2.3,1.3
				c1.5,0,2.7-1.2,2.7-2.7C138.6,123.9,137.4,122.7,135.9,122.7z"/>
			<linearGradient id="SVGID_42_" gradientUnits="userSpaceOnUse" x1="127.248" y1="133.0159" x2="134.2901" y2="124.5105">
				<stop  offset="0.2482" style="stop-color:#FFDC89"/>
				<stop  offset="0.9888" style="stop-color:#FFF2A9"/>
			</linearGradient>
			<path class="st59" d="M133.6,124c-0.2,0.4-0.4,0.9-0.4,1.4c0,0.5,0.1,1,0.4,1.4c0.2-0.4,0.4-0.9,0.4-1.4
				C134,124.9,133.8,124.4,133.6,124z"/>
		</g>
	</g>
	<g>
		<path class="st7" d="M124.7,166.3h-13.3c-3.2,0-5.8,2.6-5.8,5.8v3.9c0,3.2,2.6,5.8,5.8,5.8h12.1l1.2,1.8v-1.8l0,0
			c3.2,0,5.8-2.6,5.8-5.8v-3.9C130.5,168.9,127.9,166.3,124.7,166.3z"/>
		<linearGradient id="SVGID_43_" gradientUnits="userSpaceOnUse" x1="130.5276" y1="162.1147" x2="108.761" y2="180.7719">
			<stop  offset="0.2482" style="stop-color:#FFDC89"/>
			<stop  offset="0.9888" style="stop-color:#FFF2A9"/>
		</linearGradient>
		<path class="st60" d="M124,165.6h-13.3c-3.2,0-5.8,2.6-5.8,5.8v3.9c0,3.2,2.6,5.8,5.8,5.8h12.1l1.2,1.8v-1.8l0,0
			c3.2,0,5.8-2.6,5.8-5.8v-3.9C129.9,168.2,127.2,165.6,124,165.6z"/>
		<path class="st5" d="M118.8,173.4c0,0.9-0.7,1.6-1.6,1.6c-0.9,0-1.6-0.7-1.6-1.6s0.7-1.6,1.6-1.6
			C118.1,171.8,118.8,172.5,118.8,173.4z M111.9,171.8c-0.9,0-1.6,0.7-1.6,1.6s0.7,1.6,1.6,1.6c0.9,0,1.6-0.7,1.6-1.6
			S112.7,171.8,111.9,171.8z M121.4,173.4c0,0.9,0.7,1.6,1.6,1.6s1.6-0.7,1.6-1.6s-0.7-1.6-1.6-1.6S121.4,172.5,121.4,173.4z"/>
	</g>
	<g>
		<g>
			<path class="st61" d="M108,49.1c-1.1,0-1.9-0.9-1.9-1.9c0-1.1,0.9-1.9,1.9-1.9s1.9,0.9,1.9,1.9C109.9,48.2,109.1,49.1,108,49.1z
				 M108,45.8c-0.8,0-1.4,0.6-1.4,1.4c0,0.8,0.6,1.4,1.4,1.4c0.8,0,1.4-0.6,1.4-1.4C109.4,46.4,108.8,45.8,108,45.8z"/>
		</g>
		<g>
			<path class="st61" d="M167,66.2c-1.1,0-1.9-0.9-1.9-1.9c0-1.1,0.9-1.9,1.9-1.9c1.1,0,1.9,0.9,1.9,1.9
				C168.9,65.4,168,66.2,167,66.2z M167,62.9c-0.8,0-1.4,0.6-1.4,1.4c0,0.8,0.6,1.4,1.4,1.4c0.8,0,1.4-0.6,1.4-1.4
				C168.3,63.5,167.7,62.9,167,62.9z"/>
		</g>
		<g>
			<path class="st61" d="M54.9,114.3c-1.1,0-1.9-0.9-1.9-1.9s0.9-1.9,1.9-1.9c1.1,0,1.9,0.9,1.9,1.9S56,114.3,54.9,114.3z M54.9,111
				c-0.8,0-1.4,0.6-1.4,1.4c0,0.8,0.6,1.4,1.4,1.4c0.8,0,1.4-0.6,1.4-1.4C56.3,111.6,55.7,111,54.9,111z"/>
		</g>
		<g>
			<path class="st61" d="M188.8,168.2c-1.1,0-1.9-0.9-1.9-1.9c0-1.1,0.9-1.9,1.9-1.9c1.1,0,1.9,0.9,1.9,1.9
				C190.7,167.3,189.8,168.2,188.8,168.2z M188.8,164.9c-0.8,0-1.4,0.6-1.4,1.4s0.6,1.4,1.4,1.4s1.4-0.6,1.4-1.4
				S189.5,164.9,188.8,164.9z"/>
		</g>
		<g>
			<path class="st61" d="M69.6,149.3c-1.1,0-1.9-0.9-1.9-1.9c0-1.1,0.9-1.9,1.9-1.9c1.1,0,1.9,0.9,1.9,1.9
				C71.5,148.4,70.6,149.3,69.6,149.3z M69.6,146c-0.8,0-1.4,0.6-1.4,1.4s0.6,1.4,1.4,1.4c0.8,0,1.4-0.6,1.4-1.4S70.3,146,69.6,146z
				"/>
		</g>
		<g>
			<g>
				<path class="st61" d="M172.4,65.9c-0.1,0-0.3-0.1-0.3-0.3V63c0-0.1,0.1-0.3,0.3-0.3c0.1,0,0.3,0.1,0.3,0.3v2.7
					C172.7,65.8,172.6,65.9,172.4,65.9z"/>
			</g>
			<g>
				<path class="st61" d="M173.7,64.6h-2.7c-0.1,0-0.3-0.1-0.3-0.3c0-0.1,0.1-0.3,0.3-0.3h2.7c0.1,0,0.3,0.1,0.3,0.3
					C174,64.5,173.9,64.6,173.7,64.6z"/>
			</g>
		</g>
		<g>
			<g>
				<path class="st61" d="M101,48.8c-0.1,0-0.3-0.1-0.3-0.3v-2.7c0-0.1,0.1-0.3,0.3-0.3c0.1,0,0.3,0.1,0.3,0.3v2.7
					C101.3,48.7,101.1,48.8,101,48.8z"/>
			</g>
			<g>
				<path class="st61" d="M102.3,47.5h-2.7c-0.1,0-0.3-0.1-0.3-0.3c0-0.1,0.1-0.3,0.3-0.3h2.7c0.1,0,0.3,0.1,0.3,0.3
					C102.6,47.3,102.5,47.5,102.3,47.5z"/>
			</g>
		</g>
		<g>
			<g>
				<path class="st61" d="M54.9,108.4c-0.1,0-0.3-0.1-0.3-0.3v-2.7c0-0.1,0.1-0.3,0.3-0.3c0.1,0,0.3,0.1,0.3,0.3v2.7
					C55.2,108.3,55,108.4,54.9,108.4z"/>
			</g>
			<g>
				<path class="st61" d="M56.2,107.1h-2.7c-0.1,0-0.3-0.1-0.3-0.3s0.1-0.3,0.3-0.3h2.7c0.1,0,0.3,0.1,0.3,0.3
					S56.4,107.1,56.2,107.1z"/>
			</g>
		</g>
		<g>
			<g>
				<path class="st61" d="M188,133.3c-0.1,0-0.3-0.1-0.3-0.3v-2.7c0-0.1,0.1-0.3,0.3-0.3c0.1,0,0.3,0.1,0.3,0.3v2.7
					C188.2,133.2,188.1,133.3,188,133.3z"/>
			</g>
			<g>
				<path class="st61" d="M189.3,132h-2.7c-0.1,0-0.3-0.1-0.3-0.3c0-0.1,0.1-0.3,0.3-0.3h2.7c0.1,0,0.3,0.1,0.3,0.3
					C189.6,131.8,189.4,132,189.3,132z"/>
			</g>
		</g>
	</g>
</g>
</svg>
