<?xml version="1.0" encoding="utf-8"?>
<!-- Generator: Adobe Illustrator 21.0.0, SVG Export Plug-In . SVG Version: 6.00 Build 0)  -->
<svg version="1.1" id="Layer_1" xmlns="http://www.w3.org/2000/svg" xmlns:xlink="http://www.w3.org/1999/xlink" x="0px" y="0px"
	 viewBox="0 0 200 200" style="enable-background:new 0 0 200 200;" xml:space="preserve">
<style type="text/css">
	.st0{fill:#F2F2F2;}
	.st1{fill:none;stroke:#D1DCED;stroke-width:0.5;stroke-linecap:round;stroke-miterlimit:10;stroke-dasharray:3,2;}
	.st2{clip-path:url(#SVGID_1_);}
	.st3{fill:#F5F8FF;}
	.st4{fill:#D9EBFF;}
	.st5{fill:#C8E2FC;}
	.st6{clip-path:url(#SVGID_1_);fill:#C6426E;}
	.st7{fill:#A5D3F9;}
	.st8{fill:#0F7AEC;}
	.st9{fill:#93CBF9;}
	.st10{fill:#172182;}
	.st11{opacity:0.75;fill:#D9EBFF;}
	.st12{opacity:0.75;clip-path:url(#SVGID_1_);}
	.st13{clip-path:url(#SVGID_1_);fill:#A5D3F9;}
	.st14{fill:none;stroke:#1654D3;stroke-width:0.5;stroke-linecap:round;stroke-linejoin:round;stroke-miterlimit:10;}
</style>
<g id="Layer_5">
</g>
<g>
	<g>
		<path class="st0" d="M163,42.2c-9.4-5-20.7-7.4-31.2-5.4c-10.6,1.9-19.3,9.5-30,11c-14.5,2-23.9-11.8-34.5-19.5
			c-5.5-4-11.7-6.8-18.3-8.2c-22.9-4.9-35.2,14.7-34.7,36.2c0.4,15.1,8,28.1,10.4,43.1c2,12.7-8.3,16-6.8,32.2
			c2.4,26.7,24.6,30.3,41.5,31.6c17.5,1.4,28.9,11.6,44.4,18.2c23.9,10.3,54.4,3.6,65.4-22.7c5.5-13.2,0.1-25.3,2.8-38.6
			c2.4-12,4-16.6,7.6-27.8C186.2,72.2,179.5,51,163,42.2z"/>
	</g>
	<path class="st1" d="M154.8,59.5c-0.4-0.1-0.8-0.3-1.2-0.4c-11.2-3.7-22.4,1.3-33.6-1.9c-13.9-4-17.2-20.1-23.8-31.2
		c-3.4-5.7-8-10.7-13.4-14.6C63.9-2,41.4,5.5,34.3,28.8c-4.3,14,1.1,32.3-2.4,46.7c-3,12.2-14.4,8.7-19.2,23.9
		c-7.8,25,10.8,37,25.6,44.9c15.3,8.2,21.8,21.9,33.2,34c17.8,18.7,47.8,24.8,67.6,5.5c9.9-9.7,9.6-22.7,17-33.6
		c6.7-9.8,9.8-13.4,17.3-22c13.6-15.6,15.6-37.2,3.9-51.7C172,69.8,163.3,62.7,154.8,59.5z"/>
	<g>
		<defs>
			<path id="SVGID_3_" d="M152.2,55.6c-0.4-0.1-0.8-0.2-1.2-0.3c-10.9-2.6-21.2,3-32.1,0.9c-13.5-2.6-17.9-17.2-25.2-27
				c-3.7-5-8.5-9.3-14-12.4c-19-11-35.6,2.2-41.2,20.9c-4,13-0.9,26.6-3.1,40.1c-1.9,11.5-11.9,11.3-15.2,25.7
				c-5.4,23.7,13.3,33.3,27.9,39.5c15.2,6.4,22.5,18.5,34.4,28.8c18.4,15.9,47.5,19.2,64.8-0.2c8.7-9.7,7.3-21.7,13.5-32.4
				c5.6-9.6,8.3-13.1,14.7-21.6c11.7-15.4,11.8-35.6-0.4-48C169.4,63.7,160.5,57.9,152.2,55.6z"/>
		</defs>
		<clipPath id="SVGID_1_">
			<use xlink:href="#SVGID_3_"  style="overflow:visible;"/>
		</clipPath>
		<g class="st2">
			<path class="st3" d="M152.2,55.6c-0.4-0.1-0.8-0.2-1.2-0.3c-10.9-2.6-21.2,3-32.1,0.9c-13.5-2.6-17.9-17.2-25.2-27
				c-3.7-5-8.5-9.3-14-12.4c-19-11-35.6,2.2-41.2,20.9c-4,13-0.9,26.6-3.1,40.1c-1.9,11.5-11.9,11.3-15.2,25.7
				c-5.4,23.7,13.3,33.3,27.9,39.5c15.2,6.4,22.5,18.5,34.4,28.8c18.4,15.9,47.5,19.2,64.8-0.2c8.7-9.7,7.3-21.7,13.5-32.4
				c5.6-9.6,8.3-13.1,14.7-21.6c11.7-15.4,11.8-35.6-0.4-48C169.4,63.7,160.5,57.9,152.2,55.6z"/>
		</g>
		<g class="st2">
			<g>
				<path class="st4" d="M123.6,186.8c0.7-2.6,1.3-5.3,1.4-8c0.1-2.7-0.4-5.5-1.8-7.8c-1.3-2.1-3.3-3.7-5-5.6
					c-1.1-1.2-2.1-2.5-2.5-4.1c-0.7-2.6,0.4-5.3,0.6-8c0.2-2-0.2-3.8-0.8-5.7c-0.4-1.4-0.5-2.7-1.1-4.1c-1.4-3.2-3.7-6-4.8-9.4
					c-1.4-4.6,0-9.5,2.3-13.5c1.6-2.8,3.7-6.7,6.9-7.9c4-1.5,6.4,3.5,7.6,6.5c1.1,2.9,1.6,6.1,1.9,9.2c0.3,3,0.1,6,2,8.6
					c1,1.4,2.3,2.6,3.4,4c2.1,2.9,3.1,6.8,1.8,10.2c-0.4,1-1,1.9-1.4,2.9c-0.8,1.8-1.1,3.7-0.7,5.6c0.2,1.2,0.7,2.3,1.1,3.4
					c1.2,3.5,0.8,6.3,0.1,9.8c-0.7,3.2-3.2,5.5-5.2,7.9c-0.9,1-1.7,2.1-2.1,3.4c-0.5,1.4-0.4,2.8-0.3,4.3"/>
			</g>
			<g>
				<path class="st4" d="M123.4,188.6c0.8-4.1,1.5-8.4,0.6-12.5c-0.2-1.1-0.6-2.1-1.3-3c-1.8-2.3-4.4-2.9-6.9-4
					c-1.6-0.6-2.7-2.1-3.4-3.6c-0.6-1.3-0.4-2.8-0.9-4.1c-1.2-3.1-3.8-6.1-6.9-7.3c-3-1.2-6.5-1.3-9.5,0c-3,1.3-5.3,4.1-5.8,7.3
					c-0.5,3.2,1.1,6.7,3.9,8.2c1.8,1,4,0.4,5.9,1.2c1.3,0.6,2.5,1.8,2.6,3.3c0,0.7-0.2,1.4-0.1,2.2c0.1,1.5,1.4,2.6,2.7,3.3
					c2.9,1.5,6.5,1.6,9.4,3.2c5.2,2.9,8.4,10.2,9.5,15.8"/>
			</g>
			<g>
				<g>
					<path class="st5" d="M118.2,119.8c-0.9,12.8,5.7,24.2,8.4,36.4c3,13.5-0.1,26.5-6.7,38.3c-0.1,0.3,0.2,0.5,0.4,0.2
						c7-9.9,9.4-23.5,7.5-35.3c-2.1-13.5-10.3-25.6-9.4-39.6C118.5,119.7,118.2,119.7,118.2,119.8L118.2,119.8z"/>
				</g>
			</g>
			<g>
				<g>
					<path class="st5" d="M94.4,160.9c7.2,2.1,13.8,6.2,18.8,11.9c5.3,6.1,7.8,13.2,9.2,21c0,0.2,0.4,0.2,0.4-0.1
						c-0.8-15.8-13.5-29.2-28.3-33.2C94.3,160.6,94.2,160.9,94.4,160.9L94.4,160.9z"/>
				</g>
			</g>
			<g>
				<g>
					<path class="st5" d="M108.8,177.3c3.2-0.7,6.2,0,8.9,1.8c0.2,0.1,0.4-0.2,0.2-0.3c-2.6-2-6-2.4-9.1-1.6
						C108.7,177.1,108.7,177.3,108.8,177.3L108.8,177.3z"/>
				</g>
			</g>
			<g>
				<g>
					<path class="st5" d="M102.4,171.2c3.4-1.1,6.9-1,10,0.8c0.1,0.1,0.2-0.1,0.1-0.2c-3.1-1.9-6.8-2.3-10.2-0.7
						C102.3,171.1,102.3,171.2,102.4,171.2L102.4,171.2z"/>
				</g>
			</g>
			<g>
				<g>
					<path class="st5" d="M119.9,147c2.8,1.4,4.6,3.7,6.1,6.4c0.1,0.2,0.4,0.1,0.3-0.1C125.5,150.3,122.8,148.1,119.9,147
						C119.9,146.9,119.9,147,119.9,147L119.9,147z"/>
				</g>
			</g>
			<g>
				<g>
					<path class="st5" d="M120.6,160.9c4.1,3.1,6.1,7.1,6.8,12c0,0.2,0.4,0.2,0.4,0c0-4.9-3-9.6-7.1-12.2
						C120.6,160.7,120.5,160.9,120.6,160.9L120.6,160.9z"/>
				</g>
			</g>
			<g>
				<g>
					<path class="st5" d="M122.4,131.7c-0.8,2.9-1.2,6-0.5,8.9c0.1,0.2,0.4,0.1,0.3-0.1c-0.4-3-0.5-5.8,0.3-8.8
						C122.5,131.7,122.4,131.7,122.4,131.7L122.4,131.7z"/>
				</g>
			</g>
			<g>
				<g>
					<path class="st5" d="M114.7,130.8c3.2,1.2,4.2,4.3,6.1,6.8c0.1,0.1,0.3,0.1,0.3-0.1C120,134.7,117.7,131.5,114.7,130.8
						C114.7,130.7,114.7,130.8,114.7,130.8L114.7,130.8z"/>
				</g>
			</g>
			<g>
				<g>
					<path class="st5" d="M128.5,142.8c-1.8,3.3-2.6,7-2.3,10.7c0,0.1,0.2,0.2,0.2,0c-0.2-3.8,0.4-7.3,2.1-10.7
						C128.6,142.8,128.5,142.7,128.5,142.8L128.5,142.8z"/>
				</g>
			</g>
			<g>
				<g>
					<path class="st5" d="M103.5,160.5c0,1.8,0.5,3.9,1.7,5.3c0.1,0.1,0.3,0,0.2-0.2c-0.4-0.8-0.8-1.6-1.1-2.5
						c-0.3-0.9-0.5-1.7-0.6-2.6C103.7,160.3,103.5,160.3,103.5,160.5L103.5,160.5z"/>
				</g>
			</g>
			<g>
				<g>
					<path class="st5" d="M115.9,171.4c-0.1,2.1,0.2,4.3,1.2,6.1c0.1,0.1,0.2,0,0.2-0.1c-0.5-2-1.1-4-1.2-6.1
						C116.1,171.3,115.9,171.3,115.9,171.4L115.9,171.4z"/>
				</g>
			</g>
			<g>
				<g>
					<path class="st5" d="M108.5,163c0,2.9,0.9,6.3,3.3,8.1c0.1,0.1,0.3-0.1,0.2-0.2c-1.9-2.4-3.3-4.7-3.3-7.9
						C108.7,162.9,108.5,162.9,108.5,163L108.5,163z"/>
				</g>
			</g>
		</g>
		<path class="st6" d="M144.8,101.2c0-0.1-2-2.9-2-2.9s0.4-0.8,3.3,0.1c2.7,0.8,4.1,1.5,3.6,2.1
			C149.2,101.2,144.8,101.2,144.8,101.2z"/>
		<g class="st2">
			<path class="st7" d="M152.7,86c-0.2-0.3-1.1-0.7-1.4-0.2c-0.2-0.7-1.4-1.3-1.7-0.4c-0.2-0.7-0.3-1-0.9-1.2
				c-0.5-0.2-1.4,0.4-1.4,0.4s0-1.4,0.1-2.1c0.2-2,1.1-4,1.9-5.8c0.2-0.5,0.1-1.3-0.4-1.3c-0.2,0-0.5,0.1-0.7,0.3
				c-3.2,2.5-3.9,6.9-4.4,10.9c-0.5-1.4-0.1-3.4-1.4-4.1c-1-0.1-1.3,5.4-0.7,8.1c0.5,2,1.7,4.1,2.6,5.9c0.3,0.7-0.8,2.1-1.1,3
				c1.1,1.4,3.3,3.1,5.8,1.4c0.6-1.5,3-2.6,3.4-3.9c0.5-1.8-0.3-3.1-0.3-3.1c0,0.2,0.7-0.4,1-0.8c0.3-0.5,0.5-1,0.4-1.6
				C153.5,89.5,153.6,87.7,152.7,86z"/>
		</g>
		<g class="st2">
			<g>
				<path class="st4" d="M53.5,132.9c-2.1-9.5-0.1-19.9,5.4-28c1.8-2.7,4-5.2,5.7-8c3.1-5.2,4.3-11.3,4.4-17.4
					c0.2-8.2-4.7-25.3-16.4-17.7c-3.2,2-6.2,4.7-7.3,8.3c-2.2,7.3,1.8,15-4.7,21.1c-2.1,2-4.7,3.4-7.1,5.1
					c-4.7,3.5-8.3,8.8-8.5,14.6c-0.4,8.4,6,16.5,12.6,21c2.4,1.6,5.1,2.7,7.5,4.5c3.6,2.8,6.7,5.9,10.8,8.1"/>
			</g>
			<g>
				<g>
					<path class="st5" d="M55.3,74.5c0.6,5.8-0.5,11.5-3.1,16.6c-2.2,4.4-5.1,8.4-7.1,13c-3.5,8-3.9,17.8-0.3,25.9
						c0.1,0.2,0.4,0.1,0.4-0.2c-3.2-10.2-2.7-20.1,2.6-29.6c2.1-3.8,4.6-7.5,6.2-11.6c1.8-4.6,2.3-9.3,1.6-14.2
						C55.6,74.3,55.3,74.3,55.3,74.5L55.3,74.5z"/>
				</g>
			</g>
			<g>
				<g>
					<path class="st5" d="M41.7,94.4c-2.4,6.4-3.1,15.4,0.6,21.5c0.1,0.2,0.4,0.1,0.3-0.1c-0.9-3.6-2.1-6.8-2.3-10.6
						c-0.1-3.6,0.4-7.3,1.6-10.7C41.9,94.3,41.8,94.3,41.7,94.4L41.7,94.4z"/>
				</g>
			</g>
			<g>
				<g>
					<path class="st5" d="M48,81.5c0,2.9,0.6,5.4,1.4,8.1c1.1,3.8-0.1,6.8-1.4,10.4c0,0.1,0.1,0.2,0.2,0.1c1.4-2.5,2.5-5.3,2.2-8.2
						c-0.2-1.5-0.8-2.9-1.2-4.3c-0.7-2-1-4-1-6.1C48.2,81.4,48,81.4,48,81.5L48,81.5z"/>
				</g>
			</g>
			<g>
				<g>
					<path class="st5" d="M58.7,85c-1.1,2.8-3.4,4.3-5.5,6.3c-1.5,1.5-2.5,3.2-3.3,5.2c-0.1,0.2,0.2,0.2,0.3,0.1
						c1.6-2.5,3.1-4.6,5.3-6.6c1.6-1.4,3-2.8,3.5-4.9C59,84.9,58.8,84.9,58.7,85L58.7,85z"/>
				</g>
			</g>
		</g>
		<g class="st2">
			<path class="st8" d="M45.7,182.1c17.7,1.4,35.6,0.8,53.2-1.6c-2.7-16.3-0.7-33,1.8-49.2c0.2-1.1,1.4-6.9,1.4-6.9
				s21.9,19.5,25.3,18.5c6.9-2.1,22.2-41.8,22.3-42.3c-1.4,0.7-5.9-0.5-6.9-2.2c-0.1,0.8-11.5,14.2-16.4,21.9
				c-9.9-13.1-20.5-24-25.8-26.4c-7.8-3.5-59.8-0.3-64.2,3.5c-8.8,7.6-7.2,26.6-7.5,33.7"/>
		</g>
		<g class="st2">
			<path class="st7" d="M77.5,92.1L74,79.2l-12.6-2.1c-0.5,4.5-1.2,16.2-1.2,16.2L52,94.1c0,0,11.4,8.1,20.7,6.1
				c9.3-2,11.1-7.8,11.1-7.8L77.5,92.1z"/>
		</g>
		<g class="st2">
			<path class="st9" d="M74,86.9c0.7,0,1.4,0,2.1,0l-1-3.8c-2.1,0-4.3-0.2-6.4-0.7c-1.4-0.4-2.9-0.9-4.4-0.9c1.3,1.8,2.9,3.5,5,4.4
				C70.7,86.6,72.4,86.8,74,86.9z"/>
		</g>
		<g class="st2">
			<path class="st10" d="M82.9,54.9c0.8,0.1,1.5,0.8,2,1.5c0.4,0.8,0.6,1.6,0.7,2.4c0.4,2,0.8,4.1,1.2,6.1c0.2,1.1,0.4,2.1,0.5,3.2
				c0.2,2-0.2,4.2-1.5,5.7c-1.3,1.5-3.9,2.1-5.4,0.8"/>
		</g>
		<g class="st2">
			<path class="st7" d="M85.4,70.5c0.2,6.6-1,13.1-7.9,14.2C73.7,85.3,67,83.8,64,81.5c-1.4-1.1-2.3-2.4-3.8-3.1
				c-1.9-0.8-3.4-1.1-4.5-3.2c-1-1.9-1.2-4.2-1.4-6.4c-0.2-3.7-0.3-7.6,1.7-10.7c2.6-4.1,7.9-5.4,12.6-6.4c3.5-0.7,4.9-1.7,8.5-1.1
				c5.3,0.9,7.4,4.9,7.6,9.4C84.8,63.5,85.3,67,85.4,70.5z"/>
		</g>
		<g class="st2">
			<path class="st10" d="M78.4,58c0.3,0,0.6,0,0.9,0c2.4,0,5-0.3,6.6-2.4c1.7-2.2,2.2-7.1,1.1-7.8c-0.3-0.2-1.4,2.2-2.6,2.8
				c0.8-1.2,0.6-3.6,0.1-4.1c-0.2-0.2-0.9,0.5-1.9,0.6c-1.4,0.1-3.5-0.5-4.7-0.8c-3.5-0.9-7.1-1.3-10.7-1.1c-1.9,0.1-3.8,0.3-5.6,1
				c-2,0.7-4.3,2.3-5.8,3.8c-0.9,0.9-1.6,2.2-2.2,3.5c-0.2,0.4-1.3,3.9-0.9,4.1c-4.9-1.8-2.6,11.9-2,13.5c1.1,2.8,3.4,5,5.9,6.7
				c0.8,0.5,1.5,0.9,1.9,1.8c0.5,1,0.8,3.9,2.6,2.6c0.5-0.4,0.7-1.2,0.8-1.9c0.1-0.4,0.1-0.7,0.1-1.1c-0.4-2.4-3.9-1.3-5.2-2.8
				c-1.2-1.4-2.1-6.2-1-7.7c0.6-0.8,1.9-1.6,2.8-0.7c0.9,0.9,0.7,2.6,2.1,3c1.5,0.3,1.4-1.3,1.2-2.3c-0.5-2.3-0.4-4.8,0.2-7.1
				c0.4-1.5,0.8-3.4,2.4-3.9c1.8-0.5,3.5-0.1,5.3,0C72.8,57.9,75.6,58,78.4,58z"/>
		</g>
		<g class="st2">
			<path class="st11" d="M126.4,117.8H78.6c-1,0-1.8-0.9-1.6-1.9l5.9-30c0.1-0.8,0.8-1.3,1.6-1.3h47.8c1,0,1.8,0.9,1.6,1.9l-5.9,30
				C127.8,117.2,127.1,117.8,126.4,117.8z"/>
			<polygon class="st11" points="130.8,90.8 131.5,87.5 84.6,87.5 83.9,90.8 			"/>
			<polygon class="st11" points="107,94.8 107.3,93.2 83.9,93.2 83.5,94.8 			"/>
			<polygon class="st11" points="106.4,98 106.7,96.3 83.3,96.3 82.9,98 			"/>
			<polygon class="st11" points="105.8,101.2 106.1,99.5 82.7,99.5 82.3,101.2 			"/>
			<polygon class="st11" points="105.2,104.3 105.5,102.7 82.1,102.7 81.7,104.3 			"/>
			<polygon class="st11" points="104.6,107.5 104.9,105.9 81.5,105.9 81.2,107.5 			"/>
			<polygon class="st11" points="104,110.7 104.3,109 80.9,109 80.6,110.7 			"/>
			<polygon class="st11" points="103.4,113.9 103.7,112.2 80.3,112.2 80,113.9 			"/>
			<polygon class="st11" points="110.1,93.2 106,113.9 126.1,113.9 130.2,93.2 			"/>
		</g>
		<g class="st12">
			<path class="st4" d="M46.6,180.5c8.9-1.1,32.1-50.2,32.3-50.8c-1.8,0.6-7.3-1.8-8.1-4.1c-0.3,1-11.4,6.7-19.4,14.4l-4.8-22.5"/>
		</g>
		<path class="st13" d="M69.2,128.1c0,0,4.4-5.2,4.4-5.2c-0.9-3.7-0.5-9-0.3-9.9c0.3-1.5,0.9-3,2.1-4c1.2-1,2.7-2.2,4.1-2.8
			c2-0.9,7.2-0.8,7.1-0.5c0,0.3-0.3,1.4-1.5,1.7s-4.3,1.2-4.3,1.2l-2.2,1.6c0,0,2.6-0.6,3.4-0.6c1.8-0.2,2,1.4,1,2.1
			c2-0.2,2.1,2.3,1.1,2.5c0.9,0.2,0.7,2.7,0.3,3.1c-0.2,0.2-1.5,1.1-2.4,1.2c-0.7,0.1-1-0.7-1.2-0.8c-0.3-0.3,0.3,2,0.3,2
			s0.7,4.7-1.6,5.5c-1,1.6-4.8,9.1-4.8,9.1"/>
		<g class="st2">
			<path class="st8" d="M42.5,177.6c8.9-1.1,36.2-47.4,36.4-47.9c-1.8,0.6-7.3-1.8-8.1-4.1c-0.3,1-13.4,10.5-21.2,19.1l-3-27.2
				c0-0.5,0-9.7-9.8-7.8c-9.8,1.9-7.4,12.1-7.4,12.1"/>
		</g>
		<g class="st2">
			<path class="st11" d="M191.1,95.1h-53.5c-1.1,0-2-1-1.8-2.2l6.6-33.5c0.2-0.8,0.9-1.5,1.8-1.5h53.5c1.1,0,2,1,1.8,2.2l-6.6,33.5
				C192.7,94.5,192,95.1,191.1,95.1z"/>
			<polygon class="st11" points="196.1,64.9 196.8,61.2 144.3,61.2 143.6,64.9 			"/>
			<polygon class="st11" points="169.4,69.4 169.8,67.5 143.5,67.5 143.1,69.4 			"/>
			<polygon class="st11" points="168.7,72.9 169.1,71.1 142.8,71.1 142.5,72.9 			"/>
			<polygon class="st11" points="168.1,76.5 168.4,74.6 142.2,74.6 141.8,76.5 			"/>
			<polygon class="st11" points="167.4,80 167.8,78.2 141.5,78.2 141.1,80 			"/>
			<polygon class="st11" points="166.7,83.6 167.1,81.7 140.8,81.7 140.5,83.6 			"/>
			<polygon class="st11" points="166,87.2 166.4,85.3 140.2,85.3 139.8,87.2 			"/>
			<polygon class="st11" points="165.4,90.7 165.7,88.9 139.5,88.9 139.1,90.7 			"/>
			<polygon class="st11" points="172.9,67.5 168.3,90.7 190.8,90.7 195.4,67.5 			"/>
		</g>
	</g>
	<g>
		<g>
			<path class="st4" d="M183.1,124.2c-1.4-3.3-4.4-6-7.9-6.5c-3.2-0.5-7.6,0.9-9.6,3.6c-1.8,2.6-2.3,6-3.1,9
				c-0.3,1.2-0.8,2.5-1.7,3.4c-1,0.9-2.4,1.3-3.7,1.3c-1.3,0-2.7-0.2-4-0.2c-4.5-0.1-9.2,2.1-11.5,6c-1.7,2.9-2,6.4-2.6,9.8
				c-0.2,1.2-0.6,2.4-1.2,3.5c-1.4,2.2-3.5,2.9-5.6,4.1c-2.1,1.2-3.2,4.6-3.2,6.8c-0.1,1.8,1.9,8.8,0.3,12c-2.3,4.6-5.4,2.1-8.5,7.8
				c3.5-1,6.6,1.4,12.2-1c2.3-1,5.2-4.1,7.4-5.3c2.3-1.3,5.1-1.3,7.7-1.9c3.5-0.8,7.1-2.1,9.8-4.5c2-1.8,2.9-4.2,3-6.8
				c0.1-2.8-1.2-5.7,0.1-8.3c0.8-1.7,2-3.1,3.5-4.4c3-2.5,6.6-4,9.9-6c4.5-2.7,8.3-6.6,9.5-11.8
				C184.5,131.2,184.5,127.4,183.1,124.2z"/>
		</g>
		<g>
			<g>
				<path class="st5" d="M127.7,183.8c4.5-2.8,9-5.7,12.2-9.9c3.7-4.8,5.2-10.4,6.7-16.2c1-3.8,2.2-7.3,5-10.1
					c2.4-2.5,5.4-4.3,8.2-6.3c4.6-3.2,9.7-7.3,9.9-13.4c0-0.2-0.4-0.3-0.4-0.1c-1,7.4-7.4,11.2-13,15.1c-4.7,3.3-8.1,7-9.7,12.6
					c-1.7,5.9-2.7,11.8-6.3,17c-3.2,4.6-7.9,8-12.6,11.1C127.5,183.7,127.6,183.9,127.7,183.8L127.7,183.8z"/>
			</g>
		</g>
		<g>
			<g>
				<path class="st5" d="M145,149.6c1.3,3.1,1.4,6,1,9.3c0,0.1,0.2,0.2,0.2,0c0.9-3.1,0.3-6.5-1.1-9.4
					C145,149.5,144.9,149.6,145,149.6L145,149.6z"/>
			</g>
		</g>
		<g>
			<g>
				<path class="st5" d="M158.6,151.6c-5,1-9.7,3.4-12.8,7.5c-0.1,0.2,0.2,0.4,0.3,0.3c3.5-3.7,7.5-6.4,12.5-7.5
					C158.9,151.8,158.8,151.6,158.6,151.6L158.6,151.6z"/>
			</g>
		</g>
		<g>
			<g>
				<path class="st5" d="M158.7,165.5c-6.3,0.2-13.4,2.7-18.1,7.1c-0.2,0.2,0.1,0.5,0.2,0.3c2.9-1.9,5.4-3.8,8.7-5
					c2.9-1.1,6-1.6,9.1-2.1C158.9,165.7,158.8,165.5,158.7,165.5L158.7,165.5z"/>
			</g>
		</g>
		<g>
			<g>
				<path class="st5" d="M173.6,141.5c-6.3-0.9-13.9-0.9-19.3,3.1c-0.2,0.1,0,0.4,0.2,0.3c6.1-3.4,12.2-3.5,19.1-3.2
					C173.6,141.7,173.6,141.6,173.6,141.5L173.6,141.5z"/>
			</g>
		</g>
		<g>
			<g>
				<path class="st5" d="M155.6,137.9c-0.6,3.1-2.2,5.8-3.5,8.6c-0.1,0.1,0.1,0.3,0.2,0.1c1.7-2.7,2.9-5.6,3.4-8.7
					C155.7,137.8,155.6,137.8,155.6,137.9L155.6,137.9z"/>
			</g>
		</g>
		<g>
			<g>
				<path class="st5" d="M134.7,162.4c1,7.3,0.4,13.5-4.5,19.4c-0.1,0.1,0.1,0.3,0.2,0.2c5.5-5.4,5.7-12.6,4.5-19.7
					C134.9,162.3,134.7,162.3,134.7,162.4L134.7,162.4z"/>
			</g>
		</g>
	</g>
	<circle class="st14" cx="136" cy="160.3" r="2.4"/>
	<circle class="st14" cx="38.4" cy="89.3" r="2.4"/>
	<g>
		<g>
			<line class="st14" x1="163.2" y1="102.3" x2="163.2" y2="106.9"/>
			<line class="st14" x1="165.5" y1="104.6" x2="160.9" y2="104.6"/>
		</g>
	</g>
	<g>
		<g>
			<line class="st14" x1="96.4" y1="52.2" x2="96.4" y2="56.8"/>
			<line class="st14" x1="98.7" y1="54.5" x2="94.1" y2="54.5"/>
		</g>
	</g>
</g>
</svg>
