<?xml version="1.0" encoding="utf-8"?>
<!-- Generator: Adobe Illustrator 21.0.0, SVG Export Plug-In . SVG Version: 6.00 Build 0)  -->
<svg version="1.1" id="Layer_2" xmlns="http://www.w3.org/2000/svg" xmlns:xlink="http://www.w3.org/1999/xlink" x="0px" y="0px"
	 viewBox="0 0 100 100" style="enable-background:new 0 0 100 100;" xml:space="preserve">
<style type="text/css">
	.st0{fill:#E7F0F0;}
	.st1{fill:#405B91;}
	.st2{fill:#7DC3EA;stroke:#405B91;stroke-width:0.25;stroke-miterlimit:10;}
	.st3{fill:#F0E5F7;}
	.st4{fill:#251E4F;}
	.st5{fill:#B6D0FB;stroke:#405B91;stroke-width:0.25;stroke-miterlimit:10;}
	.st6{fill:url(#XMLID_6_);stroke:#405B91;stroke-width:0.25;stroke-miterlimit:10;}
	.st7{opacity:0.5;}
	.st8{fill:#405B91;stroke:#133160;stroke-width:0.25;stroke-miterlimit:10;}
	.st9{fill:url(#XMLID_8_);stroke:#405B91;stroke-width:0.25;stroke-miterlimit:10;}
	.st10{fill:#FFFFFF;}
	.st11{fill:#107AEC;stroke:#0D69BC;stroke-width:0.25;stroke-miterlimit:10;}
	.st12{fill:#CCBA6A;}
	.st13{opacity:0.19;}
	.st14{fill:url(#XMLID_10_);stroke:#405B91;stroke-width:0.25;stroke-miterlimit:10;}
	.st15{fill:#FFFFFF;stroke:#405B91;stroke-width:0.25;stroke-miterlimit:10;}
	.st16{fill:url(#XMLID_11_);stroke:#405B91;stroke-width:0.25;stroke-miterlimit:10;}
	.st17{fill:url(#XMLID_12_);stroke:#405B91;stroke-width:0.25;stroke-miterlimit:10;}
	.st18{fill:url(#XMLID_13_);stroke:#405B91;stroke-width:0.25;stroke-miterlimit:10;}
	.st19{fill:url(#XMLID_14_);stroke:#405B91;stroke-width:0.25;stroke-miterlimit:10;}
	.st20{fill:url(#XMLID_15_);stroke:#405B91;stroke-width:0.25;stroke-miterlimit:10;}
	.st21{fill:url(#XMLID_16_);stroke:#405B91;stroke-width:0.25;stroke-miterlimit:10;}
</style>
<path class="st0" d="M87.3,63.9c0,0,20.9-28.6-22.7-37s-41.3,6.7-41.3,6.7s2.9,9.3-9.8,13.4s4.1,37.2,16.3,35.2
	c12.2-2.1,45.5,0,45.5,0S90.1,84.3,87.3,63.9z"/>
<g>
	<path class="st1" d="M92.8,82.3H10.3c-0.1,0-0.2-0.1-0.2-0.2s0.1-0.2,0.2-0.2h82.5c0.1,0,0.2,0.1,0.2,0.2
		C93,82.2,92.9,82.3,92.8,82.3z"/>
</g>
<g id="XMLID_77_">
	<g id="XMLID_247_">
		<path id="XMLID_1284_" class="st2" d="M55,67.7c-0.3-1.1-0.5-2.2-0.6-3.2c0-0.2-0.2-0.4-0.5-0.4l-3.6,0.3c-0.3,0-0.5,0.3-0.5,0.6
			c0.1,1.1,0.3,2.4,0.6,3.6c1.6,6.6,5.8,11.5,12.2,14l1.7-4.2C59.4,76.5,56.2,72.8,55,67.7z"/>
	</g>
</g>
<g id="XMLID_146_">
	<polygon id="XMLID_1283_" class="st3" points="62,87.2 65.8,79.1 62.3,77.4 60.2,81.6 	"/>
</g>
<g id="XMLID_352_">
	<g id="XMLID_49_">
		<path id="XMLID_1282_" class="st4" d="M61.7,85.7c1.1-2.3,2.2-4.7,3.5-6.8c0.1-0.2-0.2-0.3-0.3-0.2c-1.3,2.2-2.5,4.5-3.5,6.8
			C61.4,85.8,61.6,85.9,61.7,85.7L61.7,85.7z"/>
	</g>
</g>
<g id="XMLID_353_">
	<g id="XMLID_48_">
		<path id="XMLID_1281_" class="st4" d="M63,78.8c-0.8,1.1-0.5,2.4,0.6,3.1c0.2,0.1,0.3-0.2,0.2-0.3c-1-0.6-1.1-1.7-0.5-2.7
			C63.3,78.8,63.1,78.7,63,78.8L63,78.8z"/>
	</g>
</g>
<g id="XMLID_357_">
	<g id="XMLID_47_">
		<path id="XMLID_1280_" class="st4" d="M60.8,83c0.2-0.4,0.5-0.8,0.7-1.1c0.1-0.2-0.2-0.3-0.3-0.2c-0.2,0.4-0.5,0.8-0.7,1.1
			C60.5,83,60.7,83.2,60.8,83L60.8,83z"/>
	</g>
</g>
<g id="XMLID_360_">
	<g id="XMLID_45_">
		<path id="XMLID_1279_" class="st4" d="M61,84c0.3-0.5,0.6-1,1-1.5c0.1-0.2-0.2-0.3-0.3-0.2c-0.3,0.5-0.6,1-1,1.5
			C60.7,84,60.9,84.1,61,84L61,84z"/>
	</g>
</g>
<g id="XMLID_19_">
	<g id="XMLID_244_">
		<path id="XMLID_1278_" class="st2" d="M44.2,65l-3.5,0.3c-0.3,0-0.5,0.2-0.5,0.5c0,0.2,0,0.3,0,0.5c-0.3,4.9,1.1,12,9.1,17.9
			l2.7-3.6c-6.6-4.9-7.7-10.6-7.1-14.9C44.7,65.3,44.5,65,44.2,65z"/>
	</g>
</g>
<g id="XMLID_145_">
	<polygon id="XMLID_1277_" class="st3" points="47.9,89.2 53.6,81.9 50.7,79.5 47.7,83 	"/>
</g>
<g id="XMLID_369_">
	<g id="XMLID_367_">
		<g id="XMLID_44_">
			<path id="XMLID_1276_" class="st4" d="M47.9,87.8c1.7-2.1,3.3-4.3,5.2-6.2c0.1-0.1-0.1-0.4-0.2-0.2c-1.8,2-3.4,4.2-5.2,6.2
				C47.6,87.8,47.8,88,47.9,87.8L47.9,87.8z"/>
		</g>
	</g>
	<g id="XMLID_366_">
		<g id="XMLID_43_">
			<path id="XMLID_1275_" class="st4" d="M51.1,80c-1,0.9-1,2.2,0,3.2c0.1,0.1,0.4-0.1,0.2-0.2c-0.8-0.8-0.8-1.9,0-2.7
				C51.5,80.1,51.3,79.9,51.1,80L51.1,80z"/>
		</g>
	</g>
	<g id="XMLID_365_">
		<g id="XMLID_42_">
			<path id="XMLID_1274_" class="st4" d="M47.9,84.9c0.3-0.3,0.6-0.6,0.9-1c0.1-0.1-0.1-0.4-0.2-0.2c-0.3,0.3-0.6,0.6-0.9,1
				C47.5,84.8,47.8,85,47.9,84.9L47.9,84.9z"/>
		</g>
	</g>
	<g id="XMLID_363_">
		<g id="XMLID_41_">
			<path id="XMLID_1273_" class="st4" d="M47.9,85.9c0.4-0.4,0.8-0.9,1.2-1.2c0.1-0.1-0.1-0.4-0.2-0.2c-0.4,0.4-0.8,0.9-1.2,1.2
				C47.5,85.8,47.7,86.1,47.9,85.9L47.9,85.9z"/>
		</g>
	</g>
</g>
<path class="st5" d="M80.2,22.8c-0.2-0.2-0.4-0.1-0.6,0c-0.1,0.1-0.3,0.3-0.5,0.5c0.2-0.5,0.4-0.9,0.5-1.2c0.1-0.2,0.1-0.4-0.1-0.5
	c-0.2-0.1-0.4-0.1-0.5,0.1c-0.4,0.3-0.9,0.9-1.2,1.4c0.3-0.7,0.7-1.4,0.9-1.9c0.1-0.2,0.1-0.4-0.1-0.6c-0.2-0.2-0.4,0-0.6,0.2
	c-0.4,0.5-0.8,1.1-1.1,1.6c0.2-0.6,0.3-1.1,0.4-1.4c0-0.1,0-0.2-0.1-0.3c-0.2-0.1-0.4-0.1-0.4,0c-0.8,0.8-1.4,2.6-1.9,3.6l0.1,0.1
	c-0.2,0.3-0.5,0.8-0.7,1.2l0,0c-2.4,5-6.6,7.2-10.1,8.2c-0.4,0.1-0.6,0.4-0.7,0.8l-0.9,3.7c-0.1,0.3,0.2,0.7,0.6,0.6
	c8-1.9,13.3-9,14.7-11c0.1-0.1,0.1-0.2,0.2-0.3c0.1-0.2,0.2-0.3,0.2-0.3c0.3-0.5,1.8-3.4,2.1-4.1C80.3,23.1,80.3,22.9,80.2,22.8z"/>
<g id="XMLID_87_">
	<path id="XMLID_1266_" class="st4" d="M78.4,26.8c-0.3-0.1-0.5-0.6-0.7-0.8c-0.6-0.6-0.9-1.2-0.8-2.1c0.1-0.6,0.3-1.6,0.9-1.9
		c0.3-0.1,0.5,0.1,0.5,0.4C78.2,23.2,78.2,24.5,78.4,26.8z"/>
</g>
<linearGradient id="XMLID_6_" gradientUnits="userSpaceOnUse" x1="75.2802" y1="345.2805" x2="89.935" y2="345.2805" gradientTransform="matrix(1 0 0 1 0 -321)">
	<stop  offset="0" style="stop-color:#86B8E0"/>
	<stop  offset="0.1163" style="stop-color:#98C4E7"/>
	<stop  offset="0.3255" style="stop-color:#B2D6F2"/>
	<stop  offset="0.5401" style="stop-color:#C5E2F9"/>
	<stop  offset="0.7615" style="stop-color:#D0EAFE"/>
	<stop  offset="1" style="stop-color:#D4ECFF"/>
</linearGradient>
<path id="XMLID_3_" class="st6" d="M89.5,21.9L89.5,21.9C89.5,21.8,89.5,21.8,89.5,21.9C89.5,21.8,89.5,21.8,89.5,21.9
	C89.5,21.8,89.5,21.8,89.5,21.9C89.5,21.8,89.5,21.8,89.5,21.9C89.5,21.8,89.5,21.8,89.5,21.9C89.5,21.8,89.5,21.8,89.5,21.9
	C89.5,21.8,89.5,21.8,89.5,21.9C89.5,21.8,89.5,21.8,89.5,21.9C89.5,21.8,89.5,21.8,89.5,21.9L89.5,21.9L89.5,21.9L89.5,21.9
	L89.5,21.9L89.5,21.9L89.5,21.9L89.5,21.9L89.5,21.9L89.5,21.9L89.5,21.9L89.5,21.9L89.5,21.9L89.5,21.9L89.5,21.9L89.5,21.9
	L89.5,21.9L89.5,21.9L89.5,21.9L89.5,21.9L89.5,21.9L89.5,21.9L89.5,21.9L89.5,21.9L89.5,21.9L89.5,21.9L89.5,21.9L89.5,21.9
	L89.5,21.9L89.5,21.9L89.5,21.9L89.5,21.9L89.5,21.9L89.5,21.9L89.5,21.9L89.5,21.9L89.5,21.9L89.5,21.9L89.5,21.9L89.5,21.9
	L89.5,21.9L89.5,21.9L89.5,21.9L89.5,21.9L89.5,21.9L89.5,21.9L89.5,21.9L89.5,21.9L89.5,21.9L89.5,21.9L89.5,21.9L89.5,21.9
	L89.5,21.9L89.5,21.9L89.5,21.9L89.5,21.9L89.5,21.9L89.5,21.9L89.5,21.9L89.5,21.9L89.5,21.9L89.5,21.9L89.5,21.9L89.5,21.9
	L89.5,21.9L89.5,21.9L89.5,21.9L89.5,21.9L89.5,21.9L89.5,21.9L89.5,21.9L89.5,21.9L89.5,21.9L89.5,21.9L89.5,21.9L89.5,21.9
	L89.5,21.9L89.5,21.9L89.5,21.9L89.5,21.9L89.5,21.9L89.5,21.9L89.5,21.9L89.5,21.9L89.5,21.9L89.5,21.9L89.5,21.9L89.5,21.9
	L89.5,21.9L89.5,21.9L89.5,21.9C88.4,19,85.7,17,82.6,17c-4,0-7.3,3.3-7.3,7.3c0,0.9,0.2,1.7,0.5,2.5l0,0l0,0l0,0l0,0l0,0l0,0l0,0
	l0,0l0,0l0,0l0,0l0,0l0,0l0,0l0,0l0,0l0,0l0,0l0,0l0,0l0,0l0,0l0,0l0,0l0,0l0,0l0,0l0,0l0,0l0,0l0,0l0,0l0,0l0,0l0,0l0,0l0,0l0,0
	l0,0l0,0l0,0l0,0l0,0l0,0l0,0l0,0l0,0l0,0l0,0l0,0l0,0l0,0l0,0l0,0l0,0l0,0l0,0l0,0l0,0l0,0l0,0l0,0l0,0l0,0l0,0l0,0l0,0l0,0l0,0
	l0,0l0,0l0,0l0,0l0,0l0,0l0,0l0,0l0,0l0,0l0,0l0,0l0,0l0,0l0,0l0,0l0,0l0,0l0,0l0,0l0,0l0,0l0,0l0,0l0,0l0,0l0,0l0,0l0,0l0,0l0,0
	c1.1,2.8,3.7,4.8,6.9,4.8c4,0,7.3-3.3,7.3-7.3C89.9,23.5,89.7,22.7,89.5,21.9z"/>
<g id="XMLID_167_">
	<circle id="XMLID_1165_" class="st5" cx="82.3" cy="23.3" r="7.3"/>
</g>
<g id="XMLID_271_" class="st7">
	<g id="XMLID_274_">
		<path id="XMLID_1164_" class="st8" d="M81.2,27.3c0.2,0.1,0.4,0.2,0.6,0.2c0.5,0.1,1-0.1,1.3-0.4c1.1-0.8,2-1.7,2.8-2.8
			c0.5-0.7,0.9-1.4,0.8-2.3c-0.1-1-1-1.7-1.8-1.9c-1-0.2-1.6,0.2-2.3,0.9c-0.1-0.9-1.3-1.7-2.2-1.7c-2,0.1-2.4,2.1-2.1,3.7
			c0.2,1,0.7,1.9,1.2,2.7C79.8,26.3,80.5,27,81.2,27.3z"/>
	</g>
</g>
<path class="st5" d="M25.5,47.4L25.5,47.4c-0.1,0.1-0.2,0.3-0.3,0.5l0,0c-0.2,0.5-1.6,3.5-1.8,4.2c-0.1,0.2-0.1,0.4,0.1,0.5
	c0.2,0.1,0.4,0,0.6-0.1c0.1-0.1,0.3-0.3,0.5-0.6c-0.2,0.5-0.3,1-0.4,1.2c0,0.2-0.1,0.4,0.1,0.5c0.2,0.1,0.4,0,0.5-0.1
	c0.4-0.4,0.8-1,1.1-1.5c-0.3,0.8-0.6,1.4-0.7,2c-0.1,0.2-0.1,0.5,0.2,0.6c0.2,0.1,0.4,0,0.6-0.2c0.3-0.5,0.7-1.1,1.1-1.7
	c-0.1,0.6-0.2,1.1-0.3,1.4c0,0.1,0,0.2,0.1,0.3c0.2,0.1,0.4,0,0.4-0.1c0.5-0.7,1-1.8,1.3-2.9c0.1,0.1,0.1,0.1,0.2,0.2
	c0.3,0.3,0.8,0.6,1.1,0.7c0.6,0.1,0.7-0.3,0.5-0.7c-0.3-0.7-0.7-1.3-1.1-2c0.1-0.1,0.1-0.3,0.2-0.5l0,0c3.9-9.8,15.2-10,15.2-10
	l1.5-4.7C32.7,33.7,25.5,47.4,25.5,47.4z"/>
<linearGradient id="XMLID_8_" gradientUnits="userSpaceOnUse" x1="35.0532" y1="122.3358" x2="71.6903" y2="122.3358" gradientTransform="matrix(1 0 0 -1 0 167)">
	<stop  offset="0" style="stop-color:#86B8E0"/>
	<stop  offset="0.1163" style="stop-color:#98C4E7"/>
	<stop  offset="0.3255" style="stop-color:#B2D6F2"/>
	<stop  offset="0.5401" style="stop-color:#C5E2F9"/>
	<stop  offset="0.7615" style="stop-color:#D0EAFE"/>
	<stop  offset="1" style="stop-color:#D4ECFF"/>
</linearGradient>
<path id="XMLID_7_" class="st9" d="M70.8,22.7C70.8,22.6,70.8,22.6,70.8,22.7C70.8,22.6,70.8,22.6,70.8,22.7
	C70.8,22.6,70.8,22.6,70.8,22.7C70.7,22.6,70.7,22.6,70.8,22.7C70.7,22.6,70.7,22.6,70.8,22.7L70.8,22.7L70.8,22.7L70.8,22.7
	L70.8,22.7L70.8,22.7L70.8,22.7L70.8,22.7L70.8,22.7L70.8,22.7L70.8,22.7L70.8,22.7L70.8,22.7L70.8,22.7L70.8,22.7L70.8,22.7
	L70.8,22.7L70.8,22.7L70.8,22.7L70.8,22.7L70.8,22.7L70.8,22.7L70.8,22.7L70.8,22.7L70.8,22.7L70.8,22.7L70.8,22.7L70.8,22.7
	L70.8,22.7L70.8,22.7L70.8,22.7L70.8,22.7L70.8,22.7L70.8,22.7L70.8,22.7L70.8,22.7L70.8,22.7L70.8,22.7L70.8,22.7L70.8,22.7
	L70.8,22.7L70.8,22.7L70.8,22.7L70.8,22.7L70.8,22.7L70.8,22.7L70.8,22.7L70.8,22.7L70.8,22.7L70.8,22.7L70.8,22.7L70.8,22.7
	L70.8,22.7L70.8,22.7L70.8,22.7L70.8,22.7L70.8,22.7L70.8,22.7L70.8,22.7L70.8,22.7L70.8,22.7L70.8,22.7L70.8,22.7L70.8,22.7
	L70.8,22.7L70.8,22.7L70.8,22.7L70.8,22.7L70.8,22.7L70.8,22.7L70.8,22.7L70.8,22.7L70.8,22.7L70.8,22.7L70.8,22.7L70.8,22.7
	L70.8,22.7L70.8,22.7L70.8,22.7L70.8,22.7L70.8,22.7L70.8,22.7L70.8,22.7L70.8,22.7L70.8,22.7L70.8,22.7L70.8,22.7L70.8,22.7
	L70.8,22.7L70.8,22.7L70.8,22.7L70.8,22.7L70.8,22.7L70.8,22.7L70.8,22.7L70.8,22.7c-0.5-0.4-1-0.5-1.4-0.4L48.7,25
	c-0.8,0.1-1.4,0.7-1.6,1.4L35.1,64.6c-0.2,0.9,0.2,1.8,1,2.2l0,0l0,0l0,0l0,0l0,0l0,0l0,0l0,0l0,0l0,0l0,0l0,0l0,0l0,0l0,0l0,0l0,0
	l0,0l0,0l0,0l0,0l0,0l0,0l0,0l0,0l0,0l0,0l0,0l0,0l0,0l0,0l0,0l0,0l0,0l0,0l0,0l0,0l0,0l0,0l0,0l0,0l0,0l0,0l0,0l0,0l0,0l0,0l0,0
	l0,0l0,0l0,0l0,0l0,0l0,0l0,0l0,0l0,0l0,0l0,0l0,0l0,0l0,0l0,0l0,0l0,0l0,0l0,0l0,0l0,0l0,0l0,0l0,0l0,0l0,0l0,0l0,0l0,0l0,0l0,0
	l0,0l0,0l0,0l0,0l0,0l0,0l0,0l0,0l0,0l0,0l0,0l0,0l0,0l0,0l0,0l0,0l0,0l0,0l0,0l0,0l0,0c0.4,0.2,0.8,0.3,1.1,0.3l21.3-1.9
	c0.9-0.1,1.5-0.7,1.7-1.5l9.2-40.3C71.8,23.8,71.4,23,70.8,22.7z"/>
<g id="XMLID_1_">
	<path id="XMLID_1055_" class="st2" d="M56.9,63.9l-21.3,1.9c-1.3,0.1-2.4-1.1-2.1-2.4l9.9-39.6c0.2-0.8,0.9-1.3,1.6-1.4l20.7-2.7
		c1.3-0.2,2.5,1.1,2.2,2.4l-9.2,40.3C58.4,63.3,57.8,63.9,56.9,63.9z"/>
</g>
<g id="XMLID_9_">
	<path id="XMLID_1054_" class="st5" d="M57.1,59.6l-20.6,1.9c-0.6,0.1-1-0.5-0.9-1l8.7-35.1c0.1-0.3,0.4-0.6,0.7-0.6l20-2.6
		c0.6-0.1,1,0.4,0.9,1l-8.2,35.8C57.7,59.3,57.5,59.5,57.1,59.6z"/>
</g>
<g id="XMLID_380_">
	<g id="XMLID_393_">
		<g id="XMLID_40_">
			<path id="XMLID_1053_" class="st4" d="M51.8,23c2.3-0.3,4.6-0.7,6.9-0.9c0.2,0,0.2-0.3,0-0.3c-2.3,0.2-4.6,0.6-6.9,0.9
				C51.6,22.7,51.6,23,51.8,23L51.8,23z"/>
		</g>
	</g>
	<g id="XMLID_383_">
		<g id="XMLID_39_">
			<path id="XMLID_1052_" class="st4" d="M50.8,23.1c0.3,0,0.3-0.4,0-0.4C50.6,22.7,50.6,23.1,50.8,23.1L50.8,23.1z"/>
		</g>
	</g>
	<g id="XMLID_395_">
		<g id="XMLID_38_">
			<path id="XMLID_1051_" class="st4" d="M45.2,62.7c-0.2,1.7,2.9,1.2,2.7-0.5c-0.1-0.7-0.8-1.1-1.4-1C45.7,61.4,45.2,62,45.2,62.7
				c0,0.2,0.3,0.2,0.3,0c0-0.5,0.3-0.9,0.8-1.1c0.5-0.1,1.1,0,1.2,0.4c0.7,1.4-2.1,2-2,0.7C45.5,62.5,45.2,62.5,45.2,62.7L45.2,62.7
				z"/>
		</g>
	</g>
</g>
<path id="XMLID_4_" class="st5" d="M59.7,26.4L59.7,26.4C59.7,26.3,59.7,26.3,59.7,26.4C59.7,26.3,59.7,26.3,59.7,26.4
	C59.7,26.3,59.7,26.3,59.7,26.4C59.7,26.3,59.7,26.3,59.7,26.4C59.7,26.3,59.6,26.3,59.7,26.4C59.6,26.3,59.6,26.3,59.7,26.4
	C59.6,26.3,59.6,26.3,59.7,26.4L59.7,26.4L59.7,26.4L59.7,26.4L59.7,26.4L59.7,26.4L59.7,26.4L59.7,26.4L59.7,26.4L59.7,26.4
	L59.7,26.4L59.7,26.4L59.7,26.4L59.7,26.4L59.7,26.4L59.7,26.4L59.7,26.4L59.7,26.4L59.7,26.4L59.7,26.4L59.7,26.4L59.7,26.4
	L59.7,26.4L59.7,26.4L59.7,26.4L59.7,26.4L59.7,26.4L59.7,26.4L59.7,26.4L59.7,26.4L59.7,26.4L59.7,26.4L59.7,26.4L59.7,26.4
	L59.7,26.4L59.7,26.4L59.7,26.4L59.7,26.4L59.7,26.4L59.7,26.4L59.7,26.4L59.7,26.4L59.7,26.4L59.7,26.4L59.7,26.4L59.7,26.4
	L59.7,26.4L59.7,26.4L59.7,26.4L59.7,26.4L59.7,26.4L59.7,26.4L59.7,26.4L59.7,26.4L59.7,26.4L59.7,26.4L59.7,26.4L59.7,26.4
	L59.7,26.4L59.7,26.4L59.7,26.4L59.7,26.4L59.7,26.4L59.7,26.4L59.7,26.4L59.7,26.4L59.7,26.4L59.7,26.4L59.7,26.4L59.7,26.4
	L59.7,26.4L59.7,26.4L59.7,26.4L59.7,26.4L59.7,26.4L59.7,26.4L59.7,26.4L59.7,26.4L59.7,26.4L59.7,26.4L59.7,26.4L59.7,26.4
	L59.7,26.4L59.7,26.4L59.7,26.4L59.7,26.4L59.7,26.4L59.7,26.4L59.7,26.4L59.7,26.4L59.7,26.4L59.7,26.4L59.7,26.4
	c-0.3-0.3-0.6-0.3-0.9-0.3L40.5,28c-0.4,0-0.8,0.3-0.9,0.8L37,37.7c-0.1,0.5,0,0.9,0.4,1.1l0,0l0,0l0,0l0,0l0,0l0,0l0,0l0,0l0,0l0,0
	l0,0l0,0l0,0l0,0l0,0l0,0l0,0l0,0l0,0l0,0l0,0l0,0l0,0l0,0l0,0l0,0l0,0l0,0l0,0l0,0l0,0l0,0l0,0l0,0l0,0l0,0l0,0l0,0l0,0l0,0l0,0
	l0,0l0,0l0,0l0,0l0,0l0,0l0,0l0,0l0,0l0,0l0,0l0,0l0,0l0,0l0,0l0,0l0,0l0,0l0,0l0,0l0,0l0,0l0,0l0,0l0,0l0,0l0,0l0,0l0,0l0,0l0,0
	l0,0l0,0l0,0l0,0l0,0l0,0l0,0l0,0l0,0l0,0l0,0l0,0l0,0l0,0l0,0l0,0l0,0l0,0l0,0l0,0l0,0l0,0l0,0l0,0l0,0l0,0l0,0l0,0
	c0.2,0.2,0.5,0.2,0.8,0.2l11.1-1.1l0.1,0.8c0,0.2,0.1,0.4,0.3,0.5l0,0l0,0l0,0l0,0l0,0l0,0l0,0l0,0l0,0l0,0l0,0l0,0l0,0l0,0l0,0l0,0
	l0,0l0,0l0,0l0,0l0,0l0,0l0,0l0,0l0,0l0,0l0,0l0,0l0,0l0,0l0,0l0,0l0,0l0,0l0,0l0,0l0,0l0,0l0,0l0,0l0,0l0,0l0,0l0,0l0,0l0,0l0,0
	l0,0l0,0l0,0l0,0l0,0l0,0l0,0l0,0l0,0l0,0l0,0l0,0l0,0l0,0l0,0l0,0l0,0l0,0l0,0l0,0l0,0l0,0l0,0l0,0l0,0l0,0l0,0l0,0l0,0l0,0l0,0
	l0,0l0,0l0,0l0,0l0,0l0,0l0,0l0,0l0,0l0,0l0,0l0,0l0,0l0,0l0,0l0,0l0,0l0,0l0,0l0,0l0,0l0,0c0.3,0.3,0.8,0.2,1.1-0.1l1.9-2.5
	l2.8-0.3c0.4,0,0.8-0.4,0.9-0.8l2.5-8.9C60.2,27.1,60.1,26.6,59.7,26.4z"/>
<g id="XMLID_99_">
	<path id="XMLID_950_" class="st2" d="M57.8,25.2l-18.3,1.9c-0.4,0-0.8,0.3-0.9,0.8l-2.7,8.9c-0.2,0.7,0.4,1.4,1.1,1.3l12.2-1.2
		l0.3,1.8c0.1,0.7,1,0.9,1.3,0.3l1.9-2.5l2.8-0.3c0.4,0,0.8-0.4,0.9-0.8l2.5-8.9C59,25.8,58.4,25.1,57.8,25.2z"/>
</g>
<g id="XMLID_116_">
	<path id="XMLID_949_" class="st10" d="M40.4,29.8c-0.2,0-0.3-0.1-0.3-0.3s0.1-0.3,0.3-0.4l13.7-1.4c0.2,0,0.3,0.1,0.4,0.3
		c0,0.2-0.1,0.3-0.3,0.4L40.4,29.8L40.4,29.8z"/>
</g>
<g id="XMLID_117_">
	<path id="XMLID_948_" class="st10" d="M38.9,35.6c-0.2,0-0.3-0.1-0.3-0.3c0-0.2,0.1-0.3,0.3-0.4l15.7-1.6c0.2,0,0.3,0.1,0.4,0.3
		c0,0.2-0.1,0.3-0.3,0.4L38.9,35.6C38.9,35.5,38.9,35.6,38.9,35.6z"/>
</g>
<g id="XMLID_119_">
	<path id="XMLID_947_" class="st10" d="M39.3,33.7c-0.2,0-0.3-0.1-0.3-0.3s0.1-0.3,0.3-0.4l14.1-1.4c0.2,0,0.3,0.1,0.4,0.3
		c0,0.2-0.1,0.3-0.3,0.4L39.3,33.7C39.4,33.7,39.3,33.7,39.3,33.7z"/>
</g>
<g id="XMLID_120_">
	<path id="XMLID_946_" class="st10" d="M39.7,31.8c-0.2,0-0.3-0.1-0.3-0.3c0-0.2,0.1-0.3,0.3-0.4l11-1.1c0.2,0,0.3,0.1,0.4,0.3
		c0,0.2-0.1,0.3-0.3,0.4L39.7,31.8C39.8,31.8,39.8,31.8,39.7,31.8z"/>
</g>
<path id="XMLID_5_" class="st11" d="M68.1,43.4L68.1,43.4L68.1,43.4L68.1,43.4L68.1,43.4L68.1,43.4C68.1,43.4,68.1,43.3,68.1,43.4
	C68,43.3,68,43.3,68.1,43.4C68,43.3,68,43.3,68.1,43.4L68.1,43.4L68.1,43.4L68.1,43.4L68.1,43.4L68.1,43.4L68.1,43.4L68.1,43.4
	L68.1,43.4L68.1,43.4L68.1,43.4L68.1,43.4L68.1,43.4L68.1,43.4L68.1,43.4L68.1,43.4L68.1,43.4L68.1,43.4L68.1,43.4L68.1,43.4
	L68.1,43.4L68.1,43.4L68.1,43.4L68.1,43.4L68.1,43.4L68.1,43.4L68.1,43.4L68.1,43.4L68.1,43.4L68.1,43.4L68.1,43.4L68.1,43.4
	L68.1,43.4L68.1,43.4L68.1,43.4L68.1,43.4L68.1,43.4L68.1,43.4L68.1,43.4L68.1,43.4L68.1,43.4L68.1,43.4L68.1,43.4L68.1,43.4
	L68.1,43.4L68.1,43.4L68.1,43.4L68.1,43.4L68.1,43.4L68.1,43.4L68.1,43.4L68.1,43.4L68.1,43.4L68.1,43.4L68.1,43.4L68.1,43.4
	L68.1,43.4L68.1,43.4L68.1,43.4L68.1,43.4L68.1,43.4L68.1,43.4L68.1,43.4L68.1,43.4L68.1,43.4L68.1,43.4L68.1,43.4L68.1,43.4
	L68.1,43.4L68.1,43.4L68.1,43.4L68.1,43.4L68.1,43.4L68.1,43.4L68.1,43.4L68.1,43.4L68.1,43.4L68.1,43.4L68.1,43.4L68.1,43.4
	L68.1,43.4L68.1,43.4L68.1,43.4L68.1,43.4L68.1,43.4L68.1,43.4L68.1,43.4L68.1,43.4L68.1,43.4L68.1,43.4L68.1,43.4L68.1,43.4
	L68.1,43.4c-0.3-0.3-0.6-0.3-0.9-0.3l-18.3,1.9c-0.4,0-0.8,0.3-0.9,0.8l-2.7,8.9c-0.1,0.5,0,0.9,0.4,1.1l0,0l0,0l0,0l0,0l0,0l0,0
	l0,0l0,0l0,0l0,0l0,0l0,0l0,0l0,0l0,0l0,0l0,0l0,0l0,0l0,0l0,0l0,0l0,0l0,0l0,0l0,0l0,0l0,0l0,0l0,0l0,0l0,0l0,0l0,0l0,0l0,0l0,0
	l0,0l0,0l0,0l0,0l0,0l0,0l0,0l0,0l0,0l0,0l0,0l0,0l0,0l0,0l0,0l0,0l0,0l0,0l0,0l0,0l0,0l0,0l0,0l0,0l0,0l0,0l0,0l0,0l0,0l0,0l0,0
	l0,0l0,0l0,0l0,0l0,0l0,0l0,0l0,0l0,0l0,0l0,0l0,0l0,0l0,0l0,0l0,0l0,0l0,0l0,0l0,0l0,0l0,0l0,0l0,0l0,0l0,0l0,0l0,0l0,0l0,0l0,0
	l0,0c0.2,0.2,0.5,0.2,0.8,0.2l1.8-0.2l0.1,0.8c0,0.2,0.1,0.4,0.3,0.5l0,0l0,0l0,0l0,0l0,0l0,0l0,0l0,0l0,0l0,0l0,0l0,0l0,0l0,0l0,0
	l0,0l0,0l0,0l0,0l0,0l0,0l0,0l0,0l0,0l0,0l0,0l0,0l0,0l0,0l0,0l0,0l0,0l0,0l0,0l0,0l0,0l0,0l0,0l0,0l0,0l0,0l0,0l0,0l0,0l0,0l0,0
	l0,0l0,0l0,0l0,0l0,0l0,0l0,0l0,0l0,0l0,0l0,0l0,0l0,0l0,0l0,0l0,0l0,0l0,0l0,0l0,0l0,0l0,0l0,0l0,0l0,0l0,0l0,0l0,0l0,0l0,0l0,0
	l0,0l0,0l0,0l0,0l0,0l0,0l0,0l0,0l0,0l0,0l0,0l0,0l0,0l0,0l0,0l0,0l0,0l0,0l0,0l0,0l0,0l0,0l0,0c0.3,0.3,0.8,0.2,1.1-0.1l1.9-2.5
	l12.2-1.2c0.4,0,0.8-0.4,0.9-0.8l2.5-8.9C68.7,44.1,68.5,43.7,68.1,43.4z"/>
<g id="XMLID_105_">
	<path id="XMLID_845_" class="st11" d="M65.2,41.3l-18.3,1.9c-0.4,0-0.8,0.3-0.9,0.8l-2.7,8.9c-0.2,0.7,0.4,1.4,1.1,1.3l2.9-0.3
		l0.3,1.8c0.1,0.7,1,0.9,1.3,0.3l1.9-2.5L63,52.3c0.4,0,0.8-0.4,0.9-0.8l2.5-8.9C66.5,42,65.9,41.3,65.2,41.3z"/>
</g>
<g id="XMLID_104_">
	<path id="XMLID_844_" class="st10" d="M50.8,45.6c-0.2,0-0.3-0.1-0.3-0.3s0.1-0.3,0.3-0.4l12.8-1.3c0.2,0,0.3,0.1,0.4,0.3
		c0,0.2-0.1,0.3-0.3,0.4L50.8,45.6L50.8,45.6z"/>
</g>
<g id="XMLID_103_">
	<path id="XMLID_843_" class="st10" d="M51.3,51.1c-0.2,0-0.3-0.1-0.3-0.3s0.1-0.3,0.3-0.4l10.7-1.1c0.2,0,0.3,0.1,0.4,0.3
		c0,0.2-0.1,0.3-0.3,0.4L51.3,51.1L51.3,51.1z"/>
</g>
<g id="XMLID_102_">
	<path id="XMLID_842_" class="st10" d="M49.2,49.6c-0.2,0-0.3-0.1-0.3-0.3s0.1-0.3,0.3-0.4l13.3-1.4c0.2,0,0.3,0.1,0.4,0.3
		c0,0.2-0.1,0.3-0.3,0.4L49.2,49.6L49.2,49.6z"/>
</g>
<g id="XMLID_101_">
	<path id="XMLID_841_" class="st10" d="M47.3,47.8c-0.2,0-0.3-0.1-0.3-0.3c0-0.2,0.1-0.3,0.3-0.4L63,45.6c0.2,0,0.3,0.1,0.4,0.3
		c0,0.2-0.1,0.3-0.3,0.4L47.3,47.8L47.3,47.8z"/>
</g>
<path id="XMLID_46_" class="st12" d="M22.9,24.1c-1.3-0.4-2.7-0.4-3.8,0.1l0,0l0,0l0,0l0,0l0,0l0,0l0,0l0,0l0,0l0,0l0,0l0,0l0,0l0,0
	l0,0l0,0l0,0l0,0l0,0l0,0l0,0l0,0l0,0l0,0l0,0l0,0l0,0l0,0l0,0l0,0l0,0l0,0l0,0l0,0l0,0l0,0l0,0l0,0l0,0l0,0l0,0l0,0l0,0l0,0l0,0
	l0,0l0,0l0,0l0,0l0,0l0,0l0,0l0,0l0,0l0,0l0,0l0,0l0,0l0,0l0,0l0,0l0,0l0,0l0,0l0,0l0,0l0,0l0,0l0,0l0,0l0,0l0,0l0,0l0,0l0,0l0,0
	l0,0l0,0l0,0l0,0l0,0l0,0l0,0l0,0l0,0l0,0l0,0l0,0l0,0l0,0l0,0l0,0l0,0l0,0l0,0l0,0l0,0l0,0l0,0l0,0c-1.5,0.6-2.8,1.8-3.4,3.5
	c-1,3,0.7,6.2,3.6,7.2c1.3,0.4,2.7,0.4,3.8-0.1l0,0l0,0l0,0l0,0l0,0l0,0l0,0l0,0l0,0l0,0l0,0l0,0l0,0l0,0l0,0l0,0l0,0l0,0l0,0l0,0
	l0,0l0,0l0,0l0,0l0,0l0,0l0,0l0,0l0,0l0,0l0,0l0,0l0,0l0,0l0,0l0,0l0,0l0,0l0,0l0,0l0,0l0,0l0,0l0,0l0,0l0,0l0,0l0,0l0,0l0,0l0,0
	l0,0l0,0l0,0l0,0l0,0l0,0l0,0l0,0l0,0l0,0l0,0l0,0l0,0l0,0l0,0l0,0l0,0l0,0l0,0l0,0l0,0l0,0l0,0l0,0l0,0l0,0l0,0l0,0l0,0l0,0l0,0
	l0,0l0,0l0,0l0,0l0,0l0,0l0,0l0,0l0,0l0,0l0,0l0,0l0,0l0,0l0,0l0,0l0,0l0,0c1.5-0.6,2.8-1.8,3.4-3.5C27.5,28.3,25.9,25,22.9,24.1z"
	/>
<g id="XMLID_32_">
	
		<ellipse id="XMLID_740_" transform="matrix(0.3079 -0.9514 0.9514 0.3079 -13.5701 40.4744)" class="st5" cx="21" cy="29.6" rx="5.7" ry="5.7"/>
</g>
<g id="XMLID_213_">
	<g id="XMLID_37_">
		<path id="XMLID_739_" class="st1" d="M18.6,27.8c0.1-0.4,0.6-0.8,1-0.6c0.5,0.1,0.6,0.7,0.5,1.1c-0.1,0.3,0.3,0.4,0.4,0.1
			c0.2-0.7-0.1-1.4-0.8-1.6s-1.3,0.3-1.5,0.9C18.1,28,18.5,28.1,18.6,27.8L18.6,27.8z"/>
	</g>
</g>
<g id="XMLID_215_">
	<g id="XMLID_35_">
		<path id="XMLID_738_" class="st1" d="M22.8,29.2c0.1-0.4,0.6-0.8,1-0.6c0.5,0.1,0.6,0.7,0.5,1.1c-0.1,0.3,0.3,0.4,0.4,0.1
			c0.2-0.7-0.1-1.4-0.8-1.6c-0.7-0.2-1.3,0.3-1.5,0.9C22.2,29.4,22.7,29.5,22.8,29.2L22.8,29.2z"/>
	</g>
</g>
<g id="XMLID_225_">
	<g id="XMLID_34_">
		<path id="XMLID_737_" class="st1" d="M19,29.8c-0.3,1.1,0.2,2.1,1.2,2.4c1.1,0.3,2.1-0.3,2.4-1.3c0.1-0.3-0.3-0.4-0.4-0.1
			c-0.7,1.8-3.4,1-2.8-0.9C19.5,29.6,19.1,29.5,19,29.8L19,29.8z"/>
	</g>
</g>
<g id="XMLID_217_" class="st13">
	
		<ellipse id="XMLID_736_" transform="matrix(0.3079 -0.9514 0.9514 0.3079 -13.3595 44.7675)" class="st1" cx="24.1" cy="31.6" rx="0.9" ry="0.9"/>
</g>
<g id="XMLID_232_" class="st13">
	
		<ellipse id="XMLID_735_" transform="matrix(0.3079 -0.9514 0.9514 0.3079 -15.688 37.2218)" class="st1" cx="17.7" cy="29.4" rx="0.9" ry="0.9"/>
</g>
<linearGradient id="XMLID_10_" gradientUnits="userSpaceOnUse" x1="73.674" y1="398.5356" x2="84.4528" y2="398.5356" gradientTransform="matrix(1 0 0 1 0 -321)">
	<stop  offset="0" style="stop-color:#86B8E0"/>
	<stop  offset="0.1163" style="stop-color:#98C4E7"/>
	<stop  offset="0.3255" style="stop-color:#B2D6F2"/>
	<stop  offset="0.5401" style="stop-color:#C5E2F9"/>
	<stop  offset="0.7615" style="stop-color:#D0EAFE"/>
	<stop  offset="1" style="stop-color:#D4ECFF"/>
</linearGradient>
<path id="XMLID_29_" class="st14" d="M82.9,81.3L82.9,81.3L82.9,81.3C82.9,81.3,83,81.3,82.9,81.3C83,81.3,83,81.3,82.9,81.3
	C83,81.3,83,81.3,82.9,81.3C83,81.3,83,81.3,82.9,81.3C83,81.3,83,81.3,82.9,81.3C83,81.2,83,81.2,82.9,81.3
	C83,81.2,83,81.2,82.9,81.3C83,81.2,83,81.2,82.9,81.3C83,81.2,83,81.2,82.9,81.3C83,81.2,83,81.2,82.9,81.3L82.9,81.3L82.9,81.3
	L82.9,81.3L82.9,81.3L82.9,81.3L82.9,81.3L82.9,81.3L82.9,81.3L82.9,81.3L82.9,81.3L82.9,81.3L82.9,81.3L82.9,81.3L82.9,81.3
	L82.9,81.3L82.9,81.3L82.9,81.3L82.9,81.3L82.9,81.3L82.9,81.3L82.9,81.3L82.9,81.3L82.9,81.3L82.9,81.3L82.9,81.3L82.9,81.3
	L82.9,81.3L82.9,81.3L82.9,81.3L82.9,81.3L82.9,81.3L82.9,81.3L82.9,81.3L82.9,81.3L82.9,81.3L82.9,81.3L82.9,81.3L82.9,81.3
	L82.9,81.3L82.9,81.3L82.9,81.3L82.9,81.3L82.9,81.3L82.9,81.3L82.9,81.3L82.9,81.3L82.9,81.3L82.9,81.3L82.9,81.3L82.9,81.3
	L82.9,81.3L82.9,81.3L82.9,81.3L82.9,81.3L82.9,81.3L82.9,81.3L82.9,81.3L82.9,81.3L82.9,81.3L82.9,81.3L82.9,81.3L82.9,81.3
	L82.9,81.3L82.9,81.3L82.9,81.3L82.9,81.3L82.9,81.3L82.9,81.3L82.9,81.3L82.9,81.3L82.9,81.3L82.9,81.3L82.9,81.3L82.9,81.3
	L82.9,81.3L82.9,81.3L82.9,81.3L82.9,81.3L82.9,81.3L82.9,81.3L82.9,81.3L82.9,81.3L82.9,81.3L82.9,81.3L82.9,81.3L82.9,81.3
	L82.9,81.3c1.1-1.2,1.7-2.8,1.4-4.5c-0.4-3-3.1-5-6-4.6c-1.2,0.2-2.4,0.8-3.3,1.7l0,0l0,0l0,0l0,0l0,0l0,0l0,0l0,0l0,0l0,0l0,0l0,0
	l0,0l0,0l0,0l0,0l0,0l0,0l0,0l0,0l0,0l0,0l0,0l0,0l0,0l0,0l0,0l0,0l0,0l0,0l0,0l0,0l0,0l0,0l0,0l0,0l0,0l0,0l0,0l0,0l0,0l0,0l0,0
	l0,0l0,0l0,0l0,0l0,0l0,0l0,0l0,0l0,0l0,0l0,0l0,0l0,0l0,0l0,0l0,0l0,0l0,0l0,0l0,0l0,0l0,0l0,0l0,0l0,0l0,0l0,0l0,0l0,0l0,0l0,0
	l0,0l0,0l0,0l0,0l0,0l0,0l0,0l0,0l0,0l0,0l0,0l0,0l0,0l0,0l0,0l0,0l0,0l0,0l0,0l0,0l0,0l0,0l0,0l0,0l0,0l0,0
	c-1.1,1.1-1.6,2.7-1.3,4.4c0.4,3,3.1,5,6,4.6C81,82.8,82.2,82.1,82.9,81.3L82.9,81.3z"/>
<g id="XMLID_182_">
	
		<ellipse id="XMLID_634_" transform="matrix(0.9909 -0.1346 0.1346 0.9909 -9.6071 11.4373)" class="st5" cx="79.8" cy="76.8" rx="5.4" ry="5.4"/>
</g>
<g id="XMLID_257_">
	<path id="XMLID_633_" class="st15" d="M76.6,77.5l6.3-0.9c0,0,0.3,3-2.8,3.4C77.2,80.4,76.6,77.5,76.6,77.5z"/>
</g>
<g id="XMLID_261_" class="st7">
	<g id="XMLID_33_">
		<path id="XMLID_632_" class="st8" d="M77.8,76c1,0,1-1.4,0-1.4S76.8,76,77.8,76L77.8,76z"/>
	</g>
</g>
<g id="XMLID_264_" class="st7">
	<g id="XMLID_31_">
		<path id="XMLID_631_" class="st8" d="M81.2,75.5c1,0,1-1.4,0-1.4S80.3,75.5,81.2,75.5L81.2,75.5z"/>
	</g>
</g>
<linearGradient id="XMLID_11_" gradientUnits="userSpaceOnUse" x1="25.8761" y1="404.7136" x2="35.2579" y2="404.7136" gradientTransform="matrix(1 0 0 1 0 -321)">
	<stop  offset="0" style="stop-color:#86B8E0"/>
	<stop  offset="0.1163" style="stop-color:#98C4E7"/>
	<stop  offset="0.3255" style="stop-color:#B2D6F2"/>
	<stop  offset="0.5401" style="stop-color:#C5E2F9"/>
	<stop  offset="0.7615" style="stop-color:#D0EAFE"/>
	<stop  offset="1" style="stop-color:#D4ECFF"/>
</linearGradient>
<path id="XMLID_54_" class="st16" d="M35.1,82.4c-0.2-0.6-0.4-1.1-0.8-1.4l0,0l0,0l0,0l0,0l0,0l0,0l0,0l0,0l0,0l0,0l0,0l0,0l0,0l0,0
	l0,0l0,0l0,0l0,0l0,0l0,0l0,0l0,0l0,0l0,0l0,0l0,0l0,0l0,0l0,0l0,0l0,0l0,0l0,0l0,0l0,0l0,0l0,0l0,0l0,0l0,0l0,0l0,0l0,0l0,0l0,0
	l0,0l0,0l0,0l0,0l0,0l0,0l0,0l0,0l0,0l0,0l0,0l0,0l0,0l0,0l0,0l0,0l0,0l0,0l0,0l0,0l0,0l0,0l0,0l0,0l0,0l0,0l0,0l0,0l0,0l0,0l0,0
	l0,0l0,0l0,0l0,0l0,0l0,0l0,0l0,0l0,0l0,0l0,0l0,0l0,0l0,0l0,0l0,0l0,0l0,0l0,0l0,0l0,0l0,0l0,0l0,0c-1.1-1.5-3.2-2.3-5.1-1.7
	C26.7,80,25.4,82.6,26,85c0.2,0.6,0.4,1.1,0.8,1.4l0,0l0,0l0,0l0,0l0,0l0,0l0,0l0,0l0,0l0,0l0,0l0,0l0,0l0,0l0,0l0,0l0,0l0,0l0,0
	l0,0l0,0l0,0l0,0l0,0l0,0l0,0l0,0l0,0l0,0l0,0l0,0l0,0l0,0l0,0l0,0l0,0l0,0l0,0l0,0l0,0l0,0l0,0l0,0l0,0l0,0l0,0l0,0l0,0l0,0l0,0
	l0,0l0,0l0,0l0,0l0,0l0,0l0,0l0,0l0,0l0,0l0,0l0,0l0,0l0,0l0,0l0,0l0,0l0,0l0,0l0,0l0,0l0,0l0,0l0,0l0,0l0,0l0,0l0,0l0,0l0,0l0,0
	l0,0l0,0l0,0l0,0l0,0l0,0l0,0l0,0l0,0l0,0l0,0l0,0l0,0l0,0l0,0l0,0l0,0l0,0l0,0c1.1,1.5,3.2,2.3,5.1,1.7
	C34.4,87.5,35.8,84.9,35.1,82.4z"/>
<g id="XMLID_131_">
	
		<ellipse id="XMLID_523_" transform="matrix(0.9594 -0.282 0.282 0.9594 -22.2344 11.8831)" class="st5" cx="30.2" cy="83.2" rx="4.7" ry="4.7"/>
</g>
<g id="XMLID_269_" class="st7">
	<g id="XMLID_270_">
		<path id="XMLID_522_" class="st8" d="M30.6,85.6c0.1,0,0.3,0,0.4,0c0.3-0.1,0.5-0.3,0.6-0.6c0.4-0.7,0.7-1.4,0.8-2.2
			c0.1-0.5,0.1-1.1-0.2-1.4c-0.3-0.5-1-0.7-1.4-0.5c-0.6,0.2-0.9,0.6-1,1.1c-0.3-0.5-1.1-0.6-1.6-0.4c-1.1,0.6-0.8,1.7-0.2,2.6
			c0.4,0.5,0.9,0.9,1.3,1.1C29.6,85.3,30.2,85.6,30.6,85.6z"/>
	</g>
</g>
<linearGradient id="XMLID_12_" gradientUnits="userSpaceOnUse" x1="77.3692" y1="372.6743" x2="88.8996" y2="372.6743" gradientTransform="matrix(1 0 0 1 0 -321)">
	<stop  offset="0" style="stop-color:#86B8E0"/>
	<stop  offset="0.1163" style="stop-color:#98C4E7"/>
	<stop  offset="0.3255" style="stop-color:#B2D6F2"/>
	<stop  offset="0.5401" style="stop-color:#C5E2F9"/>
	<stop  offset="0.7615" style="stop-color:#D0EAFE"/>
	<stop  offset="1" style="stop-color:#D4ECFF"/>
</linearGradient>
<path id="XMLID_28_" class="st17" d="M85.9,46.4l-4.3-0.5c-1-0.1-1.8,0.2-2.5,0.7l0,0l0,0l0,0l0,0l0,0l0,0l0,0l0,0l0,0l0,0l0,0l0,0
	l0,0l0,0l0,0l0,0l0,0l0,0l0,0l0,0l0,0l0,0l0,0l0,0l0,0l0,0l0,0l0,0l0,0l0,0l0,0l0,0l0,0l0,0l0,0l0,0l0,0l0,0l0,0l0,0l0,0l0,0l0,0
	l0,0l0,0l0,0l0,0l0,0l0,0l0,0l0,0l0,0l0,0l0,0l0,0l0,0l0,0l0,0l0,0l0,0l0,0l0,0l0,0l0,0l0,0l0,0l0,0l0,0l0,0l0,0l0,0l0,0l0,0l0,0
	l0,0l0,0l0,0l0,0l0,0l0,0l0,0l0,0l0,0l0,0l0,0l0,0l0,0l0,0l0,0l0,0l0,0l0,0l0,0l0,0l0,0l0,0l0,0l0,0l0,0l0,0
	c-0.7,0.6-1.1,1.3-1.2,2.3l-0.5,4.3c-0.2,1.8,1.1,3.5,3,3.7l4.3,0.5c1,0.1,1.8-0.2,2.5-0.7l0,0l0,0l0,0l0,0l0,0l0,0l0,0l0,0l0,0l0,0
	l0,0l0,0l0,0l0,0l0,0l0,0l0,0l0,0l0,0l0,0l0,0l0,0l0,0l0,0l0,0l0,0l0,0l0,0l0,0l0,0l0,0l0,0l0,0l0,0l0,0l0,0l0,0l0,0l0,0l0,0l0,0
	l0,0l0,0l0,0l0,0l0,0l0,0l0,0l0,0l0,0l0,0l0,0l0,0l0,0l0,0l0,0l0,0l0,0l0,0l0,0l0,0l0,0l0,0l0,0l0,0l0,0l0,0l0,0l0,0l0,0l0,0l0,0
	l0,0l0,0l0,0l0,0l0,0l0,0l0,0l0,0l0,0l0,0l0,0l0,0l0,0l0,0l0,0l0,0l0,0l0,0l0,0l0,0l0,0l0,0l0,0l0,0l0,0l0,0l0,0l0,0
	c0.7-0.6,1.1-1.3,1.2-2.3l0.5-4.3C89.1,48.3,87.7,46.6,85.9,46.4z"/>
<g id="XMLID_140_">
	<path id="XMLID_390_" class="st5" d="M82.5,57.1L82.5,57.1c-3.1-0.4-5.2-3.1-4.9-6.1l0,0c0.4-3.1,3.1-5.2,6.1-4.9l0,0
		c3.1,0.4,5.2,3.1,4.9,6.1l0,0C88.2,55.3,85.5,57.5,82.5,57.1z"/>
</g>
<linearGradient id="XMLID_13_" gradientUnits="userSpaceOnUse" x1="80.0694" y1="372.5306" x2="86.0079" y2="372.5306" gradientTransform="matrix(1 0 0 1 0 -321)">
	<stop  offset="0" style="stop-color:#86B8E0"/>
	<stop  offset="0.1163" style="stop-color:#98C4E7"/>
	<stop  offset="0.3255" style="stop-color:#B2D6F2"/>
	<stop  offset="0.5401" style="stop-color:#C5E2F9"/>
	<stop  offset="0.7615" style="stop-color:#D0EAFE"/>
	<stop  offset="1" style="stop-color:#D4ECFF"/>
</linearGradient>
<path id="XMLID_52_" class="st18" d="M85.1,48.9c-1.1-1.1-3.1-1.1-4.2,0c-1.1,1.1-1.1,3.1,0,4.2c0.3,0.3,0.7,0.6,1.1,0.7l0.5,1.2
	l0.9-1.1c0.6-0.1,1.2-0.4,1.7-0.9C86.3,51.9,86.3,50,85.1,48.9z"/>
<g id="XMLID_283_">
	<g id="XMLID_284_">
		
			<linearGradient id="XMLID_14_" gradientUnits="userSpaceOnUse" x1="82.4639" y1="371.9537" x2="83.7757" y2="371.9537" gradientTransform="matrix(1 0 0 1 0 -321)">
			<stop  offset="0" style="stop-color:#86B8E0"/>
			<stop  offset="0.1163" style="stop-color:#98C4E7"/>
			<stop  offset="0.3255" style="stop-color:#B2D6F2"/>
			<stop  offset="0.5401" style="stop-color:#C5E2F9"/>
			<stop  offset="0.7615" style="stop-color:#D0EAFE"/>
			<stop  offset="1" style="stop-color:#D4ECFF"/>
		</linearGradient>
		<path id="XMLID_387_" class="st19" d="M82.5,52.2c0-0.1,0-0.1,0.1-0.2c0-0.1,0.1-0.1,0.1-0.1s0.1-0.1,0.2-0.1s0.1,0,0.2,0
			s0.1,0,0.2,0.1c0.1,0,0.1,0.1,0.1,0.1s0.1,0.1,0.1,0.2s0,0.1,0,0.2s0,0.1-0.1,0.2c0,0.1-0.1,0.1-0.1,0.1s-0.1,0.1-0.2,0.1
			s-0.1,0-0.2,0s-0.1,0-0.2-0.1c-0.1,0-0.1-0.1-0.1-0.1s-0.1-0.1-0.1-0.2C82.5,52.2,82.5,52.2,82.5,52.2z M83.2,51.4
			c-0.1,0.2-0.4,0.2-0.4,0c-0.2-0.9-0.4-2.3,0.5-2.2C84.2,49.2,83.6,50.6,83.2,51.4z"/>
	</g>
</g>
<linearGradient id="XMLID_15_" gradientUnits="userSpaceOnUse" x1="46.6633" y1="333.9781" x2="54.7606" y2="333.9781" gradientTransform="matrix(1 0 0 1 0 -321)">
	<stop  offset="0" style="stop-color:#86B8E0"/>
	<stop  offset="0.1163" style="stop-color:#98C4E7"/>
	<stop  offset="0.3255" style="stop-color:#B2D6F2"/>
	<stop  offset="0.5401" style="stop-color:#C5E2F9"/>
	<stop  offset="0.7615" style="stop-color:#D0EAFE"/>
	<stop  offset="1" style="stop-color:#D4ECFF"/>
</linearGradient>
<path id="XMLID_51_" class="st20" d="M53.3,10L53.3,10L53.3,10L53.3,10L53.3,10L53.3,10L53.3,10L53.3,10L53.3,10L53.3,10L53.3,10
	C53.3,9.9,53.3,9.9,53.3,10C53.3,9.9,53.3,9.9,53.3,10L53.3,10L53.3,10L53.3,10L53.3,10L53.3,10L53.3,10L53.3,10L53.3,10L53.3,10
	L53.3,10L53.3,10L53.3,10L53.3,10L53.3,10L53.3,10L53.3,10L53.3,10L53.3,10L53.3,10L53.3,10L53.3,10L53.3,10L53.3,10L53.3,10
	L53.3,10L53.3,10L53.3,10L53.3,10L53.3,10L53.3,10L53.3,10L53.3,10L53.3,10L53.3,10L53.3,10L53.3,10L53.3,10L53.3,10L53.3,10
	L53.3,10L53.3,10L53.3,10L53.3,10L53.3,10L53.3,10L53.3,10L53.3,10L53.3,10L53.3,10L53.3,10L53.3,10L53.3,10L53.3,10L53.3,10
	L53.3,10L53.3,10L53.3,10L53.3,10L53.3,10L53.3,10L53.3,10L53.3,10L53.3,10L53.3,10L53.3,10L53.3,10L53.3,10L53.3,10L53.3,10
	L53.3,10L53.3,10L53.3,10L53.3,10L53.3,10L53.3,10L53.3,10L53.3,10L53.3,10L53.3,10L53.3,10L53.3,10L53.3,10L53.3,10L53.3,10
	L53.3,10L53.3,10L53.3,10L53.3,10c-0.6-0.5-1.1-0.8-1.9-1c-2.2-0.5-4.3,1-4.7,3.2c-0.3,1.5,0.3,3,1.3,3.8l0,0l0,0l0,0l0,0l0,0l0,0
	l0,0l0,0l0,0l0,0l0,0l0,0l0,0l0,0l0,0l0,0l0,0l0,0l0,0l0,0l0,0l0,0l0,0l0,0l0,0l0,0l0,0l0,0l0,0l0,0l0,0l0,0l0,0l0,0l0,0l0,0l0,0
	l0,0l0,0l0,0l0,0l0,0l0,0l0,0l0,0l0,0l0,0l0,0l0,0l0,0l0,0l0,0l0,0l0,0l0,0l0,0l0,0l0,0l0,0l0,0l0,0l0,0l0,0l0,0l0,0l0,0l0,0l0,0
	l0,0l0,0l0,0l0,0l0,0l0,0l0,0l0,0l0,0l0,0l0,0l0,0l0,0l0,0l0,0l0,0l0,0l0,0l0,0l0,0l0,0l0,0l0,0l0,0l0,0l0,0l0,0l0,0l0,0l0,0l0,0
	l0,0c0.5,0.4,1.1,0.7,1.8,0.9c2.2,0.5,4.3-1,4.7-3.2C55.1,12.4,54.5,11,53.3,10z"/>
<g id="XMLID_136_">
	
		<ellipse id="XMLID_242_" transform="matrix(0.197 -0.9804 0.9804 0.197 27.8558 59.1056)" class="st5" cx="50" cy="12.5" rx="4" ry="4"/>
</g>
<g id="XMLID_332_" class="st7">
	<g id="XMLID_308_">
		<path id="XMLID_240_" class="st8" d="M48.8,12.7c0-0.1-0.2-0.2-0.3-0.1h-0.1c-0.4,0.1-0.8,0.2-1,0.5s-0.2,0.7,0.1,0.9
			c0.3,0.2,0.8,0.1,1-0.2C48.7,13.5,48.9,13.1,48.8,12.7z"/>
	</g>
	<g id="XMLID_311_">
		<path id="XMLID_239_" class="st8" d="M51.7,12.8c0-0.1-0.2-0.2-0.3-0.1h-0.1c-0.4,0.1-0.8,0.2-1,0.5c-0.2,0.3-0.2,0.7,0.1,0.9
			c0.3,0.2,0.8,0.1,1-0.2C51.7,13.6,51.8,13.2,51.7,12.8z"/>
	</g>
	<g id="XMLID_331_">
		<path id="XMLID_238_" class="st8" d="M52.1,10.5C52.1,10.4,52.1,10.4,52.1,10.5c0-0.2-0.1-0.2-0.1-0.2h-0.1
			c-0.5,0.2-1.1,0.3-1.6,0.2c-0.3,0-0.6-0.1-0.9-0.1c-0.2,0-0.5-0.2-0.6,0.1l0,0v0.1c0,0.7-0.2,1.3-0.5,2c-0.1,0.3,0.3,0.4,0.4,0.1
			c0.2-0.6,0.4-1.1,0.5-1.6c0.9,0.2,1.7,0.2,2.5,0c0,0.6-0.2,1.1-0.5,1.7c-0.1,0.2,0.3,0.4,0.4,0.1C52,12.1,52.2,11.3,52.1,10.5z"/>
	</g>
</g>
<linearGradient id="XMLID_16_" gradientUnits="userSpaceOnUse" x1="14.5346" y1="387.2812" x2="25.1096" y2="387.2812" gradientTransform="matrix(1 0 0 1 0 -321)">
	<stop  offset="0" style="stop-color:#86B8E0"/>
	<stop  offset="0.1163" style="stop-color:#98C4E7"/>
	<stop  offset="0.3255" style="stop-color:#B2D6F2"/>
	<stop  offset="0.5401" style="stop-color:#C5E2F9"/>
	<stop  offset="0.7615" style="stop-color:#D0EAFE"/>
	<stop  offset="1" style="stop-color:#D4ECFF"/>
</linearGradient>
<path id="XMLID_50_" class="st21" d="M25.1,67.8l-0.4-3.9c-0.1-0.9-0.5-1.6-1.1-2.1l0,0l0,0l0,0l0,0l0,0l0,0l0,0l0,0l0,0l0,0l0,0
	l0,0l0,0l0,0l0,0l0,0l0,0l0,0l0,0l0,0l0,0l0,0l0,0l0,0l0,0l0,0l0,0l0,0l0,0l0,0l0,0l0,0l0,0l0,0l0,0l0,0l0,0l0,0l0,0l0,0l0,0l0,0
	l0,0l0,0l0,0l0,0l0,0l0,0l0,0l0,0l0,0l0,0l0,0l0,0l0,0l0,0l0,0l0,0l0,0l0,0l0,0l0,0l0,0l0,0l0,0l0,0l0,0l0,0l0,0l0,0l0,0l0,0l0,0
	l0,0l0,0l0,0l0,0l0,0l0,0l0,0l0,0l0,0l0,0l0,0l0,0l0,0l0,0l0,0l0,0l0,0l0,0l0,0l0,0l0,0l0,0l0,0l0,0l0,0l0,0l0,0
	c-0.6-0.5-1.4-0.8-2.3-0.7l-3.9,0.4c-1.7,0.2-3,1.6-2.8,3.4l0.4,3.9c0.1,0.9,0.5,1.6,1.1,2.1l0,0l0,0l0,0l0,0l0,0l0,0l0,0l0,0l0,0
	l0,0l0,0l0,0l0,0l0,0l0,0l0,0l0,0l0,0l0,0l0,0l0,0l0,0l0,0l0,0l0,0l0,0l0,0l0,0l0,0l0,0l0,0l0,0l0,0l0,0l0,0l0,0l0,0l0,0l0,0l0,0
	l0,0l0,0l0,0l0,0l0,0l0,0l0,0l0,0l0,0l0,0l0,0l0,0l0,0l0,0l0,0l0,0l0,0l0,0l0,0l0,0l0,0l0,0l0,0l0,0l0,0l0,0l0,0l0,0l0,0l0,0l0,0
	l0,0l0,0l0,0l0,0l0,0l0,0l0,0l0,0l0,0l0,0l0,0l0,0l0,0l0,0l0,0l0,0l0,0l0,0l0,0l0,0l0,0l0,0l0,0l0,0l0,0l0,0l0,0l0,0l0,0
	c0.6,0.5,1.4,0.8,2.3,0.7l3.9-0.4C24,71,25.3,69.5,25.1,67.8z"/>
<g id="XMLID_194_">
	<path id="XMLID_92_" class="st5" d="M19.4,70.6L19.4,70.6c-2.8,0.3-5.3-1.7-5.6-4.6l0,0c-0.3-2.8,1.7-5.3,4.6-5.6l0,0
		c2.8-0.3,5.3,1.7,5.6,4.6l0,0C24.2,67.9,22.2,70.4,19.4,70.6z"/>
</g>
<g id="XMLID_339_" class="st7">
	<g id="XMLID_341_">
		<path id="XMLID_90_" class="st8" d="M18.4,63.5c0.3,0,0.5,0,0.7,0.1v-0.2c0.1-0.1,0.6-0.1,0.6-0.1l0.1,0.8c0,0.3,0.1,0.6,0.1,0.9
			c0.1,0.9,0.1,1.4,0.4,2c0.3,0.3,0.7,0,0.8-0.3c0.2-0.4,0.1-1.7,0-2c-0.2-0.8-0.7-1.6-1.5-1.9c-0.3-0.1-0.7-0.1-1.1,0
			c-0.6,0.1-1.1,0.3-1.3,0.7c-0.6,0.7-0.5,1.3-0.4,2.2c0,0.2,0.1,0.6,0.1,0.9c0.1,0.6,0.4,1.1,0.9,1.5c0.4,0.2,0.9,0.4,1.3,0.4
			c0.4,0,0.6-0.1,0.7,0.3c0,0.1,0,0.1-0.1,0.1h-0.1c-0.3,0.1-0.9,0-1.2-0.1H18l0,0c-1.1-0.2-1.5-1.1-1.6-2c-0.2-1.4-0.5-2.9,0.9-3.8
			c0.3-0.2,0.8-0.4,1.1-0.4c0.4-0.1,0.8,0,1.1,0l0,0c0.8,0.2,1.4,0.9,1.6,1.5c0.2,0.4,0.3,0.8,0.3,1.1c0.1,0.4,0.1,0.9,0,1.2
			c0,0.5-0.3,1.2-0.9,1.3c-0.8,0.2-0.7,0-1-0.3c-0.2,0.2-0.5,0.3-0.6,0.3c-0.2,0-0.4,0-0.6-0.1c-0.6-0.3-1-1.1-1.1-1.8
			c-0.1-0.5,0-1.1,0-1.3C17.6,63.8,18,63.5,18.4,63.5z M19.2,64.3c-0.2-0.1-0.3-0.3-0.7-0.2c-0.4,0.1-0.5,0.9-0.4,1.6
			c0.1,0.6,0.8,1.8,1.3,0.8L19.2,64.3z"/>
	</g>
</g>
</svg>
