<?xml version="1.0" encoding="utf-8"?>
<!-- Generator: Adobe Illustrator 21.0.0, SVG Export Plug-In . SVG Version: 6.00 Build 0)  -->
<svg version="1.1" id="Layer_1" xmlns="http://www.w3.org/2000/svg" xmlns:xlink="http://www.w3.org/1999/xlink" x="0px" y="0px"
	 viewBox="0 0 100 100" style="enable-background:new 0 0 100 100;" xml:space="preserve">
<style type="text/css">
	.st0{fill:#E7F0F0;}
	.st1{fill:#405B91;}
	.st2{fill:#B6D0FB;stroke:#405B91;stroke-width:0.25;stroke-miterlimit:10;}
	.st3{fill:#7DC3EA;stroke:#405B91;stroke-width:0.25;stroke-miterlimit:10;}
	.st4{fill:#107AEC;stroke:#0D69BC;stroke-width:0.25;stroke-miterlimit:10;}
</style>
<g id="Layer_2">
</g>
<g id="Layer_3">
	<path class="st0" d="M88.3,61c0,0,21.8-29.9-23.7-38.6s-43.1,7-43.1,7s3,9.7-10.2,14s4.3,38.8,17,36.7c12.7-2.2,47.5,0,47.5,0
		S91.3,82.3,88.3,61z"/>
</g>
<g>
	<path class="st1" d="M94.2,80.1H8.1c-0.1,0-0.2-0.1-0.2-0.2s0.1-0.2,0.2-0.2h86.1c0.1,0,0.2,0.1,0.2,0.2
		C94.4,80,94.3,80.1,94.2,80.1z"/>
</g>
<g id="Layer_5">
	<circle class="st2" cx="49.2" cy="53.7" r="24.9"/>
	<g>
		<path class="st3" d="M58.2,74.3L58.2,74.3L58.2,74.3C58.2,74.4,58.2,74.4,58.2,74.3v0.2l0,0l0,0l0,0l0,0l0,0v0.1l0,0l0,0h0.1l0,0
			l0,0h0.1h0.1l0.1-0.1l0,0h0.1l0,0l0.2-0.1l0,0H59l0,0v-0.1l0,0l0.1-0.1v-0.1V74l0,0l0.1-0.1l0,0c0.1-0.1,0.2-0.2,0.3-0.4v-0.1
			c0.1-0.1,0.1-0.1,0.3-0.4l0.1-0.1l0.1-0.1l0.1-0.1c0.1-0.1,0.2-0.2,0.2-0.4l0,0l0,0l0,0h0.1l0,0l0,0l0,0l0,0l0.1-0.1l0,0l0,0l0,0
			l0,0l0,0l0,0l0,0l0,0v-0.1l0,0l0,0V72l0,0l0,0l0,0l0,0l0,0l0,0l0,0l0.1-0.1l0.1-0.1v-0.1c0-0.1,0-0.1,0.1-0.3v-0.1l0,0l0,0l0,0
			v-0.1l0,0l0,0v-0.1l0,0V71h-0.1l0,0l0,0l0.4,0v0.1v0.1l0,0l0,0L61,71.3l0,0l0,0l0,0l0,0v-0.1l0,0l0,0v0.1l0,0l0,0l0,0l0,0l0,0
			l-0.1,0.1l0,0l0,0h-0.1l0,0h-0.1l0,0l0,0l0,0l0,0l0,0l0,0v0.1l0,0l0,0l0,0l-0.1,0.1v0.1v0.1l0,0l0,0l0,0l0,0h-0.1l0,0l0,0
			l-0.1,0.1l0,0l0,0h-0.1l0,0l0,0l0,0h-0.1h-0.1l0,0l0,0l0,0l0,0l0,0l0,0l0,0l0,0l0,0H60l0,0l0,0l0,0l0,0l0,0l0,0l0,0l0,0l0,0
			L59.9,72l-0.1,0.1l0,0l0,0l-0.1,0.1l-0.1,0.1l0,0v0.1v0.1l0,0l0,0l0,0v0.1l0,0l0,0l0,0l0,0v0.1v0.1l-0.1,0.1L59.4,73l0,0l-0.1,0.1
			h-0.1l-0.1,0.1l0,0L59,73.3v0.1l0,0l0,0v0.1l0,0L58.2,74.3L58.2,74.3L58.2,74.3L58.2,74.3L58.2,74.3z"/>
		<path class="st3" d="M24.7,58L24.7,58L24.7,58L24.7,58L24.7,58v-0.2v-0.1v-0.1v-0.1l0,0l0,0l0,0l0,0v-0.1v-0.1v-0.1v-0.1V57l0,0
			v-0.1l0,0l0,0l0,0l0,0l0,0l0,0l0,0l0,0l0,0c0-0.1,0-0.2,0-0.2v-0.1l0,0l0,0l0,0l0,0C24.5,56.9,24.6,57.4,24.7,58L24.7,58z"/>
		<path class="st3" d="M74.1,55.2L74.1,55.2V55v-0.1l0,0v-0.1l0,0c0-0.3,0-0.7,0-1c0-2.4-0.3-4.7-1-6.8l0,0v0.1l0,0l0,0l0,0l0,0l0,0
			V47v-0.1l0,0l0,0l0,0l0,0l0,0l0,0v-0.1l0,0v-0.1v-0.1l0,0l0,0l0,0v-0.1l0,0v-0.1v-0.2l0,0l0,0c-0.6-1.8-1.4-3.5-2.3-5.1l0,0
			L70.7,41l0,0l0,0l0,0l0,0l0,0l0,0l-0.1-0.1l0,0l0,0l0,0V41l0,0l0,0l0,0l0,0l0,0l0,0l0,0l0,0l0,0v-0.1v-0.1l0,0l0,0v-0.1l0,0
			l-0.1-0.1l0,0l-0.1-0.1l0,0L70,40.1V40v-0.1l-0.1-0.2l0,0l0,0v-0.1l-0.1-0.1l-0.1-0.1l-0.1-0.1l0,0l-0.1-0.1l0,0l0,0l0,0l0,0l0,0
			l0,0c-0.7-1-1.6-2-2.4-2.9l0,0l0,0l0,0l0,0l0,0v0.1l0,0l0,0l0,0l0,0l0,0L67,36.3h-0.2l0,0l0,0v0.1v0.1l0,0l0,0l0,0l0,0l0,0h-0.1
			l0,0l0,0l0,0l0,0l0,0l0,0l0,0l0,0l0,0l0,0l0,0l0,0c0,0-0.1,0-0.2,0c0,0,0,0,0,0.1l0,0l0,0l0,0l0,0v0.1l0,0l0,0l0,0l0,0l0,0l0,0
			l0,0l0,0l0,0l0,0l0,0l0,0l0,0c-0.1,0.1-0.2,0.1-0.2,0.1l0,0l0,0l0,0l0,0l0,0l0,0l0,0l0,0l0,0l0,0l0,0l0,0l0,0h0.1l0,0l0,0l0,0l0,0
			l0,0l0,0h0.1l0,0l0,0l0,0l0.1,0.1l0,0l0,0l0,0l0,0l0,0l0,0l0,0l0,0l0,0l0,0l0,0h-0.1l0,0l0,0l0,0l0,0l0,0l0,0V37l0,0h-0.1h-0.1
			c0,0,0,0-0.1,0l0,0l0,0l0.1,0.1h0.1l0,0l0,0c0,0,0,0,0.1,0.1l0,0l0,0l0,0c-0.1,0-0.2,0-0.3-0.1l0,0L66.1,37l0,0l0,0l0,0l0,0
			L66,36.9l0,0h-0.1l0,0l0,0l0,0l0,0l0,0l0,0c0,0,0,0-0.1,0c0.1,0.1,0.3,0.3,0.4,0.4l0,0c-0.1-0.1-0.3-0.3-0.4-0.4h-0.1l0,0l0,0l0,0
			l0,0l0,0l0,0l0,0l0,0l0,0l0,0l0,0l0,0l0,0l0,0l0,0l0,0l0,0l0,0l0,0l0,0l0,0h0.1h0.1l0,0H66l0,0l0,0l0,0l0,0l0,0h-0.1l0,0l0,0l0,0
			h-0.1l0,0l0,0l0,0l0,0l0,0l0,0l0,0h-0.1l0,0l0,0l0,0l0,0l0,0l0,0h-0.1l0,0l0,0l0,0l0,0l0,0l0,0h-0.1l0,0l0,0l0,0l0,0l-0.1-0.1
			h-0.1l0,0l0,0l0,0l0,0l0,0l0,0l0,0l0,0h-0.1l0,0l0,0l0,0l0,0v-0.1l0,0h-0.1l0,0l0,0l0,0l0,0l0,0l0,0l0,0l0,0l0,0l0,0l0,0l0,0l0,0
			l0,0v0.1l0,0h0.1l0,0l0,0l0,0v0.1l0,0l0,0l0,0l0,0l0,0l0,0l0,0l0,0l0,0V37v0.1l0,0l0,0V37l0,0l0,0l0,0l0,0l0,0l0,0l0,0l0,0l0,0
			l0,0l0,0l0,0l0,0v-0.1l0,0l0,0l0,0v-0.1l0,0l0,0l0,0l0,0l0,0l0,0l0,0l0,0l0,0l0,0v-0.1l0,0l0,0l0,0l0,0l0,0l0,0l0,0l0,0l0,0l0,0
			l0,0h-0.1l0,0l0,0H65l0,0l0,0l0,0l0,0l0,0h-0.1l0,0h-0.1h-0.1l0,0l0,0l0,0l0,0l0,0l0,0l0,0h-0.1l0,0l0,0l0,0l0,0l0,0l0,0l0,0l0,0
			l0,0l0,0l0,0l0,0v-0.1l0,0h-0.1h-0.1l0,0l0,0l0,0l0,0v-0.1l0,0l0,0l0,0l0,0h-0.1l0,0h-0.1v0.1l0,0l0,0l0,0l0,0v0.1v0.1l0,0l0,0
			l0,0l0,0l0,0l0,0l0,0l0,0l0,0l0,0l0,0l0,0v0.1l0,0l0,0h-0.1l0,0l0,0l0,0l0,0l0,0v-0.1l0,0l0,0l0,0l0,0l0,0l0,0l0,0l0,0l0,0l0,0H64
			l0,0l0,0l0,0v0.1l0,0l0,0l0,0V37l0,0l-0.1,0.1l0,0l0,0h-0.1c0,0,0,0.1-0.1,0.1l0,0l0,0h-0.1v0.1l0,0l-0.1,0.1l0,0v0.1l0,0l0,0l0,0
			l0,0l0,0l0,0l0,0l0,0l0,0l0,0l0,0l0,0l0,0l0,0l0,0l0,0l0,0l0,0l0,0h-0.1l0,0h-0.1c-0.2,0-0.2,0-0.3,0.1l0,0v0.1l0,0h0.1l0,0l0,0
			l0,0l0,0l0.1,0.1h0.1l0,0l0,0l0,0h0.1l0,0h0.1l0,0l0,0l0,0l0,0h-0.1c-0.1,0-0.1-0.1-0.2-0.1h-0.1H63h-0.1l0,0c0,0,0,0-0.1,0l0,0
			l0,0l0,0l0,0l0,0l0,0h0.1l0,0l0,0l0,0h-0.1l0,0l0,0l0,0l0,0l0,0l0,0l0,0l0,0v0.1v0.1l0,0l0,0c0,0,0,0,0.1,0l0,0l0,0l0,0l0,0l0,0
			l0,0l0,0l0,0l0,0L62.8,38l0,0h-0.1l0,0c0,0,0,0,0,0.1l0,0l0,0h0.1h0.1H63l0,0h0.1l0,0h0.1l0,0l0,0h-0.1H63l0,0h-0.1l0,0l0,0h-0.1
			l0,0l0,0h-0.1h-0.1l0,0c0,0,0,0,0-0.1l0,0l-0.1-0.1l0,0l-0.1-0.1l0,0h-0.1l0,0l0,0l0,0l0.1,0.1h0.1h0.1l0,0l0,0l0,0l0,0h-0.1V38
			l0,0l0,0l0,0c0.1,0,0.1,0,0.1,0h0.1l0,0h0.1l0,0h0.1v0.1l0,0v0.1l0,0l0.1,0.1h0.1l0,0l0,0l0,0l0,0l0,0l0,0l0,0l0,0l0,0l0,0l0,0
			l0,0l0,0l0,0l0,0c0,0,0,0-0.1,0h-0.1l0,0l0,0l0,0l0,0l0.1,0.1l0.1,0.1l0.1,0.1l0,0l0,0l0,0v0.1l0,0l0,0v0.1l0,0c0,0,0,0,0,0.1l0,0
			l0,0l0,0V39l0,0l0,0l0,0l0,0l0,0c0,0,0,0-0.1,0l0,0l0,0H63h-0.1l0,0l0,0c0.1,0,0.1,0,0.2-0.1l0,0l0,0v-0.1l0,0v-0.1v-0.1v-0.1
			L63,38.4l0,0l0,0l0,0v-0.1l0,0h-0.1c-0.1,0-0.1,0-0.2-0.1v-0.1l0,0L62.6,38l0,0L60,40.1h-0.1l0,0l0,0l0,0V40l0,0h-0.1h-0.1l0,0
			h-0.1l0,0l0,0v-0.1l0,0l-0.2-0.2h-0.1l0,0h-0.1h-0.1c0,0,0,0,0-0.1l0,0l0,0l0,0l0,0l0,0H59h-0.1l0,0v0.1l0,0l0,0l0,0l0,0l0,0l0,0
			v0.1l0,0l0,0c0,0,0,0,0,0.1l0,0V40l0,0v0.1v0.1l0,0l0,0l0,0l0,0H59l0,0l0,0l0,0l0,0v0.1l0,0h0.1l0,0l0,0l0,0l0,0l0,0l0,0
			c0,0,0,0,0,0.1l0.1,0.1h0.1v0.1l0,0l0.1-0.1l0,0l0.1,0.1l0,0h0.1l0,0l0,0h0.1l0,0l0,0l0,0l0,0v0.1v0.1l-0.2-0.1l0,0
			c0,0-0.1,0-0.1-0.1c-0.1,0-0.1,0-0.1,0h-0.1l0,0c0,0,0,0-0.1,0s-0.1,0-0.2,0h-0.1h-0.1h-0.1h-0.2l0,0h-0.1l0,0l0,0
			c-0.1,0-0.1,0-0.2,0l0,0l0,0l0,0l0,0l0,0l0,0l0,0H58l0,0h-0.1l0,0h-0.1h-0.1l0,0l0,0v0.1l0,0l0,0h0.1h0.1l0,0l0,0l0,0
			c0,0,0,0,0.1,0l0,0l0,0l0,0l0,0l0.1,0.1l0,0h0.1v0.1l0,0l0,0l0,0l0,0l0,0l0,0l0,0l0,0l0,0l0,0l0,0l0,0l0,0l0,0l0,0l0,0l0,0l0,0
			l0,0l0,0l0,0l0,0l0,0L58,40.7l0,0l0,0l0,0l0,0l0,0l0.1,0.1l0,0l0,0l0,0l0,0l0,0l0,0H58l0,0l0,0v0.1l0,0l0,0l0,0h-0.1h-0.1h-0.1
			l0,0l0,0l0,0l0,0l0,0l0,0l0,0h-0.1l0,0l0,0l0,0v-0.1l0,0l0,0l0,0l0,0l0,0h-0.1l0,0h-0.1l0,0l0,0h-0.1v0.1l0,0l0,0l0,0l0,0l0,0l0,0
			l0,0l0,0l0,0h-0.1l0,0l0,0L57.1,41L57,41.1l0,0l0,0l0,0l0,0v0.1l0,0l0,0l0,0l0,0v0.1v0.1l0,0l0,0h-0.1l0,0h-0.1l0,0h-0.1l0,0l0,0
			l0,0l0,0h-0.1l0,0l0,0l0,0l0.1-0.1l0,0l0,0l0,0h0.1v-0.1l0,0l0,0l-0.1-0.1l0,0L56,41.3l-0.1-0.1l0,0h-0.1h-0.1l0,0l0,0l0,0l0,0
			l0,0l0,0v0.1h0.1h0.1l0,0v0.1v0.1l0,0l0,0c0.1,0.1,0.2,0.1,0.3,0.2v0.1l0,0l0,0h-0.1L56,41.7h-0.1h-0.1l0,0v0.1l0,0L55.4,42h-0.1
			l0,0v0.1l0,0l-0.1,0.1l0,0l0,0h0.1c0.1,0.1,0.1,0.1,0.2,0.2l0,0l-0.1,0.1h-0.1h-0.1l0,0l0,0l0,0h-0.1H55h-0.1h-0.1l0,0l-0.1-0.1
			l0,0v0.1l0,0l0,0l0,0l0,0l0,0c0.1,0.1,0.2,0.1,0.2,0.1H55h0.1l0,0l0,0l0,0l0,0l0,0l0,0l0,0H55h-0.1l0,0l-0.1-0.1l0,0h-0.1l0,0
			h-0.1c0,0,0,0-0.1,0l0,0l0,0l-0.1-0.1l0,0l0,0l0,0l0,0v-0.1l-0.1-0.1h-0.1l0,0l0,0h-0.1l0,0l0,0l0,0l0,0L53.7,42h0.1l0,0l0,0h0.1
			c0,0,0,0,0.1,0h0.1l0,0h0.1l0,0h0.1h0.1h0.1l0,0l0,0h0.1c0.1,0,0.2,0,0.3,0H55h0.1h0.1l0,0l0.1-0.1l0,0v-0.1v-0.1l0,0l0,0l0,0
			l-0.1-0.1l0,0h-0.1l0,0H55h-0.1l0,0l0,0l0,0l0,0l0,0h-0.1h-0.1h-0.1l0,0h-0.1l-0.1-0.1l-0.3-0.1l0,0H54h-0.1h-0.1h-0.1l0,0l0,0
			l0,0v0.1l0,0l-0.1-0.1l0,0l0,0h-0.1l0,0v-0.1h-0.1l0,0l0,0h-0.1l0,0l0,0l-0.1,0.1h-0.1l0,0H53l0,0l0,0h-0.1l0,0l0,0l0.1-0.1l0,0
			l0,0l0,0l0,0l0,0l0,0h-0.1l0,0l0,0l0,0h-0.1h-0.1h-0.1l0,0l0,0v0.1l0,0l0,0l0,0v-0.1l0,0l0,0l0,0h-0.1l0,0h-0.1l0,0l0,0l0,0v0.1
			l0,0l0,0l0,0l0,0l0,0v-0.1l0,0l0,0l0,0L52,41l0,0l0.1-0.1l0.1-0.1v-0.1l0,0l0,0h-0.1l0,0l0,0l0,0l0,0l0,0l0,0l0,0v0.1v0.1l0,0l0,0
			l0,0l0,0l0,0l0,0l0,0l0,0l0,0H52l0,0h-0.1l0,0l0,0l0,0l0,0H52h0.1l0,0l0,0l0,0l0,0l0,0H52l0,0l0,0l0,0l0,0l0,0l0,0l0,0l0,0l0,0
			L51.9,41l0,0l0,0v-0.1v-0.1l0,0l0,0l0,0h-0.1l0,0h-0.1v0.1V41v0.1l0,0l0,0c0,0,0,0,0,0.1l0,0l0,0l0,0v-0.1l0,0l0,0l0,0l0,0
			l-0.1,0.1v0.1l0,0l0,0l0,0l0,0v-0.1l0,0l0,0l0,0l0,0l0,0l0,0l0,0v-0.1l0,0l0,0h-0.1l0,0l0,0l0,0l0,0l0,0v0.1v0.1l0,0
			c-0.1,0-0.1,0-0.2,0.1c-0.1,0-0.1,0-0.1,0l0,0v0.1l0,0l0.2-0.1h0.1h0.1h0.1l0,0v0.1v0.1v0.1l0,0L50.1,42H50h-0.1l0,0l-0.1,0.1l0,0
			v0.1l0,0l0,0l0,0l0,0l0,0v0.1v0.1v0.1l0,0v0.1l0,0l0,0l0,0l0,0l0,0l0,0l0,0l0,0l0,0h-0.1l0,0l0,0l0,0l0,0l0,0l0,0l0,0l-0.1,0.1
			L49.3,43l0,0h-0.1l0,0l0,0l0,0v0.1l0,0l0,0l0,0l0,0l0,0l0,0v0.1l0,0l0,0l0,0l0,0l0,0l0,0c0,0.1,0,0.1,0,0.2l0,0v0.1l0,0l0,0h-0.1
			l0,0l0,0l0,0l0,0l0,0l0,0H49l0,0l0,0l0,0l0,0l0,0l0,0l0,0h-0.1l0,0l0,0l0,0l0,0l0,0v0.1l0,0v0.1v0.1l0,0l0,0v0.1l0,0l0,0l0,0V44
			l0,0l0,0l0,0l0,0v0.1l0,0v0.1l0,0v0.1l0,0l0,0H49l0,0l0,0l0,0l0,0h-0.1v0.2l0,0l0,0l0,0l0.1,0.1l0,0h0.1h0.1l0,0l0,0l0,0l0.1-0.1
			c0,0,0,0,0.1,0l0,0l0,0h0.1l0.1-0.1h0.1l0,0l0.1-0.1l0,0l0,0l0,0l0,0v-0.1v-0.1v0.1l0,0l0,0l0,0l0,0v0.1l0,0l0,0v0.2l0,0l0,0v0.1
			v0.1l0,0l0.1,0.1l0.1,0.1l0,0V45l0,0l0,0l0,0l0,0h-0.1v0.1l0,0h-0.1l0,0l0,0l0,0l0,0l0,0l0,0v0.1l0,0v0.1v0.1l0,0l0,0l0,0h0.1l0,0
			l0,0l0,0l0,0c0,0-0.1,0-0.1,0.1l0,0h0.1l0,0l0,0H50l0.1-0.1l0,0v-0.1l0,0l0,0l0,0l0,0l0.1-0.2l0,0l0,0h0.1l0,0h0.1l0,0l0,0V45
			v-0.1l0,0l0,0l0,0l0,0l0,0l0,0l0,0l0,0h0.1h0.1l0,0l0,0l0,0l0,0l0,0l0,0l0.1-0.1v-0.1v-0.1v-0.1l0,0l-0.1,0.1c0-0.1,0-0.1,0-0.2
			v-0.1v-0.1l0,0v-0.1l0,0l0,0l0,0h0.1l0.1-0.1l0.1-0.1l0,0l0,0v-0.1v-0.1l0,0l0,0v-0.1l0,0l-0.1-0.1l0,0h-0.1l0,0l0,0h-0.1h-0.1
			l0,0l0,0v-0.1v-0.1l0,0v-0.1l0,0v-0.1l0,0l0,0l0,0l0,0l0,0l0,0l0,0h0.1l0.1-0.1v-0.1l0,0l0,0l0,0l0,0l0,0h0.1l0,0h0.1H51h0.1l0,0
			h0.1l0,0l0.1-0.1l0,0v-0.1v-0.1l0,0l0,0l0,0c0.1-0.1,0.1-0.1,0.2-0.2h0.2l0,0h0.1h0.1l0,0l0,0l0.1,0.1v0.1l0,0l0,0l0,0l-0.1-0.1
			l0,0l0,0l0,0l0,0l-0.1,0.1l0.2,0.3l0,0l0,0L51.9,43l-0.1,0.1l-0.1,0.1l0,0l0,0h-0.1v0.1v0.1l0,0l0,0l0,0l0,0l0.1,0.1v0.1l0,0v0.1
			v0.1l0,0l0,0l0,0v0.1l0,0l0,0c0,0,0,0.1,0,0.2h0.1h0.1l0,0v0.1c0.1,0.1,0.3,0,0.4,0.1h0.1l0,0h0.1h0.1l0,0l0,0h0.1h0.1l0,0
			c0,0,0,0,0.1,0H53l0,0h0.1h0.1h0.1l0,0l0,0h0.1l0.1,0.1h0.1h0.1h-0.1l0,0h-0.1h-0.1l0,0l-0.1,0.1l0,0c0,0,0,0-0.1,0l0,0l0,0h-0.1
			l0,0H53h-0.1l0,0l-0.1,0.1h-0.1l0,0h-0.1l0,0h-0.1l0,0l0,0h-0.1v0.1h-0.1l0,0l0,0l-0.1,0.1l0,0l-0.2,0l0,0h-0.1v0.1l0,0l0,0V45
			l0,0H52l0,0l0,0l0,0h0.1l0,0v-0.1v-0.1h0.1l0.1,0.1l0.1,0.1l0,0l0,0l0,0l0,0v0.1v0.1v0.1v0.1h-0.1l0,0h-0.1l0,0l0,0l-0.1-0.1H52
			v-0.1l0,0l0,0v0.1v0.1l0,0v0.1v0.2l0,0v0.1c0,0,0,0,0,0.1V46l-0.1,0.1h-0.1l0,0v0.1v0.1l0,0h-0.1l0,0h-0.1l0,0v-0.1l0,0l0,0h-0.1
			l0,0l-0.5,0h-0.1c-0.1,0-0.2,0.1-0.3,0.1h-0.1h-0.1h-0.1h-0.1l0,0l0,0l0,0h-0.1v-0.1l0,0L50,46.1l0,0.2h-0.1l0,0h-0.1l-0.1,0.1
			l0,0l0,0l0,0l-0.1,0.1l0,0h-0.1l0,0l0.1-0.1l0,0v-0.1l0,0h-0.1h-0.1v-0.1l0,0l-0.1-0.1l0,0l0,0l0.1-0.1l0.1-0.1l0,0v-0.1l0,0v-0.1
			v-0.1v-0.1l0,0v-0.1v-0.1v-0.1l0,0l0,0h-0.1l-0.1,0.1l-0.1,0.1l-0.1,0.1l0,0H49h-0.1l-0.1,0.1l-0.1,0.1c0,0.1,0,0.1,0,0.3v0.1l0,0
			v0.2v0.1l0,0l0,0v0.1l0,0l0,0l0,0l0,0v0.1l0,0l0,0l0,0l0,0l0,0v0.1l0,0l0,0l-0.1,0.1l0,0l0,0l0,0l0,0h-0.1h-0.1h-0.1l0,0l0,0l0,0
			h-0.1c0,0,0,0-0.1,0H48l0,0l0,0h-0.1h-0.1H48l-0.1,0.1l0,0l0,0L47.8,47v0.1v0.1v0.1v0.1l0,0h-0.1l0,0h-0.1h-0.1h-0.1l0,0h-0.1
			h-0.1h-0.1l0,0l0,0v0.1v0.1v0.1L47,47.8L46.7,48h-0.2l0,0v0.1l0,0l0,0l0,0l0,0h-0.1h-0.1c0,0,0,0-0.1,0l0,0l0,0l0,0l0,0l0,0h-0.1
			l0,0l0,0l0,0l0,0l0,0v0.1l0.1,0.1l0,0v0.1l0,0c0,0,0,0,0,0.1l0,0h-0.1l0,0H46h-0.1h-0.1l0,0l0,0l-0.1-0.1h-0.1h-0.1h-0.2h-0.1l0,0
			h-0.1l0,0l0.1,0.1v0.1l0,0v0.1h0.1h0.1l0,0h0.1h0.1l0,0l0,0h0.1l0,0l0,0v0.1h0.1l0,0l0,0v0.1l0,0l0.1,0.1l0.1,0.1v0.1v0.1v0.1v0.1
			v0.1c0,0,0,0,0,0.1v0.2l-0.1,0.2l0,0l0,0l-0.1,0.1h-0.1h-0.1l0,0l0,0l0,0l0,0h-0.1l0,0l0,0h-0.1h-0.1h-0.2H45h-0.1h-0.1h-0.1h-0.1
			h-0.1l0,0l0,0l0,0l0,0h-0.1h-0.1l0,0h-0.1l-0.1,0.1l0,0H44l0,0l-0.1,0.1l0,0v0.1l0.1,0.1l0,0l0,0v0.1v0.1V51v0.1v0.1l0,0
			c0,0.1,0,0.1-0.1,0.3l-0.1,0.1l-0.1,0.1l-0.1,0.1l0,0v0.1c0,0.1,0,0.1,0,0.2l0,0l0.1,0.1h0.1l0,0l0,0l0,0v0.1v0.1c0,0,0,0,0,0.1
			v0.1v0.1l0,0v0.1l0,0l0,0l0,0l0,0l0,0l0,0h0.1l0,0H44l0,0h0.1l0,0h0.1l0,0l0,0h0.1c0.1,0,0.1,0.1,0.1,0.2l0,0l0.1,0.1l0.1,0.1h0.1
			l0,0l0,0h0.1h0.1H45l0,0l0,0l0,0h0.1l0,0h0.1l0,0h0.1h0.1h0.2h0.1h0.1h0.1H46l0,0l0.1-0.1l0.1-0.1l0,0h0.1h0.1l0,0v-0.1v-0.1v-0.1
			l0,0v-0.1v-0.1h0.1l0.1-0.1h0.1l0,0v-0.1h-0.1l-0.6,0v-0.1v-0.1l0.2-0.2c0.2-0.2,0.2-0.2,0.2-0.3l0,0c0,0,0.1-0.1,0.2-0.1
			c0.1,0,0.1,0,0.2-0.1h0.1l0.2-0.1h0.1l0.1-0.1V51l0,0v-0.1v-0.1l0,0l0.1-0.1h0.1l0,0l0,0l0,0c0.1,0,0.2,0,0.3,0h0.1H48h0.1h0.1
			l0,0l0.1-0.1l0,0l0,0h0.1l0,0l0,0l0.1-0.1v-0.1l0.1-0.1v-0.1l0.1-0.1h0.1h0.1H49l0,0l0,0v0.1v0.1h0.1l0,0v0.1l0,0l0,0l0.1,0.1l0,0
			l0,0l0,0l0,0h-0.1l0,0l0,0v0.1h0.1l0,0v-0.1l0,0l0,0l0,0l0,0l0,0l0,0l0,0v0.1l0,0v0.1l0,0l0,0l0,0l0,0l0,0l0,0l0,0l0,0h0.1l0,0
			l0,0v0.1l0,0l0.1,0.1l0,0h0.1h0.1l0,0l0,0l0,0h0.1l0,0l0,0l0,0V51l0,0h0.1l0,0l0,0l0,0h0.1v0.1l0,0l0.1,0.1l0,0l0,0c0,0,0,0,0.1,0
			l0,0l0,0v0.1v0.1l0,0l0,0l0,0l0,0v0.1v0.1l0,0l0,0l0,0l0,0l0,0l0,0l0,0l0,0l0,0l0,0L50,51.7l0,0h-0.1h-0.1l-0.1,0.1l0,0h-0.1l0,0
			l0,0h-0.1l0,0h-0.1l0,0l-0.1,0.1l0,0l0,0l0,0l0,0l0,0l0,0V52l0,0v0.1l0,0h0.1l0,0l0,0h0.1l0.1,0.1h0.1h0.1h0.1l0,0l0,0v0.1
			l0.1,0.1l0,0h0.1h0.1l0,0v-0.1l0,0v-0.1l0,0v-0.1l0.1-0.1l0,0l0,0l0,0l0,0l0,0l0,0l0,0l0,0l0,0l0,0l0,0l0,0l0,0l0,0l0,0l0,0l0,0
			c0,0,0,0,0-0.1c0,0,0,0,0-0.1v-0.1l0,0l0,0l0,0l0,0h0.1l0,0v-0.1v-0.1v-0.1h-0.1l0,0l0,0l0,0l0,0l0,0l0,0l0.1-0.1v-0.1l0,0l0,0
			l0,0l0,0l0.1,0.1h0.1h0.1l0,0l0,0l0.1,0.2l0,0l0,0v-0.1l-0.1-0.2l0,0l-0.1-0.1l0,0h-0.1l0,0h-0.1l0,0h-0.1L50.1,51l0.9,0.3l0,0
			l0.1-0.1l0,0L51,51.1h-0.1h-0.1l0,0l0,0h-0.1L50.6,51h-0.1l0,0l-0.1-0.1l0,0l-0.1-0.1l0,0v-0.1l-0.2-0.1L50,50.3l-0.1-0.1l0,0
			v-0.1V50l0,0l0,0l0,0v-0.1v-0.1l0,0l0,0v-0.1l0,0H50l0.1-0.1l0,0l0,0l0,0l0,0v0.1l0.1,0.1v0.1l0,0l0,0V50l0,0l0.1-0.1l0,0l0.1,0.1
			h0.1l0,0l0,0l0,0l0,0l0,0v0.1l0.1,0.1l0,0v0.1c0,0,0,0,0,0.1l0,0h0.1l0,0l0.1,0.1l0,0v0.1l0.1,0.1l0,0H51l0,0l0,0h0.1h0.1
			c0.1,0,0.1,0,0.1,0l0.1,0.1h0.1c0.1,0.1,0.1,0.1,0.2,0.2l0.1,0.1l0.1,0.1l0,0l0,0v0.1v0.1l0,0l0,0v0.1v0.1c0,0,0,0,0,0.1v0.1
			l0.1,0.1l0.1,0.1l0,0l0,0l0,0l0,0l0,0l0,0l0.1,0.1h0.1l0,0l0.1,0.1l0,0l0.1,0.1v0.1v0.1l0.1,0.1l0,0l0,0l0,0h0.1h0.1l0,0h0.1H53
			h0.1l0,0h0.1l0,0l0,0l0,0v0.1l0,0l0,0c0,0,0,0,0.1,0h0.1l0,0l0,0h0.1v-0.1v-0.1v-0.1v-0.1l0,0h0.1l0,0h0.1l0.1-0.1v-0.1h-0.1h-0.1
			L53.5,52l0,0l0,0l-0.1-0.1l0,0h-0.1v-0.1v-0.1l0,0.3l0,0l-0.1-0.1l0,0v-0.1v-0.1l0,0l0,0l0,0l0.1,0.1l0,0h0.1h0.1l0,0l0.1-0.1l0,0
			l0,0l0.1-0.1l0,0l0,0l0,0l0,0h0.1h0.1H54l0,0l0.1,0.1l0,0l0,0l0,0l0,0v0.1l0,0l0,0H54v0.1V52l0,0l0,0l-0.1,0.1l0,0l0.1,0.1l0,0
			h0.1l0,0v-0.1l0,0l0,0V52l0.1-0.1V52v0.1v0.1l0,0l0,0l0,0l0,0l0,0l0,0l0,0l0,0l0,0h-0.1l0,0l0,0v0.1v0.1h0.1l0,0l0,0l0,0v-0.1l0,0
			l0,0l0,0l0,0h0.1l0,0l0,0l0,0h0.1l0,0l0,0l0,0c0,0,0,0,0,0.1h-0.1l0,0l0,0l0,0l0,0v0.1l0,0h0.1l0,0l0,0v0.1v0.1l0,0h0.1l0,0v0.1
			l0,0l0,0l0,0v0.1l0,0l0,0l0.1-0.1v-0.1l0,0l0,0c0,0,0,0,0.1,0l0,0l0,0l0,0l0,0l0,0l-0.1,0.1l0,0l0,0h0.1l0,0h0.1l0,0l0,0l0,0l0,0
			l-0.1,0.1V53l0,0l0.1-0.1v-0.1l0,0c0,0,0,0,0-0.1v-0.1l0,0l0,0l0.1,0.1l0,0H55l0,0v0.1l0,0v0.1l0,0l0,0l0,0h0.1h0.1h0.1l0,0l0,0
			l0.1-0.1l0,0v-0.1l0,0v-0.1l0,0l0,0l0,0l0,0h0.1l0,0h0.1h0.1l0,0l0,0l0.1,0.1l0,0H56h0.1l0,0h0.1l0,0c0,0,0,0,0.1,0l0,0L57,53
			v-0.1l0,0l0,0h0.1h0.1h0.1l0,0l0,0l0.1-0.1l0,0l0,0l0,0l0,0h0.1l0,0l0,0l-0.1,0.1l0,0V53l0,0l0,0l0,0v0.1v0.1l0,0v0.1l0,0v0.1v0.1
			v0.1l0.1,0.1l0,0l0,0l-0.1,0.1v0.1V54l0,0v0.1v0.2v0.1v0.1v0.1v0.1v0.1v0.1V55v0.1l-0.1,0.1h-0.1l0,0h-0.1H57l0,0l0,0l0,0l0,0l0,0
			l0,0c0,0,0,0-0.1,0c0,0,0,0-0.1,0l0,0h-0.1l-0.1-0.1l0,0l0,0l0,0l0,0l0,0l0,0l0,0c0,0,0,0-0.1,0h-0.1l0,0h-0.1h-0.1l0,0h-0.1H56
			l-0.1,0.1l0,0l0,0l0,0h-0.1l-0.1,0.1l-0.1,0.1h-0.1l0,0h-0.1l0,0l0,0h-0.1h-0.1H55h-0.1h-0.1h-0.1h-0.1l0,0c0,0,0,0-0.1,0h-0.1
			h-0.1h-0.1h-0.1H54l0,0l0,0l-0.1-0.1h-0.1l0,0h-0.1h-0.1l0,0l0.2-0.3l0,0c0,0,0,0-0.1,0l0,0l0,0h-0.1l0,0v-0.1h-0.1h-0.1l0,0h-0.1
			h-0.1h-0.1H53h-0.1l0,0h-0.1L52.7,55l0,0l0,0l-0.1,0.1l0,0v0.1v0.1v0.1v0.1l0,0l-0.1,0.2c0,0,0,0.1-0.1,0.1s-0.1,0-0.2,0l0,0h-0.1
			l-0.2-0.1l0,0c-0.4-0.2-0.5-0.2-0.7-0.2L51,55.4l0-0.1v-0.2L50.8,55h-0.1h-0.1c-0.1-0.1-0.1-0.1-0.3-0.1h-0.2
			c-0.2,0-0.2,0-0.3-0.1l-0.1-0.1l0,0h-0.1v-0.1l0,0h-0.1h-0.1h-0.1l0,0l0,0l0,0l-0.1-0.1l0.1-0.1v-0.1l0.1-0.1v-0.1v-0.2l0,0v-0.1
			l0,0l-0.1-0.2l0,0v-0.1l0.1-0.1l0,0l0,0l0.1-0.1v-0.1v-0.1l0,0h-0.1l-0.1,0.1l0,0l-0.1-0.1l0,0L49.1,53H49l-0.1,0.1l-0.1,0.1
			l-0.3,0.1v-0.1l-0.1-0.1l0,0l0,0h-0.1h-0.1l0,0l0,0l0,0l0,0l0,0l0,0L48,53.2l0,0l0,0h-0.1l0,0h-0.1v0.1l0,0l0,0l0,0l0,0h-0.1h-0.1
			h-0.1h-0.1h-0.1h-0.1h-0.1H47h-0.1l0,0l0,0h-0.1h-0.2h-0.2l0,0L46,53.5v0.1l0,0l0,0l0,0l0,0h-0.1l0,0l0,0l0,0l0,0l-0.1,0.1h-0.1
			l0,0l0,0l0,0l-0.1,0.1l0,0h-0.2h-0.1v-0.1l0,0h-0.1l0,0l0,0h-0.1H45l0,0l0,0h-0.1h-0.1h-0.1l-0.1-0.2l0,0l-0.1-0.1h-0.1l-0.1,0.1
			l-0.1,0.2l0,0L43.8,54v0.1l-0.1,0.1l-0.1,0.1l0,0h-0.1h-0.1l-0.2,0.1L43,54.6l0,0l-0.1,0.1L42.8,55l0,0l-0.1,0.1v0.1v0.1v0.2l0,0
			v0.1l-0.1,0.1L42.4,56v0.1v0.1l0,0l-0.1,0.1l0,0l-0.2,0.1l-0.1,0h-0.1l-0.1,0.1h-0.2h-0.1l0,0l0,0l-0.1,0.1l-0.1,0.1v0.1v0.1
			l-0.1,0.2h-0.1l-0.2,0.1l0,0l-0.1,0.1v0.1v0.1v0.1v0.1l0,0v0.1v0.1L40.6,58l-0.1,0.1l0,0h-0.1l-0.1,0.1v0.1v0.1l-0.1,0.1l0,0
			l-0.1,0.2v0.1v0.1l-0.1,0V59v0.1l0,0v0.1v0.1v0.1l0,0l0,0l0,0l0,0l0,0l0.1,0.1l0,0l0,0v0.1v0.1v0.1l0,0v0.1V60v0.1l0.1,0.2v0.1
			v0.2c0,0.1,0,0.1,0,0.2v0.1V61v0.1v0.1v0.2c0,0,0,0,0,0.1v0.1l-0.1,0.2l0,0L40,61.9V62l0.1,0.1l0,0l0,0v0.1v0.1l0,0l0,0v0.1v0.1
			v0.1v0.1v0.1l0.1,0.2l0,0l0,0v0.1l0.1,0.1l0,0h0.1h0.1l0,0l0,0v0.1l0,0v0.1l0.1,0.1l0,0l0.1,0.1v0.1l0,0v0.1l0.1,0.1l0,0l0,0
			l0.1,0.1H41l0,0l0,0v0.1l0,0v0.1l0.1,0.1c0,0,0,0,0,0.1v0.2l0,0v0.1h0.1h0.1l0,0h0.1v0.1v0.1V65l0.1,0.1h0.1l0.1,0.1l0.1,0.1l0,0
			l0,0l0.1,0.1l0.1,0.1l0,0h0.1l0,0c0.1,0.1,0.2,0.2,0.4,0.3l0.1,0.1l0,0c0.1,0.2,0.1,0.2,0.3,0.2l0.1,0.1l0,0
			c0.2-0.1,0.2-0.1,0.4-0.1l0.1-0.1l0.2-0.1l0,0h0.1H44c0.1,0,0.1,0,0.2,0c0.1,0,0.1,0,0.1,0l0,0h0.1l0.2,0.1l0,0l0.1,0.1l0.2,0.1
			l0.1-0.1l0.1-0.1l0,0h0.1h0.1l0,0h0.1l0.1-0.1l0,0l0.2-0.1h0.1l0,0l0,0l0,0l0,0l0.1-0.1H46h0.1c0.2-0.1,0.2-0.1,0.5-0.1h0.1l0,0
			c0,0,0,0,0.1,0c0,0,0,0,0.1,0H47c0,0,0,0,0.1,0h0.1l0.1,0.1l0.2,0.2l0.1,0.1l0.1,0.2l0.1,0.2l0,0h0.1H48h0.1h0.1l0.1-0.1l0,0h0.1
			l0,0l0,0h0.1h0.2h0.1h0.1H49h0.1l0,0l0,0l0,0v0.1v0.1v0.1h0.1h0.1l0,0l0,0l0,0l0,0l0,0v0.2l0,0v0.1V67v0.2c0,0.1,0,0.2-0.1,0.2
			l-0.2,0l0,0v0.1h0.1l0,0v0.1v0.1l0,0L49,67.8v0.1c0,0,0,0,0,0.1l-0.1,0.1h-0.1l0,0c0,0,0,0-0.1,0c0,0,0,0,0,0.1l0.1,0.2l0,0v0.1
			l0.1,0.2l0.1,0.1l0.1,0.1l0.1,0.1l0.1,0.1l0.1,0.1l0.1,0.1l0.1,0.1l0.1,0.1l0,0l0.1,0.1l0.1,0.1l0,0v0.1l0,0l0,0l0,0l0.1,0.1
			l0.1,0.1l0,0v0.1l0.1,0.1v0.1l0.1,0.1l0.1,0.1l0,0v0.1l0,0h-0.1l0,0v0.1v0.1v0.1V71l0,0v0.1l0,0l0,0v0.1v0.1v0.1c0,0,0,0,0,0.1
			c0,0,0,0,0,0.1l-0.1,0.1l0,0l-0.1,0.1H50c0,0,0,0,0,0.1V72l0,0v0.1v0.1v0.1v0.1v0.1l0,0v0.1v0.1v0.1l0,0v0.1V73l0,0v0.1v0.1v0.1
			l0,0l0,0v0.1l0,0v0.1l0.1,0.1l0,0l0.1,0.1l0,0v0.1v0.1l0,0V74l0,0v0.1l0,0l0.1,0.1l0.1,0.1l0.1,0.1l0,0v0.1l0,0v0.1l0,0
			c0,0.1,0,0.2,0,0.3l0,0l0,0l0,0l0,0V75v0.1l0,0l0,0l0,0l0,0v0.1v0.1l0,0l0,0v0.1l0.1,0.1l0,0l0,0l0.2,0.2v0.1v0.1
			c0,0.1,0.1,0.1,0.1,0.2v0.1l0,0v0.1l0,0v0.1v0.1l0,0l0,0l0,0l0,0l0,0l0,0l0,0l0,0l0,0l0,0l0,0l0,0l0,0l0,0l0,0l0,0l0,0l0,0l0,0
			l0,0l0,0H51l0,0l0,0l0,0l0,0l0.2-0.1l0,0l0,0l0,0l0,0h0.1h0.1h0.1h0.1h0.1h0.1l0,0l0,0h0.1l0,0H52l0,0l0,0l0,0h0.1l0,0h0.1l0,0
			l0,0l0,0h0.1l0,0l0,0l0,0l0,0h0.1l0,0l0.3-0.1l0.2-0.1l0.2-0.1l0,0l0.1-0.1c0.1,0,0.1,0,0.2-0.1l0.1-0.1l0.1-0.1l0.1-0.1l0.1-0.1
			l0,0l0,0l0.1-0.1c0.4-0.2,0.4-0.2,0.4-0.3l0.1-0.1l0,0l0.1-0.2l0,0l0,0l0,0l0,0l0,0l0,0l0.1-0.1l0.2-0.1l0,0h0.1H55h0.1l0,0
			l0.1-0.1h0.1l0.1-0.1v-0.1l0,0l0,0l0.1-0.1c0-0.1,0-0.1,0.1-0.2l0,0c0,0,0,0,0-0.1l0,0v-0.1v-0.1c0,0,0,0,0-0.1l0,0v-0.1l0,0v-0.1
			l0.1-0.1l0,0l0,0h0.1l0,0l0.1-0.1l0.1-0.1l0,0h0.1l0,0l0,0h0.1l0.1-0.1l0,0l0.1-0.1l0.1-0.1l0,0l0,0l0.2-0.1h0.1l0.1-0.1l0,0H57
			l0.1-0.1h0.1l0,0l0.1-0.1l0,0l0.1-0.1l0.1-0.1l0.1-0.1l0.1-0.2l0,0l0.1-0.1l0,0c0,0,0-0.1,0-0.3v-0.1c0-0.1,0.1-0.3,0.1-0.4v-0.1
			l0,0l0.1-0.1l0,0l0.1-0.1H58l0,0l0,0c-0.1-0.1-0.1-0.1-0.1-0.2v-0.1v-0.1l0,0v-0.1v-0.1L58,70l0,0v-0.1l0,0l0,0l0,0l0,0l0.1-0.1
			l0,0l0,0v-0.1L58,69.6l-0.1-0.1h-0.1v-0.1l0,0c0-0.1,0-0.1,0.1-0.2l0.1-0.1l0.1-0.1l0,0v-0.1l0.1-0.1l0,0l0.1-0.1v-0.1v-0.1
			l0.1-0.1v-0.1l0,0l0,0l0.1-0.1l0,0l0,0h0.1l0.1-0.1l0.1-0.1l0.1-0.1l0.1-0.1l0.1-0.1l0.1-0.1l0,0l0.1-0.1l0,0l0.1-0.1l0.1-0.1
			l0.1-0.1l0.1-0.2l0.1-0.1l0.2-0.2l0,0l0,0c-0.3,0-0.6,0.1-0.9,0.1c0.3,0,0.6-0.1,0.9-0.1c0.8-0.6,0.8-0.6,0.9-0.9
			c0.2-0.2,0.2-0.3,0.3-0.5l0.1-0.2l0.1-0.1c0.1-0.2,0.1-0.2,0.2-0.4l0.1-0.2l0.1-0.1l0.1-0.2V64v-0.1l0.1-0.1l0.2-0.4l0,0l0.1-0.1
			v-0.1v-0.1V63v-0.1h0.1l0,0l0,0l-0.1-0.1l0,0v-0.1v-0.1v-0.1c0,0,0,0,0-0.1l0,0v-0.1v-0.1l0,0l0,0l0,0h-0.1l-0.1,0.1l0,0v0.1
			l0.9,0.2l0,0h-0.1h-0.1l0,0l-0.1,0.1l0,0h-0.1l0,0l-0.1,0.1h-0.1h-0.1h-0.1l0,0h-0.1l0,0.2l0,0L62,63.1h-0.1h-0.1h-0.1l-0.1,0.1
			c-0.1,0.1-0.2,0.1-0.3,0.1l-0.2-0.1L61,63.1l0,0l0,0L60.9,63l0,0h-0.1c0,0,0,0-0.1,0l0,0l0,0l0.1-0.1h0.1l0.1-0.1v-0.2l0,0v-0.1
			v-0.1l-0.1-0.1l0,0l0,0h-0.1l-0.1-0.1l0,0l-0.1-0.1L60.5,62c-0.1,0-0.1-0.1-0.2-0.2l-0.1-0.1h-0.1H60l-0.2-0.1h-0.1l0,0l-0.1-0.1
			c-0.1-0.2-0.1-0.2-0.1-0.4c0-0.1,0-0.1-0.1-0.4l-0.1-0.2l-0.2-0.1H59l-0.1-0.1l0,0l-0.1-0.1v-0.1V60v-0.2v-0.3v-0.1c0,0,0,0,0-0.1
			v-0.1v-0.1L58.6,59l-0.1-0.2h-0.1l-0.1-0.1l-0.1-0.1l0,0L58,58.4l0,0v-0.2l0,0l0,0l0,0h0.1v-0.1L58,58l-0.1-0.1l-0.1-0.1l-0.2-0.3
			l-0.1-0.1l-0.1-0.1l-0.1-0.1l0.2-0.2l-0.1-0.1v-0.1v-0.1v-0.1l-0.1-0.2l0,0l-0.1-0.1l-0.2,0l-0.1-0.1v-0.1l-0.1-0.2v-0.1l0,0
			l0.1,0.1l0,0L57,56l0.1,0.1v0.1l0,0l0.1,0.1l0.1,0.1l0.1,0.1h0.1l0,0c0-0.1,0-0.3,0.1-0.4V56l0,0v-0.1c0,0.1,0,0.1,0,0.2v0.1v0.1
			v0.1l0,0h0.1h0.1l0.1,0.1l0.1,0.1l0.1,0.1c0.1,0.2,0.3,0.4,0.4,0.6l0.1,0.1l0,0l0.1,0.2l0,0v0.1v0.1v0.1l0.2,0.1l0,0l0,0
			c0.1,0.1,0.1,0.1,0.3,0.4l0.1,0.2l0,0v0.1v0.1c0,0.1,0,0.1,0,0.1V59c0,0,0,0,0,0.1v0.1l0.1,0.1l0.1,0.1l0,0l0.1,0.1h0.1l0.1,0.1
			h0.1l0.1,0.1l0.1,0.1l0.1,0.1V60v0.1l0,0c0.1,0.2,0.1,0.2,0.2,0.3l0.1,0.1c0,0,0,0,0,0.1v0.1c0.1,0.1,0.1,0.1,0.1,0.3v0.2
			c0,0.1,0,0.1,0,0.3v0.1v0.1l0.1,0.1V62l0,0c0,0.1,0,0.1,0,0.2v0.1l0,0h0.1l0,0h0.1l0,0H61l0.1-0.1l0.1-0.1l0.1-0.1l0,0l0,0
			l0.1-0.1v-0.1l0,0l0,0l0,0h0.1C62,62.1,62,62,62.1,62h0.1h0.1l0.2-0.1l0,0l0,0h0.1c0.1-0.1,0.2-0.2,0.2-0.3l0.1-0.1H63h0h0.1
			l0.1-0.1h0.1l0,0c0.1,0,0.1,0,0.4-0.3l0,0l0,0l0,0V61v-0.1v-0.1l0.1-0.1l0.1-0.1l0.1-0.1l0,0l0.1-0.1l0,0c0,0,0,0,0.1,0
			s0.1,0,0.1,0h0.1l0,0l0.1-0.1l0.1-0.2l0,0V60l0.1-0.1l0.1-0.1v-0.2l0.1-0.2l0.1-0.1l0.1-0.1c0-0.1,0-0.1,0-0.2v-0.2l0,0l0.1-0.3
			l0,0l0,0v0.1l0,0l0,0v-0.1v-0.1c0-0.1,0.1-0.2,0.1-0.3l0.1-0.2v-0.1v-0.1v-0.1v-0.1h-0.1l0,0l0,0v-0.1c0-0.1-0.1-0.1-0.1-0.2v-0.1
			V57c-0.1,0-0.2,0-0.2,0h-0.2l0,0c-0.2-0.1-0.2-0.1-0.2-0.2c-0.1-0.1-0.1-0.1-0.1-0.6v-0.1l-0.1,0.1l0,0l-0.1,0.1l-0.1,0.1
			l-0.1,0.1v0.1l0.1,0.4l-0.1,0.1L64,57.2l0,0l0,0c-0.1,0-0.2,0-0.3,0h-0.1l-0.1,0.1l0,0l0,0l0,0v-0.1h-0.1l0,0l0,0l0,0v-0.1V57
			v-0.1l0,0v-0.1v-0.1l0,0l-0.1-0.1c0,0-0.1-0.1-0.2-0.1c0,0,0,0.1-0.1,0.1v0.1v0.2l0,0l0,0l0,0v-0.1l-0.1-0.1l-0.1-0.1l0,0v-0.1
			v-0.1l0,0l0,0c0,0,0,0,0-0.1l-0.1-0.1l-0.1-0.1l0,0l0,0L62.3,56l0,0v-0.1l-0.1-0.1h-0.1l0,0L62,55.5l0,0v-0.1l0,0l0,0l0.1-0.1
			v-0.1l0,0l0,0h0.1h0.1l0.1-0.1l0,0l0,0l0.1,0.1v0.1v0.1l0.1,0.1l0,0v0.1l0.1,0.1l0.1,0.1l0.1,0.1V56l0.1,0.1h0.1l0,0h0.1
			c0.1,0,0.1,0,0.2,0.1l0.1,0.1l0,0h0.1h0.1l0,0l0.1,0.1l0,0l0,0l0,0h0.1H64l0,0l0,0l0.1-0.1l0.1-0.1v-0.1l0,0l0,0v0.1v0.1l0,0l0,0
			l0.1-0.1v-0.1l0,0l0,0l0,0l0,0l0,0h0.1h0.1v0.1l0.1,0.2v0.1l0.1,0.1h0.1h0.1H65h0.1l0,0h0.1h0.1c0.2,0,0.2,0,0.3,0h0.1h0.1H66
			l0.1-0.1l0.1-0.1c0,0,0.1-0.1,0.2-0.1s0.1,0,0.1,0h0.1l0,0v-0.1l0,0l0,0h0.1h0.1c0.1-0.1,0.2-0.1,0.3-0.2h0.1l0,0v0.1v0.1h0.1h0.1
			v0.1v0.2l0,0l0.1,0.1l0,0h0.1l0,0l0,0v0.1l0.2,0.2l0,0h0.1l0.1-0.1l0.1-0.1v0.1L68,56.9l0.2,0.1l0,0l0,0h-0.1v0.1h0.1h0.1l0.1,0.1
			l0.1,0.1l0.1,0.1l0.1,0.1v0.1l0.1,0.1l0,0l0,0l0.1-0.1l0.1-0.1l0.1-0.1l0,0l0.1-0.3V57l0,0l0,0v-0.1v-0.1l0,0l0,0v0.1V57l0,0v0.2
			l0,0v0.1l0,0l0.1,0.2v0.1v0.2v0.1V58l0,0v0.3l0,0c0,0.2,0.1,0.4,0.1,0.6V59v0.1l0.1,0.2l0,0l0,0c0.1,0.2,0.1,0.5,0.2,0.7v0.1
			c0,0.1,0,0.2,0,0.3c0,0.3,0.2,0.5,0.2,0.8c0,0.1,0,0.2,0,0.4v0.1v0.1v0.1c0,0.1,0,0.1,0.1,0.2l0.1,0.1l0,0l0.1-0.2v-0.2l0,0l0,0
			v-0.1l0,0l0.1-0.1l0,0l0,0l0,0l0,0v-0.1l0,0l0,0l0,0l0,0v-0.1v-0.1v-0.1l0,0l0,0l0,0l0,0v-0.1V61l0,0v-0.1v-0.1l0,0
			c0-0.1,0-0.2,0.1-0.3l0.1-0.2c0-0.2,0-0.2,0-0.4l0,0c0-0.1,0-0.3,0-0.4v-0.1v-0.1v-0.2V59v-0.1l0,0l0,0l0,0l0.1-0.1l0,0v-0.1l0,0
			l0,0l0,0l0,0l0.1-0.2l0,0v-0.1l0,0l0,0l0,0l0,0l0.1-0.2l0,0v-0.1V58v-0.1l0,0c0.1-0.1,0.1-0.1,0.1-0.3v-0.1v-0.1l0.1-0.1v-0.1
			v-0.1l0.1-0.1l0,0l0.1-0.2l0,0v-0.2v-0.1v-0.1v-0.2l0,0v-0.1l0,0V56v-0.1l0,0v0.2l0,0l0,0V56v-0.1l0,0l0,0l0.1,0.1l0,0l0,0v-0.1
			v-0.1l0,0l0,0l0,0v-0.1v-0.1v-0.1v0.1l0,0l0,0l0,0l0,0l0,0v-0.1l0,0v-0.1l0,0v0.1l0,0v-0.2l0,0l0,0l0,0l0,0v0.2v0.1v0.1v0.1
			c0,0.1,0,0.1,0.1,0.2v0.1l0,0v0.1v0.1l0,0l0,0v-0.1l0,0l0,0l0,0l0,0l0,0l0,0v0.1v0.1v0.1v0.1v0.1l0,0l0,0v-0.1l0,0l0,0v0.1v0.1
			v0.1V57v0.1v0.1c0,0,0,0,0,0.1v0.1v0.2v0.1v0.1v0.1V58l0,0h0.1l0,0l0,0l0,0l0,0l0,0l0,0v-0.1v-0.2l0,0l0,0v-0.1v-0.1v-0.1v-0.2
			v-0.1v0.2v0.1v0.1l0,0l0,0c0,0,0,0,0,0.1v0.1v0.1v0.1l0,0v0.2v0.1v0.1l0,0v0.1l0,0v0.1v0.2l0,0l0,0v0.1l0,0v0.1v0.2l0,0v0.1v0.1
			v0.1v0.1v0.2v0.1v0.1V60v0.1v0.1v0.2c0,0.1,0,0.2-0.1,0.4v0.1l0,0v-0.1v-0.1v-0.1l0,0l0,0v0.1l0,0v0.1c0,0.1,0,0.1,0,0.2l0,0l0,0
			v-0.1l0,0l0,0l0,0l0,0c0-0.2,0.1-0.3,0.1-0.5l0,0l0,0l0,0l0,0v-0.1v-0.1l0,0l0,0l0,0l0,0l0,0l0,0v-0.1l0,0c0-0.1,0-0.1,0-0.2v-0.1
			v-0.2v-0.1v-0.1l0,0v-0.2c0-0.1,0-0.2,0-0.3v-0.1v-0.1v-0.1v-0.1v-0.1l0,0v-0.1v-0.1l0,0l0,0v0.1l0,0v0.1l0,0l0,0l0,0l0,0l0,0l0,0
			l0,0C73.9,57.3,74.1,56.2,74.1,55.2L74.1,55.2z"/>
		<path class="st3" d="M36.5,75.1L36.5,75.1l-0.2-0.2l0,0l0,0l0,0l0,0v-0.1l0,0v-0.1l0,0l0,0l0,0l0,0l0,0l0.1,0.1l0,0l0,0l0,0
			l0.1,0.1l0,0l0,0l0,0l0,0v-0.1l0,0l0,0l-0.1-0.1l0,0c0,0,0,0-0.1-0.1l0,0l-0.1-0.1v-0.1l0,0c0,0,0,0-0.1-0.2L35.9,74l-0.2-0.2
			c0,0,0-0.1-0.1-0.1c0,0,0-0.1-0.1-0.1l0,0l-0.1-0.1l0,0l0,0l0,0v-0.1l0,0v-0.1v-0.1l0,0l0,0l0,0h0.1h0.1l0,0l-0.1-0.1l0,0l0,0l0,0
			l0,0l0,0l0,0l0,0l0,0l0,0l0,0h0.1h0.1h0.1h0.1V73l0,0l0,0l0.1-0.1l0.2,0.1l-0.1-0.1l0,0l0,0v-0.1l0,0v-0.1l0,0v-0.1L36,72.4
			l-0.1-0.2V72l-0.1-0.1v-0.1c0-0.1-0.1-0.3-0.1-0.3l0,0l-0.1-0.1l-0.1-0.2c0-0.1-0.1-0.2-0.1-0.3l0,0v-0.1l-0.1-0.1l0,0l0,0l0,0
			l0.1-0.1l0,0c0-0.4,0.3-0.9,0.2-1.3c0,0-0.2-0.8-0.6-1h-0.1h-0.1l-0.1-0.1l0,0l0,0l0,0l0,0v-0.1V68l0,0l-0.1-0.1
			c0,0-0.6-0.6-0.8-0.7h-0.1h-0.1c-0.1-0.1-0.2-0.1-0.2-0.1L33,67c-0.1-0.1-0.2-0.2-0.3-0.1l0,0l0,0h-0.1l0,0l0,0v-0.1v-0.1
			l-0.1-0.1l0,0l0,0v-0.1l0,0l0,0l-0.1-0.1l0,0l0,0l0,0l0,0v-0.1L31.7,66l0,0h-0.1l-0.1,0.1v0.1l-0.1,0.1l0,0v0.1c0-0.1,0-0.1,0-0.2
			l0,0l0,0v-0.1V66v-0.1v-0.1v-0.1l-0.2-0.1l0,0l0,0l-0.1-0.1l0,0c0,0,0,0-0.1,0l0,0l0,0v-0.1v-0.2L30.9,65
			c-0.1-0.1-0.1-0.1-0.2-0.4v-0.1v-0.1l-0.1-0.2l0,0c0,0,0-0.1-0.1-0.1l0,0l0,0l0,0V64l-0.3-0.4l0,0l0,0l0,0l-0.1-0.1L30,63.4l0,0
			c-0.1-0.1-0.1-0.1-0.2-0.1l0,0h-0.1l0,0h-0.1l0,0l-0.1-0.1h-0.1h-0.1v-0.1l0,0l0,0l0,0L29.2,63l0,0l0,0l0,0l0,0v0.1v-0.2
			c0-0.1,0-0.1-0.1-0.3L29,62.5l0,0l0,0v-0.1l-0.1-0.1l0,0l0,0l0,0h-0.1l0,0c0,0,0,0,0-0.1l0,0l0,0v-0.1l0,0V62l0,0l0,0l0,0l0,0l0,0
			l0,0v-0.1l0,0l0,0l0,0v-0.1l0,0l0,0l0,0l0,0v-0.1l0,0l0,0l0,0l0,0l0,0l0,0l0,0l0,0l0,0l0,0l0,0l0,0l0,0l0,0l0,0v-0.1l0,0h-0.1
			h-0.1l0,0h-0.1l0,0l0,0l0,0l0,0l0,0l0,0l0,0l0,0l0,0l0,0v0.1l0,0l0,0l0,0l0,0l0,0l0,0l0,0l0,0l0,0l0,0v-0.1l0,0L27,60.2l0,0l0,0
			l0,0l0,0c0,0-0.1,0-0.1-0.1l0,0l0,0l0,0l0,0l0,0l0,0l0,0l0,0V60l0,0l0,0v-0.1l0,0l0,0l0,0l0,0l0,0l0,0l0,0l0,0l0,0l0,0l0,0l0,0
			v-0.1l0,0l0,0v-0.1l0,0l0,0l0,0v0.1l0,0v0.1l0,0l0,0l0,0l0,0l0,0l0,0l0,0l0,0l0,0l0,0l0,0l0,0l0,0l0,0v-0.1l0,0v0.1l0,0l0,0l0,0
			v-0.1l0,0l0,0l0,0l0,0l0,0l0,0l0,0l0,0l0,0l0,0v-0.1l0,0l0,0v-0.1l-0.1-0.1l0,0l0,0v0.1v0.1l0,0l0,0l0,0l0,0l0,0l0,0l0,0l0,0l0,0
			l0,0l0,0l0,0l0,0l0,0v0.1v0.1l0,0l0,0l0,0l0,0l0,0l0,0l0,0l0,0l0,0l0,0l0,0l0,0V60v0.2v0.1v0.1l0,0l0,0l0,0l0,0l0,0l0,0v0.1l0,0
			l0,0v0.1l0,0v0.1l0,0l0,0v-0.1v-0.1v-0.1v-0.1v-0.1v-0.1V60v-0.1l0,0v-0.1l0,0l0,0l0,0l0,0l0,0l0,0l0,0l0,0l0,0v0.1l0,0l0,0l0,0
			l0,0l0,0v-0.1v-0.1v-0.1l0,0c0.1,0.2,0.1,0.5,0.2,0.7l0,0l0,0l0,0v0.1h0.1l0,0l0,0l0,0l0,0v-0.1l0,0v-0.1v-0.1l0,0l0,0l0,0l0,0
			l0,0V60v-0.1l0,0l0,0l0,0V60v0.1v0.1l0,0v0.1v0.1v0.1v0.1v0.1v0.1v0.1v0.2v0.1l0,0l0,0v0.1v0.1v0.1l0,0v0.1l0,0l0,0v0.1l0.1,0.3
			v0.1l0,0l0,0l0,0l0,0l0,0l0,0l0,0v0.1l0,0v0.1l0,0l0,0l0,0l0,0l0,0V62v0.1v0.1l0,0l0,0l0,0l0,0v0.1c2,5.4,5.8,10,10.7,12.9
			C36.6,75.2,36.6,75.2,36.5,75.1L36.5,75.1z M26.2,60.4L26.2,60.4L26.2,60.4L26.2,60.4l-0.1-0.1l0,0v-0.1v-0.1V60l0,0v-0.1l0,0l0,0
			l0,0l0,0V60l0,0v0.1v0.1l0,0v0.1l0,0C26.3,60.2,26.3,60.3,26.2,60.4L26.2,60.4z"/>
		<path class="st3" d="M70.4,40.6L70.4,40.6L70.4,40.6L70.4,40.6C70.5,40.6,70.4,40.6,70.4,40.6L70.4,40.6
			C70.3,40.5,70.3,40.5,70.4,40.6L70.4,40.6z"/>
		<path class="st3" d="M24.6,50.2L24.6,50.2L24.6,50.2L24.6,50.2L24.6,50.2L24.6,50.2L24.6,50.2v0.2l0,0l0,0l0,0l0,0l0,0l0,0l0,0
			l0,0v0.1v0.1l0,0v0.1l0,0l0,0l0,0l0,0l0,0l0,0l0,0l0,0l0,0l0,0l0,0v0.1l0,0l0,0l0,0l0,0l0,0l0,0l0,0l0,0v-0.1v0.1l0,0v0.1l0,0l0,0
			l0,0l0,0l0,0l0,0v-0.1l0,0v-0.1l0,0l0,0l0,0l0,0l0,0l0,0l0,0l0,0l0,0l0,0l0,0l0,0l0,0l0,0l0,0l0,0l0,0l0,0l0,0l0,0l0,0l0,0l0,0
			l0,0v-0.1l0,0v0.1c0,0,0,0,0,0.1l0,0l0,0l0,0h0.1l0,0l0,0l0,0l0,0l0,0l0,0l0,0v0.1l0,0c0,0,0,0,0,0.1l0,0v0.2h0.1l0,0l0,0l0,0v0.1
			l0,0v0.1v0.1l0,0l0,0v0.1l0,0l0,0v0.1v0.1V52v0.1l0,0l0,0l0,0l0,0v0.1v0.1v0.3l0,0l0,0l0,0l0,0l0,0v0.1l0,0l0,0l0,0v0.1V53v0.1
			l0,0v0.1v0.1v0.1l0,0l0,0l0,0l0,0v-0.1v-0.1c0-0.1,0.1-0.2,0.1-0.3c0.1-0.3,0.1-0.5,0.1-0.8l0,0l0,0l0,0V52c0-0.1,0-0.1,0-0.2
			c0.1-0.7,0.1-0.7,0.7-1.4l0.1-0.1h0.1l0,0v-0.1l0.1-0.1h0.1h0.1V50l0,0l0,0l0,0l0,0l0,0c0,0,0,0,0.1,0c0.1-0.1,0.1-0.1,0.1-0.2
			l0,0l0,0l0,0l0,0l0,0l0,0l0,0v-0.1c0,0,0,0,0-0.1v-0.1l0,0l0,0l0,0l0,0l0,0l0,0l0,0l0,0l0,0l0,0l0,0l0,0l0,0l0,0l0,0l0,0l0,0l0,0
			l0,0v-0.1v-0.1l0,0l0,0l0,0l0,0l0,0v-0.1v-0.1l0,0l0.1-0.1l0,0l0,0l-0.1,0.1l-0.1,0.1l-0.1,0.2c0,0,0,0,0,0.1v0.1v0.1v0.1l0,0l0,0
			l0,0l0,0l1-0.8l0,0c0,0,0,0,0,0.1l0,0l0.1-0.1l0,0l0,0l0,0l0,0h0.1l0.1-0.1l0,0v-0.1v-0.1v-0.1l0,0v-0.1v0.1v0.1l0,0l0,0
			c0,0,0,0,0,0.1l0,0l0,0l0,0l0,0l0.1-0.1l0.1-0.1l0,0l0,0v-0.1l0.1-0.1l0,0v-0.1v-0.1l0,0l0,0l0,0l0,0v0.1l0,0h0.1l0,0l0,0l0,0l0,0
			H28l0,0l0,0l0,0l0,0l0,0l0,0l0,0l0,0l0,0c0,0,0,0-0.1,0l0,0l0,0H28l0,0c0.1,0,0.1,0,0.1,0s0.1,0,0.1-0.1l0,0l0,0l0,0l0,0l0,0l0,0
			l0,0l0,0h0.1l0,0l0,0l0,0h-0.1l0,0l0,0l0.1-0.1l0,0l0,0l0,0l0,0l0,0l0,0l0,0c0,0,0,0,0-0.1v-0.1l0,0V48l0,0l0,0l0,0l0,0l0,0v-0.1
			l0,0l0,0l0,0l0,0v-0.1l0,0l0,0l0,0l0,0l0,0v-0.1l0,0l0,0l0.1-0.1l0,0l0.1-0.1l0,0l0,0l0,0l0,0l0,0l0,0l0,0h0.1l0.1-0.1l0,0l0,0
			l0,0v0.1l0,0v0.1v0.1h0.1l0,0l0,0h0.1l0,0l0,0H29h0.1h0.1l0,0v-0.1l0,0l0,0h0.1h0.1l0,0l0,0l0,0l0,0l0,0l0,0h0.1l0,0h0.1h0.1h0.1
			l0,0l0,0l0,0h-0.1l0,0l0,0l0,0h0.1h0.1l0,0c0,0,0,0,0,0.1l0,0l0,0l0,0l0,0l0,0h-0.1l0,0c-0.1,0-0.1,0-0.2,0.1l0,0l0,0l0,0l0,0l0,0
			l0,0l0,0l0,0l-0.1,0.1l0,0V48v0.1v0.1l0,0h0.1l0,0h0.1l0.1-0.1l0,0h0.1V48l0,0l0,0l0,0l0,0l0,0l0,0l0,0l0,0l0,0l0,0l0,0l0,0l0,0
			l0,0l0,0l0,0l0,0H30l0,0h0.1l0,0h0.1h0.1l0,0l0.1-0.1l0,0l0,0l0,0l0,0l0,0l0,0h0.1l0.1-0.1l0,0l0,0l0,0l0,0l0,0l0,0l0,0l0,0l0,0
			l0,0l0,0v-0.1v-0.1l0,0l0,0l0,0h-0.1v0.1l1-0.7l0,0h-0.1l0,0v0.1v0.1l0,0l0,0l0,0v-0.1l0,0l0,0l0,0h-0.1l0,0l0,0l0,0l0,0l0,0l0,0
			l0,0l0,0l0,0h-0.1l0,0V47l0,0v-0.1l0,0l0,0l0,0l0,0v-0.1v-0.1l0,0v-0.1l0,0l0,0l0,0l0,0l0,0l0,0l0.1-0.1l0,0l0,0l0,0l0,0l0,0l0,0
			l0,0l0,0l0,0l0,0l0,0l0,0l0,0l0,0l0,0l0,0l0,0l0,0l0,0l0,0l0,0l0,0h0.1l0,0l0,0v0.1v0.1l0,0h0.1l0,0l0,0h0.1l0,0l0,0l0,0l0.1-0.1
			l0,0v-0.1l0,0c0-0.1,0-0.1-0.1-0.1l0,0l0,0c-0.6,0-0.6,0-1.3,0.4l0,0l0,0h0.1l0.1-0.1l0.2-0.1l0,0l0.1-0.1l0.2-0.1l0,0l0.1-0.1
			h0.1h0.1l0,0h0.1l0,0h0.1l0,0l0,0l0,0l0,0l0,0h0.1l0.1-0.1v-0.1l0,0l0,0l0,0c0.1,0,0.2-0.1,0.6,0.1c0.2,0.1,0.2,0.1,0.2,0.1
			s0,0,0,0.1l0,0l0,0l0,0l0,0h0.1l0,0l0,0l0,0l0,0l0,0h0.1l0,0l0,0l0,0l0,0l0,0h0.1h0.1l0,0l0,0l0,0l0,0l0,0l0,0l0,0l0,0l0,0l0,0
			l0,0l0,0l0,0l0,0l0,0l0,0l0,0H33l0,0l0,0l0,0l0,0h0.1l0,0h0.1l0,0h0.1l0,0l0,0h0.1h0.1l0.1-0.1l0,0c0,0,0,0,0-0.1v-0.1l0,0l0,0
			h0.1l0,0l0,0V46l0,0v-0.1v-0.1v-0.1l0,0l0,0l0,0l0,0v-0.1l0,0l0,0l0,0l0,0h-0.1h-0.1h-0.1h-0.1h-0.1l0,0h0.1l0,0l0,0l0.1-0.1l0,0
			l0,0h0.1l0,0l0,0l0,0v-0.1l0,0l0,0l0,0l0,0v-0.1v0.1l0,0l0,0l0,0l0,0l0,0l0,0v-0.1l0,0l0,0l0,0l0,0l0,0l0,0l0,0v-0.1l0,0
			c0,0,0,0,0,0.1v-0.1l0,0l0,0l0,0l0,0l0,0l0,0l0,0v-0.1V45l0,0l0,0l0,0l0.1-0.1l0.1-0.1l0,0l0,0l0,0l0,0l0,0l0,0v-0.1l0,0l0,0l0,0
			l0,0v-0.1l0,0l0,0l0,0l0,0l0,0l0.1-0.1l0,0l0,0l0,0l0,0v-0.1v-0.1l0,0l0,0v-0.1v-0.1l0,0l0,0l0,0l0,0l0.1-0.1l0,0v-0.1l0,0l0,0
			L33.8,44h-0.1l-0.1,0.1l-0.1,0.1l0.5-1.6l-0.1,0.1h-0.1l0,0l0,0l0,0h-0.1h-0.1h-0.1h-0.1l0,0l0,0l0,0v-0.1l0,0l0,0l0,0l0,0v-0.1
			l0,0l0,0l0,0l0,0l0,0l0,0v-0.1l0,0l0,0l0.1-0.1v-0.1l0,0l0,0l0,0v-0.1l0,0l0,0l0,0l0,0h0.1l0,0V42l0,0l0,0l0,0l0,0l0,0l0,0l0,0
			h-0.1l0,0l0,0l0,0l0,0l0,0l0,0h-0.1l0,0l0,0l0,0h0.1l0,0l0,0l0,0l0,0l0,0l0,0l0,0v-0.1l0,0l0,0l0,0l0,0l0,0l0,0l0,0l0,0h-0.1l0,0
			l0,0l0,0h-0.1l0,0l0,0l0,0l0,0l0,0l-0.1-0.1l0,0l0,0l0,0h-0.1l0,0l0,0H33l-0.1,0.1l0,0V42l0,0l0,0h-0.1l-0.1,0.1v0.1l0,0l0,0
			l-0.1,0.1v0.1l0,0l0,0c-0.1,0-0.2,0.1-0.3,0.1l0,0h-0.1C32,42,32,42,32,42.4l-0.1,0.2c-0.3,0.3-0.3,0.3-0.8,0.5H31h-0.1h-0.1l0,0
			h-0.1l0,0l-0.1,0.1l0,0v0.1l0,0l0,0v0.1l-0.1,0.1l0,0l-0.1,0.1v0.1l-0.1,0.1l0,0h-0.1L30.1,44l0,0L30,44.1v0.1l0,0l0,0v-0.1l0,0
			l0,0l0,0l-0.1,0.1l0,0l0,0v-0.1l0,0l0,0l0,0l0,0V44v-0.1v-0.1l0,0l0,0l0,0l0,0v-0.1v-0.1v-0.1l0,0l0,0l0,0l0,0l0,0l0,0l0,0l0,0
			l0.1-0.1c0,0,0,0,0-0.1v-0.1l0,0h0.1h0.1l0.1-0.1V43v-0.1c0,0-0.1-0.1-0.2-0.1l0,0l0,0H30l0.1-0.1l0,0l0,0l0,0l0,0v-0.1l0,0l0,0
			l0,0l0,0l0,0l0,0v-0.1v-0.1l0,0v-0.1v-0.1l0,0l0,0l0,0l0,0v-0.1V42l0,0H30l0,0l0,0l0,0h-0.1l0,0l0,0l0,0l0,0l0.1-0.1
			c0,0,0,0,0-0.1v-0.1l0,0l0.1-0.1l0,0l0,0l0,0l0,0v-0.1L30,41.4l0,0l0,0l0,0l0,0l0,0l0,0l0,0l0,0l0,0l0,0l0,0h0.1h0.1l0.1-0.1l0,0
			l0,0h0.1l0,0h0.1l0,0h0.1l0,0l0,0l0,0l0,0l0,0l0,0l0,0l0,0l0,0l0,0l0,0l0,0l0,0l0,0l0,0l0,0l0,0l0,0l0,0h0.1v-0.1l0,0l0,0l0,0l0,0
			l0,0l0,0l0,0l0,0h0.1l0,0l0.1-0.1V41l0,0l0,0l0,0v-0.1l0,0l0,0l0,0l0,0l0,0l0,0l0,0l0,0l0,0l0,0l0,0l0,0l0,0l0,0l0,0l0,0H31l0,0
			l0,0l0,0l0,0l0,0h0.1l0,0h0.1l0,0l0,0l0,0l0,0l0,0l0,0h0.1l0,0l0,0l0.1-0.1l0,0l0,0h0.1h0.1h0.1l0,0l0,0l0,0l0,0l0,0h0.1l0,0l0,0
			l0,0h0.1l0,0l0,0l0,0l0,0l0,0h-0.1h-0.1l0,0l1.5-0.8l0,0h-0.1H33h-0.1h-0.1l0,0l0,0l0,0l0,0l0,0l0,0h-0.1l0,0h-0.1l0,0l0,0
			l-0.1,0.1l0,0l0,0c0.1,0,0.1,0,0.2,0l0,0l-0.1,0.1l-0.1,0.1l0,0h0.1h0.1h0.1h0.1l0,0l0.1-0.1l0,0l0,0l0,0l0,0v0.1l0,0l0,0l0,0l0,0
			l0,0l0,0l0,0l0,0l0,0l0,0l0,0v0.1l0,0h0.1l0,0h0.1l0,0l0,0l0,0l0,0l0,0l0,0l0,0l0,0l0,0l0,0l0,0l0,0l0,0l0,0h0.1l0,0l0,0l0,0l0,0
			l0,0l0,0l0,0l0,0l0,0l0,0l0,0l0,0l0,0l0,0l0,0l0,0l0,0l0,0l0,0l0.1-0.1c0,0,0,0,0-0.1l0,0l0,0l0,0l0,0V40l0,0l0,0l0,0l0,0l0,0l0,0
			l0,0l0,0l0,0l0.1-0.1l0,0l0,0l0,0l0,0l0,0l0,0l0,0l0,0l0,0l0,0l0,0l0,0l0,0l0,0l0,0l0,0l0,0V40l0,0l0,0l0,0l0,0l0,0v-0.1l0,0l0,0
			v-0.1l0,0l0,0l0,0l0,0l0,0l0,0l0,0h0.1l0,0l0,0l0,0l0,0l0,0l0,0l0,0l0,0l0,0l0,0l0,0l0,0l0,0l0,0h0.1l0,0l0,0c0,0,0,0,0.1,0l0,0
			l0,0l0.1-0.1v-0.1l0,0l0,0l0,0l0,0l0,0l0,0H34l0,0l0,0h0.1l0.1-0.1h0.1v-0.1l0,0l0,0l0,0l0,0l0,0l0,0l0,0l0,0l0,0l0,0l0,0l0,0l0,0
			v0.1l0,0v0.1l0,0l0,0l0,0l0,0l0,0l0,0l0,0l0,0l0,0l0,0l0,0l0,0l0,0h0.1l0,0l0.1-0.1l0,0l0,0v0.1l0,0l0,0l0,0l0,0h-0.1h-0.1l0,0
			h0.1l0,0l0,0l0,0l0,0l0,0l0,0l0,0l0,0l0,0l0,0l0,0l0,0l0,0l0,0l0,0l0,0l0,0l-0.1,0.1v0.1l0,0l0,0h0.1l0,0l0,0l0,0l0,0l0,0l0,0l0,0
			l0,0h0.1l0,0l0,0l0,0l0,0v0.1l0,0l0,0l0,0l0,0l0,0l0,0L34.4,40v0.1l0,0l0,0l0,0l0,0l0,0l0,0l0,0l0,0l0,0l0,0l0,0l0,0l0,0l0,0l0,0
			l0,0l0,0l0,0l0,0l0,0v0.1v0.1l0,0l0,0l0,0h-0.1l-0.1,0.1l0,0l0,0l0,0l0,0l0,0l-0.3,0.1l0,0v0.1v0.1l0,0l0,0l0,0l0,0l0,0l0,0l0,0
			l0,0h-0.1l0,0l0,0l0,0l0,0l0,0l0,0l0,0l0,0l0,0h-0.1l0,0l0,0l0,0l0,0h-0.1l0,0l-0.2,0.1l0,0l0,0c0,0,0,0,0,0.1c0,0,0,0,0.1,0.1
			l0,0h0.1l0,0l0,0l0,0l0,0l0,0l0,0l0,0l0,0l0,0l0,0l0,0l0,0l0,0l0,0l0,0l0.1-0.1l0,0l0,0l0,0l0,0l0,0l0,0l0,0l0,0l0,0l0,0l0,0l0,0
			V41l0,0l0,0l0,0l0,0l-0.1,0.1l0,0l0,0l0,0l0,0l0,0v0.1l0,0v0.1l0,0l0,0v0.1c0,0.1,0.1,0.1,0.1,0l0,0l0,0l0,0l0,0v0.1l0,0v0.1l0,0
			l0,0l0,0l0,0l0,0l0,0l0,0l0,0l0,0v0.1l0,0l0,0l0,0l0,0l0,0l0,0l0,0v-0.1l0,0v-0.1c0-0.1,0-0.2,0-0.2l0,0v-0.1l0,0l0,0l0,0l0,0v0.1
			l0,0l0,0l0,0l0,0c0,0,0,0,0,0.1c0,0,0,0,0,0.1l0,0v0.1l0,0l0,0l0,0l0.1-0.1l0,0l0,0l0,0v-0.1l0,0l0,0l0.1-0.1l0,0l0,0l0,0l0,0l0,0
			l0,0l0,0l0,0l0,0H34l0,0l0.1-0.1v-0.1l0,0l0,0l0,0l0,0l0,0l0,0l0,0l0,0l0,0V41l0,0v-0.1l0,0l0,0l0,0l0,0v-0.1l0,0c0,0,0,0,0-0.1
			v-0.1l0,0l0,0h0.1l0,0l0,0l0,0l0,0l0.1-0.1l0,0l0,0l0,0l0,0l0,0l0,0l0,0l0,0l0,0v0.1v0.1l0,0l0,0l0,0l0,0l0,0l0,0l0,0l0,0l0,0h0.1
			l0,0h0.1l0,0l0,0v-0.1l0,0l0,0l0,0l0,0l0,0l0,0l0,0l0,0l0,0l0,0l0.1-0.1l0,0l0,0l0,0l0,0l0,0l0,0l0,0l0,0l0,0l0,0l0,0h0.1l0,0l0,0
			l0,0l0,0l0,0l0,0l0,0l0,0v-0.1c0,0,0,0-0.1,0l0,0v-0.1l0,0v-0.1v-0.1l0,0l0,0V40l0,0l0,0l0,0l0,0l0,0l0,0c0,0,0,0-0.1,0h0.1l0,0
			l0,0l0,0h0.1l0,0l0,0l0,0h0.1l0,0l0,0l0,0h-0.1l0,0l0,0l0,0l0,0l0,0l0,0l0,0l0,0l0,0l0,0l0,0l0,0l0,0v-0.1l0,0l0,0l0,0l0,0l0,0
			l0,0h0.1l0,0l0,0l0,0l0,0l0,0c0,0,0,0-0.1,0l0,0l0,0v-0.1l0,0l0,0v-0.1l0,0l0,0l0,0l0,0l0,0l0,0l0,0l0,0l0,0l0,0l0,0l0,0v-0.1
			v-0.1v-0.1l0,0l0,0l0,0h-0.1l0,0l0,0l0,0l0,0l0,0l0.1-0.1l0,0v-0.1l0,0h-0.1c0,0,0,0-0.1,0l0,0l0,0l0,0l0,0l0,0l0,0h-0.1l0,0l0,0
			v0.1l0,0l-0.1,0.1l0,0v0.1l0,0h0.1l0,0l0,0l0,0l0,0h-0.1l0,0h-0.1h-0.1l0,0l0,0l0,0l0,0l0,0l0,0l0,0H34l0,0l0,0l0,0l0,0l0,0h0.1
			l0,0l0.1-0.1l0,0v-0.1l0,0l0,0l0.1-0.1l0,0l0,0l0,0l0,0l0,0c-0.1,0-0.3,0-0.3,0l0,0l0,0h-0.1h-0.1l0,0l0,0h-0.1h-0.1l0,0l0,0l0,0
			l0,0l0,0l0,0l0,0l0,0h-0.1l0,0l0,0v0.1l0,0l0,0l0,0l0,0l0,0l0,0l0,0l0,0l0,0l0,0v-0.1l0,0l0,0h0.1h0.1l0,0l0,0l0,0l0,0l0,0l0,0
			h0.1h0.1l0,0H34l0,0l0,0l0,0l0,0h0.1l0,0l0,0l0,0H34c-0.3-0.1-0.6,0-0.6,0.1l0,0h-0.1l-0.1,0.1l1.8-1.1l0,0h-0.1l0,0l0,0l0,0l0,0
			l0,0l0,0l0,0l0,0H35l0,0l0,0l0,0l0,0l0,0l0,0l0,0h-0.1l0,0l0,0l0,0l0,0h-0.1l0,0v0.1c0,0.1,0,0.1,0,0.1l0,0l0,0h0.1l0,0l0,0l0,0
			l0,0l0,0l0,0l0,0l0,0l0,0l0,0l0,0l0,0l0,0l0,0l0,0l0,0l0,0l0,0l0,0l0,0l0,0l0,0l0,0l0,0l0,0l0,0l0,0l0,0l0,0l0,0l0,0l0,0l0,0l0,0
			l0,0l0,0l0,0l0,0l0,0l0,0l0,0l-0.1,0.1v0.1l0,0l0,0h-0.1l0,0l0,0c0,0,0,0-0.1,0l-0.1,0.1l-0.1,0.1h-0.1l0,0l0.1-0.1l0,0l0,0l0,0
			l0,0h-0.1l0,0l-0.1,0.1l0,0l0,0l0,0l0,0l0,0l0,0l0,0l0,0l0,0l0,0l0,0l0,0l0,0l0,0l0,0v-0.1l0,0l0,0l0,0l0,0l0,0l0.1-0.1l0,0l0,0
			l0,0l0,0l0,0l0,0l0,0l0,0l0,0l0,0l0,0l0,0l0,0l0.1-0.1l0,0l0,0l0,0l0,0l0,0l0,0L34,39l0,0h-0.1l0,0l0,0l0,0l0,0l0,0v-0.1l0,0
			l0.1-0.1l0.1-0.1l0,0l0,0l0,0l0,0l0,0l0,0l0,0v-0.1v-0.1l0,0l0,0l0,0l0,0l0,0H34l0,0l0,0l0,0l0,0l0,0l0,0l0,0h0.1l0,0l0,0l0,0l0,0
			l0,0l0,0l0,0l0,0l0,0l0,0l0,0l0,0l0,0l0,0l0,0l0,0l0.1-0.1v-0.1l0,0l0,0l0,0l0,0l0,0l0,0l0,0h0.1l0,0l0,0l0,0l0,0l0,0l0,0l0,0
			l0.1,0.1l0,0h0.1h0.1h0.1h0.1l0,0h0.1l0,0l0,0l0,0l0,0l0,0l0,0l0,0l0,0l0,0h-0.1l0,0l0,0l0,0l0,0l0,0h-0.1l0,0c0,0,0,0-0.1,0h-0.1
			l0,0h-0.1v0.1l0,0l0,0l0,0l0,0l0,0h-0.1l0,0l0,0l0,0l0,0l0,0l0.4-0.5l0,0l-0.1,0.1l-0.2,0.1l0,0h-0.1l0,0l0,0l0,0l0,0l0,0l0,0l0,0
			l0,0l0,0l0,0h-0.1l0,0l0,0h-0.1l0,0v0.1l0,0H34h-0.1l0,0l0,0l0,0v0.1l0,0l0,0l0,0l0,0l0,0l0,0l0,0l0,0l0,0l0,0h-0.1l0,0l0,0l0,0
			l0,0l0,0l0,0l0,0l0,0l0,0l0,0l0,0l0,0l0,0l0,0h-0.1l0,0h-0.1l0,0l0,0l0,0l0,0l0,0l0,0l0,0l0,0l0,0l0,0l0,0l0,0l0,0l0,0l0,0l0,0
			l0,0l0,0h0.1l0,0h0.1l0,0l0,0l0,0l0,0l0,0l0,0l0,0l0,0l0,0l0,0l0,0l0,0l0,0l0,0l0,0l0,0h0.1l0,0l0,0l0,0l0,0l0,0l0,0l0,0l0,0l0,0
			l0,0l0,0l0,0l0,0l0,0l0,0l0,0l0,0l0,0l0,0l0,0l0,0l0,0l0,0l0,0l0,0l0,0l0,0h-0.1l0,0l0,0l0,0l0,0l0,0l0,0h-0.1l0,0l0,0l0,0l0,0
			h-0.1l0,0l0,0l0,0l0,0l0,0l0,0l0,0l0,0l0,0l0,0l0,0l0,0l0,0l0,0l0,0l0,0l0,0l0,0l0,0l0,0l0,0l0,0l0,0l0,0l0,0l0,0l0,0l0,0l0,0l0,0
			l0,0l0,0l0,0l0,0l0,0h-0.1c0,0,0,0,0-0.1c0,0,0,0,0-0.1l0,0l0,0l0,0l0,0l0,0l0,0l0,0h0.1l0,0l0,0l0,0v-0.1l0,0l0,0V38l0,0l0,0l0,0
			l0,0l0,0h-0.1h-0.1l0,0l0,0l0,0l0,0h-0.1l0,0v0.1l0,0l0,0l0,0l0,0l0,0l0,0l0,0L32,38.5l0,0l0,0l0,0l0,0l0,0l0,0l0,0l0,0l0,0l0,0
			l0,0l0,0l0,0l0,0l0,0l0,0l0,0l0,0l0,0l0,0h0.1l0,0l0,0c-0.3-0.1-0.3-0.1-0.4-0.1l0,0v-0.1l0,0l0,0h0.1l0,0l0,0l0,0l0,0l0,0l0,0
			l0.1-0.1l0,0v-0.1V38l0,0l0,0l0,0c0,0,0-0.1,0-0.2l0,0l0,0l0,0l0,0l0,0v-0.1v-0.1l0,0l0,0l0,0h-0.1l0,0l0,0l0,0l0,0l0,0l0,0l0,0
			h0.1l0,0l0,0l0,0l0,0h-0.1c-0.1,0-0.1,0.1-0.2,0.1l0,0l0,0l0,0l0,0l0,0l0,0l0,0l0,0l0,0h0.1L32,37l0.1-0.1h0.1l0,0l0,0l0,0l0,0
			l0,0H32h-0.1h-0.1l0,0l0,0l0,0l0,0l0,0l0,0l0,0l0,0l0,0l0,0l0,0l0,0l0,0l0,0l0,0l0,0l0,0l0,0l0,0l0,0l0,0l0,0l0,0l0,0l0,0l0,0l0,0
			l0,0l0,0l0,0l0,0l0,0l0,0l0,0l0,0v-0.1l0,0l0,0l0,0l0,0l0,0l0,0l0,0l0,0l0,0l0,0l0,0l0,0l0,0l0,0l0,0l0,0l0,0l0,0l0.1-0.1l0,0l0,0
			l0,0H32l0,0l0,0c0-0.1,0.1-0.2,0.1-0.3l0,0l0,0l0,0l0,0l0,0l0,0l0,0l0,0l0,0l0,0l0,0l0,0l0,0l0,0l0,0l0,0
			C28.1,39.5,25.4,44.5,24.6,50.2L24.6,50.2z M33.4,44.6L33.4,44.6h0.2l0,0l0,0l0,0l0,0l0,0l0,0l0,0l0,0l0,0H33.4L33.4,44.6
			L33.4,44.6L33.4,44.6L33.4,44.6L33.4,44.6L33.4,44.6z M35.6,39.7L35.6,39.7L35.6,39.7L35.6,39.7C35.6,39.6,35.6,39.6,35.6,39.7
			C35.6,39.6,35.6,39.6,35.6,39.7C35.6,39.6,35.6,39.6,35.6,39.7L35.6,39.7z M34.4,41.1L34.4,41.1L34.4,41.1L34.4,41.1L34.4,41.1
			L34.4,41.1L34.4,41.1L34.4,41.1L34.4,41.1L34.4,41.1L34.4,41.1z M35.6,38.5L35.6,38.5L35.6,38.5L35.6,38.5L35.6,38.5z M33.6,38.8
			L33.6,38.8L33.6,38.8L33.6,38.8L33.6,38.8L33.6,38.8C33.5,38.9,33.5,38.9,33.6,38.8C33.5,38.9,33.5,38.9,33.6,38.8L33.6,38.8z
			 M32.9,39.6L32.9,39.6C32.9,39.6,33,39.6,32.9,39.6L32.9,39.6L32.9,39.6L32.9,39.6L32.9,39.6L32.9,39.6L32.9,39.6L32.9,39.6
			L32.9,39.6L32.9,39.6L32.9,39.6L32.9,39.6L32.9,39.6L32.9,39.6L32.9,39.6C33,39.7,33,39.7,32.9,39.6L32.9,39.6L32.9,39.6
			L32.9,39.6L32.9,39.6L32.9,39.6z M32.9,38.8L32.9,38.8L32.9,38.8L32.9,38.8L32.9,38.8L32.9,38.8L32.9,38.8L32.9,38.8
			C32.9,38.9,32.9,38.9,32.9,38.8L32.9,38.8C32.9,38.9,32.9,38.9,32.9,38.8C32.9,38.9,32.9,38.9,32.9,38.8
			C32.9,38.9,32.9,38.9,32.9,38.8C32.9,38.9,32.9,38.9,32.9,38.8L32.9,38.8z M32.5,38.3L32.5,38.3L32.5,38.3L32.5,38.3L32.5,38.3
			L32.5,38.3L32.5,38.3L32.5,38.3L32.5,38.3z M24.8,50.3L24.8,50.3L24.8,50.3L24.8,50.3L24.8,50.3L24.8,50.3L24.8,50.3L24.8,50.3
			L24.8,50.3L24.8,50.3L24.8,50.3L24.8,50.3L24.8,50.3z"/>
		<path class="st3" d="M24.5,54L24.5,54L24.5,54L24.5,54L24.5,54l-0.1-0.2l0,0l0,0l0,0c0,0.4,0,0.7,0,1.1v-0.1v-0.1l0,0v-0.1l0,0
			v-0.1v-0.1v-0.1l0,0v-0.1l0,0C24.5,54.1,24.5,54,24.5,54L24.5,54z"/>
		<path class="st3" d="M45.9,38.3L45.9,38.3L45.9,38.3C46,38.3,46,38.3,45.9,38.3C46,38.3,46,38.3,45.9,38.3L45.9,38.3L45.9,38.3
			L45.9,38.3L45.9,38.3L45.9,38.3L45.9,38.3h0.2l0,0l0,0l0,0l0,0c0,0,0,0,0.1,0l0,0h0.1l0,0l0,0l0,0h-0.1l0,0h-0.1
			C46.1,38.3,46.1,38.3,45.9,38.3C46,38.3,46,38.3,45.9,38.3c-0.2,0-0.2,0-0.3,0l0,0l0,0h-0.1l0,0l0,0l0,0v-0.1l0,0l0,0l0,0l0,0l0,0
			l0,0l0,0l0,0l0,0l0,0l0,0l0,0l0,0l0,0v-0.1l0,0l0,0V38l0,0l0,0l0,0l0,0l0,0h-0.1h-0.1l0,0l0,0l0,0l0,0l0,0v-0.1l0,0l0,0l0,0
			c0,0,0,0-0.1,0l0,0h-0.1l0,0L45,38l0,0l0,0l0,0l0,0l0,0h0.1l0,0l0,0l0,0l0,0l0,0l0,0l0,0h0.1l0,0l0,0l0,0l0,0h0.1l0,0l0,0l0,0
			h-0.1l0,0c0,0,0,0-0.1,0l0,0l0,0l0,0l0,0l0,0l0,0H45l0,0l0,0h-0.1h-0.1h-0.1c0,0,0,0-0.1,0l0,0l0,0c-0.1,0-0.1,0-0.2,0
			c0,0-0.1,0-0.1,0.1h-0.1l0,0h-0.1H44l0,0l0,0h0.1l0,0l0,0l0,0h0.1l0,0l0,0l0,0l0,0l0,0l0,0c-0.1,0-0.1,0-0.2,0h-0.1l0,0l0,0l0,0
			l0,0h-0.1l0,0h-0.1l0,0l0,0l0,0l0,0l0,0l0,0l0,0l0,0l0,0l0,0l0,0l0,0v0.1l0,0l0,0l0,0l0,0l0,0l0,0h-0.1l0,0l0,0l0,0H43l0,0l0,0
			l0,0h-0.1h-0.1l0,0h-0.1l0,0l0,0l0,0l0,0l0,0l0,0l0,0l0,0l0,0l0,0l0,0l0,0v0.1v0.1l0,0l0,0h0.1l0,0v0.1l0,0l0,0l0,0l0,0l0,0l0,0
			l0,0l0,0l0,0l0,0l0,0l0,0l0,0l0,0l0,0l0,0l0,0h-0.1l0,0l0,0l0,0l0,0c0,0,0,0,0,0.1c0,0,0.1,0,0.1,0.1h-0.1l0,0l0,0l0,0l0,0l0,0
			l0,0l0,0l0,0l0,0h-0.1l0,0l0,0l0,0l0,0l0,0l0,0h0.1v-0.1h-0.1h-0.1c-0.1,0-0.1,0-0.2,0l0,0c-0.1,0-0.1,0-0.3,0l0,0
			c-0.1,0-0.1,0-0.2,0l0,0l0,0h-0.1h-0.1l0,0l0,0l0,0l0,0v0.1l0,0l0,0l0,0l0,0l0,0l0,0c-0.3,0-0.6,0.1-0.6,0.1l0,0
			c0.1,0,0.1,0,0.2,0.1l0,0l0,0h-0.1H41h-0.1l0,0h-0.1c-0.2-0.1-0.3-0.1-0.5,0l0,0l0,0h-0.1h-0.1l0,0l0,0l0,0l0,0l0,0H40h-0.1l0,0
			h-0.1l0,0l0,0l0,0l0,0l0,0l0,0l0,0l0,0l0,0h-0.1l0,0l0,0l0,0l0,0l0,0l0,0l0,0l0,0l0,0l0,0l0,0l0,0l0,0l0,0h0.1l0,0h-0.1l0,0l0,0
			l0,0l0,0l0,0l0,0l0,0l0,0l0,0l0,0l0,0l0,0l0,0l0,0l0,0h0.1l0,0v-0.1l0,0l0,0h0.1H40l0,0l0,0l0,0l0,0h0.1l0,0h0.1l0,0l0,0l0,0l0,0
			l0,0h0.1h0.1l0,0l0,0l0,0l0,0h0.1l0,0l0,0l0,0l0,0l0,0l0,0h0.1l0,0l0,0l0,0h0.1l0,0l0,0l0,0l0,0l0,0l0,0l0,0l0,0l0,0l0,0h0.1l0,0
			l0,0h-0.1h-0.1l0,0l0,0l0,0L39.3,39v0.1l-0.1,0.1c0,0,0,0,0,0.1l0,0l0,0l0,0l0,0c0,0-0.1,0-0.1,0.1c0,0,0,0,0,0.1h0.1l0.1-0.1
			h-0.1l0,0h-0.1H39h-0.1l0.1,0.1l0,0h0.1l0,0H39h-0.1l0,0h-0.1l0,0l-0.1,0.1l0,0v0.1l0,0l0,0l0,0l0,0l0,0h0.1l0,0h0.1l0,0l0,0l0,0
			l0,0l-0.1,0.1l0,0l0,0l0,0l0,0l0,0l0,0l0,0v0.1l0,0l0,0l0,0l0,0l0,0l0,0l0,0l0,0l0,0l0,0l0,0l0.3,0.1l0,0H39h-0.1l0,0H39l0,0l0,0
			l0,0l0,0l0,0l0,0l0,0l0,0l0,0l0,0l0,0l0,0l-0.1,0.1l0,0l0,0l0,0l0,0l0,0v0.1l0,0l0,0l0,0l0,0l0,0h-0.1l0,0v0.1l0,0l0,0v0.1v0.1
			v0.1v0.1l0,0l0,0l0,0h0.1H39l0,0h0.1h0.1l0,0l0,0l0,0l0,0l0,0l0,0l0,0l0,0l0,0l0,0l0,0l0,0l0,0l0,0h0.1h0.1l0,0l0,0v0.1l0,0l0,0
			v0.1L39.3,41h-0.1l0,0c0,0,0,0,0,0.1l0,0l0,0l0,0l0,0l0,0l0,0l0,0l0,0l0,0l0,0l0,0l0,0l0,0l0,0l0,0l0,0l-0.1,0.1L39,41.3l0,0l0,0
			l0,0l0,0h-0.1l0,0l0,0l0,0h-0.1l-0.1,0.1l0,0l0,0l0,0l0,0l0,0h-0.1l0,0l0,0l0,0l0,0l0,0l0,0l-0.1,0.1l0,0l0,0l0,0l0,0l0,0
			l-0.1,0.1l0,0v0.1l0,0l0,0l0,0l0,0v0.1l0,0l0,0l0,0l0,0l0,0l0,0l-0.1,0.1L38.2,42l0,0v0.1l0,0l0,0l0,0l0,0c0,0,0,0,0,0.1l0,0l0,0
			l0,0v0.1l0,0l0,0l0,0v0.1l0,0l0,0l0,0l0,0l0,0l0,0l0,0l0,0v0.1l0,0l0,0l0,0l0,0l0,0l0,0l0,0l0,0l0,0v0.1l0,0v0.1l0,0l0,0l0,0l0,0
			v0.1l0,0l0,0v0.1h0.1l0,0l0,0l0,0l0,0l0,0l0,0l0,0l0,0l0,0l0,0l0,0l0,0l0,0l0,0l0,0V43v0.1l0,0l0,0l0,0l0,0l0,0l0,0l0,0l0,0l0,0
			v0.1l0,0l0,0l0,0l0,0l0,0h0.1l0.1-0.1l0,0l0.1-0.1l0.1-0.1h0.1l0.1-0.1l0.1-0.1h0.1l0.1-0.1l0,0l0.1-0.1v-0.1l0.1-0.1h0.1h0.1
			l0.2-0.1l0.1-0.1c0.1,0,0.1-0.1,0.2-0.2l0.1-0.1v-0.1l0,0l0,0l0,0l0,0h0.1l0.1-0.1l0.1-0.1l0,0l0,0l0,0l0,0h0.1l0,0l0,0l0,0h0.1
			l0,0l0,0v0.1l0,0l0,0h0.1l0,0h0.1H41l0,0h0.1h0.1l0,0l0,0l0,0l0,0l0,0l0.2-0.1l0,0l0.1-0.1l0,0h0.1l0,0l0,0l0,0l0.1-0.1
			c0.1-0.1,0.1-0.1,0.2-0.1l0,0H42v-0.1V41l0,0l0,0l0,0l0,0l0,0v0.1l0,0l0,0l0,0l0,0h0.1h0.1l0,0l0,0h0.1c0.1,0,0.3,0,0.4-0.1h0.1
			h0.1l0,0H43l0,0h0.1h0.1h0.1h0.1h0.1c0.1,0,0.2-0.1,0.3-0.1h0.1l0,0l0,0l0,0l0,0h-0.1l0,0c-0.1,0-0.1,0-0.2-0.1l0,0h-0.1l0,0h-0.1
			h-0.1l0,0l0,0l0,0h0.1h0.1l0,0l0,0v-0.1l0,0l0,0l0,0l0,0l0,0l0,0l0,0l0,0l0,0l0,0l0,0l0,0v0.1l0,0h0.1l0,0l0.1-0.1l0,0l0,0h0.1
			h0.1l0,0v-0.1l0.1-0.1c0,0,0,0,0-0.1v-0.1v-0.1l0,0L43.8,40v-0.1l0,0v-0.1l0,0l0,0l0,0l0,0l0,0l0,0l0,0l0,0l0,0h0.1l0,0l0,0l0,0
			l0,0h-0.1l-0.1,0.1l0,0V40h0.1l0.1,0.1l0,0H44l0,0l0.2-0.2l0,0l0,0l0,0l0,0L44,40l0,0l0,0l0,0l0,0l0,0l0,0l0,0l0,0l0,0l0,0l0,0
			l0,0l0,0l0,0h0.1l0,0l0,0h0.1v-0.1l0,0l0,0l0,0l0,0l0,0l0,0c0.3,0,0.3-0.1,0.4-0.1h-0.1l0,0h-0.1l0,0l0,0l0,0c0.1,0,0.1,0,0.1-0.1
			l0,0v-0.1l0,0l0,0l0,0l0,0v-0.1h-0.1l0,0l0,0l0,0l0,0l0,0h0.1c0,0,0,0,0.1,0l0,0l0,0v0.1l0,0v0.1l0,0l0.1-0.1v-0.1l0,0h0.1l0,0
			v-0.1l0,0v-0.1l0,0h-0.1l0,0l0,0l0,0l0,0l0,0l0,0l0,0l0,0h0.1h0.1l0,0l0,0l0,0l-0.1-0.1l0,0l0,0l0,0l0,0l0,0l0,0l0,0l0,0l0,0l0,0
			l0,0l0,0l0,0l0,0l0,0l0,0l0,0l0,0h0.1l0.1-0.1l0,0l0,0l0,0l0,0l0,0h0.1l0,0l0,0l0,0l0,0l0,0l0,0l0,0c0,0,0,0,0.1,0l0,0l0,0l0,0
			l0,0l0,0l0,0l0,0l0,0l0,0l0,0l0,0l0,0l0,0l0,0l0,0l0,0l0,0l0,0l0,0l0,0l0,0L45.9,38.3L45.9,38.3C45.8,38.4,45.8,38.4,45.9,38.3
			L45.9,38.3L45.9,38.3L45.9,38.3L45.9,38.3L45.9,38.3z M38.8,38L38.8,38L38.8,38L38.8,38z"/>
	</g>
</g>
<g id="Layer_4">
	<g>
		<path class="st4" d="M77.4,62.2H65.5c-1.9,0-3.4,1.5-3.4,3.4V72L59,74.2c-0.2,0.2-0.4,0.5-0.4,0.8s0.1,0.6,0.4,0.8l3.1,2.2
			c0.2,1.6,1.7,2.9,3.4,2.9h11.9c1.9,0,3.4-1.5,3.4-3.4V65.6C80.7,63.7,79.2,62.2,77.4,62.2L77.4,62.2z M73.4,75.1
			c-0.2,0-0.4-0.1-0.4-0.3l-0.4-1.3h-2.3l-0.4,1.3c0,0.2-0.2,0.3-0.4,0.3c-0.3,0-0.8-0.2-0.8-0.5v-0.1l1.9-6.2
			c0.1-0.3,0.5-0.4,0.8-0.4c0.4,0,0.7,0.1,0.8,0.4l1.9,6.2v0.1C74.2,74.9,73.7,75.1,73.4,75.1L73.4,75.1z"/>
		<path class="st4" d="M70.6,72.6h1.7l-0.9-3L70.6,72.6z"/>
		<path class="st4" d="M60.3,65.6c0-1.2,0.4-2.4,1.2-3.3c-1.1,0-2-0.3-2.8-0.9c-0.8,0.6-1.8,0.9-2.8,0.9c-0.3,0-0.5-0.2-0.5-0.5
			s0.2-0.5,0.5-0.5c0.7,0,1.4-0.2,2-0.6c-0.7-0.8-1.2-1.8-1.3-2.9h-0.7c-0.3,0-0.5-0.2-0.5-0.5s0.2-0.5,0.5-0.5h2.3v-1.3
			c0-0.3,0.2-0.5,0.5-0.5s0.5,0.2,0.5,0.5v1.3h2.3c0.3,0,0.5,0.2,0.5,0.5s-0.2,0.5-0.5,0.5h-0.7c-0.1,1.1-0.6,2.1-1.3,2.9
			c0.6,0.4,1.3,0.6,2,0.6c0.3,0,0.5,0.2,0.5,0.5c0.9-0.9,2.2-1.4,3.6-1.4H68v-2.2l3.1-2.2c0.2-0.2,0.4-0.5,0.4-0.8s-0.1-0.6-0.4-0.8
			L68,52.2c-0.2-1.6-1.7-2.9-3.4-2.9h-12c-1.9,0-3.4,1.5-3.4,3.4v11.9c0,1.9,1.5,3.4,3.4,3.4h7.6v-2.4H60.3z"/>
		<path class="st4" d="M58.6,60c0.6-0.6,1-1.4,1.1-2.2h-2.1C57.6,58.7,58,59.4,58.6,60L58.6,60z"/>
	</g>
</g>
</svg>
