<?xml version="1.0" encoding="utf-8"?>
<!-- Generator: Adobe Illustrator 21.0.0, SVG Export Plug-In . SVG Version: 6.00 Build 0)  -->
<svg version="1.1" xmlns="http://www.w3.org/2000/svg" xmlns:xlink="http://www.w3.org/1999/xlink" x="0px" y="0px"
	 viewBox="0 0 100 100" style="enable-background:new 0 0 100 100;" xml:space="preserve">
<style type="text/css">
	.st0{fill:#E7F0F0;}
	.st1{fill:#405B91;}
	.st2{fill:#808080;}
	.st3{fill:#7DC3EA;stroke:#405B91;stroke-width:0.25;stroke-miterlimit:10;}
	.st4{fill:#B6D0FB;stroke:#405B91;stroke-width:0.25;stroke-miterlimit:10;}
	.st5{opacity:0.5;}
	.st6{fill:#FFDCBE;}
	.st7{opacity:0.8;}
	.st8{fill:#1E1E1E;}
	.st9{fill:#0082AA;}
	.st10{fill:#006482;}
	.st11{opacity:0.2;}
</style>
<g id="Layer_2">
</g>
<g id="Layer_3">
	<path class="st0" d="M88.3,61c0,0,21.8-29.9-23.7-38.6s-43.1,7-43.1,7s3,9.7-10.2,14s4.3,38.8,17,36.7c12.7-2.2,47.5,0,47.5,0
		S91.3,82.3,88.3,61z"/>
	<g>
		<path class="st1" d="M94.1,80.2H8c-0.1,0-0.2-0.1-0.2-0.2s0.1-0.2,0.2-0.2h86.1c0.1,0,0.2,0.1,0.2,0.2
			C94.3,80.1,94.2,80.2,94.1,80.2z"/>
	</g>
</g>
<g id="Layer_4">
	<g>
		<g>
			<g>
				<path class="st2" d="M90.7,52.5c-0.1-0.9-0.1-1.9-0.1-2.8c0-0.9,0-1.9,0.1-2.8c0.1,0.9,0.1,1.9,0.1,2.8
					C90.8,50.6,90.8,51.5,90.7,52.5z"/>
			</g>
			<g>
				<path class="st2" d="M89.4,48.7c0.1,0.3,0.1,0.7,0.1,1c0,0.3,0,0.7-0.1,1c-0.1-0.3-0.1-0.7-0.1-1C89.3,49.3,89.3,49,89.4,48.7z"
					/>
			</g>
			<g>
				<path class="st2" d="M88.1,48.9c0.1,0.3,0.1,0.5,0.1,0.8c0,0.3,0,0.5-0.1,0.8C88,50.2,88,49.9,88,49.7
					C88,49.4,88,49.2,88.1,48.9z"/>
			</g>
			<g>
				<path class="st2" d="M76.6,48.9c0.1,0.3,0.1,0.5,0.1,0.8c0,0.3,0,0.5-0.1,0.8c-0.1-0.3-0.1-0.5-0.1-0.8
					C76.5,49.4,76.5,49.2,76.6,48.9z"/>
			</g>
			<g>
				<path class="st2" d="M86.8,49.2c0.1,0.2,0.1,0.3,0.1,0.5c0,0.2,0,0.3-0.1,0.5c-0.1-0.2-0.1-0.3-0.1-0.5
					C86.7,49.5,86.7,49.3,86.8,49.2z"/>
			</g>
			<g>
				<path class="st2" d="M85.5,46.8c0.1,1,0.1,1.9,0.1,2.9c0,1,0,1.9-0.1,2.9c-0.1-1-0.1-1.9-0.1-2.9C85.4,48.7,85.4,47.7,85.5,46.8
					z"/>
			</g>
			<g>
				<path class="st2" d="M84.2,43.9c0.1,1.9,0.1,3.9,0.1,5.8c0,1.9,0,3.9-0.1,5.8c-0.1-1.9-0.1-3.9-0.1-5.8
					C84.1,47.7,84.1,45.8,84.2,43.9z"/>
			</g>
			<g>
				<path class="st2" d="M82.9,37c0.1,4.2,0.1,8.4,0.1,12.7c0,4.2,0,8.4-0.1,12.7c-0.1-4.2-0.1-8.4-0.1-12.7
					C82.9,45.5,82.8,41.2,82.9,37z"/>
			</g>
			<g>
				<path class="st2" d="M81.6,44.9c0.1,1.6,0.1,3.2,0.1,4.8c0,1.6,0,3.2-0.1,4.8c-0.1-1.6-0.1-3.2-0.1-4.8
					C81.5,48.1,81.5,46.5,81.6,44.9z"/>
			</g>
			<g>
				<path class="st2" d="M80.4,47.1c0.1,0.8,0.1,1.7,0.1,2.5c0,0.8,0,1.7-0.1,2.5c-0.1-0.8-0.1-1.7-0.1-2.5
					C80.3,48.8,80.3,48,80.4,47.1z"/>
			</g>
			<g>
				<path class="st2" d="M79.1,44.9c0.1,1.6,0.1,3.2,0.1,4.8c0,1.6,0,3.2-0.1,4.8c-0.1-1.6-0.1-3.2-0.1-4.8
					C79,48.1,79,46.5,79.1,44.9z"/>
			</g>
			<g>
				<path class="st2" d="M77.8,48.2c0.1,0.5,0.1,1,0.1,1.5c0,0.5,0,1-0.1,1.5c-0.1-0.5-0.1-1-0.1-1.5C77.7,49.2,77.7,48.7,77.8,48.2
					z"/>
			</g>
			<g>
				<path class="st2" d="M75.2,48.2c0.1,0.5,0.1,1,0.1,1.5c0,0.5,0,1-0.1,1.5c-0.1-0.5-0.1-1-0.1-1.5C75.1,49.2,75.1,48.7,75.2,48.2
					z"/>
			</g>
			<g>
				<path class="st2" d="M73.9,45.1c0.1,1.5,0.1,3,0.1,4.6c0,1.5,0,3-0.1,4.6c-0.1-1.5-0.1-3-0.1-4.6C73.8,48.2,73.8,46.6,73.9,45.1
					z"/>
			</g>
			<g>
				<path class="st2" d="M64.9,48.9c0.1,0.3,0.1,0.5,0.1,0.8c0,0.3,0,0.5-0.1,0.8c-0.1-0.3-0.1-0.5-0.1-0.8
					C64.7,49.4,64.8,49.2,64.9,48.9z"/>
			</g>
			<g>
				<path class="st2" d="M63.5,48.2c0.1,0.5,0.1,1,0.1,1.5c0,0.5,0,1-0.1,1.5c-0.1-0.5-0.1-1-0.1-1.5C63.4,49.2,63.4,48.7,63.5,48.2
					z"/>
			</g>
			<g>
				<path class="st2" d="M62.2,49.9c-0.1-0.1-0.1-0.2-0.1-0.3c0-0.1,0-0.2,0.1-0.3c0.1,0.1,0.1,0.2,0.1,0.3
					C62.3,49.8,62.3,49.8,62.2,49.9z"/>
			</g>
			<g>
				<path class="st2" d="M72.6,41.3c0.1,2.8,0.1,5.6,0.1,8.3c0,2.8,0,5.6-0.1,8.3c-0.1-2.8-0.1-5.6-0.1-8.3
					C72.6,46.9,72.5,44.1,72.6,41.3z"/>
			</g>
			<g>
				<path class="st2" d="M71.4,46.4c0.1,1.1,0.1,2.2,0.1,3.3c0,1.1,0,2.2-0.1,3.3c-0.1-1.1-0.1-2.2-0.1-3.3
					C71.2,48.6,71.2,47.5,71.4,46.4z"/>
			</g>
			<g>
				<path class="st2" d="M70.1,48.2c0.1,0.5,0.1,1,0.1,1.5c0,0.5,0,1-0.1,1.5c-0.1-0.5-0.1-1-0.1-1.5C70,49.2,70,48.7,70.1,48.2z"/>
			</g>
			<g>
				<path class="st2" d="M68.8,48.9c0.1,0.3,0.1,0.5,0.1,0.8c0,0.3,0,0.5-0.1,0.8c-0.1-0.3-0.1-0.5-0.1-0.8
					C68.7,49.4,68.7,49.2,68.8,48.9z"/>
			</g>
			<g>
				<path class="st2" d="M60.9,48.2c0.1,0.5,0.1,1,0.1,1.5c0,0.5,0,1-0.1,1.5c-0.1-0.5-0.1-1-0.1-1.5C60.8,49.2,60.8,48.7,60.9,48.2
					z"/>
			</g>
			<g>
				<path class="st2" d="M59.6,45.1c0.1,1.5,0.1,3,0.1,4.6c0,1.5,0,3-0.1,4.6c-0.1-1.5-0.1-3-0.1-4.6C59.5,48.2,59.5,46.6,59.6,45.1
					z"/>
			</g>
			<g>
				<path class="st2" d="M58.3,47.9c0.1,0.6,0.1,1.2,0.1,1.8c0,0.6,0,1.2-0.1,1.8c-0.1-0.6-0.1-1.2-0.1-1.8
					C58.2,49.1,58.2,48.5,58.3,47.9z"/>
			</g>
			<g>
				<path class="st2" d="M57,46.4c0.1,1.1,0.1,2.2,0.1,3.3c0,1.1,0,2.2-0.1,3.3c-0.1-1.1-0.1-2.2-0.1-3.3
					C56.9,48.6,56.9,47.5,57,46.4z"/>
			</g>
			<g>
				<path class="st2" d="M55.7,48.2c0.1,0.5,0.1,1,0.1,1.5c0,0.5,0,1-0.1,1.5c-0.1-0.5-0.1-1-0.1-1.5C55.6,49.2,55.6,48.7,55.7,48.2
					z"/>
			</g>
			<g>
				<path class="st2" d="M54.4,48.9c0.1,0.3,0.1,0.5,0.1,0.8c0,0.3,0,0.5-0.1,0.8c-0.1-0.3-0.1-0.5-0.1-0.8
					C54.3,49.4,54.3,49.2,54.4,48.9z"/>
			</g>
			<g>
				<path class="st2" d="M67.5,45.1c0.1,1.5,0.1,3,0.1,4.6c0,1.5,0,3-0.1,4.6c-0.1-1.5-0.1-3-0.1-4.6C67.4,48.2,67.4,46.6,67.5,45.1
					z"/>
			</g>
			<g>
				<path class="st2" d="M66.2,47.6c0.1,0.7,0.1,1.3,0.1,2c0,0.7,0,1.3-0.1,2c-0.1-0.7-0.1-1.3-0.1-2C66.1,49,66.1,48.3,66.2,47.6z"
					/>
			</g>
			<g>
				<path class="st2" d="M52.9,52.5c-0.1-0.9-0.1-1.9-0.1-2.8c0-0.9,0-1.9,0.1-2.8c0.1,0.9,0.1,1.9,0.1,2.8
					C53,50.6,53,51.5,52.9,52.5z"/>
			</g>
			<g>
				<path class="st2" d="M51.6,48.7c0.1,0.3,0.1,0.7,0.1,1c0,0.3,0,0.7-0.1,1c-0.1-0.3-0.1-0.7-0.1-1C51.5,49.3,51.5,49,51.6,48.7z"
					/>
			</g>
			<g>
				<path class="st2" d="M50.3,48.9c0.1,0.3,0.1,0.5,0.1,0.8c0,0.3,0,0.5-0.1,0.8c-0.1-0.3-0.1-0.5-0.1-0.8
					C50.2,49.4,50.2,49.2,50.3,48.9z"/>
			</g>
			<g>
				<path class="st2" d="M38.8,47.1c0.1,0.8,0.1,1.7,0.1,2.5c0,0.8,0,1.7-0.1,2.5c-0.1-0.8-0.1-1.7-0.1-2.5
					C38.7,48.8,38.7,48,38.8,47.1z"/>
			</g>
			<g>
				<path class="st2" d="M49,49.2c0.1,0.2,0.1,0.3,0.1,0.5c0,0.2,0,0.3-0.1,0.5c-0.1-0.2-0.1-0.3-0.1-0.5
					C48.9,49.5,48.9,49.3,49,49.2z"/>
			</g>
			<g>
				<path class="st2" d="M10,50.4c-0.1-0.3-0.1-0.5-0.1-0.8c0-0.3,0-0.5,0.1-0.8c0.1,0.3,0.1,0.5,0.1,0.8
					C10.1,49.9,10.1,50.2,10,50.4z"/>
			</g>
			<g>
				<path class="st2" d="M11.5,53c-0.1-1.1-0.1-2.2-0.1-3.3c0-1.1,0-2.2,0.1-3.3c0.1,1.1,0.1,2.2,0.1,3.3
					C11.6,50.8,11.6,51.9,11.5,53z"/>
			</g>
			<g>
				<path class="st2" d="M14.1,50.4c-0.1-0.3-0.1-0.5-0.1-0.8c0-0.3,0-0.5,0.1-0.8c0.1,0.3,0.1,0.5,0.1,0.8
					C14.2,49.9,14.2,50.2,14.1,50.4z"/>
			</g>
			<g>
				<path class="st2" d="M47.8,46.8c0.1,1,0.1,1.9,0.1,2.9c0,1,0,1.9-0.1,2.9c-0.1-1-0.1-1.9-0.1-2.9C47.7,48.7,47.7,47.7,47.8,46.8
					z"/>
			</g>
			<g>
				<path class="st2" d="M46.5,43.9c0.1,1.9,0.1,3.9,0.1,5.8c0,1.9,0,3.9-0.1,5.8c-0.1-1.9-0.1-3.9-0.1-5.8
					C46.4,47.7,46.4,45.8,46.5,43.9z"/>
			</g>
			<g>
				<path class="st2" d="M45.2,46.4c0.1,1.1,0.1,2.2,0.1,3.3c0,1.1,0,2.2-0.1,3.3c-0.1-1.1-0.1-2.2-0.1-3.3
					C45.1,48.6,45.1,47.5,45.2,46.4z"/>
			</g>
			<g>
				<path class="st2" d="M43.9,44.9c0.1,1.6,0.1,3.2,0.1,4.8c0,1.6,0,3.2-0.1,4.8c-0.1-1.6-0.1-3.2-0.1-4.8
					C43.8,48.1,43.8,46.5,43.9,44.9z"/>
			</g>
			<g>
				<path class="st2" d="M42.6,41.3c0.1,2.8,0.1,5.6,0.1,8.3c0,2.8,0,5.6-0.1,8.3c-0.1-2.8-0.1-5.6-0.1-8.3
					C42.5,46.9,42.5,44.1,42.6,41.3z"/>
			</g>
			<g>
				<path class="st2" d="M41.3,42.3c0.1,2.4,0.1,4.9,0.1,7.3c0,2.4,0,4.9-0.1,7.3c-0.1-2.4-0.1-4.9-0.1-7.3
					C41.2,47.2,41.2,44.8,41.3,42.3z"/>
			</g>
			<g>
				<path class="st2" d="M40,43.9c0.1,1.9,0.1,3.9,0.1,5.8c0,1.9,0,3.9-0.1,5.8c-0.1-1.9-0.1-3.9-0.1-5.8
					C39.9,47.7,39.9,45.8,40,43.9z"/>
			</g>
			<g>
				<path class="st2" d="M37.5,42.3c0.1,2.4,0.1,4.9,0.1,7.3c0,2.4,0,4.9-0.1,7.3c-0.1-2.4-0.1-4.9-0.1-7.3
					C37.4,47.2,37.4,44.8,37.5,42.3z"/>
			</g>
			<g>
				<path class="st2" d="M36.2,39.6c0.1,3.4,0.1,6.7,0.1,10.1c0,3.4,0,6.7-0.1,10.1c-0.1-3.4-0.1-6.7-0.1-10.1
					C36.1,46.3,36.1,42.9,36.2,39.6z"/>
			</g>
			<g>
				<path class="st2" d="M27.1,48.9c0.1,0.3,0.1,0.5,0.1,0.8c0,0.3,0,0.5-0.1,0.8C27,50.2,27,49.9,27,49.7
					C27,49.4,27,49.2,27.1,48.9z"/>
			</g>
			<g>
				<path class="st2" d="M25.8,48.2c0.1,0.5,0.1,1,0.1,1.5c0,0.5,0,1-0.1,1.5c-0.1-0.5-0.1-1-0.1-1.5C25.6,49.2,25.7,48.7,25.8,48.2
					z"/>
			</g>
			<g>
				<path class="st2" d="M24.5,49.9c-0.1-0.1-0.1-0.2-0.1-0.3c0-0.1,0-0.2,0.1-0.3c0.1,0.1,0.1,0.2,0.1,0.3
					C24.6,49.8,24.6,49.8,24.5,49.9z"/>
			</g>
			<g>
				<path class="st2" d="M8.5,49.9c-0.1-0.1-0.1-0.2-0.1-0.3c0-0.1,0-0.2,0.1-0.3c0.1,0.1,0.1,0.2,0.1,0.3
					C8.6,49.8,8.6,49.8,8.5,49.9z"/>
			</g>
			<g>
				<path class="st2" d="M93.6,50.4c-0.1-0.3-0.1-0.5-0.1-0.8c0-0.3,0-0.5,0.1-0.8c0.1,0.3,0.1,0.5,0.1,0.8
					C93.7,49.9,93.7,50.2,93.6,50.4z"/>
			</g>
			<g>
				<path class="st2" d="M92.1,49.9C92,49.8,92,49.8,92,49.7c0-0.1,0-0.2,0.1-0.3c0.1,0.1,0.1,0.2,0.1,0.3
					C92.3,49.8,92.2,49.8,92.1,49.9z"/>
			</g>
			<g>
				<path class="st2" d="M12.8,48.2c0.1,0.5,0.1,1,0.1,1.5c0,0.5,0,1-0.1,1.5c-0.1-0.5-0.1-1-0.1-1.5C12.7,49.2,12.7,48.7,12.8,48.2
					z"/>
			</g>
			<g>
				<path class="st2" d="M15.5,49.9c-0.1-0.1-0.1-0.2-0.1-0.3c0-0.1,0-0.2,0.1-0.3c0.1,0.1,0.1,0.2,0.1,0.3
					C15.6,49.8,15.6,49.8,15.5,49.9z"/>
			</g>
			<g>
				<path class="st2" d="M34.9,35.8C35,40.4,35,45,35,49.7c0,4.6,0,9.3-0.1,13.9c-0.1-4.6-0.1-9.3-0.1-13.9
					C34.8,45,34.8,40.4,34.9,35.8z"/>
			</g>
			<g>
				<path class="st2" d="M33.6,42.3c0.1,2.4,0.1,4.9,0.1,7.3c0,2.4,0,4.9-0.1,7.3c-0.1-2.4-0.1-4.9-0.1-7.3
					C33.5,47.2,33.5,44.8,33.6,42.3z"/>
			</g>
			<g>
				<path class="st2" d="M32.3,45.1c0.1,1.5,0.1,3,0.1,4.6c0,1.5,0,3-0.1,4.6c-0.1-1.5-0.1-3-0.1-4.6C32.2,48.2,32.2,46.6,32.3,45.1
					z"/>
			</g>
			<g>
				<path class="st2" d="M31,47.6c0.1,0.7,0.1,1.3,0.1,2c0,0.7,0,1.3-0.1,2c-0.1-0.7-0.1-1.3-0.1-2C30.9,49,30.9,48.3,31,47.6z"/>
			</g>
			<g>
				<path class="st2" d="M23.1,48.2c0.1,0.5,0.1,1,0.1,1.5c0,0.5,0,1-0.1,1.5c-0.1-0.5-0.1-1-0.1-1.5C23,49.2,23,48.7,23.1,48.2z"/>
			</g>
			<g>
				<path class="st2" d="M21.8,45.1c0.1,1.5,0.1,3,0.1,4.6c0,1.5,0,3-0.1,4.6c-0.1-1.5-0.1-3-0.1-4.6C21.7,48.2,21.7,46.6,21.8,45.1
					z"/>
			</g>
			<g>
				<path class="st2" d="M20.6,47.9c0.1,0.6,0.1,1.2,0.1,1.8c0,0.6,0,1.2-0.1,1.8c-0.1-0.6-0.1-1.2-0.1-1.8
					C20.4,49.1,20.5,48.5,20.6,47.9z"/>
			</g>
			<g>
				<path class="st2" d="M19.3,46.4c0.1,1.1,0.1,2.2,0.1,3.3c0,1.1,0,2.2-0.1,3.3c-0.1-1.1-0.1-2.2-0.1-3.3
					C19.2,48.6,19.2,47.5,19.3,46.4z"/>
			</g>
			<g>
				<path class="st2" d="M18,48.2c0.1,0.5,0.1,1,0.1,1.5c0,0.5,0,1-0.1,1.5c-0.1-0.5-0.1-1-0.1-1.5C17.9,49.2,17.9,48.7,18,48.2z"/>
			</g>
			<g>
				<path class="st2" d="M16.7,48.9c0.1,0.3,0.1,0.5,0.1,0.8c0,0.3,0,0.5-0.1,0.8c-0.1-0.3-0.1-0.5-0.1-0.8
					C16.6,49.4,16.6,49.2,16.7,48.9z"/>
			</g>
			<g>
				<path class="st2" d="M29.7,45.1c0.1,1.5,0.1,3,0.1,4.6c0,1.5,0,3-0.1,4.6c-0.1-1.5-0.1-3-0.1-4.6C29.6,48.2,29.6,46.6,29.7,45.1
					z"/>
			</g>
			<g>
				<path class="st2" d="M28.5,47.6c0.1,0.7,0.1,1.3,0.1,2c0,0.7,0,1.3-0.1,2c-0.1-0.7-0.1-1.3-0.1-2C28.3,49,28.4,48.3,28.5,47.6z"
					/>
			</g>
		</g>
	</g>
	<g>
		<path class="st3" d="M72.9,72.1c-0.2-0.9-0.8-1.8-1.5-2.4l-2-1.5l-5.1-4.2l-2.1-1.9h-11h-11l-2.1,1.9l-5.1,4.2l-2,1.5
			c-0.8,0.6-1.3,1.4-1.5,2.4l-1.9,8.1h23.6h23.6L72.9,72.1z"/>
	</g>
	<g>
		<path class="st4" d="M40.2,47.8c0,0-1.8,1.9-2.7-2.6c-0.9-4.9-0.9-7.5,0.8-8.1c1.1-0.4,1.4,0.6,1.4,0.6L40.2,47.8z"/>
	</g>
	<g>
		<path class="st4" d="M44,57.2l-1.5,1.6l-2.3,2.5c-0.2,0.2-0.2,0.4-0.2,0.6c0,0.2,0.1,0.4,0.3,0.6c1.4,1.2,4.8,3.7,8.2,4.4
			c0,0-6.8,0.4-10.5-1.8c-0.7-0.4-1.4-0.5-2,0l-3.6,2.7l-0.6,1.6l0.6-0.5c0.2-0.1,0.4-0.2,0.7-0.1c0.2,0.1,0.4,0.2,0.6,0.4
			c1,1.9,4,6.1,10.4,6.1c8.3,0,17.3-8.8,20.3-9.5c2-0.5,4.6,2,4.6,2l-0.2-0.4c-0.2-0.6-0.7-1.1-1.2-1.5L65,64.1
			c-0.7-0.5-1.6-0.7-2.5-0.6h0v-0.2c0-0.8-0.3-1.6-0.8-2.2l-2-2.4l-1.7-1.4L44,57.2z"/>
	</g>
	<path class="st3" d="M43.9,53.8V55c0,2.3,0.8,7.6,7.4,7.5c5.9-0.1,7-5.2,7-7.5v-1.6L43.9,53.8z"/>
	<g class="st5">
		<path class="st6" d="M44,57.2c1.9,2.1,4.3,3.3,6.9,3.3c2.8,0,5.3-1.4,7.3-3.8l0-2.4l-14.4,0.3L44,57.2z"/>
	</g>
	<g>
		<path class="st4" d="M61.8,47.8c0,0,1.8,1.9,2.7-2.6c0.9-4.9,0.9-7.5-0.8-8.1c-1.1-0.4-1.4,0.6-1.4,0.6L61.8,47.8z"/>
	</g>
	<path class="st4" d="M57.6,55.9c0.3-0.3,0.6-0.6,0.8-0.9c0,0,0-0.1,0.1-0.1c0.3-0.3,0.5-0.7,0.7-1c0-0.1,0.1-0.1,0.1-0.2
		c0.2-0.3,0.4-0.7,0.6-1.1c0-0.1,0.1-0.2,0.1-0.3c0.2-0.4,0.4-0.7,0.5-1.1c0.1-0.1,0.1-0.3,0.2-0.4c0.1-0.4,0.3-0.7,0.4-1.1
		c0.1-0.2,0.1-0.4,0.2-0.6c0.1-0.3,0.2-0.7,0.3-1.1c0.1-0.2,0.1-0.5,0.2-0.7c0.1-0.3,0.2-0.7,0.2-1c0.1-0.3,0.1-0.6,0.1-0.9
		c0-0.3,0.1-0.6,0.1-0.9c0-0.4,0.1-0.8,0.1-1.2c0-0.3,0.1-0.5,0.1-0.8c0-0.7,0.1-1.4,0.1-2.1c0-0.4,0-0.9,0-1.3c0-0.1,0-0.2,0-0.4
		c0-0.3,0-0.6,0-0.9c0-0.2,0-0.3,0-0.5c0-0.2,0-0.4,0-0.7c0-0.2,0-0.3,0-0.5c0-0.2,0-0.4,0-0.6c0-0.2,0-0.3-0.1-0.5
		c0-0.2,0-0.4-0.1-0.5c0-0.2,0-0.3-0.1-0.5c0-0.2,0-0.3-0.1-0.5c0-0.2-0.1-0.3-0.1-0.5c0-0.1,0-0.3-0.1-0.4c0-0.2-0.1-0.3-0.1-0.5
		c0-0.1-0.1-0.3-0.1-0.4c0-0.2-0.1-0.3-0.1-0.5c0-0.1-0.1-0.2-0.1-0.4c0-0.2-0.1-0.3-0.1-0.5c0-0.1-0.1-0.2-0.1-0.3
		c0-0.2-0.1-0.3-0.1-0.4c0-0.1-0.1-0.2-0.1-0.3C61,29.3,61,29.1,60.9,29c0-0.1-0.1-0.2-0.1-0.3c-0.1-0.1-0.1-0.3-0.2-0.4
		c0-0.1-0.1-0.2-0.1-0.2c-0.1-0.1-0.1-0.3-0.2-0.4c0-0.1-0.1-0.1-0.1-0.2c-0.1-0.1-0.1-0.2-0.2-0.4c0-0.1-0.1-0.1-0.1-0.2
		c-0.1-0.1-0.2-0.2-0.2-0.3c0-0.1-0.1-0.1-0.1-0.2c-0.1-0.1-0.2-0.2-0.3-0.3c0,0-0.1-0.1-0.1-0.1c-0.1-0.1-0.2-0.2-0.3-0.3
		c0,0-0.1-0.1-0.1-0.1c-0.1-0.1-0.2-0.2-0.3-0.3c0,0-0.1-0.1-0.1-0.1c-0.1-0.1-0.2-0.2-0.3-0.3c0,0-0.1-0.1-0.1-0.1
		c-0.1-0.1-0.2-0.2-0.4-0.2c0,0-0.1,0-0.1-0.1c-0.1-0.1-0.3-0.2-0.4-0.2c0,0-0.1,0-0.1-0.1c-0.1-0.1-0.3-0.1-0.4-0.2
		c0,0-0.1,0-0.1,0c-0.1-0.1-0.3-0.1-0.4-0.2c0,0-0.1,0-0.1,0c-0.2-0.1-0.3-0.1-0.5-0.2c0,0-0.1,0-0.1,0c-0.2-0.1-0.3-0.1-0.5-0.1
		c0,0,0,0-0.1,0c-0.2,0-0.3-0.1-0.5-0.1c0,0,0,0-0.1,0c-0.2,0-0.4-0.1-0.6-0.1c0,0,0,0,0,0c-0.2,0-0.4-0.1-0.6-0.1c0,0,0,0,0,0
		c-0.2,0-0.4,0-0.6-0.1c0,0,0,0,0,0c-0.5,0-1-0.1-1.5-0.1c-7.4,0-11.6,3.3-11.6,17.5c0,11.4,5,18.3,11.6,18.3c0,0,0.1,0,0.1,0v0
		c0,0,0,0,0.1,0c0.4,0,0.8,0,1.1-0.1c0,0,0,0,0,0c1.6-0.2,3-0.9,4.3-1.9c0,0,0,0,0,0C56.9,56.5,57.2,56.2,57.6,55.9
		C57.6,55.9,57.6,55.9,57.6,55.9z"/>
	<path class="st3" d="M60.5,28.1c6.6-3,7.4-9.7,7.4-9.7c-5.6,6.7-10,4.6-10,4.6c3.3-0.4,6.6-4.6,6.6-4.6c-9.5,4.5-15.2-1.8-22.3,3.5
		c-2.8,2.1-3.1,4-3.1,6.5c-4.3,5.5,0,13.6,0,13.6h1.1c-0.4-10.1,1.5-12.7,1.5-12.7s1.9,4.5,9.5,4.5c4.8,0,8.2-1,10.5-2.4
		c0.5,1.9,0.9,5.1,0.7,10.5h1.1c0,0,3.7-7.1,0.7-12.5c2.4-2.4,2.7-4.9,2.7-4.9C63.5,28.3,60.5,28.1,60.5,28.1z"/>
	<g class="st7">
		<circle class="st8" cx="36.5" cy="50.7" r="9"/>
	</g>
	<g>
		<path class="st8" d="M36.5,40.5c-5.6,0-10.2,4.6-10.2,10.2c0,5.6,4.6,10.2,10.2,10.2c5.6,0,10.2-4.6,10.2-10.2
			C46.6,45.1,42.1,40.5,36.5,40.5z M36.5,59.7c-5,0-9-4-9-9c0-5,4-9,9-9c5,0,9,4,9,9C45.5,55.7,41.4,59.7,36.5,59.7z"/>
	</g>
	<g>
		<path class="st8" d="M38.8,68.3c0,0.5-0.4,1-1,1h-2.7c-0.5,0-1-0.4-1-1v-1.6h4.6V68.3z"/>
	</g>
	<g>
		<path class="st9" d="M42,51.6v11.5c0,2.3-1.9,4.2-4.2,4.2h-2.7c-2.3,0-4.2-1.9-4.2-4.2V51.6c0-1.6,0.9-3,2.2-3.7
			c0.3-0.2,0.7-0.3,1-0.4c0.3-0.1,0.6-0.1,0.9-0.1c0,0,0.1,0,0.1,0h2.7c0,0,0.1,0,0.1,0c0.3,0,0.6,0,0.9,0.1c0.4,0.1,0.7,0.2,1,0.4
			C41.1,48.6,42,50,42,51.6z"/>
	</g>
	<g>
		<g>
			<g>
				<path class="st10" d="M39.8,47.9v2.8h-1v-3.2C39.1,47.6,39.5,47.7,39.8,47.9z"/>
			</g>
			<g>
				<rect x="36.9" y="47.4" class="st10" width="1" height="3.3"/>
			</g>
			<g>
				<rect x="35" y="47.4" class="st10" width="1" height="3.3"/>
			</g>
			<g>
				<path class="st10" d="M34.1,47.5v3.2h-1v-2.8C33.4,47.7,33.8,47.6,34.1,47.5z"/>
			</g>
		</g>
		<g>
			<g>
				<path class="st10" d="M39.8,66.8v-2.8h-1v3.2C39.1,67.1,39.5,66.9,39.8,66.8z"/>
			</g>
			<g>
				<rect x="36.9" y="63.9" class="st10" width="1" height="3.3"/>
			</g>
			<g>
				<rect x="35" y="63.9" class="st10" width="1" height="3.3"/>
			</g>
			<g>
				<path class="st10" d="M34.1,67.1v-3.2h-1v2.8C33.4,66.9,33.8,67.1,34.1,67.1z"/>
			</g>
		</g>
		<g>
			<g>
				<rect x="38.1" y="51.6" class="st10" width="3.9" height="1"/>
			</g>
			<g>
				<rect x="38.1" y="53.7" class="st10" width="3.9" height="1"/>
			</g>
			<g>
				<rect x="38.1" y="55.8" class="st10" width="3.9" height="1"/>
			</g>
			<g>
				<rect x="38.1" y="57.8" class="st10" width="3.9" height="1"/>
			</g>
			<g>
				<rect x="38.1" y="59.9" class="st10" width="3.9" height="1"/>
			</g>
			<g>
				<rect x="38.1" y="62" class="st10" width="3.9" height="1"/>
			</g>
		</g>
		<g>
			<g>
				<rect x="30.9" y="51.6" class="st10" width="3.9" height="1"/>
			</g>
			<g>
				<rect x="30.9" y="53.7" class="st10" width="3.9" height="1"/>
			</g>
			<g>
				<rect x="30.9" y="55.8" class="st10" width="3.9" height="1"/>
			</g>
			<g>
				<rect x="30.9" y="57.8" class="st10" width="3.9" height="1"/>
			</g>
			<g>
				<rect x="30.9" y="59.9" class="st10" width="3.9" height="1"/>
			</g>
			<g>
				<rect x="30.9" y="62" class="st10" width="3.9" height="1"/>
			</g>
		</g>
	</g>
	<g class="st11">
		<path class="st9" d="M37.8,67.3c2.3,0,4.2-1.9,4.2-4.2V51.6c0-1.6-0.9-3-2.2-3.7c-0.3-0.2-0.7-0.3-1-0.4c-0.3-0.1-0.6-0.1-0.9-0.1
			c0,0-0.1,0-0.1,0h-1.3v19.9H37.8z"/>
	</g>
	<g>
		<rect x="35.5" y="68.9" class="st8" width="1.9" height="11.3"/>
	</g>
	<g>
		<path class="st8" d="M40.4,71.9c-1.4,0-2.8-0.4-4.1-1.3l0.4-0.6c2.6,1.7,4.9,1.3,6.3,0.6c2.3-1,3.7-3.1,3.9-4.5
			c0.2-1.6-1-3-2.2-4.4c-1-1.2-2.1-2.4-2.2-3.8l0.7-0.1c0.2,1.1,1.1,2.2,2.1,3.4c1.3,1.5,2.6,3.1,2.4,5c-0.3,1.9-2.1,4.1-4.3,5.1
			C42.3,71.7,41.4,71.9,40.4,71.9z"/>
	</g>
	<g>
		<path class="st9" d="M39.5,75.5c0,0.4-0.3,0.7-0.7,0.7h-4.6c-0.4,0-0.7-0.3-0.7-0.7V75c0-0.4,0.3-0.7,0.7-0.7h4.6
			c0.4,0,0.7,0.3,0.7,0.7V75.5z"/>
	</g>
</g>
</svg>
