<?xml version="1.0" encoding="utf-8"?>
<!-- Generator: Adobe Illustrator 21.0.0, SVG Export Plug-In . SVG Version: 6.00 Build 0)  -->
<svg version="1.1" id="Layer_1" xmlns="http://www.w3.org/2000/svg" xmlns:xlink="http://www.w3.org/1999/xlink" x="0px" y="0px"
	 viewBox="0 0 100 100" style="enable-background:new 0 0 100 100;" xml:space="preserve">
<style type="text/css">
	.st0{fill:#E7F0F0;}
	.st1{fill:#107AEC;stroke:#0D69BC;stroke-width:0.25;stroke-miterlimit:10;}
	.st2{fill:#50AA50;}
	.st3{fill:#405B91;}
	.st4{fill:#FFFFFF;}
	.st5{fill:#415B91;}
	.st6{fill:#B6D0FB;}
	.st7{fill:#3F5B91;}
	.st8{fill:#6CDD6C;}
	.st9{fill:#D7E7FF;}
</style>
<path class="st0" d="M88.3,61c0,0,21.8-29.9-23.7-38.6s-43.1,7-43.1,7s3,9.7-10.2,14s4.3,38.8,17,36.7c12.7-2.2,47.5,0,47.5,0
	S91.3,82.3,88.3,61z"/>
<g>
	<g>
		<g>
			<g>
				<path class="st1" d="M64.3,78.2c-0.1-0.4-0.4-0.7-0.8-0.9c-0.4-0.1-0.9,0.1-1,0.4c-0.3-0.3-0.9-0.1-1.2,0.3
					c-0.5,0.6-0.1,1.5,0,1.6s0.3,0.1,0.3,0.1H65c0,0,0.6,0,0.9-0.2c0.6-0.2,1-1.2,0.6-1.7c-0.3-0.3-0.8-0.4-1.2-0.3
					C65.1,77.7,64.7,77.9,64.3,78.2"/>
			</g>
			<g>
				<path class="st2" d="M61.7,79.8c-0.1,0-0.2,0-0.3-0.1s-0.5-1.1,0-1.7c0.2-0.3,0.5-0.4,0.8-0.5c0.1,0,0.3,0,0.4,0.1
					c0.1-0.1,0.2-0.2,0.3-0.3c0.2-0.1,0.5-0.1,0.7-0.1c0.3,0.1,0.6,0.4,0.8,0.8c0.3-0.3,0.7-0.5,1-0.6c0.4-0.1,1-0.1,1.3,0.3
					c0.2,0.2,0.2,0.6,0.1,0.9c-0.1,0.4-0.4,0.8-0.8,0.9c-0.3,0.1-0.9,0.2-0.9,0.2L61.7,79.8L61.7,79.8z M62.2,77.8L62.2,77.8
					c-0.3,0-0.5,0.2-0.7,0.4c-0.4,0.5-0.1,1.4,0,1.4c0,0,0.1,0,0.2,0h3.4c0,0,0.6,0,0.9-0.2c0.3-0.1,0.5-0.4,0.6-0.8
					c0.1-0.3,0.1-0.6-0.1-0.8c-0.2-0.3-0.7-0.3-1-0.2c-0.4,0.1-0.7,0.3-1.1,0.6h-0.1c0,0-0.1,0-0.1-0.1c-0.1-0.4-0.4-0.7-0.7-0.8
					c-0.2-0.1-0.4,0-0.6,0.1c-0.1,0.1-0.2,0.2-0.3,0.3c0,0,0,0.1-0.1,0.1h-0.1C62.5,77.8,62.3,77.8,62.2,77.8z"/>
			</g>
		</g>
		<g>
			<g>
				<g>
					<path class="st2" d="M60.8,78.1c-0.1,0.2-0.1,0.4-0.1,0.6c0,0.1,0.2,0.1,0.2,0c0-0.2,0-0.4,0.1-0.5C61,78,60.8,78,60.8,78.1
						L60.8,78.1z"/>
				</g>
			</g>
		</g>
		<g>
			<g>
				<g>
					<path class="st2" d="M60.3,78.2c-0.1,0.2-0.1,0.4,0,0.6c0,0.1,0.2,0.1,0.2,0c0-0.2,0-0.3,0-0.5S60.3,78.1,60.3,78.2L60.3,78.2z
						"/>
				</g>
			</g>
		</g>
		<g>
			<g>
				<g>
					<path class="st2" d="M61.2,77.9c0.1,0,0.1-0.2,0-0.2C61.1,77.7,61.1,77.9,61.2,77.9L61.2,77.9z"/>
				</g>
			</g>
		</g>
		<g>
			<g>
				<g>
					<path class="st2" d="M61.7,78.7L61.7,78.7c0,0.2,0.2,0.2,0.2,0.1v-0.1C61.9,78.6,61.7,78.6,61.7,78.7L61.7,78.7z"/>
				</g>
			</g>
		</g>
		<g>
			<g>
				<g>
					<path class="st2" d="M64.5,78.9C64.5,79,64.5,79,64.5,78.9c0,0.2,0.2,0.2,0.2,0.1c0,0,0,0,0-0.1S64.5,78.8,64.5,78.9L64.5,78.9
						z"/>
				</g>
			</g>
		</g>
		<g>
			<g>
				<g>
					<path class="st2" d="M64.2,78.7C64.2,78.7,64.3,78.8,64.2,78.7c0.1,0.1,0.2,0,0.2-0.1l0,0C64.3,78.5,64.2,78.6,64.2,78.7
						L64.2,78.7z"/>
				</g>
			</g>
		</g>
	</g>
	<g>
		<path class="st3" d="M16.5,75h-5.7c-0.1,0-0.2-0.1-0.2-0.2s0.1-0.2,0.2-0.2h5.7c0.1,0,0.2,0.1,0.2,0.2S16.6,75,16.5,75z"/>
	</g>
	<g>
		<g>
			<path class="st4" d="M66.6,55.3h-0.2c0-0.1-0.1-0.2-0.2-0.2S66,55.2,66,55.3h-0.2c0-0.2,0.2-0.4,0.4-0.4
				C66.4,54.9,66.6,55.1,66.6,55.3z"/>
		</g>
	</g>
	<g>
		<g>
			<path class="st4" d="M67.2,45.8H67c0-0.1-0.1-0.2-0.2-0.2s-0.2,0.1-0.2,0.2h-0.2c0-0.2,0.2-0.4,0.4-0.4
				C67,45.4,67.2,45.6,67.2,45.8z"/>
		</g>
	</g>
	<g>
		<g>
			<g>
				<path class="st5" d="M46.9,78.7h-7.7l0.1-0.3c0.5-1.2,0.6-2.2,0.5-3.4v-0.2h6.5V75c0,0.8,0.2,2.5,0.5,3.5L46.9,78.7z M39.9,78.3
					h6.5c-0.2-0.9-0.4-2.3-0.5-3.1h-5.6C40.3,76.2,40.3,77.2,39.9,78.3z"/>
			</g>
		</g>
	</g>
	<g>
		<g>
			<g>
				<path class="st5" d="M37,75.2c-5.9,0-10.6,0-10.8-0.1c-0.5-0.2-1.2-0.9-1.2-1.4c0-1.1-0.1-2.5-0.1-4.2
					c-0.2-5.1-0.4-12.1-0.1-15.9c0.1-0.7,0.6-1.2,1.3-1.2l0,0l33.8,0.1c0.7,0,1.3,0.6,1.3,1.3c0,1.1,0.1,2.3,0.1,3.4
					c0.2,4.9,0.3,9.9-0.2,14.7c0,0.2,0,0.4,0,0.6c0,1-0.1,2.2-1.4,2.5C59.1,75.1,46.5,75.2,37,75.2z M26.1,52.7
					c-0.5,0-0.9,0.4-1,0.9c-0.3,3.8-0.1,10.8,0.1,15.9c0.1,1.7,0.1,3.1,0.1,4.2c0,0.3,0.5,0.9,0.9,1c0.7,0.1,32.5,0,33.4-0.1
					c1-0.2,1.1-1.2,1.1-2.2c0-0.2,0-0.4,0-0.6c0.5-4.7,0.4-9.8,0.2-14.7c0-1.2-0.1-2.3-0.1-3.4c0-0.5-0.4-1-1-1H26.1L26.1,52.7z"/>
			</g>
		</g>
	</g>
	<g>
		<g>
			<path class="st6" d="M59,53.5H27.1c-0.6,0-1.1,0.4-1.1,0.9c-0.4,4.3,0.1,13.2,0.2,16.8c0,0.3,0.6,0.9,1,1
				c0.5,0.2,30.8,0,31.5-0.1c1.3-0.2,1.1-1.6,1.2-2.5c0.6-4.9,0.2-10.3,0.1-15.1C60.1,54,59.6,53.6,59,53.5z"/>
		</g>
	</g>
	<g>
		<g>
			<g>
				<path class="st5" d="M49.7,79.9H36.4c-0.5,0-0.8-0.4-0.8-0.8s0.3-0.8,0.8-0.8h13.3c0.5,0,0.8,0.4,0.8,0.8S50.2,79.9,49.7,79.9z
					 M36.4,78.6c-0.3,0-0.4,0.3-0.4,0.5s0.1,0.5,0.4,0.5h13.3c0.3,0,0.4-0.3,0.4-0.5s-0.1-0.5-0.4-0.5H36.4z"/>
			</g>
		</g>
	</g>
	<g>
		<g>
			<g>
				<g>
					<g>
						<path class="st5" d="M27.2,73.5C27.1,73.5,27.1,73.5,27.2,73.5"/>
					</g>
				</g>
			</g>
			<g>
				<g>
					<g>
						<g>
							<path class="st5" d="M27.2,73.9c0.6,0,0.6-0.9,0-0.9S26.6,73.9,27.2,73.9L27.2,73.9z"/>
						</g>
					</g>
				</g>
			</g>
		</g>
		<g>
			<g>
				<g>
					<g>
						<path class="st5" d="M29,73.5L29,73.5"/>
					</g>
				</g>
			</g>
			<g>
				<g>
					<g>
						<g>
							<path class="st5" d="M29,73.9c0.6,0,0.6-0.9,0-0.9C28.5,73,28.5,73.9,29,73.9L29,73.9z"/>
						</g>
					</g>
				</g>
			</g>
		</g>
		<g>
			<g>
				<g>
					<g>
						<path class="st5" d="M30.9,73.5C30.8,73.5,30.8,73.5,30.9,73.5"/>
					</g>
				</g>
			</g>
			<g>
				<g>
					<g>
						<g>
							<path class="st5" d="M30.9,73.9c0.6,0,0.6-0.9,0-0.9S30.3,73.9,30.9,73.9L30.9,73.9z"/>
						</g>
					</g>
				</g>
			</g>
		</g>
	</g>
	<g>
		<g>
			<g>
				<g>
					<path class="st5" d="M43.1,53.1C43,53.1,43,53.1,43.1,53.1"/>
				</g>
			</g>
		</g>
		<g>
			<g>
				<g>
					<g>
						<path class="st5" d="M43.1,53.3c0.3,0,0.3-0.4,0-0.4C42.8,52.8,42.8,53.3,43.1,53.3L43.1,53.3z"/>
					</g>
				</g>
			</g>
		</g>
	</g>
	<g>
		<g>
			<polygon class="st6" points="80.5,79.1 75.9,79.1 77.7,73.3 78.7,73.3 			"/>
		</g>
		<g>
			<rect x="75.5" y="79.1" class="st6" width="5.3" height="0.7"/>
		</g>
		<g>
			<polygon class="st5" points="76.4,77.6 75.9,79.1 80.5,79.1 80,77.6 			"/>
		</g>
		<g>
			<polygon class="st5" points="76.8,76.2 79.6,76.2 79.2,74.7 77.2,74.7 			"/>
		</g>
	</g>
	<g id="XMLID_11_">
		<g id="XMLID_493_">
			<path class="st6" d="M82.4,79.7h1v-3.9h5.2v3.9h1v-3.9h1.1v-3.1h-0.9v-0.3h-1.5v0.3h-4.6v-0.3h-1.5v0.3h-0.9v3.1h1.1
				C82.4,75.8,82.4,79.7,82.4,79.7z M90.3,72.9L90.3,72.9l-0.6,2.5h-1.1l0.6-2.5H90.3z M87.4,75.4h-1.1l0.6-2.5H88L87.4,75.4z
				 M85.1,75.4H84l0.6-2.5h1.1L85.1,75.4z M82.4,72.9h1.1l-0.6,2.5h-1.1L82.4,72.9z"/>
		</g>
	</g>
	<g>
		<g>
			<g>
				<path class="st6" d="M32.4,41.3l0.3-0.3c0.1-0.1,0.1-0.2,0-0.2l-0.3-0.3c-0.1-0.1-0.1-0.2,0-0.2l0.2-0.5c0-0.1,0.1-0.2,0.2-0.2
					h0.4c0.1,0,0.2-0.1,0.2-0.2V39c0-0.1-0.1-0.2-0.2-0.2h-0.4c-0.1,0-0.2-0.1-0.2-0.2l-0.2-0.5c0-0.1,0-0.2,0-0.3l0.3-0.3
					c0.1-0.1,0.1-0.2,0-0.2L32.4,37c-0.1-0.1-0.2-0.1-0.2,0L32,37.4c-0.1,0.1-0.2,0.1-0.2,0l-0.5-0.2c-0.1,0-0.2-0.1-0.2-0.2v-0.4
					c0-0.1-0.1-0.2-0.2-0.2h-0.4c-0.1,0-0.2,0.1-0.2,0.2V37c0,0.1-0.1,0.2-0.2,0.2l-0.5,0.2c-0.1,0-0.2,0-0.2,0l-0.3-0.3
					c-0.1-0.1-0.2-0.1-0.2,0l-0.3,0.3c-0.1,0.1-0.1,0.2,0,0.2l0.3,0.3c0.1,0.1,0.1,0.2,0,0.3l-0.2,0.5c0,0.1-0.1,0.2-0.2,0.2h-0.4
					c-0.1,0-0.2,0.1-0.2,0.2v0.4c0,0.1,0.1,0.2,0.2,0.2h0.4c0.1,0,0.2,0.1,0.2,0.2l0.2,0.5c0,0.1,0,0.2,0,0.2l-0.3,0.3
					c-0.1,0.1-0.1,0.2,0,0.2l0.3,0.3c0.1,0.1,0.2,0.1,0.2,0l0.3-0.3c0.1-0.1,0.2-0.1,0.2,0l0.5,0.2c0.1,0,0.2,0.1,0.2,0.2v0.4
					c0,0.1,0.1,0.2,0.2,0.2h0.4c0.1,0,0.2-0.1,0.2-0.2v-0.4c0-0.1,0.1-0.2,0.2-0.2l0.5-0.2c0.1,0,0.2,0,0.2,0l0.3,0.3
					C32.3,41.3,32.4,41.3,32.4,41.3z M30.7,40.4c-0.7,0-1.3-0.6-1.3-1.3s0.6-1.3,1.3-1.3c0.7,0,1.3,0.6,1.3,1.3
					C31.9,39.9,31.4,40.4,30.7,40.4z"/>
			</g>
		</g>
		<g>
			<g>
				<path class="st6" d="M35.4,42.5l-0.1-0.3c0-0.1-0.1-0.1-0.1-0.1L35,42.2c-0.1,0-0.1,0-0.1-0.1l-0.2-0.3c0,0,0-0.1,0-0.2l0.1-0.2
					v-0.1l-0.2-0.1h-0.1l-0.1,0.2l-0.1,0.1H34c-0.1,0-0.1,0-0.1-0.1l-0.1-0.2c0-0.1-0.1-0.1-0.1-0.1l-0.3,0.1
					c-0.1,0-0.1,0.1-0.1,0.1l0.1,0.2c0,0.1,0,0.1-0.1,0.1L32.7,42c0,0-0.1,0-0.2,0l-0.2-0.1h-0.1l-0.1,0.2v0.1l0.2,0.1l0.1,0.1v0.3
					c0,0.1,0,0.1-0.1,0.1l-0.2,0.1C32,42.9,32,43,32,43l0.1,0.3c0,0.1,0.1,0.1,0.1,0.1l0.2-0.1c0.1,0,0.1,0,0.1,0.1l0.2,0.3
					c0,0,0,0.1,0,0.2l-0.1,0.2v0.1l0.2,0.1h0.1l0.1-0.2l0.1-0.1h0.3c0.1,0,0.1,0,0.1,0.1l0.1,0.2c0,0.1,0.1,0.1,0.1,0.1l0.3-0.1
					c0.1,0,0.1-0.1,0.1-0.1L34,44c0-0.1,0-0.1,0.1-0.1l0.3-0.2c0,0,0.1,0,0.2,0l0.2,0.1h0.1l0.1-0.2v-0.1l0-0.2l-0.1-0.1v-0.4
					c0-0.1,0-0.1,0.1-0.1l0.2-0.1C35.3,42.6,35.4,42.5,35.4,42.5z M34.4,43.2c-0.2,0.4-0.7,0.5-1.1,0.3c-0.4-0.2-0.5-0.7-0.3-1.1
					c0.2-0.4,0.7-0.5,1.1-0.3C34.4,42.3,34.6,42.8,34.4,43.2z"/>
			</g>
		</g>
	</g>
	<g>
		<path class="st3" d="M48.1,47.4h-7c-0.1,0-0.2-0.1-0.2-0.2c0-0.1,0.1-0.2,0.2-0.2h7c0.1,0,0.2,0.1,0.2,0.2
			C48.3,47.3,48.2,47.4,48.1,47.4z"/>
	</g>
	<g>
		<path class="st3" d="M33.7,50.6H22.4c-0.1,0-0.2-0.1-0.2-0.2c0-0.1,0.1-0.2,0.2-0.2h11.4c0.1,0,0.2,0.1,0.2,0.2
			S33.9,50.6,33.7,50.6z"/>
	</g>
	<g>
		<path class="st3" d="M88.3,56.6H76.9c-0.1,0-0.2-0.1-0.2-0.2c0-0.1,0.1-0.2,0.2-0.2h11.4c0.1,0,0.2,0.1,0.2,0.2
			S88.4,56.6,88.3,56.6z"/>
	</g>
	<g>
		<path class="st3" d="M92.8,80.2H6.7c-0.1,0-0.2-0.1-0.2-0.2s0.1-0.2,0.2-0.2h86.1c0.1,0,0.2,0.1,0.2,0.2
			C93,80.1,92.9,80.2,92.8,80.2z"/>
	</g>
	<g>
		<g>
			<g>
				<path class="st6" d="M61.2,44.6c-0.5,0-0.9,0.2-1.3,0.5c-0.6,0.6-0.7,1.5-0.3,2.2v0.1l-1.8,1.8c0,0-0.1,0.1-0.1,0.2
					c0,0.1,0,0.2,0.1,0.3s0.2,0.1,0.3,0.1s0.2-0.1,0.2-0.1l1.8-1.8h0.1c0.3,0.2,0.6,0.2,0.9,0.2c0.5,0,0.9-0.2,1.3-0.5
					c0.7-0.7,0.7-1.9,0-2.6C62.1,44.8,61.7,44.6,61.2,44.6z M61.2,47.6c-0.7,0-1.3-0.6-1.3-1.3s0.6-1.3,1.3-1.3l0,0
					c0.7,0,1.3,0.6,1.3,1.3C62.5,47.1,61.9,47.6,61.2,47.6z"/>
			</g>
		</g>
		<g>
			<g>
				<path class="st6" d="M60.5,46.6h1.3v-0.3h-1.3V46.6z"/>
			</g>
		</g>
	</g>
	<g>
		<g>
			<path class="st3" d="M27.6,79.7c-0.1,0-0.2-0.1-0.2-0.2V62.3c0-0.1,0.1-0.2,0.2-0.2s0.2,0.1,0.2,0.2v17.3
				C27.9,79.6,27.8,79.7,27.6,79.7z"/>
		</g>
		<g>
			<path class="st3" d="M31.6,79.7c-0.1,0-0.2-0.1-0.2-0.2V62.3c0-0.1,0.1-0.2,0.2-0.2s0.2,0.1,0.2,0.2v17.3
				C31.9,79.6,31.8,79.7,31.6,79.7z"/>
		</g>
		<g>
			<path class="st3" d="M31.6,63.7h-4c-0.1,0-0.2-0.1-0.2-0.2c0-0.1,0.1-0.2,0.2-0.2h4c0.1,0,0.2,0.1,0.2,0.2
				C31.9,63.6,31.8,63.7,31.6,63.7z"/>
		</g>
		<g>
			<path class="st3" d="M31.6,65.6h-4c-0.1,0-0.2-0.1-0.2-0.2s0.1-0.2,0.2-0.2h4c0.1,0,0.2,0.1,0.2,0.2
				C31.9,65.5,31.8,65.6,31.6,65.6z"/>
		</g>
		<g>
			<path class="st3" d="M31.6,67.6h-4c-0.1,0-0.2-0.1-0.2-0.2s0.1-0.2,0.2-0.2h4c0.1,0,0.2,0.1,0.2,0.2
				C31.9,67.5,31.8,67.6,31.6,67.6z"/>
		</g>
		<g>
			<path class="st3" d="M31.6,69.6h-4c-0.1,0-0.2-0.1-0.2-0.2s0.1-0.2,0.2-0.2h4c0.1,0,0.2,0.1,0.2,0.2
				C31.9,69.5,31.8,69.6,31.6,69.6z"/>
		</g>
		<g>
			<path class="st3" d="M31.6,71.5h-4c-0.1,0-0.2-0.1-0.2-0.2s0.1-0.2,0.2-0.2h4c0.1,0,0.2,0.1,0.2,0.2
				C31.9,71.4,31.8,71.5,31.6,71.5z"/>
		</g>
		<g>
			<path class="st3" d="M31.6,73.5h-4c-0.1,0-0.2-0.1-0.2-0.2s0.1-0.2,0.2-0.2h4c0.1,0,0.2,0.1,0.2,0.2
				C31.9,73.4,31.8,73.5,31.6,73.5z"/>
		</g>
		<g>
			<path class="st3" d="M31.6,75.5h-4c-0.1,0-0.2-0.1-0.2-0.2s0.1-0.2,0.2-0.2h4c0.1,0,0.2,0.1,0.2,0.2
				C31.9,75.4,31.8,75.5,31.6,75.5z"/>
		</g>
		<g>
			<path class="st3" d="M31.6,77.5h-4c-0.1,0-0.2-0.1-0.2-0.2s0.1-0.2,0.2-0.2h4c0.1,0,0.2,0.1,0.2,0.2
				C31.9,77.4,31.8,77.5,31.6,77.5z"/>
		</g>
	</g>
	<g>
		<g>
			<path class="st3" d="M22.2,63.1c-0.1,0-0.2-0.1-0.2-0.2V62c0-0.1,0.1-0.2,0.2-0.2s0.2,0.1,0.2,0.2v0.9
				C22.4,63,22.3,63.1,22.2,63.1z"/>
		</g>
		<g>
			<path class="st3" d="M22.6,62.7h-0.9c-0.1,0-0.2-0.1-0.2-0.2c0-0.1,0.1-0.2,0.2-0.2h0.9c0.1,0,0.2,0.1,0.2,0.2
				C22.8,62.6,22.7,62.7,22.6,62.7z"/>
		</g>
	</g>
	<g>
		<g>
			<path class="st3" d="M42.3,31.9c-0.1,0-0.2-0.1-0.2-0.2v-0.9c0-0.1,0.1-0.2,0.2-0.2c0.1,0,0.2,0.1,0.2,0.2v0.9
				C42.5,31.8,42.4,31.9,42.3,31.9z"/>
		</g>
		<g>
			<path class="st3" d="M42.8,31.4h-0.9c-0.1,0-0.2-0.1-0.2-0.2s0.1-0.2,0.2-0.2h0.9c0.1,0,0.2,0.1,0.2,0.2S42.9,31.4,42.8,31.4z"/>
		</g>
	</g>
	<g>
		<g>
			<path class="st3" d="M49.4,77.1C49.4,77.1,49.3,77.1,49.4,77.1l-0.9-0.2c-0.1,0-0.2-0.2-0.2-0.3c0-0.1,0.2-0.2,0.3-0.2l0.8,0.2
				c0.1,0,0.2,0.2,0.2,0.3C49.6,77,49.5,77.1,49.4,77.1z"/>
		</g>
		<g>
			<path class="st3" d="M48.8,77.4L48.8,77.4c-0.2,0-0.2-0.2-0.2-0.3l0.2-0.8c0-0.1,0.2-0.2,0.3-0.2s0.2,0.2,0.2,0.3l-0.2,0.8
				C49,77.3,48.9,77.4,48.8,77.4z"/>
		</g>
	</g>
	<g>
		<g>
			<path class="st3" d="M45,50.7C45,50.7,44.9,50.7,45,50.7l-0.9-0.2c-0.1,0-0.2-0.2-0.2-0.3s0.2-0.2,0.3-0.2l0.8,0.2
				c0.1,0,0.2,0.2,0.2,0.3C45.2,50.6,45.1,50.7,45,50.7z"/>
		</g>
		<g>
			<path class="st3" d="M44.4,51L44.4,51c-0.2,0-0.2-0.2-0.2-0.3l0.2-0.8c0-0.1,0.2-0.2,0.3-0.2s0.2,0.2,0.2,0.3l-0.2,0.8
				C44.6,50.9,44.5,51,44.4,51z"/>
		</g>
	</g>
	<g>
		<g>
			<g>
				<circle class="st6" cx="44.4" cy="42.4" r="3.1"/>
			</g>
		</g>
		<g>
			<g>
				<g>
					<circle class="st4" cx="44.4" cy="42.4" r="2.3"/>
				</g>
			</g>
			<g>
				<g>
					<g>
						<path class="st3" d="M44.4,44.9c-1.3,0-2.4-1.1-2.4-2.4s1.1-2.4,2.4-2.4s2.4,1.1,2.4,2.4S45.7,44.9,44.4,44.9z M44.4,40.2
							c-1.2,0-2.2,1-2.2,2.2s1,2.2,2.2,2.2s2.2-1,2.2-2.2S45.6,40.2,44.4,40.2z"/>
					</g>
				</g>
			</g>
		</g>
		<g>
			<g>
				<g>
					<path class="st3" d="M44.4,42.5C44.3,42.5,44.3,42.5,44.4,42.5l-0.1-1.3c0,0,0-0.1,0.1-0.1c0,0,0.1,0,0.1,0.1L44.4,42.5
						C44.5,42.5,44.4,42.5,44.4,42.5z"/>
				</g>
			</g>
			<g>
				<g>
					<path class="st3" d="M45.8,42.5h-1.4c0,0-0.1,0-0.1-0.1c0,0,0-0.1,0.1-0.1h1.4C45.8,42.4,45.9,42.4,45.8,42.5
						C45.9,42.5,45.8,42.5,45.8,42.5z"/>
				</g>
			</g>
		</g>
		<g>
			<g>
				<g>
					<circle class="st3" cx="44.4" cy="40.4" r="0.1"/>
				</g>
			</g>
			<g>
				<g>
					
						<ellipse transform="matrix(0.7071 -0.7071 0.7071 0.7071 -15.5205 44.4539)" class="st3" cx="45.9" cy="41" rx="0.1" ry="0.1"/>
				</g>
			</g>
			<g>
				<g>
					<circle class="st3" cx="46.5" cy="42.4" r="0.1"/>
				</g>
			</g>
			<g>
				<g>
					
						<ellipse transform="matrix(0.7072 -0.707 0.707 0.7072 -17.5847 45.2847)" class="st3" cx="45.9" cy="43.9" rx="0.1" ry="0.1"/>
				</g>
			</g>
			<g>
				<g>
					<circle class="st3" cx="44.4" cy="44.5" r="0.1"/>
				</g>
			</g>
			<g>
				<g>
					
						<ellipse transform="matrix(0.707 -0.7072 0.7072 0.707 -18.4887 43.2095)" class="st3" cx="42.9" cy="43.9" rx="0.1" ry="0.1"/>
				</g>
			</g>
			<g>
				<g>
					<circle class="st3" cx="42.3" cy="42.4" r="0.1"/>
				</g>
			</g>
			<g>
				<g>
					
						<ellipse transform="matrix(0.7071 -0.7071 0.7071 0.7071 -16.4298 42.3633)" class="st3" cx="42.9" cy="41" rx="0.1" ry="0.1"/>
				</g>
			</g>
		</g>
		<g>
			<g>
				<g>
					<path class="st3" d="M48.9,41.3h-1.3c0,0-0.1,0-0.1-0.1s0-0.1,0.1-0.1h1.3C49,41.1,49,41.1,48.9,41.3
						C49,41.2,49,41.3,48.9,41.3z"/>
				</g>
			</g>
			<g>
				<g>
					<path class="st3" d="M48.9,43.8h-1.3c0,0-0.1,0-0.1-0.1s0-0.1,0.1-0.1h1.3C49,43.6,49,43.7,48.9,43.8
						C49,43.8,49,43.8,48.9,43.8z"/>
				</g>
			</g>
			<g>
				<g>
					<path class="st3" d="M50.6,42.5h-2.4c0,0-0.1,0-0.1-0.1c0,0,0-0.1,0.1-0.1h2.4C50.6,42.4,50.7,42.4,50.6,42.5
						C50.7,42.5,50.6,42.5,50.6,42.5z"/>
				</g>
			</g>
		</g>
	</g>
	<g>
		<g>
			<rect x="53.4" y="76.2" class="st4" width="1.4" height="1.4"/>
			<path class="st5" d="M54.9,77.7h-1.7V76h1.7V77.7z M53.5,77.5h1.2v-1.2h-1.2V77.5z"/>
		</g>
		<g>
			<g>
				<g>
					<path class="st3" d="M56.7,76.5h-1.3c0,0-0.1,0-0.1-0.1c0,0,0-0.1,0.1-0.1h1.3C56.7,76.3,56.7,76.3,56.7,76.5
						C56.7,76.4,56.7,76.5,56.7,76.5z"/>
				</g>
			</g>
			<g>
				<g>
					<path class="st3" d="M57.2,77.5h-1.8c-0.1,0-0.1,0-0.1-0.1l0.1-0.1h1.8C57.3,77.3,57.3,77.3,57.2,77.5L57.2,77.5z"/>
				</g>
			</g>
			<g>
				<g>
					<path class="st3" d="M57.8,76.9h-2.4c0,0-0.1,0-0.1-0.1c0,0,0-0.1,0.1-0.1h2.4C57.8,76.8,57.9,76.8,57.8,76.9
						C57.9,76.9,57.8,76.9,57.8,76.9z"/>
				</g>
			</g>
		</g>
	</g>
	<g>
		<g>
			<rect x="21.7" y="55" class="st4" width="1.4" height="1.4"/>
			<path class="st5" d="M23.2,56.5h-1.7v-1.7h1.7V56.5z M21.8,56.3H23v-1.2h-1.2V56.3z"/>
		</g>
		<g>
			<g>
				<g>
					<path class="st3" d="M19.9,55.3h1.3c0,0,0.1,0,0.1-0.1c0,0,0-0.1-0.1-0.1h-1.3C19.8,55.1,19.8,55.2,19.9,55.3
						C19.8,55.3,19.8,55.3,19.9,55.3z"/>
				</g>
			</g>
			<g>
				<g>
					<path class="st3" d="M19.4,56.3h1.8c0.1,0,0.1,0,0.1-0.1s-0.1-0.1-0.1-0.1h-1.8c-0.1,0-0.1,0-0.1,0.1S19.3,56.3,19.4,56.3z"/>
				</g>
			</g>
			<g>
				<g>
					<path class="st3" d="M18.7,55.8h2.4c0,0,0.1,0,0.1-0.1s0-0.1-0.1-0.1h-2.4C18.7,55.6,18.6,55.6,18.7,55.8
						C18.6,55.7,18.7,55.8,18.7,55.8z"/>
				</g>
			</g>
		</g>
	</g>
	<g>
		<g>
			<rect x="65.7" y="60.4" class="st7" width="0.4" height="19.3"/>
		</g>
		<g>
			<path class="st6" d="M66,62.7h-0.2c-0.7,0-1.3-0.6-1.3-1.3v-1.9c0-0.7,0.6-1.3,1.3-1.3H66c0.7,0,1.3,0.6,1.3,1.3v1.9
				C67.3,62.2,66.7,62.7,66,62.7z"/>
		</g>
		<g>
			<g>
				<path class="st7" d="M67.7,61.4c0.2,0,0.3,0.1,0.5,0.1c0.1,0,0.2-0.1,0-0.2c-0.2,0-0.3-0.1-0.5-0.1
					C67.7,61.3,67.6,61.4,67.7,61.4L67.7,61.4z"/>
			</g>
		</g>
		<g>
			<g>
				<path class="st7" d="M67.7,60.4c0.1,0,0.2,0,0.4,0c0.1,0,0.1-0.2,0-0.2s-0.3,0-0.4,0C67.6,60.3,67.6,60.4,67.7,60.4L67.7,60.4z"
					/>
			</g>
		</g>
		<g>
			<g>
				<path class="st7" d="M67.7,59.5c0.1,0,0.2-0.1,0.4-0.1c0.1,0,0.1-0.2,0-0.2s-0.2,0.1-0.4,0.1C67.5,59.4,67.6,59.5,67.7,59.5
					L67.7,59.5z"/>
			</g>
		</g>
		<g>
			<g>
				<path class="st7" d="M63.6,61.6c0.1,0,0.2,0,0.4-0.1c0.1,0,0.1-0.2,0-0.2s-0.2,0.1-0.4,0.1C63.4,61.5,63.5,61.6,63.6,61.6
					L63.6,61.6z"/>
			</g>
		</g>
		<g>
			<g>
				<path class="st7" d="M63.3,60.4c0.2,0,0.3,0,0.5,0.1c0.1,0,0.1-0.1,0-0.2c-0.2,0-0.3-0.1-0.5-0.1C63.2,60.2,63.2,60.4,63.3,60.4
					L63.3,60.4z"/>
			</g>
		</g>
		<g>
			<g>
				<path class="st7" d="M63.5,59c0.1,0,0.2,0.1,0.4,0.1c0.1,0,0.1-0.1,0-0.2c-0.1,0-0.2-0.1-0.4-0.1C63.4,58.8,63.4,59,63.5,59
					L63.5,59z"/>
			</g>
		</g>
		<g>
			<polygon class="st3" points="64.9,79.9 65.2,77.4 66.7,77.4 67,79.9 			"/>
		</g>
	</g>
	<g>
		<g>
			<g>
				<g>
					<path class="st1" d="M23.8,67.6c-0.1-0.4-0.4-1.5-1-1.1c-1,0.5,0.2,2.6-1,3c-0.1-0.8-0.2-1.4-0.6-1.4c-0.8,0.1-0.6,1.8-0.6,2.2
						c0,0.4,0,0.8-0.1,1.2c-0.9,0.2-0.7-2.2-1.3-2.5c-0.8-0.5-1,0.6-1,1.1c0,0.9,0.3,1.9,1.1,2.4c0.3,0.2,0.8,0.3,1.1,0.3
						c0,0.7,0,1.4,0.1,2.1l0,0l0,0H21l0,0c0,0.2,0.3,0.2,0.3,0c0-0.4,0.3-2.5,0.3-4.3c0.4,0.1,0.9-0.1,1.2-0.3
						C23.8,69.7,23.9,68.6,23.8,67.6z"/>
				</g>
				<g>
					<path class="st1" d="M21.3,75.3c-0.1,0-0.1,0-0.1,0c-0.1,0-0.1-0.1-0.1-0.1h-0.4h-0.1v-0.1c-0.1-0.6-0.1-1.2-0.1-2
						c-0.4,0-0.9-0.2-1.1-0.3c-0.9-0.5-1.1-1.6-1.2-2.5c0-0.3,0.1-1.1,0.4-1.3c0.2-0.1,0.4-0.1,0.7,0.1c0.3,0.2,0.4,0.6,0.5,1.2
						c0.2,0.8,0.3,1.3,0.6,1.3v-0.2c0-0.3,0-0.6,0-0.9c0-0.1,0-0.2,0-0.3c0-0.7-0.1-2,0.7-2.1c0.1,0,0.2,0,0.3,0.1
						c0.2,0.2,0.3,0.6,0.4,1.2c0.5-0.2,0.4-0.7,0.4-1.4c0-0.6-0.1-1.3,0.5-1.6c0.2-0.1,0.3-0.1,0.5,0c0.5,0.2,0.6,1.1,0.6,1.2l0,0
						c0.1,0.7,0.2,2.1-0.8,2.9c-0.3,0.2-0.8,0.4-1.2,0.4c0,1.2-0.1,2.4-0.2,3.3c0,0.4-0.1,0.8-0.1,0.9S21.5,75.3,21.3,75.3
						C21.4,75.2,21.3,75.3,21.3,75.3z M20.7,74.9h0.5V75v0.1h0.1c0,0,0,0,0-0.1s0-0.5,0.1-0.9c0.1-0.9,0.2-2.2,0.2-3.4v-0.1h0.1
						c0.4,0.1,0.9-0.1,1.1-0.3c0.9-0.7,0.9-2,0.8-2.7l0,0c0-0.3-0.2-0.9-0.5-1.1c-0.1-0.1-0.2,0-0.3,0c-0.4,0.2-0.4,0.8-0.4,1.4
						s0.1,1.4-0.7,1.6h-0.1v-0.1c-0.1-0.8-0.2-1.1-0.3-1.2c-0.1,0-0.1-0.1-0.2-0.1c-0.6,0.1-0.5,1.3-0.5,1.9c0,0.1,0,0.2,0,0.3
						c0,0.3,0,0.6,0,1v0.3h-0.1c-0.6,0.1-0.8-0.7-0.9-1.4c-0.1-0.5-0.2-1-0.4-1.1c-0.2-0.1-0.4-0.1-0.5,0c-0.3,0.2-0.4,0.8-0.4,1.1
						c0,0.8,0.2,1.9,1.1,2.3c0.3,0.2,0.7,0.3,1.1,0.3h0.1v0.1C20.6,73.7,20.6,74.3,20.7,74.9z"/>
				</g>
			</g>
			<g>
				<g>
					<g>
						<path class="st5" d="M22.8,79.7h-3.6c-0.2,0-0.4-0.1-0.4-0.3L18,75.1l0.3-0.1l0.8,4.3l0,0h3.6l0,0l0.8-4.3l0.3,0.1L23,79.4
							C23.1,79.6,23,79.7,22.8,79.7z"/>
					</g>
				</g>
			</g>
			<g>
				<g>
					<g>
						<path class="st6" d="M18,73.8h6c0.1,0,0.2,0.1,0.2,0.3V75c0,0.1-0.1,0.3-0.2,0.3h-6c-0.1,0-0.2-0.1-0.2-0.3v-1
							C17.8,73.9,17.8,73.8,18,73.8z"/>
					</g>
					<g>
						<path class="st3" d="M24,75.3h-6c-0.2,0-0.3-0.2-0.3-0.3v-1c0-0.2,0.1-0.3,0.3-0.3h6c0.2,0,0.3,0.2,0.3,0.3v1
							C24.3,75.1,24.2,75.3,24,75.3z M18,73.9c0,0-0.1,0.1-0.1,0.2V75c0,0.1,0,0.2,0.1,0.2h6c0,0,0.1-0.1,0.1-0.2v-1
							c0-0.1,0-0.2-0.1-0.2L18,73.9L18,73.9z"/>
					</g>
				</g>
				<g>
					<g>
						<path class="st6" d="M24,75.3h-6c-0.1,0-0.3-0.1-0.3-0.3v-1c0-0.2,0.1-0.3,0.3-0.3h6c0.1,0,0.3,0.1,0.3,0.3v1
							C24.3,75.1,24.2,75.3,24,75.3z M18,73.9c-0.1,0-0.1,0.1-0.1,0.2V75c0,0.1,0.1,0.2,0.1,0.2h6c0.1,0,0.1-0.1,0.1-0.2v-1
							c0-0.1-0.1-0.2-0.1-0.2L18,73.9L18,73.9z"/>
					</g>
					<g>
						<path class="st3" d="M24,75.4h-6c-0.2,0-0.4-0.2-0.4-0.4v-1c0-0.2,0.2-0.4,0.4-0.4h6c0.2,0,0.4,0.2,0.4,0.4v1
							C24.4,75.2,24.2,75.4,24,75.4z M18,74C18,74,17.9,74,18,74v1v0.1h6c0,0,0,0,0-0.1v-1v-0.1L18,74z"/>
					</g>
				</g>
			</g>
		</g>
		<g>
			<g>
				<path class="st2" d="M18.6,70.2c0.1,0,0.2,0,0.3,0c0.1,0,0.1-0.2,0-0.2s-0.2,0-0.3,0C18.5,70,18.5,70.2,18.6,70.2L18.6,70.2z"/>
			</g>
		</g>
		<g>
			<g>
				<path class="st2" d="M19.1,68.8L19.1,68.8c0,0.2,0.2,0.2,0.2,0.1v-0.1C19.2,68.7,19.1,68.7,19.1,68.8L19.1,68.8z"/>
			</g>
		</g>
		<g>
			<g>
				<path class="st2" d="M19.6,70.4c0.1,0,0.1-0.1,0.2-0.1c0.1-0.1,0-0.2-0.1-0.1c-0.1,0-0.1,0.1-0.2,0.1
					C19.5,70.3,19.5,70.4,19.6,70.4L19.6,70.4z"/>
			</g>
		</g>
		<g>
			<g>
				<path class="st2" d="M18.8,72.3c0.1-0.1,0.2-0.1,0.3-0.2c0.1-0.1,0-0.2-0.1-0.1s-0.2,0.1-0.3,0.2C18.6,72.2,18.7,72.4,18.8,72.3
					L18.8,72.3z"/>
			</g>
		</g>
		<g>
			<g>
				<path class="st2" d="M18.1,70.9c0.1,0,0.1,0,0.2,0.1c0.1,0,0.1-0.1,0-0.2c-0.1,0-0.1,0-0.2-0.1C18.1,70.7,18,70.8,18.1,70.9
					L18.1,70.9z"/>
			</g>
		</g>
		<g>
			<g>
				<path class="st2" d="M19.4,71.7L19.4,71.7c0.2,0.1,0.3,0,0.2-0.1c-0.1-0.1-0.1-0.1-0.2-0.1S19.3,71.6,19.4,71.7L19.4,71.7z"/>
			</g>
		</g>
		<g>
			<g>
				<path class="st2" d="M19.7,72.4c0,0.1,0,0.2,0,0.3c0,0.1,0.2,0,0.1-0.1c0-0.1,0-0.1,0-0.2C19.9,72.4,19.7,72.3,19.7,72.4
					L19.7,72.4z"/>
			</g>
		</g>
		<g>
			<g>
				<path class="st2" d="M20.6,72.5h0.1c0.1,0,0.1-0.1,0-0.2h-0.1C20.5,72.3,20.5,72.4,20.6,72.5L20.6,72.5z"/>
			</g>
		</g>
		<g>
			<g>
				<path class="st2" d="M21.1,70.8c0,0.1,0,0.2,0.1,0.2c0.1,0.1,0.2,0,0.1-0.1l-0.1-0.1C21.3,70.7,21.2,70.7,21.1,70.8L21.1,70.8z"
					/>
			</g>
		</g>
		<g>
			<g>
				<path class="st2" d="M20.9,69.6c0,0.1-0.1,0.1,0,0.2c0,0.1,0.2,0.1,0.2,0v-0.1C21.1,69.6,21,69.5,20.9,69.6L20.9,69.6z"/>
			</g>
		</g>
		<g>
			<g>
				<path class="st2" d="M21.9,70.1L21.9,70.1c0,0.2,0.2,0.2,0.2,0.1v-0.1C22,70,21.9,70,21.9,70.1L21.9,70.1z"/>
			</g>
		</g>
		<g>
			<g>
				<path class="st2" d="M20.3,69.8c0,0,0.1,0,0.1,0.1c0.1,0.1,0.2-0.1,0.1-0.1c0,0-0.1,0-0.1-0.1C20.3,69.6,20.2,69.8,20.3,69.8
					L20.3,69.8z"/>
			</g>
		</g>
		<g>
			<g>
				<path class="st2" d="M20.6,68.5c0,0,0,0.1,0.1,0.1c0,0.1,0.2,0.1,0.2,0s0-0.2-0.1-0.2C20.6,68.3,20.5,68.4,20.6,68.5L20.6,68.5z
					"/>
			</g>
		</g>
		<g>
			<g>
				<path class="st2" d="M21,67.9c0,0.1,0,0.1,0,0.2s0.2,0.1,0.2,0s0-0.1,0-0.2S21,67.8,21,67.9L21,67.9z"/>
			</g>
		</g>
		<g>
			<g>
				<path class="st2" d="M22,68.9C22.1,69,22.1,69,22,68.9c0.1,0.2,0.3,0,0.2,0c0,0,0-0.1-0.1-0.1C22.1,68.7,22,68.9,22,68.9
					L22,68.9z"/>
			</g>
		</g>
		<g>
			<g>
				<path class="st2" d="M22.2,67.9c0.1,0,0.1,0,0.2,0s0.1-0.2,0-0.2s-0.1,0-0.2,0C22.1,67.8,22.1,67.9,22.2,67.9L22.2,67.9z"/>
			</g>
		</g>
		<g>
			<g>
				<path class="st2" d="M22.4,66.6l0.1,0.1c0.1,0.1,0.2,0,0.1-0.1l-0.1-0.1C22.5,66.4,22.4,66.5,22.4,66.6L22.4,66.6z"/>
			</g>
		</g>
		<g>
			<g>
				<path class="st2" d="M23.1,66.2c0,0.1,0,0.2,0,0.3c0,0.1,0.2,0.1,0.2,0s0-0.2,0-0.3C23.3,66,23.1,66,23.1,66.2L23.1,66.2z"/>
			</g>
		</g>
		<g>
			<g>
				<path class="st2" d="M23.4,67.7c0,0,0-0.1,0.1-0.1c0.1-0.1-0.1-0.2-0.1-0.1c0,0,0,0.1-0.1,0.1C23.2,67.7,23.3,67.8,23.4,67.7
					L23.4,67.7z"/>
			</g>
		</g>
		<g>
			<g>
				<path class="st8" d="M22.8,69.4c0.1,0,0.1,0,0.2-0.1c0.1,0,0.1-0.2,0-0.2s-0.1,0-0.2,0.1C22.7,69.3,22.7,69.4,22.8,69.4
					L22.8,69.4z"/>
			</g>
		</g>
		<g>
			<g>
				<path class="st2" d="M23.6,69.1c0.1,0,0.1,0,0.2,0s0.1-0.2,0-0.2s-0.1,0-0.2,0C23.4,69,23.5,69.2,23.6,69.1L23.6,69.1z"/>
			</g>
		</g>
		<g>
			<g>
				<path class="st2" d="M23.1,69.9C23.1,69.9,23.1,70,23.1,69.9c0,0.1,0.2,0.1,0.2,0l0,0C23.3,69.8,23.1,69.8,23.1,69.9L23.1,69.9z
					"/>
			</g>
		</g>
		<g>
			<g>
				<path class="st2" d="M21.6,72.5c0,0,0.1,0,0.1-0.1c0.1-0.1,0-0.2-0.1-0.1c0,0-0.1,0-0.1,0.1C21.5,72.4,21.6,72.6,21.6,72.5
					L21.6,72.5z"/>
			</g>
		</g>
		<g>
			<g>
				<path class="st2" d="M21.5,73.1c0.1-0.1,0.1-0.1,0.2-0.1s0.1-0.2,0-0.2S21.5,72.9,21.5,73.1C21.3,73.1,21.5,73.2,21.5,73.1
					L21.5,73.1z"/>
			</g>
		</g>
		<g>
			<g>
				<path class="st2" d="M20.9,73.2C20.9,73.2,20.9,73.3,20.9,73.2c0.1,0.2,0.2,0.1,0.2,0c0,0,0,0,0-0.1
					C20.9,73,20.8,73.1,20.9,73.2L20.9,73.2z"/>
			</g>
		</g>
		<g>
			<g>
				<path class="st2" d="M20.2,73.4c0.1,0,0.2,0.1,0.3,0c0.1,0,0.1-0.2,0-0.2s-0.1,0-0.2,0C20.2,73.2,20.1,73.4,20.2,73.4L20.2,73.4
					z"/>
			</g>
		</g>
		<g>
			<g>
				<path class="st2" d="M21.6,71.8c0.1,0,0.2,0,0.3,0c0.1,0,0.1-0.2,0-0.2s-0.2,0-0.3,0C21.5,71.7,21.5,71.8,21.6,71.8L21.6,71.8z"
					/>
			</g>
		</g>
	</g>
	<g>
		<g>
			<g>
				<path class="st9" d="M36.7,64.4c1.8-1.6,3.6-3.3,5.4-4.9c0.3-0.2-0.1-0.6-0.4-0.4c-1.8,1.6-3.6,3.3-5.4,4.9
					C36,64.3,36.4,64.7,36.7,64.4L36.7,64.4z"/>
			</g>
		</g>
		<g>
			<g>
				<path class="st9" d="M42.8,66.9c1.8-1.6,3.6-3.3,5.4-4.9c0.3-0.2-0.1-0.6-0.4-0.4c-1.8,1.6-3.6,3.3-5.4,4.9
					C42.1,66.8,42.5,67.2,42.8,66.9L42.8,66.9z"/>
			</g>
		</g>
		<g>
			<g>
				<path class="st9" d="M36.1,68.8c3.8-3.7,7.6-7.4,11.4-11.1c0.3-0.3-0.1-0.6-0.4-0.4c-3.8,3.7-7.6,7.4-11.4,11.1
					C35.5,68.7,35.9,69,36.1,68.8L36.1,68.8z"/>
			</g>
		</g>
	</g>
	<g>
		<g>
			<g>
				<g>
					<g>
						<rect x="53.3" y="34.3" class="st5" width="0.2" height="15.7"/>
					</g>
				</g>
				<g>
					<g>
						<circle class="st5" cx="53.4" cy="50" r="1"/>
					</g>
				</g>
				<g>
					<g>
						<path class="st5" d="M53.4,53.3c0,0-0.3,0-0.6-0.2c-0.2-0.2-0.2-0.4-0.2-0.7c0-0.1,0.1-0.1,0.1-0.1c0.1,0,0.1,0.1,0.1,0.1
							c0,0.2,0.1,0.4,0.2,0.5c0.2,0.2,0.4,0.2,0.4,0.2c0.4,0,0.7-0.3,0.7-0.7s-0.3-0.7-0.7-0.7c-0.1,0-0.1-0.1-0.1-0.1v-0.7
							c0-0.1,0.1-0.1,0.1-0.1l0.1,0.1v0.6c0.5,0.1,0.8,0.5,0.8,0.9C54.3,52.9,53.9,53.3,53.4,53.3L53.4,53.3z"/>
					</g>
				</g>
			</g>
			<g>
				<g>
					<g>
						<path class="st5" d="M48.2,53.9C48.1,53.9,48.1,53.9,48.2,53.9c-0.1-0.2-0.1-0.2,0-0.2l5.4-0.8c0.1,0,0.1,0,0.1,0.1
							s0,0.1-0.1,0.1L48.2,53.9L48.2,53.9z"/>
					</g>
				</g>
				<g>
					<g>
						<path class="st5" d="M58.5,55.7L58.5,55.7l-5-2.6c-0.1,0-0.1-0.1-0.1-0.2c0-0.1,0.1-0.1,0.2-0.1l4.9,2.6
							c0.1,0,0.1,0.1,0.1,0.2C58.6,55.7,58.6,55.7,58.5,55.7z"/>
					</g>
				</g>
				<g>
					<path class="st4" d="M54.7,65.4l-6.3-1.1c-2.6-0.4-4.3-2.9-3.9-5.5l0.1-0.7c0.4-2.6,2.9-4.3,5.5-3.9l6.3,1.1
						c2.6,0.4,4.3,2.9,3.9,5.5l-0.1,0.7C59.7,64.1,57.3,65.9,54.7,65.4z"/>
					<path class="st5" d="M58.3,66.2c-0.1,0-0.2,0-0.3,0l-13.1-2.3c-0.4-0.1-0.7-0.3-1-0.6c-0.2-0.3-0.3-0.7-0.2-1.1l1.3-7.5
						c0.1-0.8,0.9-1.3,1.7-1.2l13.1,2.3c0.4,0.1,0.7,0.3,1,0.6c0.2,0.3,0.3,0.7,0.2,1.1L59.7,65C59.6,65.7,59,66.2,58.3,66.2z
						 M46.5,53.8c-0.5,0-1,0.4-1.1,1l-1.3,7.5c-0.1,0.3,0,0.6,0.2,0.9c0.2,0.3,0.4,0.4,0.7,0.5L58.1,66c0.6,0.1,1.2-0.3,1.3-0.9
						l1.3-7.5c0.1-0.3,0-0.6-0.2-0.9c-0.2-0.3-0.4-0.4-0.7-0.5l-13.1-2.3C46.6,53.8,46.6,53.8,46.5,53.8z"/>
				</g>
				<g>
					<path class="st6" d="M55.1,64.7l-6.9-1.2c-2-0.4-3.4-2.3-3.1-4.3l0.2-1.1c0.4-2,2.3-3.4,4.3-3.1l6.9,1.2c2,0.4,3.4,2.3,3.1,4.3
						l-0.2,1.1C59.1,63.7,57.1,65,55.1,64.7z"/>
					<path class="st3" d="M58.1,65.4c-0.1,0-0.1,0-0.2,0l-12.6-2.2c-0.3,0-0.5-0.2-0.7-0.4s-0.2-0.5-0.2-0.8l1.2-6.9
						c0.1-0.5,0.6-0.9,1.2-0.8l12.6,2.2c0.5,0.1,0.9,0.6,0.8,1.2L59,64.6c0,0.3-0.2,0.5-0.4,0.7C58.5,65.3,58.3,65.4,58.1,65.4z
						 M58,65c0.2,0,0.4,0,0.5-0.1s0.2-0.3,0.3-0.4l1.2-6.9c0.1-0.4-0.2-0.7-0.5-0.8l-12.6-2.2c-0.4-0.1-0.7,0.2-0.8,0.5L44.9,62
						c0,0.2,0,0.4,0.1,0.5s0.3,0.2,0.4,0.3L58,65z"/>
				</g>
				<g>
					<polygon class="st4" points="52,64.2 55.3,61.1 57.1,65 					"/>
					<path class="st5" d="M57.3,65.2l-5.5-1l3.6-3.3L57.3,65.2z M52.2,64.1l4.7,0.8l-1.7-3.6L52.2,64.1z"/>
				</g>
				<g>
					<polygon class="st4" points="45.5,63 51.3,57.7 54.5,64.6 					"/>
					<path class="st5" d="M54.7,64.7l-9.5-1.6l6.1-5.6L54.7,64.7z M45.7,63l8.6,1.5l-3.1-6.6L45.7,63z"/>
				</g>
				<g>
					
						<ellipse transform="matrix(0.1712 -0.9852 0.9852 0.1712 -10.0999 105.1884)" class="st4" cx="57.5" cy="58.6" rx="0.8" ry="0.8"/>
					<path class="st5" d="M57.4,59.5c-0.1,0-0.1,0-0.2,0c-0.5-0.1-0.8-0.6-0.8-1.1c0-0.2,0.2-0.5,0.4-0.6s0.4-0.2,0.7-0.2
						c0.2,0,0.5,0.2,0.6,0.4s0.2,0.4,0.2,0.7c0,0.2-0.2,0.5-0.4,0.6C57.8,59.4,57.6,59.5,57.4,59.5z M57.4,57.9
						c-0.1,0-0.3,0-0.4,0.1c-0.2,0.1-0.3,0.3-0.3,0.5s0,0.4,0.1,0.5c0.1,0.2,0.3,0.3,0.5,0.3s0.4,0,0.5-0.1c0.2-0.1,0.3-0.3,0.3-0.5
						l0,0C58.2,58.3,57.9,58,57.4,57.9C57.5,57.9,57.5,57.9,57.4,57.9z"/>
				</g>
			</g>
			<g>
				<g>
					<rect x="51.2" y="33.8" class="st6" width="12.2" height="1.3"/>
				</g>
			</g>
			<g>
				<g>
					<g>
						<g>
							<g>
								<g>
									<path class="st5" d="M74.1,61.6H70V25.7h4.1V61.6z M70.4,61.2h3.3V26.1h-3.3V61.2z"/>
								</g>
							</g>
							<g>
								<g>
									<g>
										<path class="st5" d="M74,29.6h-4v-4h4V29.6z M70.5,29.2h3.1v-3.1h-3.1V29.2z"/>
									</g>
								</g>
								<g>
									<g>
										
											<rect x="71.9" y="25.2" transform="matrix(0.7071 -0.7071 0.7071 0.7071 1.5614 59.0873)" class="st5" width="0.4" height="5"/>
									</g>
								</g>
								<g>
									<g>
										
											<rect x="69.5" y="27.5" transform="matrix(0.7071 -0.7071 0.7071 0.7071 1.4906 59.0581)" class="st5" width="5" height="0.4"/>
									</g>
								</g>
							</g>
							<g>
								<g>
									<g>
										<path class="st5" d="M74,33.2h-4v-4h4V33.2z M70.5,32.8h3.1v-3.1h-3.1V32.8z"/>
									</g>
								</g>
								<g>
									<g>
										
											<rect x="71.9" y="28.7" transform="matrix(0.7071 -0.7071 0.7071 0.7071 -0.9332 60.093)" class="st5" width="0.4" height="5"/>
									</g>
								</g>
								<g>
									<g>
										
											<rect x="69.5" y="31" transform="matrix(0.7071 -0.7071 0.7071 0.7071 -1.0039 60.0637)" class="st5" width="5" height="0.4"/>
									</g>
								</g>
							</g>
							<g>
								<g>
									<g>
										<path class="st5" d="M74,36.7h-4v-4h4V36.7z M70.5,36.3h3.1v-3.1h-3.1V36.3z"/>
									</g>
								</g>
								<g>
									<g>
										
											<rect x="71.9" y="32.3" transform="matrix(0.7071 -0.7071 0.7071 0.7071 -3.4566 61.1689)" class="st5" width="0.4" height="5"/>
									</g>
								</g>
								<g>
									<g>
										
											<rect x="69.5" y="34.6" transform="matrix(0.7071 -0.7071 0.7071 0.7071 -3.5293 61.1414)" class="st5" width="5" height="0.4"/>
									</g>
								</g>
							</g>
							<g>
								<g>
									<g>
										<path class="st5" d="M74,40.3h-4v-4h4V40.3z M70.5,39.9h3.1v-3.1h-3.1V39.9z"/>
									</g>
								</g>
								<g>
									<g>
										
											<rect x="71.9" y="35.8" transform="matrix(0.7071 -0.7071 0.7071 0.7071 -5.9512 62.1746)" class="st5" width="0.4" height="5"/>
									</g>
								</g>
								<g>
									<g>
										
											<rect x="69.5" y="38.1" transform="matrix(0.7071 -0.7071 0.7071 0.7071 -6.0221 62.1454)" class="st5" width="5" height="0.4"/>
									</g>
								</g>
							</g>
							<g>
								<g>
									<g>
										<path class="st5" d="M74,43.8h-4v-4h4V43.8z M70.5,43.4h3.1v-3.1h-3.1V43.4z"/>
									</g>
								</g>
								<g>
									<g>
										
											<rect x="71.9" y="39.4" transform="matrix(0.7071 -0.7071 0.7071 0.7071 -8.4751 63.2509)" class="st5" width="0.4" height="5"/>
									</g>
								</g>
								<g>
									<g>
										
											<rect x="69.5" y="41.7" transform="matrix(0.7071 -0.7071 0.7071 0.7071 -8.5477 63.2231)" class="st5" width="5" height="0.4"/>
									</g>
								</g>
							</g>
							<g>
								<g>
									<g>
										<path class="st5" d="M74,47.4h-4v-4h4V47.4z M70.5,47h3.1v-3.1h-3.1V47z"/>
									</g>
								</g>
								<g>
									<g>
										
											<rect x="71.9" y="42.9" transform="matrix(0.7071 -0.7071 0.7071 0.7071 -10.9692 64.2562)" class="st5" width="0.4" height="5"/>
									</g>
								</g>
								<g>
									<g>
										
											<rect x="69.5" y="45.2" transform="matrix(0.7071 -0.7071 0.7071 0.7071 -11.0422 64.2286)" class="st5" width="5" height="0.4"/>
									</g>
								</g>
							</g>
							<g>
								<g>
									<g>
										<path class="st5" d="M74,50.9h-4v-4h4V50.9z M70.5,50.5h3.1v-3.1h-3.1V50.5z"/>
									</g>
								</g>
								<g>
									<g>
										
											<rect x="71.8" y="46.4" transform="matrix(0.7071 -0.7071 0.7071 0.7071 -13.464 65.2619)" class="st5" width="0.4" height="5"/>
									</g>
								</g>
								<g>
									<g>
										
											<rect x="69.5" y="48.8" transform="matrix(0.7071 -0.7071 0.7071 0.7071 -13.5661 65.3047)" class="st5" width="5" height="0.4"/>
									</g>
								</g>
							</g>
							<g>
								<g>
									<g>
										<path class="st5" d="M74,54.5h-4v-4h4V54.5z M70.5,54.1h3.1V51h-3.1V54.1z"/>
									</g>
								</g>
								<g>
									<g>
										
											<rect x="71.9" y="50" transform="matrix(0.7071 -0.7071 0.7071 0.7071 -15.9876 66.3381)" class="st5" width="0.4" height="5"/>
									</g>
								</g>
								<g>
									<g>
										
											<rect x="69.5" y="52.3" transform="matrix(0.7071 -0.7071 0.7071 0.7071 -16.0607 66.3102)" class="st5" width="5" height="0.4"/>
									</g>
								</g>
							</g>
							<g>
								<g>
									<g>
										<path class="st5" d="M74,58h-4v-4h4V58z M70.5,57.6h3.1v-3.1h-3.1V57.6z"/>
									</g>
								</g>
								<g>
									<g>
										
											<rect x="71.8" y="53.5" transform="matrix(0.7071 -0.7071 0.7071 0.7071 -18.4822 67.3437)" class="st5" width="0.4" height="5"/>
									</g>
								</g>
								<g>
									<g>
										
											<rect x="69.5" y="55.9" transform="matrix(0.7071 -0.7071 0.7071 0.7071 -18.5552 67.3157)" class="st5" width="5" height="0.4"/>
									</g>
								</g>
							</g>
							<g>
								<g>
									<g>
										<path class="st5" d="M74,61.6h-4v-4h4V61.6z M70.5,61.2h3.1V58h-3.1V61.2z"/>
									</g>
								</g>
								<g>
									<g>
										
											<rect x="71.9" y="57.1" transform="matrix(0.7071 -0.7071 0.7071 0.7071 -21.0054 68.4196)" class="st5" width="0.4" height="5"/>
									</g>
								</g>
								<g>
									<g>
										
											<rect x="69.5" y="59.4" transform="matrix(0.7072 -0.707 0.707 0.7072 -21.0749 68.3759)" class="st5" width="5" height="0.4"/>
									</g>
								</g>
							</g>
						</g>
						<g>
							<g>
								<g>
									<g>
										<path class="st5" d="M81.1,33.1h-4v-4h4V33.1z M77.5,32.7h3.1v-3.1h-3.1V32.7z"/>
									</g>
								</g>
								<g>
									<g>
										
											<rect x="76.6" y="31" transform="matrix(0.707 -0.7072 0.7072 0.707 1.1176 65.1022)" class="st5" width="5" height="0.4"/>
									</g>
								</g>
								<g>
									<g>
										
											<rect x="78.9" y="28.7" transform="matrix(0.7071 -0.7071 0.7071 0.7071 1.1151 65.0889)" class="st5" width="0.4" height="5"/>
									</g>
								</g>
							</g>
							<g>
								<g>
									<g>
										<path class="st5" d="M77.5,33.1h-4v-4h4V33.1z M74,32.7h3.1v-3.1H74V32.7z"/>
									</g>
								</g>
								<g>
									<g>
										
											<rect x="73.1" y="31" transform="matrix(0.707 -0.7072 0.7072 0.707 0.1118 62.6073)" class="st5" width="5" height="0.4"/>
									</g>
								</g>
								<g>
									<g>
										
											<rect x="75.4" y="28.7" transform="matrix(0.7071 -0.7071 0.7071 0.7071 0.1098 62.5943)" class="st5" width="0.4" height="5"/>
									</g>
								</g>
							</g>
							<g>
								<g>
									<path class="st5" d="M74,33.1h-4v-4h4V33.1z M70.4,32.7h3.1v-3.1h-3.1V32.7z"/>
								</g>
							</g>
							<g>
								<g>
									<g>
										<path class="st5" d="M70.4,33.1h-4v-4h4V33.1z M66.9,32.7H70v-3.1h-3.1V32.7z"/>
									</g>
								</g>
								<g>
									<g>
										
											<rect x="66" y="31" transform="matrix(0.7071 -0.7071 0.7071 0.7071 -1.9723 57.5764)" class="st5" width="5" height="0.4"/>
									</g>
								</g>
								<g>
									<g>
										
											<rect x="68.3" y="28.7" transform="matrix(0.7071 -0.7071 0.7071 0.7071 -1.9721 57.5762)" class="st5" width="0.4" height="5"/>
									</g>
								</g>
							</g>
							<g>
								<g>
									<g>
										<path class="st5" d="M66.9,33.1h-4v-4h4V33.1z M63.4,32.7h3.1v-3.1h-3.1V32.7z"/>
									</g>
								</g>
								<g>
									<g>
										
											<rect x="62.4" y="31" transform="matrix(0.7071 -0.7071 0.7071 0.7071 -3.0484 55.0526)" class="st5" width="5" height="0.4"/>
									</g>
								</g>
								<g>
									<g>
										
											<rect x="64.7" y="28.7" transform="matrix(0.7071 -0.7071 0.7071 0.7071 -3.0486 55.0527)" class="st5" width="0.4" height="5"/>
									</g>
								</g>
							</g>
							<g>
								<g>
									<g>
										<path class="st5" d="M63.4,33.1h-4v-4h4V33.1z M59.8,32.7h3.1v-3.1h-3.1V32.7z"/>
									</g>
								</g>
								<g>
									<g>
										<path class="st5" d="M59.6,33.1h-3.5c-0.1,0-0.2,0-0.2-0.1s0-0.2,0-0.2l3.5-3.5l0.3,0.3l-3.2,3.2h3l3.5-3.5l0.3,0.3
											l-3.5,3.5C59.7,33.1,59.7,33.1,59.6,33.1z"/>
									</g>
								</g>
								<g>
									<g>
										
											<rect x="61.2" y="28.7" transform="matrix(0.7071 -0.7071 0.7071 0.7071 -4.0538 52.558)" class="st5" width="0.4" height="5"/>
									</g>
								</g>
							</g>
						</g>
					</g>
					<g>
						<g>
							<g>
								<path class="st5" d="M74.1,65.5H70v-4h4.1V65.5z M70.4,65.1h3.2V62h-3.2V65.1z"/>
							</g>
						</g>
						<g>
							<g>
								<polygon class="st5" points="73.7,65.5 70.1,61.9 70.4,61.6 74,65.2 								"/>
							</g>
						</g>
						<g>
							<g>
								<polygon class="st5" points="70.4,65.5 70.1,65.2 73.7,61.6 74,61.9 								"/>
							</g>
						</g>
					</g>
					<g>
						<g>
							<g>
								<path class="st5" d="M74.1,79.7H70v-4h4.1V79.7z M70.4,79.3h3.2v-3.1h-3.2V79.3z"/>
							</g>
						</g>
						<g>
							<g>
								<polygon class="st5" points="73.7,79.7 70.1,76.1 70.4,75.8 74,79.4 								"/>
							</g>
						</g>
						<g>
							<g>
								<polygon class="st5" points="70.4,79.7 70.1,79.4 73.7,75.8 74,76.1 								"/>
							</g>
						</g>
					</g>
				</g>
				<g>
					<g>
						<g>
							<path class="st5" d="M74.1,68.7H70v-4h4.1V68.7z M70.4,68.3h3.2v-3.1h-3.2V68.3z"/>
						</g>
					</g>
					<g>
						<g>
							<polygon class="st5" points="73.7,68.7 70.1,65.1 70.4,64.8 74,68.4 							"/>
						</g>
					</g>
					<g>
						<g>
							<polygon class="st5" points="70.4,68.7 70.1,68.4 73.7,64.8 74,65.1 							"/>
						</g>
					</g>
				</g>
				<g>
					<g>
						<g>
							<path class="st5" d="M74.1,72.3H70v-4h4.1V72.3z M70.4,71.9h3.2v-3.1h-3.2V71.9z"/>
						</g>
					</g>
					<g>
						<g>
							<polygon class="st5" points="73.7,72.2 70.1,68.7 70.4,68.4 74,71.9 							"/>
						</g>
					</g>
					<g>
						<g>
							<polygon class="st5" points="70.4,72.2 70.1,71.9 73.7,68.4 74,68.7 							"/>
						</g>
					</g>
				</g>
				<g>
					<g>
						<g>
							<path class="st5" d="M74.1,75.8H70v-4h4.1V75.8z M70.4,75.4h3.2v-3.1h-3.2V75.4z"/>
						</g>
					</g>
					<g>
						<g>
							<polygon class="st5" points="73.7,75.8 70.1,72.2 70.4,71.9 74,75.5 							"/>
						</g>
					</g>
					<g>
						<g>
							<polygon class="st5" points="70.4,75.8 70.1,75.5 73.7,71.9 74,72.2 							"/>
						</g>
					</g>
				</g>
			</g>
		</g>
	</g>
	<g>
		<path class="st3" d="M28.7,46.9"/>
		<g>
			<path class="st3" d="M28.7,47.2c0.4,0,0.4-0.7,0-0.7C28.3,46.5,28.3,47.2,28.7,47.2L28.7,47.2z"/>
		</g>
	</g>
	<g>
		<path class="st3" d="M65.2,39.9"/>
		<g>
			<path class="st3" d="M65.2,40.2c0.4,0,0.4-0.7,0-0.7C64.8,39.5,64.8,40.2,65.2,40.2L65.2,40.2z"/>
		</g>
	</g>
	<g>
		<path class="st3" d="M80.3,63.9L80.3,63.9"/>
		<g>
			<path class="st3" d="M80.3,64.2L80.3,64.2c0.3,0,0.4-0.2,0.4-0.3c0-0.2-0.1-0.3-0.3-0.3h-0.1c-0.2,0-0.3,0.2-0.3,0.3
				C80,64.1,80.1,64.2,80.3,64.2L80.3,64.2z"/>
		</g>
	</g>
	<g>
		<path class="st3" d="M15.4,68.8"/>
		<g>
			<path class="st3" d="M15.4,69.2c0.4,0,0.4-0.7,0-0.7S15,69.2,15.4,69.2L15.4,69.2z"/>
		</g>
	</g>
	<g>
		<path class="st3" d="M47.6,36.6"/>
		<g>
			<path class="st3" d="M47.6,36.9c0.4,0,0.4-0.7,0-0.7C47.1,36.2,47.1,36.9,47.6,36.9L47.6,36.9z"/>
		</g>
	</g>
</g>
</svg>
